<svg class="rich-terminal" viewBox="0 0 1397 879.5999999999999" xmlns="http://www.w3.org/2000/svg">
    <!-- Generated with Rich https://www.textualize.io -->
    <style>

    @font-face {
        font-family: "Fira Code";
        src: local("FiraCode-Regular"),
                url("https://cdnjs.cloudflare.com/ajax/libs/firacode/6.2.0/woff2/FiraCode-Regular.woff2") format("woff2"),
                url("https://cdnjs.cloudflare.com/ajax/libs/firacode/6.2.0/woff/FiraCode-Regular.woff") format("woff");
        font-style: normal;
        font-weight: 400;
    }
    @font-face {
        font-family: "Fira Code";
        src: local("FiraCode-Bold"),
                url("https://cdnjs.cloudflare.com/ajax/libs/firacode/6.2.0/woff2/FiraCode-Bold.woff2") format("woff2"),
                url("https://cdnjs.cloudflare.com/ajax/libs/firacode/6.2.0/woff/FiraCode-Bold.woff") format("woff");
        font-style: bold;
        font-weight: 700;
    }

    .terminal-1597978261-matrix {
        font-family: Fira Code, monospace;
        font-size: 20px;
        line-height: 24.4px;
        font-variant-east-asian: full-width;
    }

    .terminal-1597978261-title {
        font-size: 18px;
        font-weight: bold;
        font-family: arial;
    }

    .terminal-1597978261-r1 { fill: #c5c8c6 }
.terminal-1597978261-r2 { fill: #e0e0e0 }
.terminal-1597978261-r3 { fill: #94999c }
.terminal-1597978261-r4 { fill: #121212 }
.terminal-1597978261-r5 { fill: #ffffff;font-weight: bold }
.terminal-1597978261-r6 { fill: #000000 }
.terminal-1597978261-r7 { fill: #ffa62b;font-weight: bold }
.terminal-1597978261-r8 { fill: #495259 }
    </style>

    <defs>
    <clipPath id="terminal-1597978261-clip-terminal">
      <rect x="0" y="0" width="1377.6" height="828.5999999999999" />
    </clipPath>
    <clipPath id="terminal-1597978261-line-0">
    <rect x="0" y="1.5" width="1378.6" height="24.65"/>
            </clipPath>
<clipPath id="terminal-1597978261-line-1">
    <rect x="0" y="25.9" width="1378.6" height="24.65"/>
            </clipPath>
<clipPath id="terminal-1597978261-line-2">
    <rect x="0" y="50.3" width="1378.6" height="24.65"/>
            </clipPath>
<clipPath id="terminal-1597978261-line-3">
    <rect x="0" y="74.7" width="1378.6" height="24.65"/>
            </clipPath>
<clipPath id="terminal-1597978261-line-4">
    <rect x="0" y="99.1" width="1378.6" height="24.65"/>
            </clipPath>
<clipPath id="terminal-1597978261-line-5">
    <rect x="0" y="123.5" width="1378.6" height="24.65"/>
            </clipPath>
<clipPath id="terminal-1597978261-line-6">
    <rect x="0" y="147.9" width="1378.6" height="24.65"/>
            </clipPath>
<clipPath id="terminal-1597978261-line-7">
    <rect x="0" y="172.3" width="1378.6" height="24.65"/>
            </clipPath>
<clipPath id="terminal-1597978261-line-8">
    <rect x="0" y="196.7" width="1378.6" height="24.65"/>
            </clipPath>
<clipPath id="terminal-1597978261-line-9">
    <rect x="0" y="221.1" width="1378.6" height="24.65"/>
            </clipPath>
<clipPath id="terminal-1597978261-line-10">
    <rect x="0" y="245.5" width="1378.6" height="24.65"/>
            </clipPath>
<clipPath id="terminal-1597978261-line-11">
    <rect x="0" y="269.9" width="1378.6" height="24.65"/>
            </clipPath>
<clipPath id="terminal-1597978261-line-12">
    <rect x="0" y="294.3" width="1378.6" height="24.65"/>
            </clipPath>
<clipPath id="terminal-1597978261-line-13">
    <rect x="0" y="318.7" width="1378.6" height="24.65"/>
            </clipPath>
<clipPath id="terminal-1597978261-line-14">
    <rect x="0" y="343.1" width="1378.6" height="24.65"/>
            </clipPath>
<clipPath id="terminal-1597978261-line-15">
    <rect x="0" y="367.5" width="1378.6" height="24.65"/>
            </clipPath>
<clipPath id="terminal-1597978261-line-16">
    <rect x="0" y="391.9" width="1378.6" height="24.65"/>
            </clipPath>
<clipPath id="terminal-1597978261-line-17">
    <rect x="0" y="416.3" width="1378.6" height="24.65"/>
            </clipPath>
<clipPath id="terminal-1597978261-line-18">
    <rect x="0" y="440.7" width="1378.6" height="24.65"/>
            </clipPath>
<clipPath id="terminal-1597978261-line-19">
    <rect x="0" y="465.1" width="1378.6" height="24.65"/>
            </clipPath>
<clipPath id="terminal-1597978261-line-20">
    <rect x="0" y="489.5" width="1378.6" height="24.65"/>
            </clipPath>
<clipPath id="terminal-1597978261-line-21">
    <rect x="0" y="513.9" width="1378.6" height="24.65"/>
            </clipPath>
<clipPath id="terminal-1597978261-line-22">
    <rect x="0" y="538.3" width="1378.6" height="24.65"/>
            </clipPath>
<clipPath id="terminal-1597978261-line-23">
    <rect x="0" y="562.7" width="1378.6" height="24.65"/>
            </clipPath>
<clipPath id="terminal-1597978261-line-24">
    <rect x="0" y="587.1" width="1378.6" height="24.65"/>
            </clipPath>
<clipPath id="terminal-1597978261-line-25">
    <rect x="0" y="611.5" width="1378.6" height="24.65"/>
            </clipPath>
<clipPath id="terminal-1597978261-line-26">
    <rect x="0" y="635.9" width="1378.6" height="24.65"/>
            </clipPath>
<clipPath id="terminal-1597978261-line-27">
    <rect x="0" y="660.3" width="1378.6" height="24.65"/>
            </clipPath>
<clipPath id="terminal-1597978261-line-28">
    <rect x="0" y="684.7" width="1378.6" height="24.65"/>
            </clipPath>
<clipPath id="terminal-1597978261-line-29">
    <rect x="0" y="709.1" width="1378.6" height="24.65"/>
            </clipPath>
<clipPath id="terminal-1597978261-line-30">
    <rect x="0" y="733.5" width="1378.6" height="24.65"/>
            </clipPath>
<clipPath id="terminal-1597978261-line-31">
    <rect x="0" y="757.9" width="1378.6" height="24.65"/>
            </clipPath>
<clipPath id="terminal-1597978261-line-32">
    <rect x="0" y="782.3" width="1378.6" height="24.65"/>
            </clipPath>
    </defs>

    <rect fill="#292929" stroke="rgba(255,255,255,0.35)" stroke-width="1" x="1" y="1" width="1395" height="877.6" rx="8"/><text class="terminal-1597978261-title" fill="#c5c8c6" text-anchor="middle" x="697" y="27">Iolanta</text>
            <g transform="translate(26,22)">
            <circle cx="0" cy="0" r="7" fill="#ff5f57"/>
            <circle cx="22" cy="0" r="7" fill="#febc2e"/>
            <circle cx="44" cy="0" r="7" fill="#28c840"/>
            </g>
        
    <g transform="translate(9, 41)" clip-path="url(#terminal-1597978261-clip-terminal)">
    <rect fill="#242f38" x="0" y="1.5" width="12.2" height="24.65" shape-rendering="crispEdges"/><rect fill="#242f38" x="12.2" y="1.5" width="12.2" height="24.65" shape-rendering="crispEdges"/><rect fill="#242f38" x="24.4" y="1.5" width="61" height="24.65" shape-rendering="crispEdges"/><rect fill="#242f38" x="85.4" y="1.5" width="12.2" height="24.65" shape-rendering="crispEdges"/><rect fill="#242f38" x="97.6" y="1.5" width="427" height="24.65" shape-rendering="crispEdges"/><rect fill="#242f38" x="524.6" y="1.5" width="122" height="24.65" shape-rendering="crispEdges"/><rect fill="#242f38" x="646.6" y="1.5" width="183" height="24.65" shape-rendering="crispEdges"/><rect fill="#242f38" x="829.6" y="1.5" width="427" height="24.65" shape-rendering="crispEdges"/><rect fill="#242f38" x="1256.6" y="1.5" width="12.2" height="24.65" shape-rendering="crispEdges"/><rect fill="#242f38" x="1268.8" y="1.5" width="0" height="24.65" shape-rendering="crispEdges"/><rect fill="#242f38" x="1268.8" y="1.5" width="97.6" height="24.65" shape-rendering="crispEdges"/><rect fill="#242f38" x="1366.4" y="1.5" width="12.2" height="24.65" shape-rendering="crispEdges"/><rect fill="#483d8b" x="0" y="25.9" width="1354.2" height="24.65" shape-rendering="crispEdges"/><rect fill="#003054" x="1354.2" y="25.9" width="24.4" height="24.65" shape-rendering="crispEdges"/><rect fill="#483d8b" x="0" y="50.3" width="12.2" height="24.65" shape-rendering="crispEdges"/><rect fill="#483d8b" x="12.2" y="50.3" width="341.6" height="24.65" shape-rendering="crispEdges"/><rect fill="#483d8b" x="353.8" y="50.3" width="988.2" height="24.65" shape-rendering="crispEdges"/><rect fill="#483d8b" x="1342" y="50.3" width="12.2" height="24.65" shape-rendering="crispEdges"/><rect fill="#003054" x="1354.2" y="50.3" width="24.4" height="24.65" shape-rendering="crispEdges"/><rect fill="#483d8b" x="0" y="74.7" width="1354.2" height="24.65" shape-rendering="crispEdges"/><rect fill="#003054" x="1354.2" y="74.7" width="24.4" height="24.65" shape-rendering="crispEdges"/><rect fill="#121212" x="0" y="99.1" width="1354.2" height="24.65" shape-rendering="crispEdges"/><rect fill="#003054" x="1354.2" y="99.1" width="24.4" height="24.65" shape-rendering="crispEdges"/><rect fill="#121212" x="0" y="123.5" width="24.4" height="24.65" shape-rendering="crispEdges"/><rect fill="#8b0000" x="24.4" y="123.5" width="488" height="24.65" shape-rendering="crispEdges"/><rect fill="#00008b" x="512.4" y="123.5" width="500.2" height="24.65" shape-rendering="crispEdges"/><rect fill="#121212" x="1012.6" y="123.5" width="317.2" height="24.65" shape-rendering="crispEdges"/><rect fill="#121212" x="1329.8" y="123.5" width="24.4" height="24.65" shape-rendering="crispEdges"/><rect fill="#003054" x="1354.2" y="123.5" width="24.4" height="24.65" shape-rendering="crispEdges"/><rect fill="#121212" x="0" y="147.9" width="24.4" height="24.65" shape-rendering="crispEdges"/><rect fill="#8b0000" x="24.4" y="147.9" width="24.4" height="24.65" shape-rendering="crispEdges"/><rect fill="#8b0000" x="48.8" y="147.9" width="439.2" height="24.65" shape-rendering="crispEdges"/><rect fill="#8b0000" x="488" y="147.9" width="24.4" height="24.65" shape-rendering="crispEdges"/><rect fill="#00008b" x="512.4" y="147.9" width="24.4" height="24.65" shape-rendering="crispEdges"/><rect fill="#00008b" x="536.8" y="147.9" width="451.4" height="24.65" shape-rendering="crispEdges"/><rect fill="#00008b" x="988.2" y="147.9" width="24.4" height="24.65" shape-rendering="crispEdges"/><rect fill="#121212" x="1012.6" y="147.9" width="24.4" height="24.65" shape-rendering="crispEdges"/><rect fill="#121212" x="1037" y="147.9" width="292.8" height="24.65" shape-rendering="crispEdges"/><rect fill="#121212" x="1329.8" y="147.9" width="24.4" height="24.65" shape-rendering="crispEdges"/><rect fill="#003054" x="1354.2" y="147.9" width="24.4" height="24.65" shape-rendering="crispEdges"/><rect fill="#121212" x="0" y="172.3" width="24.4" height="24.65" shape-rendering="crispEdges"/><rect fill="#8b0000" x="24.4" y="172.3" width="488" height="24.65" shape-rendering="crispEdges"/><rect fill="#00008b" x="512.4" y="172.3" width="500.2" height="24.65" shape-rendering="crispEdges"/><rect fill="#121212" x="1012.6" y="172.3" width="317.2" height="24.65" shape-rendering="crispEdges"/><rect fill="#121212" x="1329.8" y="172.3" width="24.4" height="24.65" shape-rendering="crispEdges"/><rect fill="#003054" x="1354.2" y="172.3" width="24.4" height="24.65" shape-rendering="crispEdges"/><rect fill="#121212" x="0" y="196.7" width="24.4" height="24.65" shape-rendering="crispEdges"/><rect fill="#121212" x="24.4" y="196.7" width="1305.4" height="24.65" shape-rendering="crispEdges"/><rect fill="#121212" x="1329.8" y="196.7" width="24.4" height="24.65" shape-rendering="crispEdges"/><rect fill="#003054" x="1354.2" y="196.7" width="24.4" height="24.65" shape-rendering="crispEdges"/><rect fill="#121212" x="0" y="221.1" width="24.4" height="24.65" shape-rendering="crispEdges"/><rect fill="#ff8c00" x="24.4" y="221.1" width="439.2" height="24.65" shape-rendering="crispEdges"/><rect fill="#00008b" x="463.6" y="221.1" width="500.2" height="24.65" shape-rendering="crispEdges"/><rect fill="#121212" x="963.8" y="221.1" width="366" height="24.65" shape-rendering="crispEdges"/><rect fill="#121212" x="1329.8" y="221.1" width="24.4" height="24.65" shape-rendering="crispEdges"/><rect fill="#003054" x="1354.2" y="221.1" width="24.4" height="24.65" shape-rendering="crispEdges"/><rect fill="#121212" x="0" y="245.5" width="24.4" height="24.65" shape-rendering="crispEdges"/><rect fill="#ff8c00" x="24.4" y="245.5" width="24.4" height="24.65" shape-rendering="crispEdges"/><rect fill="#ff8c00" x="48.8" y="245.5" width="390.4" height="24.65" shape-rendering="crispEdges"/><rect fill="#ff8c00" x="439.2" y="245.5" width="24.4" height="24.65" shape-rendering="crispEdges"/><rect fill="#00008b" x="463.6" y="245.5" width="24.4" height="24.65" shape-rendering="crispEdges"/><rect fill="#00008b" x="488" y="245.5" width="451.4" height="24.65" shape-rendering="crispEdges"/><rect fill="#00008b" x="939.4" y="245.5" width="24.4" height="24.65" shape-rendering="crispEdges"/><rect fill="#121212" x="963.8" y="245.5" width="24.4" height="24.65" shape-rendering="crispEdges"/><rect fill="#121212" x="988.2" y="245.5" width="317.2" height="24.65" shape-rendering="crispEdges"/><rect fill="#121212" x="1305.4" y="245.5" width="24.4" height="24.65" shape-rendering="crispEdges"/><rect fill="#121212" x="1329.8" y="245.5" width="24.4" height="24.65" shape-rendering="crispEdges"/><rect fill="#003054" x="1354.2" y="245.5" width="24.4" height="24.65" shape-rendering="crispEdges"/><rect fill="#121212" x="0" y="269.9" width="24.4" height="24.65" shape-rendering="crispEdges"/><rect fill="#ff8c00" x="24.4" y="269.9" width="439.2" height="24.65" shape-rendering="crispEdges"/><rect fill="#00008b" x="463.6" y="269.9" width="500.2" height="24.65" shape-rendering="crispEdges"/><rect fill="#121212" x="963.8" y="269.9" width="366" height="24.65" shape-rendering="crispEdges"/><rect fill="#121212" x="1329.8" y="269.9" width="24.4" height="24.65" shape-rendering="crispEdges"/><rect fill="#003054" x="1354.2" y="269.9" width="24.4" height="24.65" shape-rendering="crispEdges"/><rect fill="#121212" x="0" y="294.3" width="24.4" height="24.65" shape-rendering="crispEdges"/><rect fill="#121212" x="24.4" y="294.3" width="1305.4" height="24.65" shape-rendering="crispEdges"/><rect fill="#121212" x="1329.8" y="294.3" width="24.4" height="24.65" shape-rendering="crispEdges"/><rect fill="#003054" x="1354.2" y="294.3" width="24.4" height="24.65" shape-rendering="crispEdges"/><rect fill="#121212" x="0" y="318.7" width="24.4" height="24.65" shape-rendering="crispEdges"/><rect fill="#008b8b" x="24.4" y="318.7" width="207.4" height="24.65" shape-rendering="crispEdges"/><rect fill="#00008b" x="231.8" y="318.7" width="500.2" height="24.65" shape-rendering="crispEdges"/><rect fill="#121212" x="732" y="318.7" width="366" height="24.65" shape-rendering="crispEdges"/><rect fill="#121212" x="1098" y="318.7" width="231.8" height="24.65" shape-rendering="crispEdges"/><rect fill="#121212" x="1329.8" y="318.7" width="24.4" height="24.65" shape-rendering="crispEdges"/><rect fill="#003054" x="1354.2" y="318.7" width="24.4" height="24.65" shape-rendering="crispEdges"/><rect fill="#121212" x="0" y="343.1" width="24.4" height="24.65" shape-rendering="crispEdges"/><rect fill="#008b8b" x="24.4" y="343.1" width="24.4" height="24.65" shape-rendering="crispEdges"/><rect fill="#008b8b" x="48.8" y="343.1" width="158.6" height="24.65" shape-rendering="crispEdges"/><rect fill="#008b8b" x="207.4" y="343.1" width="24.4" height="24.65" shape-rendering="crispEdges"/><rect fill="#00008b" x="231.8" y="343.1" width="24.4" height="24.65" shape-rendering="crispEdges"/><rect fill="#00008b" x="256.2" y="343.1" width="451.4" height="24.65" shape-rendering="crispEdges"/><rect fill="#00008b" x="707.6" y="343.1" width="24.4" height="24.65" shape-rendering="crispEdges"/><rect fill="#121212" x="732" y="343.1" width="24.4" height="24.65" shape-rendering="crispEdges"/><rect fill="#121212" x="756.4" y="343.1" width="317.2" height="24.65" shape-rendering="crispEdges"/><rect fill="#121212" x="1073.6" y="343.1" width="24.4" height="24.65" shape-rendering="crispEdges"/><rect fill="#121212" x="1098" y="343.1" width="231.8" height="24.65" shape-rendering="crispEdges"/><rect fill="#121212" x="1329.8" y="343.1" width="24.4" height="24.65" shape-rendering="crispEdges"/><rect fill="#000000" x="1354.2" y="343.1" width="24.4" height="24.65" shape-rendering="crispEdges"/><rect fill="#121212" x="0" y="367.5" width="24.4" height="24.65" shape-rendering="crispEdges"/><rect fill="#008b8b" x="24.4" y="367.5" width="207.4" height="24.65" shape-rendering="crispEdges"/><rect fill="#00008b" x="231.8" y="367.5" width="500.2" height="24.65" shape-rendering="crispEdges"/><rect fill="#121212" x="732" y="367.5" width="366" height="24.65" shape-rendering="crispEdges"/><rect fill="#121212" x="1098" y="367.5" width="231.8" height="24.65" shape-rendering="crispEdges"/><rect fill="#121212" x="1329.8" y="367.5" width="24.4" height="24.65" shape-rendering="crispEdges"/><rect fill="#000000" x="1354.2" y="367.5" width="24.4" height="24.65" shape-rendering="crispEdges"/><rect fill="#121212" x="0" y="391.9" width="24.4" height="24.65" shape-rendering="crispEdges"/><rect fill="#121212" x="24.4" y="391.9" width="1305.4" height="24.65" shape-rendering="crispEdges"/><rect fill="#121212" x="1329.8" y="391.9" width="24.4" height="24.65" shape-rendering="crispEdges"/><rect fill="#000000" x="1354.2" y="391.9" width="24.4" height="24.65" shape-rendering="crispEdges"/><rect fill="#121212" x="0" y="416.3" width="24.4" height="24.65" shape-rendering="crispEdges"/><rect fill="#b8860b" x="24.4" y="416.3" width="366" height="24.65" shape-rendering="crispEdges"/><rect fill="#00008b" x="390.4" y="416.3" width="500.2" height="24.65" shape-rendering="crispEdges"/><rect fill="#121212" x="890.6" y="416.3" width="366" height="24.65" shape-rendering="crispEdges"/><rect fill="#121212" x="1256.6" y="416.3" width="73.2" height="24.65" shape-rendering="crispEdges"/><rect fill="#121212" x="1329.8" y="416.3" width="24.4" height="24.65" shape-rendering="crispEdges"/><rect fill="#000000" x="1354.2" y="416.3" width="24.4" height="24.65" shape-rendering="crispEdges"/><rect fill="#121212" x="0" y="440.7" width="24.4" height="24.65" shape-rendering="crispEdges"/><rect fill="#b8860b" x="24.4" y="440.7" width="24.4" height="24.65" shape-rendering="crispEdges"/><rect fill="#b8860b" x="48.8" y="440.7" width="317.2" height="24.65" shape-rendering="crispEdges"/><rect fill="#b8860b" x="366" y="440.7" width="24.4" height="24.65" shape-rendering="crispEdges"/><rect fill="#00008b" x="390.4" y="440.7" width="24.4" height="24.65" shape-rendering="crispEdges"/><rect fill="#00008b" x="414.8" y="440.7" width="451.4" height="24.65" shape-rendering="crispEdges"/><rect fill="#00008b" x="866.2" y="440.7" width="24.4" height="24.65" shape-rendering="crispEdges"/><rect fill="#121212" x="890.6" y="440.7" width="24.4" height="24.65" shape-rendering="crispEdges"/><rect fill="#121212" x="915" y="440.7" width="317.2" height="24.65" shape-rendering="crispEdges"/><rect fill="#121212" x="1232.2" y="440.7" width="24.4" height="24.65" shape-rendering="crispEdges"/><rect fill="#121212" x="1256.6" y="440.7" width="73.2" height="24.65" shape-rendering="crispEdges"/><rect fill="#121212" x="1329.8" y="440.7" width="24.4" height="24.65" shape-rendering="crispEdges"/><rect fill="#000000" x="1354.2" y="440.7" width="24.4" height="24.65" shape-rendering="crispEdges"/><rect fill="#121212" x="0" y="465.1" width="24.4" height="24.65" shape-rendering="crispEdges"/><rect fill="#b8860b" x="24.4" y="465.1" width="366" height="24.65" shape-rendering="crispEdges"/><rect fill="#00008b" x="390.4" y="465.1" width="500.2" height="24.65" shape-rendering="crispEdges"/><rect fill="#121212" x="890.6" y="465.1" width="366" height="24.65" shape-rendering="crispEdges"/><rect fill="#121212" x="1256.6" y="465.1" width="73.2" height="24.65" shape-rendering="crispEdges"/><rect fill="#121212" x="1329.8" y="465.1" width="24.4" height="24.65" shape-rendering="crispEdges"/><rect fill="#000000" x="1354.2" y="465.1" width="24.4" height="24.65" shape-rendering="crispEdges"/><rect fill="#121212" x="0" y="489.5" width="24.4" height="24.65" shape-rendering="crispEdges"/><rect fill="#121212" x="24.4" y="489.5" width="1305.4" height="24.65" shape-rendering="crispEdges"/><rect fill="#121212" x="1329.8" y="489.5" width="24.4" height="24.65" shape-rendering="crispEdges"/><rect fill="#000000" x="1354.2" y="489.5" width="24.4" height="24.65" shape-rendering="crispEdges"/><rect fill="#121212" x="0" y="513.9" width="24.4" height="24.65" shape-rendering="crispEdges"/><rect fill="#006400" x="24.4" y="513.9" width="378.2" height="24.65" shape-rendering="crispEdges"/><rect fill="#00008b" x="402.6" y="513.9" width="500.2" height="24.65" shape-rendering="crispEdges"/><rect fill="#121212" x="902.8" y="513.9" width="366" height="24.65" shape-rendering="crispEdges"/><rect fill="#121212" x="1268.8" y="513.9" width="61" height="24.65" shape-rendering="crispEdges"/><rect fill="#121212" x="1329.8" y="513.9" width="24.4" height="24.65" shape-rendering="crispEdges"/><rect fill="#000000" x="1354.2" y="513.9" width="24.4" height="24.65" shape-rendering="crispEdges"/><rect fill="#121212" x="0" y="538.3" width="24.4" height="24.65" shape-rendering="crispEdges"/><rect fill="#006400" x="24.4" y="538.3" width="24.4" height="24.65" shape-rendering="crispEdges"/><rect fill="#006400" x="48.8" y="538.3" width="329.4" height="24.65" shape-rendering="crispEdges"/><rect fill="#006400" x="378.2" y="538.3" width="24.4" height="24.65" shape-rendering="crispEdges"/><rect fill="#00008b" x="402.6" y="538.3" width="24.4" height="24.65" shape-rendering="crispEdges"/><rect fill="#00008b" x="427" y="538.3" width="451.4" height="24.65" shape-rendering="crispEdges"/><rect fill="#00008b" x="878.4" y="538.3" width="24.4" height="24.65" shape-rendering="crispEdges"/><rect fill="#121212" x="902.8" y="538.3" width="24.4" height="24.65" shape-rendering="crispEdges"/><rect fill="#121212" x="927.2" y="538.3" width="317.2" height="24.65" shape-rendering="crispEdges"/><rect fill="#121212" x="1244.4" y="538.3" width="24.4" height="24.65" shape-rendering="crispEdges"/><rect fill="#121212" x="1268.8" y="538.3" width="61" height="24.65" shape-rendering="crispEdges"/><rect fill="#121212" x="1329.8" y="538.3" width="24.4" height="24.65" shape-rendering="crispEdges"/><rect fill="#000000" x="1354.2" y="538.3" width="24.4" height="24.65" shape-rendering="crispEdges"/><rect fill="#121212" x="0" y="562.7" width="24.4" height="24.65" shape-rendering="crispEdges"/><rect fill="#006400" x="24.4" y="562.7" width="378.2" height="24.65" shape-rendering="crispEdges"/><rect fill="#00008b" x="402.6" y="562.7" width="500.2" height="24.65" shape-rendering="crispEdges"/><rect fill="#121212" x="902.8" y="562.7" width="366" height="24.65" shape-rendering="crispEdges"/><rect fill="#121212" x="1268.8" y="562.7" width="61" height="24.65" shape-rendering="crispEdges"/><rect fill="#121212" x="1329.8" y="562.7" width="24.4" height="24.65" shape-rendering="crispEdges"/><rect fill="#000000" x="1354.2" y="562.7" width="24.4" height="24.65" shape-rendering="crispEdges"/><rect fill="#121212" x="0" y="587.1" width="24.4" height="24.65" shape-rendering="crispEdges"/><rect fill="#121212" x="24.4" y="587.1" width="1305.4" height="24.65" shape-rendering="crispEdges"/><rect fill="#121212" x="1329.8" y="587.1" width="24.4" height="24.65" shape-rendering="crispEdges"/><rect fill="#000000" x="1354.2" y="587.1" width="24.4" height="24.65" shape-rendering="crispEdges"/><rect fill="#121212" x="0" y="611.5" width="24.4" height="24.65" shape-rendering="crispEdges"/><rect fill="#bdb76b" x="24.4" y="611.5" width="463.6" height="24.65" shape-rendering="crispEdges"/><rect fill="#00008b" x="488" y="611.5" width="500.2" height="24.65" shape-rendering="crispEdges"/><rect fill="#121212" x="988.2" y="611.5" width="341.6" height="24.65" shape-rendering="crispEdges"/><rect fill="#121212" x="1329.8" y="611.5" width="24.4" height="24.65" shape-rendering="crispEdges"/><rect fill="#000000" x="1354.2" y="611.5" width="24.4" height="24.65" shape-rendering="crispEdges"/><rect fill="#121212" x="0" y="635.9" width="24.4" height="24.65" shape-rendering="crispEdges"/><rect fill="#bdb76b" x="24.4" y="635.9" width="24.4" height="24.65" shape-rendering="crispEdges"/><rect fill="#bdb76b" x="48.8" y="635.9" width="414.8" height="24.65" shape-rendering="crispEdges"/><rect fill="#bdb76b" x="463.6" y="635.9" width="24.4" height="24.65" shape-rendering="crispEdges"/><rect fill="#00008b" x="488" y="635.9" width="24.4" height="24.65" shape-rendering="crispEdges"/><rect fill="#00008b" x="512.4" y="635.9" width="451.4" height="24.65" shape-rendering="crispEdges"/><rect fill="#00008b" x="963.8" y="635.9" width="24.4" height="24.65" shape-rendering="crispEdges"/><rect fill="#121212" x="988.2" y="635.9" width="24.4" height="24.65" shape-rendering="crispEdges"/><rect fill="#121212" x="1012.6" y="635.9" width="317.2" height="24.65" shape-rendering="crispEdges"/><rect fill="#121212" x="1329.8" y="635.9" width="24.4" height="24.65" shape-rendering="crispEdges"/><rect fill="#000000" x="1354.2" y="635.9" width="24.4" height="24.65" shape-rendering="crispEdges"/><rect fill="#121212" x="0" y="660.3" width="24.4" height="24.65" shape-rendering="crispEdges"/><rect fill="#bdb76b" x="24.4" y="660.3" width="463.6" height="24.65" shape-rendering="crispEdges"/><rect fill="#00008b" x="488" y="660.3" width="500.2" height="24.65" shape-rendering="crispEdges"/><rect fill="#121212" x="988.2" y="660.3" width="341.6" height="24.65" shape-rendering="crispEdges"/><rect fill="#121212" x="1329.8" y="660.3" width="24.4" height="24.65" shape-rendering="crispEdges"/><rect fill="#000000" x="1354.2" y="660.3" width="24.4" height="24.65" shape-rendering="crispEdges"/><rect fill="#121212" x="0" y="684.7" width="24.4" height="24.65" shape-rendering="crispEdges"/><rect fill="#121212" x="24.4" y="684.7" width="1305.4" height="24.65" shape-rendering="crispEdges"/><rect fill="#121212" x="1329.8" y="684.7" width="24.4" height="24.65" shape-rendering="crispEdges"/><rect fill="#000000" x="1354.2" y="684.7" width="24.4" height="24.65" shape-rendering="crispEdges"/><rect fill="#121212" x="0" y="709.1" width="24.4" height="24.65" shape-rendering="crispEdges"/><rect fill="#8b008b" x="24.4" y="709.1" width="488" height="24.65" shape-rendering="crispEdges"/><rect fill="#00008b" x="512.4" y="709.1" width="500.2" height="24.65" shape-rendering="crispEdges"/><rect fill="#121212" x="1012.6" y="709.1" width="317.2" height="24.65" shape-rendering="crispEdges"/><rect fill="#121212" x="1329.8" y="709.1" width="24.4" height="24.65" shape-rendering="crispEdges"/><rect fill="#000000" x="1354.2" y="709.1" width="24.4" height="24.65" shape-rendering="crispEdges"/><rect fill="#121212" x="0" y="733.5" width="24.4" height="24.65" shape-rendering="crispEdges"/><rect fill="#8b008b" x="24.4" y="733.5" width="24.4" height="24.65" shape-rendering="crispEdges"/><rect fill="#8b008b" x="48.8" y="733.5" width="439.2" height="24.65" shape-rendering="crispEdges"/><rect fill="#8b008b" x="488" y="733.5" width="24.4" height="24.65" shape-rendering="crispEdges"/><rect fill="#00008b" x="512.4" y="733.5" width="24.4" height="24.65" shape-rendering="crispEdges"/><rect fill="#00008b" x="536.8" y="733.5" width="451.4" height="24.65" shape-rendering="crispEdges"/><rect fill="#00008b" x="988.2" y="733.5" width="24.4" height="24.65" shape-rendering="crispEdges"/><rect fill="#121212" x="1012.6" y="733.5" width="24.4" height="24.65" shape-rendering="crispEdges"/><rect fill="#121212" x="1037" y="733.5" width="292.8" height="24.65" shape-rendering="crispEdges"/><rect fill="#121212" x="1329.8" y="733.5" width="24.4" height="24.65" shape-rendering="crispEdges"/><rect fill="#000000" x="1354.2" y="733.5" width="24.4" height="24.65" shape-rendering="crispEdges"/><rect fill="#121212" x="0" y="757.9" width="24.4" height="24.65" shape-rendering="crispEdges"/><rect fill="#8b008b" x="24.4" y="757.9" width="488" height="24.65" shape-rendering="crispEdges"/><rect fill="#00008b" x="512.4" y="757.9" width="500.2" height="24.65" shape-rendering="crispEdges"/><rect fill="#121212" x="1012.6" y="757.9" width="317.2" height="24.65" shape-rendering="crispEdges"/><rect fill="#121212" x="1329.8" y="757.9" width="24.4" height="24.65" shape-rendering="crispEdges"/><rect fill="#000000" x="1354.2" y="757.9" width="24.4" height="24.65" shape-rendering="crispEdges"/><rect fill="#121212" x="0" y="782.3" width="24.4" height="24.65" shape-rendering="crispEdges"/><rect fill="#121212" x="24.4" y="782.3" width="1305.4" height="24.65" shape-rendering="crispEdges"/><rect fill="#121212" x="1329.8" y="782.3" width="24.4" height="24.65" shape-rendering="crispEdges"/><rect fill="#000000" x="1354.2" y="782.3" width="24.4" height="24.65" shape-rendering="crispEdges"/><rect fill="#242f38" x="0" y="806.7" width="48.8" height="24.65" shape-rendering="crispEdges"/><rect fill="#242f38" x="48.8" y="806.7" width="122" height="24.65" shape-rendering="crispEdges"/><rect fill="#242f38" x="170.8" y="806.7" width="61" height="24.65" shape-rendering="crispEdges"/><rect fill="#242f38" x="231.8" y="806.7" width="97.6" height="24.65" shape-rendering="crispEdges"/><rect fill="#242f38" x="329.4" y="806.7" width="36.6" height="24.65" shape-rendering="crispEdges"/><rect fill="#242f38" x="366" y="806.7" width="207.4" height="24.65" shape-rendering="crispEdges"/><rect fill="#242f38" x="573.4" y="806.7" width="36.6" height="24.65" shape-rendering="crispEdges"/><rect fill="#242f38" x="610" y="806.7" width="61" height="24.65" shape-rendering="crispEdges"/><rect fill="#242f38" x="671" y="806.7" width="561.2" height="24.65" shape-rendering="crispEdges"/><rect fill="#242f38" x="1232.2" y="806.7" width="12.2" height="24.65" shape-rendering="crispEdges"/><rect fill="#242f38" x="1244.4" y="806.7" width="24.4" height="24.65" shape-rendering="crispEdges"/><rect fill="#242f38" x="1268.8" y="806.7" width="97.6" height="24.65" shape-rendering="crispEdges"/><rect fill="#242f38" x="1366.4" y="806.7" width="12.2" height="24.65" shape-rendering="crispEdges"/>
    <g class="terminal-1597978261-matrix">
    <text class="terminal-1597978261-r2" x="12.2" y="20" textLength="24.4" clip-path="url(#terminal-1597978261-line-0)">👁️</text><text class="terminal-1597978261-r2" x="524.6" y="20" textLength="122" clip-path="url(#terminal-1597978261-line-0)">Iolanta&#160;—&#160;</text><text class="terminal-1597978261-r3" x="646.6" y="20" textLength="183" clip-path="url(#terminal-1597978261-line-0)">iolanta://_meta</text><text class="terminal-1597978261-r1" x="1378.6" y="20" textLength="12.2" clip-path="url(#terminal-1597978261-line-0)">
</text><text class="terminal-1597978261-r1" x="1378.6" y="44.4" textLength="12.2" clip-path="url(#terminal-1597978261-line-1)">
</text><text class="terminal-1597978261-r5" x="12.2" y="68.8" textLength="341.6" clip-path="url(#terminal-1597978261-line-2)">iolanta://_meta&#160;(19&#160;triples)</text><text class="terminal-1597978261-r1" x="1378.6" y="68.8" textLength="12.2" clip-path="url(#terminal-1597978261-line-2)">
</text><text class="terminal-1597978261-r1" x="1378.6" y="93.2" textLength="12.2" clip-path="url(#terminal-1597978261-line-3)">
</text><text class="terminal-1597978261-r1" x="1378.6" y="117.6" textLength="12.2" clip-path="url(#terminal-1597978261-line-4)">
</text><text class="terminal-1597978261-r1" x="1378.6" y="142" textLength="12.2" clip-path="url(#terminal-1597978261-line-5)">
</text><text class="terminal-1597978261-r2" x="48.8" y="166.4" textLength="439.2" clip-path="url(#terminal-1597978261-line-6)">https://iolanta.tech/cli/interactive</text><text class="terminal-1597978261-r2" x="536.8" y="166.4" textLength="451.4" clip-path="url(#terminal-1597978261-line-6)">https://iolanta.tech/last-loaded-time</text><text class="terminal-1597978261-r2" x="1037" y="166.4" textLength="292.8" clip-path="url(#terminal-1597978261-line-6)">2025-11-17T22:22:24.2087</text><text class="terminal-1597978261-r1" x="1378.6" y="166.4" textLength="12.2" clip-path="url(#terminal-1597978261-line-6)">
</text><text class="terminal-1597978261-r1" x="1378.6" y="190.8" textLength="12.2" clip-path="url(#terminal-1597978261-line-7)">
</text><text class="terminal-1597978261-r1" x="1378.6" y="215.2" textLength="12.2" clip-path="url(#terminal-1597978261-line-8)">
</text><text class="terminal-1597978261-r1" x="1378.6" y="239.6" textLength="12.2" clip-path="url(#terminal-1597978261-line-9)">
</text><text class="terminal-1597978261-r2" x="48.8" y="264" textLength="390.4" clip-path="url(#terminal-1597978261-line-10)">https://iolanta.tech/cli/textual</text><text class="terminal-1597978261-r2" x="488" y="264" textLength="451.4" clip-path="url(#terminal-1597978261-line-10)">https://iolanta.tech/last-loaded-time</text><text class="terminal-1597978261-r2" x="988.2" y="264" textLength="317.2" clip-path="url(#terminal-1597978261-line-10)">2025-11-17T22:22:24.632235</text><text class="terminal-1597978261-r1" x="1378.6" y="264" textLength="12.2" clip-path="url(#terminal-1597978261-line-10)">
</text><text class="terminal-1597978261-r1" x="1378.6" y="288.4" textLength="12.2" clip-path="url(#terminal-1597978261-line-11)">
</text><text class="terminal-1597978261-r1" x="1378.6" y="312.8" textLength="12.2" clip-path="url(#terminal-1597978261-line-12)">
</text><text class="terminal-1597978261-r6" x="1354.2" y="337.2" textLength="24.4" clip-path="url(#terminal-1597978261-line-13)">▇▇</text><text class="terminal-1597978261-r1" x="1378.6" y="337.2" textLength="12.2" clip-path="url(#terminal-1597978261-line-13)">
</text><text class="terminal-1597978261-r2" x="48.8" y="361.6" textLength="158.6" clip-path="url(#terminal-1597978261-line-14)">Graph&#160;Triples</text><text class="terminal-1597978261-r2" x="256.2" y="361.6" textLength="451.4" clip-path="url(#terminal-1597978261-line-14)">https://iolanta.tech/last-loaded-time</text><text class="terminal-1597978261-r2" x="756.4" y="361.6" textLength="317.2" clip-path="url(#terminal-1597978261-line-14)">2025-11-17T22:22:25.232126</text><text class="terminal-1597978261-r1" x="1378.6" y="361.6" textLength="12.2" clip-path="url(#terminal-1597978261-line-14)">
</text><text class="terminal-1597978261-r1" x="1378.6" y="386" textLength="12.2" clip-path="url(#terminal-1597978261-line-15)">
</text><text class="terminal-1597978261-r1" x="1378.6" y="410.4" textLength="12.2" clip-path="url(#terminal-1597978261-line-16)">
</text><text class="terminal-1597978261-r1" x="1378.6" y="434.8" textLength="12.2" clip-path="url(#terminal-1597978261-line-17)">
</text><text class="terminal-1597978261-r2" x="48.8" y="459.2" textLength="317.2" clip-path="url(#terminal-1597978261-line-18)">https://iolanta.tech/facet</text><text class="terminal-1597978261-r2" x="414.8" y="459.2" textLength="451.4" clip-path="url(#terminal-1597978261-line-18)">https://iolanta.tech/last-loaded-time</text><text class="terminal-1597978261-r2" x="915" y="459.2" textLength="317.2" clip-path="url(#terminal-1597978261-line-18)">2025-11-17T22:22:24.291882</text><text class="terminal-1597978261-r1" x="1378.6" y="459.2" textLength="12.2" clip-path="url(#terminal-1597978261-line-18)">
</text><text class="terminal-1597978261-r1" x="1378.6" y="483.6" textLength="12.2" clip-path="url(#terminal-1597978261-line-19)">
</text><text class="terminal-1597978261-r1" x="1378.6" y="508" textLength="12.2" clip-path="url(#terminal-1597978261-line-20)">
</text><text class="terminal-1597978261-r1" x="1378.6" y="532.4" textLength="12.2" clip-path="url(#terminal-1597978261-line-21)">
</text><text class="terminal-1597978261-r2" x="48.8" y="556.8" textLength="329.4" clip-path="url(#terminal-1597978261-line-22)">https://iolanta.tech/failed</text><text class="terminal-1597978261-r2" x="427" y="556.8" textLength="451.4" clip-path="url(#terminal-1597978261-line-22)">https://iolanta.tech/last-loaded-time</text><text class="terminal-1597978261-r2" x="927.2" y="556.8" textLength="317.2" clip-path="url(#terminal-1597978261-line-22)">2025-11-17T22:22:24.394221</text><text class="terminal-1597978261-r1" x="1378.6" y="556.8" textLength="12.2" clip-path="url(#terminal-1597978261-line-22)">
</text><text class="terminal-1597978261-r1" x="1378.6" y="581.2" textLength="12.2" clip-path="url(#terminal-1597978261-line-23)">
</text><text class="terminal-1597978261-r1" x="1378.6" y="605.6" textLength="12.2" clip-path="url(#terminal-1597978261-line-24)">
</text><text class="terminal-1597978261-r1" x="1378.6" y="630" textLength="12.2" clip-path="url(#terminal-1597978261-line-25)">
</text><text class="terminal-1597978261-r2" x="48.8" y="654.4" textLength="414.8" clip-path="url(#terminal-1597978261-line-26)">https://iolanta.tech/has-sub-graph</text><text class="terminal-1597978261-r2" x="512.4" y="654.4" textLength="451.4" clip-path="url(#terminal-1597978261-line-26)">https://iolanta.tech/last-loaded-time</text><text class="terminal-1597978261-r2" x="1012.6" y="654.4" textLength="317.2" clip-path="url(#terminal-1597978261-line-26)">2025-11-17T22:22:25.114097</text><text class="terminal-1597978261-r1" x="1378.6" y="654.4" textLength="12.2" clip-path="url(#terminal-1597978261-line-26)">
</text><text class="terminal-1597978261-r1" x="1378.6" y="678.8" textLength="12.2" clip-path="url(#terminal-1597978261-line-27)">
</text><text class="terminal-1597978261-r1" x="1378.6" y="703.2" textLength="12.2" clip-path="url(#terminal-1597978261-line-28)">
</text><text class="terminal-1597978261-r1" x="1378.6" y="727.6" textLength="12.2" clip-path="url(#terminal-1597978261-line-29)">
</text><text class="terminal-1597978261-r2" x="48.8" y="752" textLength="439.2" clip-path="url(#terminal-1597978261-line-30)">https://iolanta.tech/hasDefaultFacet</text><text class="terminal-1597978261-r2" x="536.8" y="752" textLength="451.4" clip-path="url(#terminal-1597978261-line-30)">https://iolanta.tech/last-loaded-time</text><text class="terminal-1597978261-r2" x="1037" y="752" textLength="292.8" clip-path="url(#terminal-1597978261-line-30)">2025-11-17T22:22:24.4832</text><text class="terminal-1597978261-r1" x="1378.6" y="752" textLength="12.2" clip-path="url(#terminal-1597978261-line-30)">
</text><text class="terminal-1597978261-r1" x="1378.6" y="776.4" textLength="12.2" clip-path="url(#terminal-1597978261-line-31)">
</text><text class="terminal-1597978261-r1" x="1378.6" y="800.8" textLength="12.2" clip-path="url(#terminal-1597978261-line-32)">
</text><text class="terminal-1597978261-r7" x="0" y="825.2" textLength="48.8" clip-path="url(#terminal-1597978261-line-33)">&#160;f5&#160;</text><text class="terminal-1597978261-r2" x="48.8" y="825.2" textLength="109.8" clip-path="url(#terminal-1597978261-line-33)">🔄&#160;Reload&#160;</text><text class="terminal-1597978261-r7" x="170.8" y="825.2" textLength="61" clip-path="url(#terminal-1597978261-line-33)">&#160;f12&#160;</text><text class="terminal-1597978261-r2" x="231.8" y="825.2" textLength="97.6" clip-path="url(#terminal-1597978261-line-33)">Console&#160;</text><text class="terminal-1597978261-r7" x="329.4" y="825.2" textLength="36.6" clip-path="url(#terminal-1597978261-line-33)">&#160;t&#160;</text><text class="terminal-1597978261-r2" x="366" y="825.2" textLength="207.4" clip-path="url(#terminal-1597978261-line-33)">Toggle&#160;Dark&#160;Mode&#160;</text><text class="terminal-1597978261-r7" x="573.4" y="825.2" textLength="36.6" clip-path="url(#terminal-1597978261-line-33)">&#160;q&#160;</text><text class="terminal-1597978261-r2" x="610" y="825.2" textLength="61" clip-path="url(#terminal-1597978261-line-33)">Quit&#160;</text><text class="terminal-1597978261-r8" x="1232.2" y="825.2" textLength="12.2" clip-path="url(#terminal-1597978261-line-33)">▏</text><text class="terminal-1597978261-r7" x="1244.4" y="825.2" textLength="24.4" clip-path="url(#terminal-1597978261-line-33)">^p</text><text class="terminal-1597978261-r2" x="1268.8" y="825.2" textLength="97.6" clip-path="url(#terminal-1597978261-line-33)">&#160;palette</text>
    </g>
    </g>
</svg>
