<svg class="rich-terminal" viewBox="0 0 1397 879.5999999999999" xmlns="http://www.w3.org/2000/svg">
    <!-- Generated with Rich https://www.textualize.io -->
    <style>

    @font-face {
        font-family: "Fira Code";
        src: local("FiraCode-Regular"),
                url("https://cdnjs.cloudflare.com/ajax/libs/firacode/6.2.0/woff2/FiraCode-Regular.woff2") format("woff2"),
                url("https://cdnjs.cloudflare.com/ajax/libs/firacode/6.2.0/woff/FiraCode-Regular.woff") format("woff");
        font-style: normal;
        font-weight: 400;
    }
    @font-face {
        font-family: "Fira Code";
        src: local("FiraCode-Bold"),
                url("https://cdnjs.cloudflare.com/ajax/libs/firacode/6.2.0/woff2/FiraCode-Bold.woff2") format("woff2"),
                url("https://cdnjs.cloudflare.com/ajax/libs/firacode/6.2.0/woff/FiraCode-Bold.woff") format("woff");
        font-style: bold;
        font-weight: 700;
    }

    .terminal-1058685449-matrix {
        font-family: Fira Code, monospace;
        font-size: 20px;
        line-height: 24.4px;
        font-variant-east-asian: full-width;
    }

    .terminal-1058685449-title {
        font-size: 18px;
        font-weight: bold;
        font-family: arial;
    }

    .terminal-1058685449-r1 { fill: #c5c8c6 }
.terminal-1058685449-r2 { fill: #e0e0e0 }
.terminal-1058685449-r3 { fill: #94999c }
.terminal-1058685449-r4 { fill: #121212 }
.terminal-1058685449-r5 { fill: #ffffff;font-weight: bold }
.terminal-1058685449-r6 { fill: #000000 }
.terminal-1058685449-r7 { fill: #fea62b }
.terminal-1058685449-r8 { fill: #ffa62b;font-weight: bold }
.terminal-1058685449-r9 { fill: #495259 }
    </style>

    <defs>
    <clipPath id="terminal-1058685449-clip-terminal">
      <rect x="0" y="0" width="1377.6" height="828.5999999999999" />
    </clipPath>
    <clipPath id="terminal-1058685449-line-0">
    <rect x="0" y="1.5" width="1378.6" height="24.65"/>
            </clipPath>
<clipPath id="terminal-1058685449-line-1">
    <rect x="0" y="25.9" width="1378.6" height="24.65"/>
            </clipPath>
<clipPath id="terminal-1058685449-line-2">
    <rect x="0" y="50.3" width="1378.6" height="24.65"/>
            </clipPath>
<clipPath id="terminal-1058685449-line-3">
    <rect x="0" y="74.7" width="1378.6" height="24.65"/>
            </clipPath>
<clipPath id="terminal-1058685449-line-4">
    <rect x="0" y="99.1" width="1378.6" height="24.65"/>
            </clipPath>
<clipPath id="terminal-1058685449-line-5">
    <rect x="0" y="123.5" width="1378.6" height="24.65"/>
            </clipPath>
<clipPath id="terminal-1058685449-line-6">
    <rect x="0" y="147.9" width="1378.6" height="24.65"/>
            </clipPath>
<clipPath id="terminal-1058685449-line-7">
    <rect x="0" y="172.3" width="1378.6" height="24.65"/>
            </clipPath>
<clipPath id="terminal-1058685449-line-8">
    <rect x="0" y="196.7" width="1378.6" height="24.65"/>
            </clipPath>
<clipPath id="terminal-1058685449-line-9">
    <rect x="0" y="221.1" width="1378.6" height="24.65"/>
            </clipPath>
<clipPath id="terminal-1058685449-line-10">
    <rect x="0" y="245.5" width="1378.6" height="24.65"/>
            </clipPath>
<clipPath id="terminal-1058685449-line-11">
    <rect x="0" y="269.9" width="1378.6" height="24.65"/>
            </clipPath>
<clipPath id="terminal-1058685449-line-12">
    <rect x="0" y="294.3" width="1378.6" height="24.65"/>
            </clipPath>
<clipPath id="terminal-1058685449-line-13">
    <rect x="0" y="318.7" width="1378.6" height="24.65"/>
            </clipPath>
<clipPath id="terminal-1058685449-line-14">
    <rect x="0" y="343.1" width="1378.6" height="24.65"/>
            </clipPath>
<clipPath id="terminal-1058685449-line-15">
    <rect x="0" y="367.5" width="1378.6" height="24.65"/>
            </clipPath>
<clipPath id="terminal-1058685449-line-16">
    <rect x="0" y="391.9" width="1378.6" height="24.65"/>
            </clipPath>
<clipPath id="terminal-1058685449-line-17">
    <rect x="0" y="416.3" width="1378.6" height="24.65"/>
            </clipPath>
<clipPath id="terminal-1058685449-line-18">
    <rect x="0" y="440.7" width="1378.6" height="24.65"/>
            </clipPath>
<clipPath id="terminal-1058685449-line-19">
    <rect x="0" y="465.1" width="1378.6" height="24.65"/>
            </clipPath>
<clipPath id="terminal-1058685449-line-20">
    <rect x="0" y="489.5" width="1378.6" height="24.65"/>
            </clipPath>
<clipPath id="terminal-1058685449-line-21">
    <rect x="0" y="513.9" width="1378.6" height="24.65"/>
            </clipPath>
<clipPath id="terminal-1058685449-line-22">
    <rect x="0" y="538.3" width="1378.6" height="24.65"/>
            </clipPath>
<clipPath id="terminal-1058685449-line-23">
    <rect x="0" y="562.7" width="1378.6" height="24.65"/>
            </clipPath>
<clipPath id="terminal-1058685449-line-24">
    <rect x="0" y="587.1" width="1378.6" height="24.65"/>
            </clipPath>
<clipPath id="terminal-1058685449-line-25">
    <rect x="0" y="611.5" width="1378.6" height="24.65"/>
            </clipPath>
<clipPath id="terminal-1058685449-line-26">
    <rect x="0" y="635.9" width="1378.6" height="24.65"/>
            </clipPath>
<clipPath id="terminal-1058685449-line-27">
    <rect x="0" y="660.3" width="1378.6" height="24.65"/>
            </clipPath>
<clipPath id="terminal-1058685449-line-28">
    <rect x="0" y="684.7" width="1378.6" height="24.65"/>
            </clipPath>
<clipPath id="terminal-1058685449-line-29">
    <rect x="0" y="709.1" width="1378.6" height="24.65"/>
            </clipPath>
<clipPath id="terminal-1058685449-line-30">
    <rect x="0" y="733.5" width="1378.6" height="24.65"/>
            </clipPath>
<clipPath id="terminal-1058685449-line-31">
    <rect x="0" y="757.9" width="1378.6" height="24.65"/>
            </clipPath>
<clipPath id="terminal-1058685449-line-32">
    <rect x="0" y="782.3" width="1378.6" height="24.65"/>
            </clipPath>
    </defs>

    <rect fill="#292929" stroke="rgba(255,255,255,0.35)" stroke-width="1" x="1" y="1" width="1395" height="877.6" rx="8"/><text class="terminal-1058685449-title" fill="#c5c8c6" text-anchor="middle" x="697" y="27">Iolanta</text>
            <g transform="translate(26,22)">
            <circle cx="0" cy="0" r="7" fill="#ff5f57"/>
            <circle cx="22" cy="0" r="7" fill="#febc2e"/>
            <circle cx="44" cy="0" r="7" fill="#28c840"/>
            </g>
        
    <g transform="translate(9, 41)" clip-path="url(#terminal-1058685449-clip-terminal)">
    <rect fill="#242f38" x="0" y="1.5" width="12.2" height="24.65" shape-rendering="crispEdges"/><rect fill="#242f38" x="12.2" y="1.5" width="12.2" height="24.65" shape-rendering="crispEdges"/><rect fill="#242f38" x="24.4" y="1.5" width="61" height="24.65" shape-rendering="crispEdges"/><rect fill="#242f38" x="85.4" y="1.5" width="12.2" height="24.65" shape-rendering="crispEdges"/><rect fill="#242f38" x="97.6" y="1.5" width="292.8" height="24.65" shape-rendering="crispEdges"/><rect fill="#242f38" x="390.4" y="1.5" width="122" height="24.65" shape-rendering="crispEdges"/><rect fill="#242f38" x="512.4" y="1.5" width="451.4" height="24.65" shape-rendering="crispEdges"/><rect fill="#242f38" x="963.8" y="1.5" width="292.8" height="24.65" shape-rendering="crispEdges"/><rect fill="#242f38" x="1256.6" y="1.5" width="12.2" height="24.65" shape-rendering="crispEdges"/><rect fill="#242f38" x="1268.8" y="1.5" width="0" height="24.65" shape-rendering="crispEdges"/><rect fill="#242f38" x="1268.8" y="1.5" width="97.6" height="24.65" shape-rendering="crispEdges"/><rect fill="#242f38" x="1366.4" y="1.5" width="12.2" height="24.65" shape-rendering="crispEdges"/><rect fill="#483d8b" x="0" y="25.9" width="1354.2" height="24.65" shape-rendering="crispEdges"/><rect fill="#003054" x="1354.2" y="25.9" width="24.4" height="24.65" shape-rendering="crispEdges"/><rect fill="#483d8b" x="0" y="50.3" width="12.2" height="24.65" shape-rendering="crispEdges"/><rect fill="#483d8b" x="12.2" y="50.3" width="610" height="24.65" shape-rendering="crispEdges"/><rect fill="#483d8b" x="622.2" y="50.3" width="719.8" height="24.65" shape-rendering="crispEdges"/><rect fill="#483d8b" x="1342" y="50.3" width="12.2" height="24.65" shape-rendering="crispEdges"/><rect fill="#003054" x="1354.2" y="50.3" width="24.4" height="24.65" shape-rendering="crispEdges"/><rect fill="#483d8b" x="0" y="74.7" width="1354.2" height="24.65" shape-rendering="crispEdges"/><rect fill="#003054" x="1354.2" y="74.7" width="24.4" height="24.65" shape-rendering="crispEdges"/><rect fill="#121212" x="0" y="99.1" width="1354.2" height="24.65" shape-rendering="crispEdges"/><rect fill="#003054" x="1354.2" y="99.1" width="24.4" height="24.65" shape-rendering="crispEdges"/><rect fill="#121212" x="0" y="123.5" width="24.4" height="24.65" shape-rendering="crispEdges"/><rect fill="#8b0000" x="24.4" y="123.5" width="500.2" height="24.65" shape-rendering="crispEdges"/><rect fill="#00008b" x="524.6" y="123.5" width="390.4" height="24.65" shape-rendering="crispEdges"/><rect fill="#121212" x="915" y="123.5" width="85.4" height="24.65" shape-rendering="crispEdges"/><rect fill="#121212" x="1000.4" y="123.5" width="329.4" height="24.65" shape-rendering="crispEdges"/><rect fill="#121212" x="1329.8" y="123.5" width="24.4" height="24.65" shape-rendering="crispEdges"/><rect fill="#000000" x="1354.2" y="123.5" width="24.4" height="24.65" shape-rendering="crispEdges"/><rect fill="#121212" x="0" y="147.9" width="24.4" height="24.65" shape-rendering="crispEdges"/><rect fill="#8b0000" x="24.4" y="147.9" width="24.4" height="24.65" shape-rendering="crispEdges"/><rect fill="#8b0000" x="48.8" y="147.9" width="451.4" height="24.65" shape-rendering="crispEdges"/><rect fill="#8b0000" x="500.2" y="147.9" width="24.4" height="24.65" shape-rendering="crispEdges"/><rect fill="#00008b" x="524.6" y="147.9" width="24.4" height="24.65" shape-rendering="crispEdges"/><rect fill="#00008b" x="549" y="147.9" width="341.6" height="24.65" shape-rendering="crispEdges"/><rect fill="#00008b" x="890.6" y="147.9" width="24.4" height="24.65" shape-rendering="crispEdges"/><rect fill="#121212" x="915" y="147.9" width="24.4" height="24.65" shape-rendering="crispEdges"/><rect fill="#121212" x="939.4" y="147.9" width="36.6" height="24.65" shape-rendering="crispEdges"/><rect fill="#121212" x="976" y="147.9" width="24.4" height="24.65" shape-rendering="crispEdges"/><rect fill="#121212" x="1000.4" y="147.9" width="329.4" height="24.65" shape-rendering="crispEdges"/><rect fill="#121212" x="1329.8" y="147.9" width="24.4" height="24.65" shape-rendering="crispEdges"/><rect fill="#000000" x="1354.2" y="147.9" width="24.4" height="24.65" shape-rendering="crispEdges"/><rect fill="#121212" x="0" y="172.3" width="24.4" height="24.65" shape-rendering="crispEdges"/><rect fill="#8b0000" x="24.4" y="172.3" width="500.2" height="24.65" shape-rendering="crispEdges"/><rect fill="#00008b" x="524.6" y="172.3" width="390.4" height="24.65" shape-rendering="crispEdges"/><rect fill="#121212" x="915" y="172.3" width="85.4" height="24.65" shape-rendering="crispEdges"/><rect fill="#121212" x="1000.4" y="172.3" width="329.4" height="24.65" shape-rendering="crispEdges"/><rect fill="#121212" x="1329.8" y="172.3" width="24.4" height="24.65" shape-rendering="crispEdges"/><rect fill="#000000" x="1354.2" y="172.3" width="24.4" height="24.65" shape-rendering="crispEdges"/><rect fill="#121212" x="0" y="196.7" width="24.4" height="24.65" shape-rendering="crispEdges"/><rect fill="#121212" x="24.4" y="196.7" width="1305.4" height="24.65" shape-rendering="crispEdges"/><rect fill="#121212" x="1329.8" y="196.7" width="24.4" height="24.65" shape-rendering="crispEdges"/><rect fill="#000000" x="1354.2" y="196.7" width="24.4" height="24.65" shape-rendering="crispEdges"/><rect fill="#121212" x="0" y="221.1" width="24.4" height="24.65" shape-rendering="crispEdges"/><rect fill="#8b0000" x="24.4" y="221.1" width="500.2" height="24.65" shape-rendering="crispEdges"/><rect fill="#ff8c00" x="524.6" y="221.1" width="329.4" height="24.65" shape-rendering="crispEdges"/><rect fill="#121212" x="854" y="221.1" width="280.6" height="24.65" shape-rendering="crispEdges"/><rect fill="#121212" x="1134.6" y="221.1" width="195.2" height="24.65" shape-rendering="crispEdges"/><rect fill="#121212" x="1329.8" y="221.1" width="24.4" height="24.65" shape-rendering="crispEdges"/><rect fill="#000000" x="1354.2" y="221.1" width="24.4" height="24.65" shape-rendering="crispEdges"/><rect fill="#121212" x="0" y="245.5" width="24.4" height="24.65" shape-rendering="crispEdges"/><rect fill="#8b0000" x="24.4" y="245.5" width="24.4" height="24.65" shape-rendering="crispEdges"/><rect fill="#8b0000" x="48.8" y="245.5" width="451.4" height="24.65" shape-rendering="crispEdges"/><rect fill="#8b0000" x="500.2" y="245.5" width="24.4" height="24.65" shape-rendering="crispEdges"/><rect fill="#ff8c00" x="524.6" y="245.5" width="24.4" height="24.65" shape-rendering="crispEdges"/><rect fill="#ff8c00" x="549" y="245.5" width="280.6" height="24.65" shape-rendering="crispEdges"/><rect fill="#ff8c00" x="829.6" y="245.5" width="24.4" height="24.65" shape-rendering="crispEdges"/><rect fill="#121212" x="854" y="245.5" width="24.4" height="24.65" shape-rendering="crispEdges"/><rect fill="#121212" x="878.4" y="245.5" width="195.2" height="24.65" shape-rendering="crispEdges"/><rect fill="#121212" x="1073.6" y="245.5" width="36.6" height="24.65" shape-rendering="crispEdges"/><rect fill="#121212" x="1110.2" y="245.5" width="24.4" height="24.65" shape-rendering="crispEdges"/><rect fill="#121212" x="1134.6" y="245.5" width="195.2" height="24.65" shape-rendering="crispEdges"/><rect fill="#121212" x="1329.8" y="245.5" width="24.4" height="24.65" shape-rendering="crispEdges"/><rect fill="#000000" x="1354.2" y="245.5" width="24.4" height="24.65" shape-rendering="crispEdges"/><rect fill="#121212" x="0" y="269.9" width="24.4" height="24.65" shape-rendering="crispEdges"/><rect fill="#8b0000" x="24.4" y="269.9" width="500.2" height="24.65" shape-rendering="crispEdges"/><rect fill="#ff8c00" x="524.6" y="269.9" width="329.4" height="24.65" shape-rendering="crispEdges"/><rect fill="#121212" x="854" y="269.9" width="280.6" height="24.65" shape-rendering="crispEdges"/><rect fill="#121212" x="1134.6" y="269.9" width="195.2" height="24.65" shape-rendering="crispEdges"/><rect fill="#121212" x="1329.8" y="269.9" width="24.4" height="24.65" shape-rendering="crispEdges"/><rect fill="#000000" x="1354.2" y="269.9" width="24.4" height="24.65" shape-rendering="crispEdges"/><rect fill="#121212" x="0" y="294.3" width="24.4" height="24.65" shape-rendering="crispEdges"/><rect fill="#121212" x="24.4" y="294.3" width="1305.4" height="24.65" shape-rendering="crispEdges"/><rect fill="#121212" x="1329.8" y="294.3" width="24.4" height="24.65" shape-rendering="crispEdges"/><rect fill="#000000" x="1354.2" y="294.3" width="24.4" height="24.65" shape-rendering="crispEdges"/><rect fill="#121212" x="0" y="318.7" width="24.4" height="24.65" shape-rendering="crispEdges"/><rect fill="#8b0000" x="24.4" y="318.7" width="500.2" height="24.65" shape-rendering="crispEdges"/><rect fill="#008b8b" x="524.6" y="318.7" width="97.6" height="24.65" shape-rendering="crispEdges"/><rect fill="#b8860b" x="622.2" y="318.7" width="427" height="24.65" shape-rendering="crispEdges"/><rect fill="#121212" x="1049.2" y="318.7" width="280.6" height="24.65" shape-rendering="crispEdges"/><rect fill="#121212" x="1329.8" y="318.7" width="24.4" height="24.65" shape-rendering="crispEdges"/><rect fill="#000000" x="1354.2" y="318.7" width="24.4" height="24.65" shape-rendering="crispEdges"/><rect fill="#121212" x="0" y="343.1" width="24.4" height="24.65" shape-rendering="crispEdges"/><rect fill="#8b0000" x="24.4" y="343.1" width="24.4" height="24.65" shape-rendering="crispEdges"/><rect fill="#8b0000" x="48.8" y="343.1" width="451.4" height="24.65" shape-rendering="crispEdges"/><rect fill="#8b0000" x="500.2" y="343.1" width="24.4" height="24.65" shape-rendering="crispEdges"/><rect fill="#008b8b" x="524.6" y="343.1" width="24.4" height="24.65" shape-rendering="crispEdges"/><rect fill="#008b8b" x="549" y="343.1" width="48.8" height="24.65" shape-rendering="crispEdges"/><rect fill="#008b8b" x="597.8" y="343.1" width="24.4" height="24.65" shape-rendering="crispEdges"/><rect fill="#b8860b" x="622.2" y="343.1" width="24.4" height="24.65" shape-rendering="crispEdges"/><rect fill="#b8860b" x="646.6" y="343.1" width="378.2" height="24.65" shape-rendering="crispEdges"/><rect fill="#b8860b" x="1024.8" y="343.1" width="24.4" height="24.65" shape-rendering="crispEdges"/><rect fill="#121212" x="1049.2" y="343.1" width="280.6" height="24.65" shape-rendering="crispEdges"/><rect fill="#121212" x="1329.8" y="343.1" width="24.4" height="24.65" shape-rendering="crispEdges"/><rect fill="#000000" x="1354.2" y="343.1" width="24.4" height="24.65" shape-rendering="crispEdges"/><rect fill="#121212" x="0" y="367.5" width="24.4" height="24.65" shape-rendering="crispEdges"/><rect fill="#8b0000" x="24.4" y="367.5" width="500.2" height="24.65" shape-rendering="crispEdges"/><rect fill="#008b8b" x="524.6" y="367.5" width="97.6" height="24.65" shape-rendering="crispEdges"/><rect fill="#b8860b" x="622.2" y="367.5" width="427" height="24.65" shape-rendering="crispEdges"/><rect fill="#121212" x="1049.2" y="367.5" width="280.6" height="24.65" shape-rendering="crispEdges"/><rect fill="#121212" x="1329.8" y="367.5" width="24.4" height="24.65" shape-rendering="crispEdges"/><rect fill="#000000" x="1354.2" y="367.5" width="24.4" height="24.65" shape-rendering="crispEdges"/><rect fill="#121212" x="0" y="391.9" width="24.4" height="24.65" shape-rendering="crispEdges"/><rect fill="#121212" x="24.4" y="391.9" width="1305.4" height="24.65" shape-rendering="crispEdges"/><rect fill="#121212" x="1329.8" y="391.9" width="24.4" height="24.65" shape-rendering="crispEdges"/><rect fill="#000000" x="1354.2" y="391.9" width="24.4" height="24.65" shape-rendering="crispEdges"/><rect fill="#121212" x="0" y="416.3" width="24.4" height="24.65" shape-rendering="crispEdges"/><rect fill="#006400" x="24.4" y="416.3" width="500.2" height="24.65" shape-rendering="crispEdges"/><rect fill="#00008b" x="524.6" y="416.3" width="390.4" height="24.65" shape-rendering="crispEdges"/><rect fill="#121212" x="915" y="416.3" width="85.4" height="24.65" shape-rendering="crispEdges"/><rect fill="#121212" x="1000.4" y="416.3" width="329.4" height="24.65" shape-rendering="crispEdges"/><rect fill="#121212" x="1329.8" y="416.3" width="24.4" height="24.65" shape-rendering="crispEdges"/><rect fill="#000000" x="1354.2" y="416.3" width="24.4" height="24.65" shape-rendering="crispEdges"/><rect fill="#121212" x="0" y="440.7" width="24.4" height="24.65" shape-rendering="crispEdges"/><rect fill="#006400" x="24.4" y="440.7" width="24.4" height="24.65" shape-rendering="crispEdges"/><rect fill="#006400" x="48.8" y="440.7" width="451.4" height="24.65" shape-rendering="crispEdges"/><rect fill="#006400" x="500.2" y="440.7" width="24.4" height="24.65" shape-rendering="crispEdges"/><rect fill="#00008b" x="524.6" y="440.7" width="24.4" height="24.65" shape-rendering="crispEdges"/><rect fill="#00008b" x="549" y="440.7" width="341.6" height="24.65" shape-rendering="crispEdges"/><rect fill="#00008b" x="890.6" y="440.7" width="24.4" height="24.65" shape-rendering="crispEdges"/><rect fill="#121212" x="915" y="440.7" width="24.4" height="24.65" shape-rendering="crispEdges"/><rect fill="#121212" x="939.4" y="440.7" width="36.6" height="24.65" shape-rendering="crispEdges"/><rect fill="#121212" x="976" y="440.7" width="24.4" height="24.65" shape-rendering="crispEdges"/><rect fill="#121212" x="1000.4" y="440.7" width="329.4" height="24.65" shape-rendering="crispEdges"/><rect fill="#121212" x="1329.8" y="440.7" width="24.4" height="24.65" shape-rendering="crispEdges"/><rect fill="#000000" x="1354.2" y="440.7" width="24.4" height="24.65" shape-rendering="crispEdges"/><rect fill="#121212" x="0" y="465.1" width="24.4" height="24.65" shape-rendering="crispEdges"/><rect fill="#006400" x="24.4" y="465.1" width="500.2" height="24.65" shape-rendering="crispEdges"/><rect fill="#00008b" x="524.6" y="465.1" width="390.4" height="24.65" shape-rendering="crispEdges"/><rect fill="#121212" x="915" y="465.1" width="85.4" height="24.65" shape-rendering="crispEdges"/><rect fill="#121212" x="1000.4" y="465.1" width="329.4" height="24.65" shape-rendering="crispEdges"/><rect fill="#121212" x="1329.8" y="465.1" width="24.4" height="24.65" shape-rendering="crispEdges"/><rect fill="#000000" x="1354.2" y="465.1" width="24.4" height="24.65" shape-rendering="crispEdges"/><rect fill="#121212" x="0" y="489.5" width="24.4" height="24.65" shape-rendering="crispEdges"/><rect fill="#121212" x="24.4" y="489.5" width="1305.4" height="24.65" shape-rendering="crispEdges"/><rect fill="#121212" x="1329.8" y="489.5" width="24.4" height="24.65" shape-rendering="crispEdges"/><rect fill="#000000" x="1354.2" y="489.5" width="24.4" height="24.65" shape-rendering="crispEdges"/><rect fill="#121212" x="0" y="513.9" width="24.4" height="24.65" shape-rendering="crispEdges"/><rect fill="#006400" x="24.4" y="513.9" width="500.2" height="24.65" shape-rendering="crispEdges"/><rect fill="#ff8c00" x="524.6" y="513.9" width="329.4" height="24.65" shape-rendering="crispEdges"/><rect fill="#121212" x="854" y="513.9" width="292.8" height="24.65" shape-rendering="crispEdges"/><rect fill="#121212" x="1146.8" y="513.9" width="183" height="24.65" shape-rendering="crispEdges"/><rect fill="#121212" x="1329.8" y="513.9" width="24.4" height="24.65" shape-rendering="crispEdges"/><rect fill="#000000" x="1354.2" y="513.9" width="24.4" height="24.65" shape-rendering="crispEdges"/><rect fill="#121212" x="0" y="538.3" width="24.4" height="24.65" shape-rendering="crispEdges"/><rect fill="#006400" x="24.4" y="538.3" width="24.4" height="24.65" shape-rendering="crispEdges"/><rect fill="#006400" x="48.8" y="538.3" width="451.4" height="24.65" shape-rendering="crispEdges"/><rect fill="#006400" x="500.2" y="538.3" width="24.4" height="24.65" shape-rendering="crispEdges"/><rect fill="#ff8c00" x="524.6" y="538.3" width="24.4" height="24.65" shape-rendering="crispEdges"/><rect fill="#ff8c00" x="549" y="538.3" width="280.6" height="24.65" shape-rendering="crispEdges"/><rect fill="#ff8c00" x="829.6" y="538.3" width="24.4" height="24.65" shape-rendering="crispEdges"/><rect fill="#121212" x="854" y="538.3" width="24.4" height="24.65" shape-rendering="crispEdges"/><rect fill="#121212" x="878.4" y="538.3" width="244" height="24.65" shape-rendering="crispEdges"/><rect fill="#121212" x="1122.4" y="538.3" width="24.4" height="24.65" shape-rendering="crispEdges"/><rect fill="#121212" x="1146.8" y="538.3" width="183" height="24.65" shape-rendering="crispEdges"/><rect fill="#121212" x="1329.8" y="538.3" width="24.4" height="24.65" shape-rendering="crispEdges"/><rect fill="#000000" x="1354.2" y="538.3" width="24.4" height="24.65" shape-rendering="crispEdges"/><rect fill="#121212" x="0" y="562.7" width="24.4" height="24.65" shape-rendering="crispEdges"/><rect fill="#006400" x="24.4" y="562.7" width="500.2" height="24.65" shape-rendering="crispEdges"/><rect fill="#ff8c00" x="524.6" y="562.7" width="329.4" height="24.65" shape-rendering="crispEdges"/><rect fill="#121212" x="854" y="562.7" width="292.8" height="24.65" shape-rendering="crispEdges"/><rect fill="#121212" x="1146.8" y="562.7" width="183" height="24.65" shape-rendering="crispEdges"/><rect fill="#121212" x="1329.8" y="562.7" width="24.4" height="24.65" shape-rendering="crispEdges"/><rect fill="#000000" x="1354.2" y="562.7" width="24.4" height="24.65" shape-rendering="crispEdges"/><rect fill="#121212" x="0" y="587.1" width="24.4" height="24.65" shape-rendering="crispEdges"/><rect fill="#121212" x="24.4" y="587.1" width="1305.4" height="24.65" shape-rendering="crispEdges"/><rect fill="#121212" x="1329.8" y="587.1" width="24.4" height="24.65" shape-rendering="crispEdges"/><rect fill="#000000" x="1354.2" y="587.1" width="24.4" height="24.65" shape-rendering="crispEdges"/><rect fill="#121212" x="0" y="611.5" width="24.4" height="24.65" shape-rendering="crispEdges"/><rect fill="#006400" x="24.4" y="611.5" width="500.2" height="24.65" shape-rendering="crispEdges"/><rect fill="#008b8b" x="524.6" y="611.5" width="97.6" height="24.65" shape-rendering="crispEdges"/><rect fill="#b8860b" x="622.2" y="611.5" width="427" height="24.65" shape-rendering="crispEdges"/><rect fill="#121212" x="1049.2" y="611.5" width="280.6" height="24.65" shape-rendering="crispEdges"/><rect fill="#121212" x="1329.8" y="611.5" width="24.4" height="24.65" shape-rendering="crispEdges"/><rect fill="#000000" x="1354.2" y="611.5" width="24.4" height="24.65" shape-rendering="crispEdges"/><rect fill="#121212" x="0" y="635.9" width="24.4" height="24.65" shape-rendering="crispEdges"/><rect fill="#006400" x="24.4" y="635.9" width="24.4" height="24.65" shape-rendering="crispEdges"/><rect fill="#006400" x="48.8" y="635.9" width="451.4" height="24.65" shape-rendering="crispEdges"/><rect fill="#006400" x="500.2" y="635.9" width="24.4" height="24.65" shape-rendering="crispEdges"/><rect fill="#008b8b" x="524.6" y="635.9" width="24.4" height="24.65" shape-rendering="crispEdges"/><rect fill="#008b8b" x="549" y="635.9" width="48.8" height="24.65" shape-rendering="crispEdges"/><rect fill="#008b8b" x="597.8" y="635.9" width="24.4" height="24.65" shape-rendering="crispEdges"/><rect fill="#b8860b" x="622.2" y="635.9" width="24.4" height="24.65" shape-rendering="crispEdges"/><rect fill="#b8860b" x="646.6" y="635.9" width="36.6" height="24.65" shape-rendering="crispEdges"/><rect fill="#343f49" x="683.2" y="635.9" width="12.2" height="24.65" shape-rendering="crispEdges"/><rect fill="#343f49" x="695.4" y="635.9" width="353.8" height="24.65" shape-rendering="crispEdges"/><rect fill="#343f49" x="1049.2" y="635.9" width="280.6" height="24.65" shape-rendering="crispEdges"/><rect fill="#343f49" x="1329.8" y="635.9" width="24.4" height="24.65" shape-rendering="crispEdges"/><rect fill="#000000" x="1354.2" y="635.9" width="24.4" height="24.65" shape-rendering="crispEdges"/><rect fill="#121212" x="0" y="660.3" width="24.4" height="24.65" shape-rendering="crispEdges"/><rect fill="#006400" x="24.4" y="660.3" width="500.2" height="24.65" shape-rendering="crispEdges"/><rect fill="#008b8b" x="524.6" y="660.3" width="97.6" height="24.65" shape-rendering="crispEdges"/><rect fill="#b8860b" x="622.2" y="660.3" width="61" height="24.65" shape-rendering="crispEdges"/><rect fill="#343f49" x="683.2" y="660.3" width="12.2" height="24.65" shape-rendering="crispEdges"/><rect fill="#343f49" x="695.4" y="660.3" width="12.2" height="24.65" shape-rendering="crispEdges"/><rect fill="#343f49" x="707.6" y="660.3" width="341.6" height="24.65" shape-rendering="crispEdges"/><rect fill="#343f49" x="1049.2" y="660.3" width="280.6" height="24.65" shape-rendering="crispEdges"/><rect fill="#343f49" x="1329.8" y="660.3" width="12.2" height="24.65" shape-rendering="crispEdges"/><rect fill="#343f49" x="1342" y="660.3" width="12.2" height="24.65" shape-rendering="crispEdges"/><rect fill="#000000" x="1354.2" y="660.3" width="24.4" height="24.65" shape-rendering="crispEdges"/><rect fill="#121212" x="0" y="684.7" width="24.4" height="24.65" shape-rendering="crispEdges"/><rect fill="#121212" x="24.4" y="684.7" width="658.8" height="24.65" shape-rendering="crispEdges"/><rect fill="#343f49" x="683.2" y="684.7" width="12.2" height="24.65" shape-rendering="crispEdges"/><rect fill="#343f49" x="695.4" y="684.7" width="12.2" height="24.65" shape-rendering="crispEdges"/><rect fill="#343f49" x="707.6" y="684.7" width="305" height="24.65" shape-rendering="crispEdges"/><rect fill="#343f49" x="1012.6" y="684.7" width="317.2" height="24.65" shape-rendering="crispEdges"/><rect fill="#343f49" x="1329.8" y="684.7" width="12.2" height="24.65" shape-rendering="crispEdges"/><rect fill="#343f49" x="1342" y="684.7" width="12.2" height="24.65" shape-rendering="crispEdges"/><rect fill="#000000" x="1354.2" y="684.7" width="24.4" height="24.65" shape-rendering="crispEdges"/><rect fill="#121212" x="0" y="709.1" width="24.4" height="24.65" shape-rendering="crispEdges"/><rect fill="#bdb76b" x="24.4" y="709.1" width="512.4" height="24.65" shape-rendering="crispEdges"/><rect fill="#00008b" x="536.8" y="709.1" width="146.4" height="24.65" shape-rendering="crispEdges"/><rect fill="#343f49" x="683.2" y="709.1" width="12.2" height="24.65" shape-rendering="crispEdges"/><rect fill="#343f49" x="695.4" y="709.1" width="12.2" height="24.65" shape-rendering="crispEdges"/><rect fill="#343f49" x="707.6" y="709.1" width="219.6" height="24.65" shape-rendering="crispEdges"/><rect fill="#343f49" x="927.2" y="709.1" width="146.4" height="24.65" shape-rendering="crispEdges"/><rect fill="#343f49" x="1073.6" y="709.1" width="256.2" height="24.65" shape-rendering="crispEdges"/><rect fill="#343f49" x="1329.8" y="709.1" width="12.2" height="24.65" shape-rendering="crispEdges"/><rect fill="#343f49" x="1342" y="709.1" width="12.2" height="24.65" shape-rendering="crispEdges"/><rect fill="#000000" x="1354.2" y="709.1" width="24.4" height="24.65" shape-rendering="crispEdges"/><rect fill="#121212" x="0" y="733.5" width="24.4" height="24.65" shape-rendering="crispEdges"/><rect fill="#bdb76b" x="24.4" y="733.5" width="24.4" height="24.65" shape-rendering="crispEdges"/><rect fill="#bdb76b" x="48.8" y="733.5" width="463.6" height="24.65" shape-rendering="crispEdges"/><rect fill="#bdb76b" x="512.4" y="733.5" width="24.4" height="24.65" shape-rendering="crispEdges"/><rect fill="#00008b" x="536.8" y="733.5" width="24.4" height="24.65" shape-rendering="crispEdges"/><rect fill="#00008b" x="561.2" y="733.5" width="122" height="24.65" shape-rendering="crispEdges"/><rect fill="#343f49" x="683.2" y="733.5" width="12.2" height="24.65" shape-rendering="crispEdges"/><rect fill="#343f49" x="695.4" y="733.5" width="12.2" height="24.65" shape-rendering="crispEdges"/><rect fill="#343f49" x="707.6" y="733.5" width="219.6" height="24.65" shape-rendering="crispEdges"/><rect fill="#343f49" x="927.2" y="733.5" width="146.4" height="24.65" shape-rendering="crispEdges"/><rect fill="#343f49" x="1073.6" y="733.5" width="134.2" height="24.65" shape-rendering="crispEdges"/><rect fill="#343f49" x="1207.8" y="733.5" width="122" height="24.65" shape-rendering="crispEdges"/><rect fill="#343f49" x="1329.8" y="733.5" width="12.2" height="24.65" shape-rendering="crispEdges"/><rect fill="#343f49" x="1342" y="733.5" width="12.2" height="24.65" shape-rendering="crispEdges"/><rect fill="#000000" x="1354.2" y="733.5" width="24.4" height="24.65" shape-rendering="crispEdges"/><rect fill="#121212" x="0" y="757.9" width="24.4" height="24.65" shape-rendering="crispEdges"/><rect fill="#bdb76b" x="24.4" y="757.9" width="512.4" height="24.65" shape-rendering="crispEdges"/><rect fill="#00008b" x="536.8" y="757.9" width="146.4" height="24.65" shape-rendering="crispEdges"/><rect fill="#343f49" x="683.2" y="757.9" width="12.2" height="24.65" shape-rendering="crispEdges"/><rect fill="#343f49" x="695.4" y="757.9" width="12.2" height="24.65" shape-rendering="crispEdges"/><rect fill="#343f49" x="707.6" y="757.9" width="219.6" height="24.65" shape-rendering="crispEdges"/><rect fill="#343f49" x="927.2" y="757.9" width="146.4" height="24.65" shape-rendering="crispEdges"/><rect fill="#343f49" x="1073.6" y="757.9" width="256.2" height="24.65" shape-rendering="crispEdges"/><rect fill="#343f49" x="1329.8" y="757.9" width="12.2" height="24.65" shape-rendering="crispEdges"/><rect fill="#343f49" x="1342" y="757.9" width="12.2" height="24.65" shape-rendering="crispEdges"/><rect fill="#000000" x="1354.2" y="757.9" width="24.4" height="24.65" shape-rendering="crispEdges"/><rect fill="#121212" x="0" y="782.3" width="24.4" height="24.65" shape-rendering="crispEdges"/><rect fill="#121212" x="24.4" y="782.3" width="658.8" height="24.65" shape-rendering="crispEdges"/><rect fill="#343f49" x="683.2" y="782.3" width="12.2" height="24.65" shape-rendering="crispEdges"/><rect fill="#343f49" x="695.4" y="782.3" width="634.4" height="24.65" shape-rendering="crispEdges"/><rect fill="#343f49" x="1329.8" y="782.3" width="24.4" height="24.65" shape-rendering="crispEdges"/><rect fill="#000000" x="1354.2" y="782.3" width="24.4" height="24.65" shape-rendering="crispEdges"/><rect fill="#242f38" x="0" y="806.7" width="36.6" height="24.65" shape-rendering="crispEdges"/><rect fill="#242f38" x="36.6" y="806.7" width="134.2" height="24.65" shape-rendering="crispEdges"/><rect fill="#242f38" x="170.8" y="806.7" width="36.6" height="24.65" shape-rendering="crispEdges"/><rect fill="#242f38" x="207.4" y="806.7" width="231.8" height="24.65" shape-rendering="crispEdges"/><rect fill="#242f38" x="439.2" y="806.7" width="48.8" height="24.65" shape-rendering="crispEdges"/><rect fill="#242f38" x="488" y="806.7" width="122" height="24.65" shape-rendering="crispEdges"/><rect fill="#242f38" x="610" y="806.7" width="61" height="24.65" shape-rendering="crispEdges"/><rect fill="#242f38" x="671" y="806.7" width="97.6" height="24.65" shape-rendering="crispEdges"/><rect fill="#242f38" x="768.6" y="806.7" width="36.6" height="24.65" shape-rendering="crispEdges"/><rect fill="#242f38" x="805.2" y="806.7" width="207.4" height="24.65" shape-rendering="crispEdges"/><rect fill="#242f38" x="1012.6" y="806.7" width="36.6" height="24.65" shape-rendering="crispEdges"/><rect fill="#242f38" x="1049.2" y="806.7" width="61" height="24.65" shape-rendering="crispEdges"/><rect fill="#242f38" x="1110.2" y="806.7" width="122" height="24.65" shape-rendering="crispEdges"/><rect fill="#242f38" x="1232.2" y="806.7" width="12.2" height="24.65" shape-rendering="crispEdges"/><rect fill="#242f38" x="1244.4" y="806.7" width="24.4" height="24.65" shape-rendering="crispEdges"/><rect fill="#242f38" x="1268.8" y="806.7" width="97.6" height="24.65" shape-rendering="crispEdges"/><rect fill="#242f38" x="1366.4" y="806.7" width="12.2" height="24.65" shape-rendering="crispEdges"/>
    <g class="terminal-1058685449-matrix">
    <text class="terminal-1058685449-r2" x="12.2" y="20" textLength="24.4" clip-path="url(#terminal-1058685449-line-0)">👁️</text><text class="terminal-1058685449-r2" x="390.4" y="20" textLength="122" clip-path="url(#terminal-1058685449-line-0)">Iolanta&#160;—&#160;</text><text class="terminal-1058685449-r3" x="512.4" y="20" textLength="451.4" clip-path="url(#terminal-1058685449-line-0)">https://orcid.org/0000-0002-1825-0097</text><text class="terminal-1058685449-r1" x="1378.6" y="20" textLength="12.2" clip-path="url(#terminal-1058685449-line-0)">
</text><text class="terminal-1058685449-r1" x="1378.6" y="44.4" textLength="12.2" clip-path="url(#terminal-1058685449-line-1)">
</text><text class="terminal-1058685449-r5" x="12.2" y="68.8" textLength="610" clip-path="url(#terminal-1058685449-line-2)">https://orcid.org/0000-0002-1825-0097&#160;(75&#160;triples)</text><text class="terminal-1058685449-r1" x="1378.6" y="68.8" textLength="12.2" clip-path="url(#terminal-1058685449-line-2)">
</text><text class="terminal-1058685449-r1" x="1378.6" y="93.2" textLength="12.2" clip-path="url(#terminal-1058685449-line-3)">
</text><text class="terminal-1058685449-r6" x="1354.2" y="117.6" textLength="24.4" clip-path="url(#terminal-1058685449-line-4)">▅▅</text><text class="terminal-1058685449-r1" x="1378.6" y="117.6" textLength="12.2" clip-path="url(#terminal-1058685449-line-4)">
</text><text class="terminal-1058685449-r1" x="1378.6" y="142" textLength="12.2" clip-path="url(#terminal-1058685449-line-5)">
</text><text class="terminal-1058685449-r2" x="48.8" y="166.4" textLength="451.4" clip-path="url(#terminal-1058685449-line-6)">_:c7b68163cc8e0255c7a95962f72a0f1f_b0</text><text class="terminal-1058685449-r2" x="549" y="166.4" textLength="341.6" clip-path="url(#terminal-1058685449-line-6)">http://schema.org/propertyID</text><text class="terminal-1058685449-r2" x="939.4" y="166.4" textLength="36.6" clip-path="url(#terminal-1058685449-line-6)">doi</text><text class="terminal-1058685449-r1" x="1378.6" y="166.4" textLength="12.2" clip-path="url(#terminal-1058685449-line-6)">
</text><text class="terminal-1058685449-r1" x="1378.6" y="190.8" textLength="12.2" clip-path="url(#terminal-1058685449-line-7)">
</text><text class="terminal-1058685449-r1" x="1378.6" y="215.2" textLength="12.2" clip-path="url(#terminal-1058685449-line-8)">
</text><text class="terminal-1058685449-r1" x="1378.6" y="239.6" textLength="12.2" clip-path="url(#terminal-1058685449-line-9)">
</text><text class="terminal-1058685449-r2" x="48.8" y="264" textLength="451.4" clip-path="url(#terminal-1058685449-line-10)">_:c7b68163cc8e0255c7a95962f72a0f1f_b0</text><text class="terminal-1058685449-r2" x="549" y="264" textLength="280.6" clip-path="url(#terminal-1058685449-line-10)">http://schema.org/value</text><text class="terminal-1058685449-r2" x="878.4" y="264" textLength="195.2" clip-path="url(#terminal-1058685449-line-10)">10.5555/12345680</text><text class="terminal-1058685449-r1" x="1378.6" y="264" textLength="12.2" clip-path="url(#terminal-1058685449-line-10)">
</text><text class="terminal-1058685449-r1" x="1378.6" y="288.4" textLength="12.2" clip-path="url(#terminal-1058685449-line-11)">
</text><text class="terminal-1058685449-r1" x="1378.6" y="312.8" textLength="12.2" clip-path="url(#terminal-1058685449-line-12)">
</text><text class="terminal-1058685449-r1" x="1378.6" y="337.2" textLength="12.2" clip-path="url(#terminal-1058685449-line-13)">
</text><text class="terminal-1058685449-r2" x="48.8" y="361.6" textLength="451.4" clip-path="url(#terminal-1058685449-line-14)">_:c7b68163cc8e0255c7a95962f72a0f1f_b0</text><text class="terminal-1058685449-r2" x="549" y="361.6" textLength="48.8" clip-path="url(#terminal-1058685449-line-14)">type</text><text class="terminal-1058685449-r2" x="646.6" y="361.6" textLength="378.2" clip-path="url(#terminal-1058685449-line-14)">http://schema.org/PropertyValue</text><text class="terminal-1058685449-r1" x="1378.6" y="361.6" textLength="12.2" clip-path="url(#terminal-1058685449-line-14)">
</text><text class="terminal-1058685449-r1" x="1378.6" y="386" textLength="12.2" clip-path="url(#terminal-1058685449-line-15)">
</text><text class="terminal-1058685449-r1" x="1378.6" y="410.4" textLength="12.2" clip-path="url(#terminal-1058685449-line-16)">
</text><text class="terminal-1058685449-r1" x="1378.6" y="434.8" textLength="12.2" clip-path="url(#terminal-1058685449-line-17)">
</text><text class="terminal-1058685449-r2" x="48.8" y="459.2" textLength="451.4" clip-path="url(#terminal-1058685449-line-18)">_:c7b68163cc8e0255c7a95962f72a0f1f_b1</text><text class="terminal-1058685449-r2" x="549" y="459.2" textLength="341.6" clip-path="url(#terminal-1058685449-line-18)">http://schema.org/propertyID</text><text class="terminal-1058685449-r2" x="939.4" y="459.2" textLength="36.6" clip-path="url(#terminal-1058685449-line-18)">doi</text><text class="terminal-1058685449-r1" x="1378.6" y="459.2" textLength="12.2" clip-path="url(#terminal-1058685449-line-18)">
</text><text class="terminal-1058685449-r1" x="1378.6" y="483.6" textLength="12.2" clip-path="url(#terminal-1058685449-line-19)">
</text><text class="terminal-1058685449-r1" x="1378.6" y="508" textLength="12.2" clip-path="url(#terminal-1058685449-line-20)">
</text><text class="terminal-1058685449-r1" x="1378.6" y="532.4" textLength="12.2" clip-path="url(#terminal-1058685449-line-21)">
</text><text class="terminal-1058685449-r2" x="48.8" y="556.8" textLength="451.4" clip-path="url(#terminal-1058685449-line-22)">_:c7b68163cc8e0255c7a95962f72a0f1f_b1</text><text class="terminal-1058685449-r2" x="549" y="556.8" textLength="280.6" clip-path="url(#terminal-1058685449-line-22)">http://schema.org/value</text><text class="terminal-1058685449-r2" x="878.4" y="556.8" textLength="244" clip-path="url(#terminal-1058685449-line-22)">10.5555/666655554444</text><text class="terminal-1058685449-r1" x="1378.6" y="556.8" textLength="12.2" clip-path="url(#terminal-1058685449-line-22)">
</text><text class="terminal-1058685449-r1" x="1378.6" y="581.2" textLength="12.2" clip-path="url(#terminal-1058685449-line-23)">
</text><text class="terminal-1058685449-r1" x="1378.6" y="605.6" textLength="12.2" clip-path="url(#terminal-1058685449-line-24)">
</text><text class="terminal-1058685449-r1" x="1378.6" y="630" textLength="12.2" clip-path="url(#terminal-1058685449-line-25)">
</text><text class="terminal-1058685449-r2" x="48.8" y="654.4" textLength="451.4" clip-path="url(#terminal-1058685449-line-26)">_:c7b68163cc8e0255c7a95962f72a0f1f_b1</text><text class="terminal-1058685449-r2" x="549" y="654.4" textLength="48.8" clip-path="url(#terminal-1058685449-line-26)">type</text><text class="terminal-1058685449-r2" x="646.6" y="654.4" textLength="36.6" clip-path="url(#terminal-1058685449-line-26)">htt</text><text class="terminal-1058685449-r7" x="683.2" y="654.4" textLength="12.2" clip-path="url(#terminal-1058685449-line-26)">▌</text><text class="terminal-1058685449-r1" x="1378.6" y="654.4" textLength="12.2" clip-path="url(#terminal-1058685449-line-26)">
</text><text class="terminal-1058685449-r7" x="683.2" y="678.8" textLength="12.2" clip-path="url(#terminal-1058685449-line-27)">▌</text><text class="terminal-1058685449-r2" x="707.6" y="678.8" textLength="341.6" clip-path="url(#terminal-1058685449-line-27)">https://schema.org/CreativeW</text><text class="terminal-1058685449-r2" x="1049.2" y="678.8" textLength="280.6" clip-path="url(#terminal-1058685449-line-27)">ork&#160;|&#160;A&#160;YAML-LD&#160;documen</text><text class="terminal-1058685449-r2" x="1329.8" y="678.8" textLength="12.2" clip-path="url(#terminal-1058685449-line-27)">t</text><text class="terminal-1058685449-r1" x="1378.6" y="678.8" textLength="12.2" clip-path="url(#terminal-1058685449-line-27)">
</text><text class="terminal-1058685449-r7" x="683.2" y="703.2" textLength="12.2" clip-path="url(#terminal-1058685449-line-28)">▌</text><text class="terminal-1058685449-r2" x="707.6" y="703.2" textLength="305" clip-path="url(#terminal-1058685449-line-28)">MUST&#160;be&#160;encoded&#160;in&#160;UTF-8.</text><text class="terminal-1058685449-r1" x="1378.6" y="703.2" textLength="12.2" clip-path="url(#terminal-1058685449-line-28)">
</text><text class="terminal-1058685449-r7" x="683.2" y="727.6" textLength="12.2" clip-path="url(#terminal-1058685449-line-29)">▌</text><text class="terminal-1058685449-r1" x="1378.6" y="727.6" textLength="12.2" clip-path="url(#terminal-1058685449-line-29)">
</text><text class="terminal-1058685449-r2" x="48.8" y="752" textLength="463.6" clip-path="url(#terminal-1058685449-line-30)">_:c7b68163cc8e0255c7a95962f72a0f1f_b10</text><text class="terminal-1058685449-r2" x="561.2" y="752" textLength="122" clip-path="url(#terminal-1058685449-line-30)">http://sch</text><text class="terminal-1058685449-r7" x="683.2" y="752" textLength="12.2" clip-path="url(#terminal-1058685449-line-30)">▌</text><text class="terminal-1058685449-r2" x="707.6" y="752" textLength="219.6" clip-path="url(#terminal-1058685449-line-30)">To&#160;ensure&#160;interope</text><text class="terminal-1058685449-r2" x="927.2" y="752" textLength="146.4" clip-path="url(#terminal-1058685449-line-30)">rability&#160;wit</text><text class="terminal-1058685449-r2" x="1073.6" y="752" textLength="134.2" clip-path="url(#terminal-1058685449-line-30)">h&#160;[[JSON]].</text><text class="terminal-1058685449-r1" x="1378.6" y="752" textLength="12.2" clip-path="url(#terminal-1058685449-line-30)">
</text><text class="terminal-1058685449-r7" x="683.2" y="776.4" textLength="12.2" clip-path="url(#terminal-1058685449-line-31)">▌</text><text class="terminal-1058685449-r1" x="1378.6" y="776.4" textLength="12.2" clip-path="url(#terminal-1058685449-line-31)">
</text><text class="terminal-1058685449-r7" x="683.2" y="800.8" textLength="12.2" clip-path="url(#terminal-1058685449-line-32)">▌</text><text class="terminal-1058685449-r1" x="1378.6" y="800.8" textLength="12.2" clip-path="url(#terminal-1058685449-line-32)">
</text><text class="terminal-1058685449-r8" x="0" y="825.2" textLength="36.6" clip-path="url(#terminal-1058685449-line-33)">&#160;1&#160;</text><text class="terminal-1058685449-r2" x="36.6" y="825.2" textLength="134.2" clip-path="url(#terminal-1058685449-line-33)">Properties&#160;</text><text class="terminal-1058685449-r8" x="170.8" y="825.2" textLength="36.6" clip-path="url(#terminal-1058685449-line-33)">&#160;2&#160;</text><text class="terminal-1058685449-r2" x="207.4" y="825.2" textLength="231.8" clip-path="url(#terminal-1058685449-line-33)">Inverse&#160;Properties&#160;</text><text class="terminal-1058685449-r8" x="439.2" y="825.2" textLength="48.8" clip-path="url(#terminal-1058685449-line-33)">&#160;f5&#160;</text><text class="terminal-1058685449-r2" x="488" y="825.2" textLength="109.8" clip-path="url(#terminal-1058685449-line-33)">🔄&#160;Reload&#160;</text><text class="terminal-1058685449-r8" x="610" y="825.2" textLength="61" clip-path="url(#terminal-1058685449-line-33)">&#160;f12&#160;</text><text class="terminal-1058685449-r2" x="671" y="825.2" textLength="97.6" clip-path="url(#terminal-1058685449-line-33)">Console&#160;</text><text class="terminal-1058685449-r8" x="768.6" y="825.2" textLength="36.6" clip-path="url(#terminal-1058685449-line-33)">&#160;t&#160;</text><text class="terminal-1058685449-r2" x="805.2" y="825.2" textLength="207.4" clip-path="url(#terminal-1058685449-line-33)">Toggle&#160;Dark&#160;Mode&#160;</text><text class="terminal-1058685449-r8" x="1012.6" y="825.2" textLength="36.6" clip-path="url(#terminal-1058685449-line-33)">&#160;q&#160;</text><text class="terminal-1058685449-r2" x="1049.2" y="825.2" textLength="61" clip-path="url(#terminal-1058685449-line-33)">Quit&#160;</text><text class="terminal-1058685449-r9" x="1232.2" y="825.2" textLength="12.2" clip-path="url(#terminal-1058685449-line-33)">▏</text><text class="terminal-1058685449-r8" x="1244.4" y="825.2" textLength="24.4" clip-path="url(#terminal-1058685449-line-33)">^p</text><text class="terminal-1058685449-r2" x="1268.8" y="825.2" textLength="97.6" clip-path="url(#terminal-1058685449-line-33)">&#160;palette</text>
    </g>
    </g>
</svg>
