<svg class="rich-terminal" viewBox="0 0 994 635.5999999999999" xmlns="http://www.w3.org/2000/svg">
    <!-- Generated with Rich https://www.textualize.io -->
    <style>

    @font-face {
        font-family: "Fira Code";
        src: local("FiraCode-Regular"),
                url("https://cdnjs.cloudflare.com/ajax/libs/firacode/6.2.0/woff2/FiraCode-Regular.woff2") format("woff2"),
                url("https://cdnjs.cloudflare.com/ajax/libs/firacode/6.2.0/woff/FiraCode-Regular.woff") format("woff");
        font-style: normal;
        font-weight: 400;
    }
    @font-face {
        font-family: "Fira Code";
        src: local("FiraCode-Bold"),
                url("https://cdnjs.cloudflare.com/ajax/libs/firacode/6.2.0/woff2/FiraCode-Bold.woff2") format("woff2"),
                url("https://cdnjs.cloudflare.com/ajax/libs/firacode/6.2.0/woff/FiraCode-Bold.woff") format("woff");
        font-style: bold;
        font-weight: 700;
    }

    .terminal-574310784-matrix {
        font-family: Fira Code, monospace;
        font-size: 20px;
        line-height: 24.4px;
        font-variant-east-asian: full-width;
    }

    .terminal-574310784-title {
        font-size: 18px;
        font-weight: bold;
        font-family: arial;
    }

    .terminal-574310784-r1 { fill: #c5c8c6 }
.terminal-574310784-r2 { fill: #e3e3e3 }
.terminal-574310784-r3 { fill: #989898 }
.terminal-574310784-r4 { fill: #ffffff;font-weight: bold }
.terminal-574310784-r5 { fill: #ffffff;font-weight: bold;font-style: italic; }
.terminal-574310784-r6 { fill: #e1e1e1 }
.terminal-574310784-r7 { fill: #fea62b;font-weight: bold }
.terminal-574310784-r8 { fill: #a7a9ab }
.terminal-574310784-r9 { fill: #4c5055 }
    </style>

    <defs>
    <clipPath id="terminal-574310784-clip-terminal">
      <rect x="0" y="0" width="975.0" height="584.5999999999999" />
    </clipPath>
    <clipPath id="terminal-574310784-line-0">
    <rect x="0" y="1.5" width="976" height="24.65"/>
            </clipPath>
<clipPath id="terminal-574310784-line-1">
    <rect x="0" y="25.9" width="976" height="24.65"/>
            </clipPath>
<clipPath id="terminal-574310784-line-2">
    <rect x="0" y="50.3" width="976" height="24.65"/>
            </clipPath>
<clipPath id="terminal-574310784-line-3">
    <rect x="0" y="74.7" width="976" height="24.65"/>
            </clipPath>
<clipPath id="terminal-574310784-line-4">
    <rect x="0" y="99.1" width="976" height="24.65"/>
            </clipPath>
<clipPath id="terminal-574310784-line-5">
    <rect x="0" y="123.5" width="976" height="24.65"/>
            </clipPath>
<clipPath id="terminal-574310784-line-6">
    <rect x="0" y="147.9" width="976" height="24.65"/>
            </clipPath>
<clipPath id="terminal-574310784-line-7">
    <rect x="0" y="172.3" width="976" height="24.65"/>
            </clipPath>
<clipPath id="terminal-574310784-line-8">
    <rect x="0" y="196.7" width="976" height="24.65"/>
            </clipPath>
<clipPath id="terminal-574310784-line-9">
    <rect x="0" y="221.1" width="976" height="24.65"/>
            </clipPath>
<clipPath id="terminal-574310784-line-10">
    <rect x="0" y="245.5" width="976" height="24.65"/>
            </clipPath>
<clipPath id="terminal-574310784-line-11">
    <rect x="0" y="269.9" width="976" height="24.65"/>
            </clipPath>
<clipPath id="terminal-574310784-line-12">
    <rect x="0" y="294.3" width="976" height="24.65"/>
            </clipPath>
<clipPath id="terminal-574310784-line-13">
    <rect x="0" y="318.7" width="976" height="24.65"/>
            </clipPath>
<clipPath id="terminal-574310784-line-14">
    <rect x="0" y="343.1" width="976" height="24.65"/>
            </clipPath>
<clipPath id="terminal-574310784-line-15">
    <rect x="0" y="367.5" width="976" height="24.65"/>
            </clipPath>
<clipPath id="terminal-574310784-line-16">
    <rect x="0" y="391.9" width="976" height="24.65"/>
            </clipPath>
<clipPath id="terminal-574310784-line-17">
    <rect x="0" y="416.3" width="976" height="24.65"/>
            </clipPath>
<clipPath id="terminal-574310784-line-18">
    <rect x="0" y="440.7" width="976" height="24.65"/>
            </clipPath>
<clipPath id="terminal-574310784-line-19">
    <rect x="0" y="465.1" width="976" height="24.65"/>
            </clipPath>
<clipPath id="terminal-574310784-line-20">
    <rect x="0" y="489.5" width="976" height="24.65"/>
            </clipPath>
<clipPath id="terminal-574310784-line-21">
    <rect x="0" y="513.9" width="976" height="24.65"/>
            </clipPath>
<clipPath id="terminal-574310784-line-22">
    <rect x="0" y="538.3" width="976" height="24.65"/>
            </clipPath>
    </defs>

    <rect fill="#292929" stroke="rgba(255,255,255,0.35)" stroke-width="1" x="1" y="1" width="992" height="633.6" rx="8"/><text class="terminal-574310784-title" fill="#c5c8c6" text-anchor="middle" x="496" y="27">Iolanta</text>
            <g transform="translate(26,22)">
            <circle cx="0" cy="0" r="7" fill="#ff5f57"/>
            <circle cx="22" cy="0" r="7" fill="#febc2e"/>
            <circle cx="44" cy="0" r="7" fill="#28c840"/>
            </g>
        
    <g transform="translate(9, 41)" clip-path="url(#terminal-574310784-clip-terminal)">
    <rect fill="#282828" x="0" y="1.5" width="12.2" height="24.65" shape-rendering="crispEdges"/><rect fill="#282828" x="12.2" y="1.5" width="12.2" height="24.65" shape-rendering="crispEdges"/><rect fill="#282828" x="24.4" y="1.5" width="61" height="24.65" shape-rendering="crispEdges"/><rect fill="#282828" x="85.4" y="1.5" width="12.2" height="24.65" shape-rendering="crispEdges"/><rect fill="#282828" x="97.6" y="1.5" width="85.4" height="24.65" shape-rendering="crispEdges"/><rect fill="#282828" x="183" y="1.5" width="122" height="24.65" shape-rendering="crispEdges"/><rect fill="#282828" x="305" y="1.5" width="463.6" height="24.65" shape-rendering="crispEdges"/><rect fill="#282828" x="768.6" y="1.5" width="85.4" height="24.65" shape-rendering="crispEdges"/><rect fill="#282828" x="854" y="1.5" width="12.2" height="24.65" shape-rendering="crispEdges"/><rect fill="#282828" x="866.2" y="1.5" width="0" height="24.65" shape-rendering="crispEdges"/><rect fill="#282828" x="866.2" y="1.5" width="97.6" height="24.65" shape-rendering="crispEdges"/><rect fill="#282828" x="963.8" y="1.5" width="12.2" height="24.65" shape-rendering="crispEdges"/><rect fill="#483d8b" x="0" y="25.9" width="976" height="24.65" shape-rendering="crispEdges"/><rect fill="#483d8b" x="0" y="50.3" width="12.2" height="24.65" shape-rendering="crispEdges"/><rect fill="#483d8b" x="12.2" y="50.3" width="109.8" height="24.65" shape-rendering="crispEdges"/><rect fill="#483d8b" x="122" y="50.3" width="244" height="24.65" shape-rendering="crispEdges"/><rect fill="#483d8b" x="366" y="50.3" width="597.8" height="24.65" shape-rendering="crispEdges"/><rect fill="#483d8b" x="963.8" y="50.3" width="12.2" height="24.65" shape-rendering="crispEdges"/><rect fill="#483d8b" x="0" y="74.7" width="976" height="24.65" shape-rendering="crispEdges"/><rect fill="#1e1e1e" x="0" y="99.1" width="292.8" height="24.65" shape-rendering="crispEdges"/><rect fill="#1e1e1e" x="292.8" y="99.1" width="683.2" height="24.65" shape-rendering="crispEdges"/><rect fill="#1e1e1e" x="0" y="123.5" width="134.2" height="24.65" shape-rendering="crispEdges"/><rect fill="#1e1e1e" x="134.2" y="123.5" width="12.2" height="24.65" shape-rendering="crispEdges"/><rect fill="#1e1e1e" x="146.4" y="123.5" width="97.6" height="24.65" shape-rendering="crispEdges"/><rect fill="#1e1e1e" x="244" y="123.5" width="12.2" height="24.65" shape-rendering="crispEdges"/><rect fill="#1e1e1e" x="256.2" y="123.5" width="719.8" height="24.65" shape-rendering="crispEdges"/><rect fill="#1e1e1e" x="0" y="147.9" width="134.2" height="24.65" shape-rendering="crispEdges"/><rect fill="#1e1e1e" x="134.2" y="147.9" width="12.2" height="24.65" shape-rendering="crispEdges"/><rect fill="#1e1e1e" x="146.4" y="147.9" width="109.8" height="24.65" shape-rendering="crispEdges"/><rect fill="#1e1e1e" x="256.2" y="147.9" width="719.8" height="24.65" shape-rendering="crispEdges"/><rect fill="#1e1e1e" x="0" y="172.3" width="24.4" height="24.65" shape-rendering="crispEdges"/><rect fill="#1e1e1e" x="24.4" y="172.3" width="109.8" height="24.65" shape-rendering="crispEdges"/><rect fill="#1e1e1e" x="134.2" y="172.3" width="841.8" height="24.65" shape-rendering="crispEdges"/><rect fill="#1e1e1e" x="0" y="196.7" width="48.8" height="24.65" shape-rendering="crispEdges"/><rect fill="#1e1e1e" x="48.8" y="196.7" width="85.4" height="24.65" shape-rendering="crispEdges"/><rect fill="#1e1e1e" x="134.2" y="196.7" width="12.2" height="24.65" shape-rendering="crispEdges"/><rect fill="#1e1e1e" x="146.4" y="196.7" width="61" height="24.65" shape-rendering="crispEdges"/><rect fill="#1e1e1e" x="207.4" y="196.7" width="12.2" height="24.65" shape-rendering="crispEdges"/><rect fill="#1e1e1e" x="219.6" y="196.7" width="756.4" height="24.65" shape-rendering="crispEdges"/><rect fill="#1e1e1e" x="0" y="221.1" width="146.4" height="24.65" shape-rendering="crispEdges"/><rect fill="#1e1e1e" x="146.4" y="221.1" width="73.2" height="24.65" shape-rendering="crispEdges"/><rect fill="#1e1e1e" x="219.6" y="221.1" width="756.4" height="24.65" shape-rendering="crispEdges"/><rect fill="#1e1e1e" x="0" y="245.5" width="134.2" height="24.65" shape-rendering="crispEdges"/><rect fill="#1e1e1e" x="134.2" y="245.5" width="12.2" height="24.65" shape-rendering="crispEdges"/><rect fill="#1e1e1e" x="146.4" y="245.5" width="427" height="24.65" shape-rendering="crispEdges"/><rect fill="#1e1e1e" x="573.4" y="245.5" width="12.2" height="24.65" shape-rendering="crispEdges"/><rect fill="#1e1e1e" x="585.6" y="245.5" width="390.4" height="24.65" shape-rendering="crispEdges"/><rect fill="#1e1e1e" x="0" y="269.9" width="146.4" height="24.65" shape-rendering="crispEdges"/><rect fill="#1e1e1e" x="146.4" y="269.9" width="439.2" height="24.65" shape-rendering="crispEdges"/><rect fill="#1e1e1e" x="585.6" y="269.9" width="390.4" height="24.65" shape-rendering="crispEdges"/><rect fill="#1e1e1e" x="0" y="294.3" width="122" height="24.65" shape-rendering="crispEdges"/><rect fill="#1e1e1e" x="122" y="294.3" width="12.2" height="24.65" shape-rendering="crispEdges"/><rect fill="#1e1e1e" x="134.2" y="294.3" width="12.2" height="24.65" shape-rendering="crispEdges"/><rect fill="#1e1e1e" x="146.4" y="294.3" width="97.6" height="24.65" shape-rendering="crispEdges"/><rect fill="#1e1e1e" x="244" y="294.3" width="12.2" height="24.65" shape-rendering="crispEdges"/><rect fill="#1e1e1e" x="256.2" y="294.3" width="719.8" height="24.65" shape-rendering="crispEdges"/><rect fill="#1e1e1e" x="0" y="318.7" width="146.4" height="24.65" shape-rendering="crispEdges"/><rect fill="#1e1e1e" x="146.4" y="318.7" width="109.8" height="24.65" shape-rendering="crispEdges"/><rect fill="#1e1e1e" x="256.2" y="318.7" width="719.8" height="24.65" shape-rendering="crispEdges"/><rect fill="#1e1e1e" x="0" y="343.1" width="976" height="24.65" shape-rendering="crispEdges"/><rect fill="#1e1e1e" x="0" y="367.5" width="976" height="24.65" shape-rendering="crispEdges"/><rect fill="#1e1e1e" x="0" y="391.9" width="976" height="24.65" shape-rendering="crispEdges"/><rect fill="#1e1e1e" x="0" y="416.3" width="976" height="24.65" shape-rendering="crispEdges"/><rect fill="#1e1e1e" x="0" y="440.7" width="976" height="24.65" shape-rendering="crispEdges"/><rect fill="#1e1e1e" x="0" y="465.1" width="976" height="24.65" shape-rendering="crispEdges"/><rect fill="#1e1e1e" x="0" y="489.5" width="976" height="24.65" shape-rendering="crispEdges"/><rect fill="#1e1e1e" x="0" y="513.9" width="976" height="24.65" shape-rendering="crispEdges"/><rect fill="#1e1e1e" x="0" y="538.3" width="976" height="24.65" shape-rendering="crispEdges"/><rect fill="#24292f" x="0" y="562.7" width="36.6" height="24.65" shape-rendering="crispEdges"/><rect fill="#24292f" x="36.6" y="562.7" width="122" height="24.65" shape-rendering="crispEdges"/><rect fill="#24292f" x="158.6" y="562.7" width="36.6" height="24.65" shape-rendering="crispEdges"/><rect fill="#24292f" x="195.2" y="562.7" width="231.8" height="24.65" shape-rendering="crispEdges"/><rect fill="#24292f" x="427" y="562.7" width="85.4" height="24.65" shape-rendering="crispEdges"/><rect fill="#24292f" x="512.4" y="562.7" width="61" height="24.65" shape-rendering="crispEdges"/><rect fill="#24292f" x="573.4" y="562.7" width="85.4" height="24.65" shape-rendering="crispEdges"/><rect fill="#24292f" x="658.8" y="562.7" width="48.8" height="24.65" shape-rendering="crispEdges"/><rect fill="#24292f" x="707.6" y="562.7" width="61" height="24.65" shape-rendering="crispEdges"/><rect fill="#24292f" x="768.6" y="562.7" width="61" height="24.65" shape-rendering="crispEdges"/><rect fill="#24292f" x="829.6" y="562.7" width="12.2" height="24.65" shape-rendering="crispEdges"/><rect fill="#24292f" x="841.8" y="562.7" width="24.4" height="24.65" shape-rendering="crispEdges"/><rect fill="#24292f" x="866.2" y="562.7" width="97.6" height="24.65" shape-rendering="crispEdges"/><rect fill="#24292f" x="963.8" y="562.7" width="12.2" height="24.65" shape-rendering="crispEdges"/>
    <g class="terminal-574310784-matrix">
    <text class="terminal-574310784-r2" x="12.2" y="20" textLength="24.4" clip-path="url(#terminal-574310784-line-0)">👁️</text><text class="terminal-574310784-r2" x="183" y="20" textLength="122" clip-path="url(#terminal-574310784-line-0)">Iolanta&#160;—&#160;</text><text class="terminal-574310784-r3" x="305" y="20" textLength="463.6" clip-path="url(#terminal-574310784-line-0)">http://www.w3.org/2002/07/owl#Ontology</text><text class="terminal-574310784-r1" x="976" y="20" textLength="12.2" clip-path="url(#terminal-574310784-line-0)">
</text><text class="terminal-574310784-r1" x="976" y="44.4" textLength="12.2" clip-path="url(#terminal-574310784-line-1)">
</text><text class="terminal-574310784-r4" x="12.2" y="68.8" textLength="109.8" clip-path="url(#terminal-574310784-line-2)">Ontology&#160;</text><text class="terminal-574310784-r5" x="122" y="68.8" textLength="244" clip-path="url(#terminal-574310784-line-2)">&amp;&#160;its&#160;RDF&#160;properties</text><text class="terminal-574310784-r1" x="976" y="68.8" textLength="12.2" clip-path="url(#terminal-574310784-line-2)">
</text><text class="terminal-574310784-r1" x="976" y="93.2" textLength="12.2" clip-path="url(#terminal-574310784-line-3)">
</text><text class="terminal-574310784-r6" x="0" y="117.6" textLength="292.8" clip-path="url(#terminal-574310784-line-4)">The&#160;class&#160;of&#160;ontologies.</text><text class="terminal-574310784-r1" x="976" y="117.6" textLength="12.2" clip-path="url(#terminal-574310784-line-4)">
</text><text class="terminal-574310784-r6" x="0" y="142" textLength="134.2" clip-path="url(#terminal-574310784-line-5)">iolanta:has</text><text class="terminal-574310784-r6" x="146.4" y="142" textLength="97.6" clip-path="url(#terminal-574310784-line-5)">Ontology</text><text class="terminal-574310784-r1" x="976" y="142" textLength="12.2" clip-path="url(#terminal-574310784-line-5)">
</text><text class="terminal-574310784-r6" x="0" y="166.4" textLength="134.2" clip-path="url(#terminal-574310784-line-6)">InstanceFac</text><text class="terminal-574310784-r1" x="976" y="166.4" textLength="12.2" clip-path="url(#terminal-574310784-line-6)">
</text><text class="terminal-574310784-r6" x="0" y="190.8" textLength="24.4" clip-path="url(#terminal-574310784-line-7)">et</text><text class="terminal-574310784-r1" x="976" y="190.8" textLength="12.2" clip-path="url(#terminal-574310784-line-7)">
</text><text class="terminal-574310784-r6" x="0" y="215.2" textLength="48.8" clip-path="url(#terminal-574310784-line-8)">type</text><text class="terminal-574310784-r6" x="146.4" y="215.2" textLength="61" clip-path="url(#terminal-574310784-line-8)">Class</text><text class="terminal-574310784-r1" x="976" y="215.2" textLength="12.2" clip-path="url(#terminal-574310784-line-8)">
</text><text class="terminal-574310784-r1" x="976" y="239.6" textLength="12.2" clip-path="url(#terminal-574310784-line-9)">
</text><text class="terminal-574310784-r6" x="0" y="264" textLength="134.2" clip-path="url(#terminal-574310784-line-10)">isDefinedBy</text><text class="terminal-574310784-r6" x="146.4" y="264" textLength="427" clip-path="url(#terminal-574310784-line-10)">The&#160;OWL&#160;2&#160;Schema&#160;vocabulary&#160;(OWL&#160;2)</text><text class="terminal-574310784-r1" x="976" y="264" textLength="12.2" clip-path="url(#terminal-574310784-line-10)">
</text><text class="terminal-574310784-r1" x="976" y="288.4" textLength="12.2" clip-path="url(#terminal-574310784-line-11)">
</text><text class="terminal-574310784-r6" x="0" y="312.8" textLength="122" clip-path="url(#terminal-574310784-line-12)">subClassOf</text><text class="terminal-574310784-r6" x="146.4" y="312.8" textLength="97.6" clip-path="url(#terminal-574310784-line-12)">Resource</text><text class="terminal-574310784-r1" x="976" y="312.8" textLength="12.2" clip-path="url(#terminal-574310784-line-12)">
</text><text class="terminal-574310784-r1" x="976" y="337.2" textLength="12.2" clip-path="url(#terminal-574310784-line-13)">
</text><text class="terminal-574310784-r1" x="976" y="361.6" textLength="12.2" clip-path="url(#terminal-574310784-line-14)">
</text><text class="terminal-574310784-r1" x="976" y="386" textLength="12.2" clip-path="url(#terminal-574310784-line-15)">
</text><text class="terminal-574310784-r1" x="976" y="410.4" textLength="12.2" clip-path="url(#terminal-574310784-line-16)">
</text><text class="terminal-574310784-r1" x="976" y="434.8" textLength="12.2" clip-path="url(#terminal-574310784-line-17)">
</text><text class="terminal-574310784-r1" x="976" y="459.2" textLength="12.2" clip-path="url(#terminal-574310784-line-18)">
</text><text class="terminal-574310784-r1" x="976" y="483.6" textLength="12.2" clip-path="url(#terminal-574310784-line-19)">
</text><text class="terminal-574310784-r1" x="976" y="508" textLength="12.2" clip-path="url(#terminal-574310784-line-20)">
</text><text class="terminal-574310784-r1" x="976" y="532.4" textLength="12.2" clip-path="url(#terminal-574310784-line-21)">
</text><text class="terminal-574310784-r1" x="976" y="556.8" textLength="12.2" clip-path="url(#terminal-574310784-line-22)">
</text><text class="terminal-574310784-r7" x="0" y="581.2" textLength="36.6" clip-path="url(#terminal-574310784-line-23)">&#160;1&#160;</text><text class="terminal-574310784-r8" x="36.6" y="581.2" textLength="122" clip-path="url(#terminal-574310784-line-23)">Instances&#160;</text><text class="terminal-574310784-r7" x="158.6" y="581.2" textLength="36.6" clip-path="url(#terminal-574310784-line-23)">&#160;2&#160;</text><text class="terminal-574310784-r8" x="195.2" y="581.2" textLength="231.8" clip-path="url(#terminal-574310784-line-23)">Inverse&#160;Properties&#160;</text><text class="terminal-574310784-r7" x="427" y="581.2" textLength="85.4" clip-path="url(#terminal-574310784-line-23)">&#160;alt+←&#160;</text><text class="terminal-574310784-r8" x="512.4" y="581.2" textLength="61" clip-path="url(#terminal-574310784-line-23)">Back&#160;</text><text class="terminal-574310784-r7" x="573.4" y="581.2" textLength="85.4" clip-path="url(#terminal-574310784-line-23)">&#160;alt+→&#160;</text><text class="terminal-574310784-r8" x="658.8" y="581.2" textLength="48.8" clip-path="url(#terminal-574310784-line-23)">Fwd&#160;</text><text class="terminal-574310784-r7" x="707.6" y="581.2" textLength="61" clip-path="url(#terminal-574310784-line-23)">&#160;f12&#160;</text><text class="terminal-574310784-r8" x="768.6" y="581.2" textLength="61" clip-path="url(#terminal-574310784-line-23)">Conso</text><text class="terminal-574310784-r9" x="829.6" y="581.2" textLength="12.2" clip-path="url(#terminal-574310784-line-23)">▏</text><text class="terminal-574310784-r7" x="841.8" y="581.2" textLength="24.4" clip-path="url(#terminal-574310784-line-23)">^p</text><text class="terminal-574310784-r8" x="866.2" y="581.2" textLength="97.6" clip-path="url(#terminal-574310784-line-23)">&#160;palette</text>
    </g>
    </g>
</svg>
