<svg class="rich-terminal" viewBox="0 0 994 635.5999999999999" xmlns="http://www.w3.org/2000/svg">
    <!-- Generated with Rich https://www.textualize.io -->
    <style>

    @font-face {
        font-family: "Fira Code";
        src: local("FiraCode-Regular"),
                url("https://cdnjs.cloudflare.com/ajax/libs/firacode/6.2.0/woff2/FiraCode-Regular.woff2") format("woff2"),
                url("https://cdnjs.cloudflare.com/ajax/libs/firacode/6.2.0/woff/FiraCode-Regular.woff") format("woff");
        font-style: normal;
        font-weight: 400;
    }
    @font-face {
        font-family: "Fira Code";
        src: local("FiraCode-Bold"),
                url("https://cdnjs.cloudflare.com/ajax/libs/firacode/6.2.0/woff2/FiraCode-Bold.woff2") format("woff2"),
                url("https://cdnjs.cloudflare.com/ajax/libs/firacode/6.2.0/woff/FiraCode-Bold.woff") format("woff");
        font-style: bold;
        font-weight: 700;
    }

    .terminal-2929471168-matrix {
        font-family: Fira Code, monospace;
        font-size: 20px;
        line-height: 24.4px;
        font-variant-east-asian: full-width;
    }

    .terminal-2929471168-title {
        font-size: 18px;
        font-weight: bold;
        font-family: arial;
    }

    .terminal-2929471168-r1 { fill: #c5c8c6 }
.terminal-2929471168-r2 { fill: #e0e0e0 }
.terminal-2929471168-r3 { fill: #ffffff;font-weight: bold }
.terminal-2929471168-r4 { fill: #ffa62b;font-weight: bold }
.terminal-2929471168-r5 { fill: #495259 }
    </style>

    <defs>
    <clipPath id="terminal-2929471168-clip-terminal">
      <rect x="0" y="0" width="975.0" height="584.5999999999999" />
    </clipPath>
    <clipPath id="terminal-2929471168-line-0">
    <rect x="0" y="1.5" width="976" height="24.65"/>
            </clipPath>
<clipPath id="terminal-2929471168-line-1">
    <rect x="0" y="25.9" width="976" height="24.65"/>
            </clipPath>
<clipPath id="terminal-2929471168-line-2">
    <rect x="0" y="50.3" width="976" height="24.65"/>
            </clipPath>
<clipPath id="terminal-2929471168-line-3">
    <rect x="0" y="74.7" width="976" height="24.65"/>
            </clipPath>
<clipPath id="terminal-2929471168-line-4">
    <rect x="0" y="99.1" width="976" height="24.65"/>
            </clipPath>
<clipPath id="terminal-2929471168-line-5">
    <rect x="0" y="123.5" width="976" height="24.65"/>
            </clipPath>
<clipPath id="terminal-2929471168-line-6">
    <rect x="0" y="147.9" width="976" height="24.65"/>
            </clipPath>
<clipPath id="terminal-2929471168-line-7">
    <rect x="0" y="172.3" width="976" height="24.65"/>
            </clipPath>
<clipPath id="terminal-2929471168-line-8">
    <rect x="0" y="196.7" width="976" height="24.65"/>
            </clipPath>
<clipPath id="terminal-2929471168-line-9">
    <rect x="0" y="221.1" width="976" height="24.65"/>
            </clipPath>
<clipPath id="terminal-2929471168-line-10">
    <rect x="0" y="245.5" width="976" height="24.65"/>
            </clipPath>
<clipPath id="terminal-2929471168-line-11">
    <rect x="0" y="269.9" width="976" height="24.65"/>
            </clipPath>
<clipPath id="terminal-2929471168-line-12">
    <rect x="0" y="294.3" width="976" height="24.65"/>
            </clipPath>
<clipPath id="terminal-2929471168-line-13">
    <rect x="0" y="318.7" width="976" height="24.65"/>
            </clipPath>
<clipPath id="terminal-2929471168-line-14">
    <rect x="0" y="343.1" width="976" height="24.65"/>
            </clipPath>
<clipPath id="terminal-2929471168-line-15">
    <rect x="0" y="367.5" width="976" height="24.65"/>
            </clipPath>
<clipPath id="terminal-2929471168-line-16">
    <rect x="0" y="391.9" width="976" height="24.65"/>
            </clipPath>
<clipPath id="terminal-2929471168-line-17">
    <rect x="0" y="416.3" width="976" height="24.65"/>
            </clipPath>
<clipPath id="terminal-2929471168-line-18">
    <rect x="0" y="440.7" width="976" height="24.65"/>
            </clipPath>
<clipPath id="terminal-2929471168-line-19">
    <rect x="0" y="465.1" width="976" height="24.65"/>
            </clipPath>
<clipPath id="terminal-2929471168-line-20">
    <rect x="0" y="489.5" width="976" height="24.65"/>
            </clipPath>
<clipPath id="terminal-2929471168-line-21">
    <rect x="0" y="513.9" width="976" height="24.65"/>
            </clipPath>
<clipPath id="terminal-2929471168-line-22">
    <rect x="0" y="538.3" width="976" height="24.65"/>
            </clipPath>
    </defs>

    <rect fill="#292929" stroke="rgba(255,255,255,0.35)" stroke-width="1" x="1" y="1" width="992" height="633.6" rx="8"/><text class="terminal-2929471168-title" fill="#c5c8c6" text-anchor="middle" x="496" y="27">Iolanta</text>
            <g transform="translate(26,22)">
            <circle cx="0" cy="0" r="7" fill="#ff5f57"/>
            <circle cx="22" cy="0" r="7" fill="#febc2e"/>
            <circle cx="44" cy="0" r="7" fill="#28c840"/>
            </g>
        
    <g transform="translate(9, 41)" clip-path="url(#terminal-2929471168-clip-terminal)">
    <rect fill="#242f38" x="0" y="1.5" width="12.2" height="24.65" shape-rendering="crispEdges"/><rect fill="#242f38" x="12.2" y="1.5" width="12.2" height="24.65" shape-rendering="crispEdges"/><rect fill="#242f38" x="24.4" y="1.5" width="61" height="24.65" shape-rendering="crispEdges"/><rect fill="#242f38" x="85.4" y="1.5" width="12.2" height="24.65" shape-rendering="crispEdges"/><rect fill="#242f38" x="97.6" y="1.5" width="317.2" height="24.65" shape-rendering="crispEdges"/><rect fill="#242f38" x="414.8" y="1.5" width="122" height="24.65" shape-rendering="crispEdges"/><rect fill="#242f38" x="536.8" y="1.5" width="317.2" height="24.65" shape-rendering="crispEdges"/><rect fill="#242f38" x="854" y="1.5" width="12.2" height="24.65" shape-rendering="crispEdges"/><rect fill="#242f38" x="866.2" y="1.5" width="0" height="24.65" shape-rendering="crispEdges"/><rect fill="#242f38" x="866.2" y="1.5" width="97.6" height="24.65" shape-rendering="crispEdges"/><rect fill="#242f38" x="963.8" y="1.5" width="12.2" height="24.65" shape-rendering="crispEdges"/><rect fill="#483d8b" x="0" y="25.9" width="976" height="24.65" shape-rendering="crispEdges"/><rect fill="#483d8b" x="0" y="50.3" width="12.2" height="24.65" shape-rendering="crispEdges"/><rect fill="#483d8b" x="12.2" y="50.3" width="183" height="24.65" shape-rendering="crispEdges"/><rect fill="#483d8b" x="195.2" y="50.3" width="768.6" height="24.65" shape-rendering="crispEdges"/><rect fill="#483d8b" x="963.8" y="50.3" width="12.2" height="24.65" shape-rendering="crispEdges"/><rect fill="#483d8b" x="0" y="74.7" width="976" height="24.65" shape-rendering="crispEdges"/><rect fill="#121212" x="0" y="99.1" width="976" height="24.65" shape-rendering="crispEdges"/><rect fill="#121212" x="0" y="123.5" width="24.4" height="24.65" shape-rendering="crispEdges"/><rect fill="#8b0000" x="24.4" y="123.5" width="170.8" height="24.65" shape-rendering="crispEdges"/><rect fill="#00008b" x="195.2" y="123.5" width="97.6" height="24.65" shape-rendering="crispEdges"/><rect fill="#ff8c00" x="292.8" y="123.5" width="109.8" height="24.65" shape-rendering="crispEdges"/><rect fill="#121212" x="402.6" y="123.5" width="549" height="24.65" shape-rendering="crispEdges"/><rect fill="#121212" x="951.6" y="123.5" width="24.4" height="24.65" shape-rendering="crispEdges"/><rect fill="#121212" x="0" y="147.9" width="24.4" height="24.65" shape-rendering="crispEdges"/><rect fill="#8b0000" x="24.4" y="147.9" width="24.4" height="24.65" shape-rendering="crispEdges"/><rect fill="#8b0000" x="48.8" y="147.9" width="122" height="24.65" shape-rendering="crispEdges"/><rect fill="#8b0000" x="170.8" y="147.9" width="24.4" height="24.65" shape-rendering="crispEdges"/><rect fill="#00008b" x="195.2" y="147.9" width="24.4" height="24.65" shape-rendering="crispEdges"/><rect fill="#00008b" x="219.6" y="147.9" width="48.8" height="24.65" shape-rendering="crispEdges"/><rect fill="#00008b" x="268.4" y="147.9" width="24.4" height="24.65" shape-rendering="crispEdges"/><rect fill="#ff8c00" x="292.8" y="147.9" width="24.4" height="24.65" shape-rendering="crispEdges"/><rect fill="#ff8c00" x="317.2" y="147.9" width="61" height="24.65" shape-rendering="crispEdges"/><rect fill="#ff8c00" x="378.2" y="147.9" width="24.4" height="24.65" shape-rendering="crispEdges"/><rect fill="#121212" x="402.6" y="147.9" width="549" height="24.65" shape-rendering="crispEdges"/><rect fill="#121212" x="951.6" y="147.9" width="24.4" height="24.65" shape-rendering="crispEdges"/><rect fill="#121212" x="0" y="172.3" width="24.4" height="24.65" shape-rendering="crispEdges"/><rect fill="#8b0000" x="24.4" y="172.3" width="170.8" height="24.65" shape-rendering="crispEdges"/><rect fill="#00008b" x="195.2" y="172.3" width="97.6" height="24.65" shape-rendering="crispEdges"/><rect fill="#ff8c00" x="292.8" y="172.3" width="109.8" height="24.65" shape-rendering="crispEdges"/><rect fill="#121212" x="402.6" y="172.3" width="549" height="24.65" shape-rendering="crispEdges"/><rect fill="#121212" x="951.6" y="172.3" width="24.4" height="24.65" shape-rendering="crispEdges"/><rect fill="#121212" x="0" y="196.7" width="24.4" height="24.65" shape-rendering="crispEdges"/><rect fill="#121212" x="24.4" y="196.7" width="927.2" height="24.65" shape-rendering="crispEdges"/><rect fill="#121212" x="951.6" y="196.7" width="24.4" height="24.65" shape-rendering="crispEdges"/><rect fill="#121212" x="0" y="221.1" width="24.4" height="24.65" shape-rendering="crispEdges"/><rect fill="#8b0000" x="24.4" y="221.1" width="170.8" height="24.65" shape-rendering="crispEdges"/><rect fill="#008b8b" x="195.2" y="221.1" width="109.8" height="24.65" shape-rendering="crispEdges"/><rect fill="#121212" x="305" y="221.1" width="170.8" height="24.65" shape-rendering="crispEdges"/><rect fill="#121212" x="475.8" y="221.1" width="475.8" height="24.65" shape-rendering="crispEdges"/><rect fill="#121212" x="951.6" y="221.1" width="24.4" height="24.65" shape-rendering="crispEdges"/><rect fill="#121212" x="0" y="245.5" width="24.4" height="24.65" shape-rendering="crispEdges"/><rect fill="#8b0000" x="24.4" y="245.5" width="24.4" height="24.65" shape-rendering="crispEdges"/><rect fill="#8b0000" x="48.8" y="245.5" width="122" height="24.65" shape-rendering="crispEdges"/><rect fill="#8b0000" x="170.8" y="245.5" width="24.4" height="24.65" shape-rendering="crispEdges"/><rect fill="#008b8b" x="195.2" y="245.5" width="24.4" height="24.65" shape-rendering="crispEdges"/><rect fill="#008b8b" x="219.6" y="245.5" width="61" height="24.65" shape-rendering="crispEdges"/><rect fill="#008b8b" x="280.6" y="245.5" width="24.4" height="24.65" shape-rendering="crispEdges"/><rect fill="#121212" x="305" y="245.5" width="24.4" height="24.65" shape-rendering="crispEdges"/><rect fill="#121212" x="329.4" y="245.5" width="122" height="24.65" shape-rendering="crispEdges"/><rect fill="#121212" x="451.4" y="245.5" width="24.4" height="24.65" shape-rendering="crispEdges"/><rect fill="#121212" x="475.8" y="245.5" width="475.8" height="24.65" shape-rendering="crispEdges"/><rect fill="#121212" x="951.6" y="245.5" width="24.4" height="24.65" shape-rendering="crispEdges"/><rect fill="#121212" x="0" y="269.9" width="24.4" height="24.65" shape-rendering="crispEdges"/><rect fill="#8b0000" x="24.4" y="269.9" width="170.8" height="24.65" shape-rendering="crispEdges"/><rect fill="#008b8b" x="195.2" y="269.9" width="109.8" height="24.65" shape-rendering="crispEdges"/><rect fill="#121212" x="305" y="269.9" width="170.8" height="24.65" shape-rendering="crispEdges"/><rect fill="#121212" x="475.8" y="269.9" width="475.8" height="24.65" shape-rendering="crispEdges"/><rect fill="#121212" x="951.6" y="269.9" width="24.4" height="24.65" shape-rendering="crispEdges"/><rect fill="#121212" x="0" y="294.3" width="24.4" height="24.65" shape-rendering="crispEdges"/><rect fill="#121212" x="24.4" y="294.3" width="927.2" height="24.65" shape-rendering="crispEdges"/><rect fill="#121212" x="951.6" y="294.3" width="24.4" height="24.65" shape-rendering="crispEdges"/><rect fill="#121212" x="0" y="318.7" width="24.4" height="24.65" shape-rendering="crispEdges"/><rect fill="#8b0000" x="24.4" y="318.7" width="170.8" height="24.65" shape-rendering="crispEdges"/><rect fill="#b8860b" x="195.2" y="318.7" width="170.8" height="24.65" shape-rendering="crispEdges"/><rect fill="#121212" x="366" y="318.7" width="549" height="24.65" shape-rendering="crispEdges"/><rect fill="#121212" x="915" y="318.7" width="36.6" height="24.65" shape-rendering="crispEdges"/><rect fill="#121212" x="951.6" y="318.7" width="24.4" height="24.65" shape-rendering="crispEdges"/><rect fill="#121212" x="0" y="343.1" width="24.4" height="24.65" shape-rendering="crispEdges"/><rect fill="#8b0000" x="24.4" y="343.1" width="24.4" height="24.65" shape-rendering="crispEdges"/><rect fill="#8b0000" x="48.8" y="343.1" width="122" height="24.65" shape-rendering="crispEdges"/><rect fill="#8b0000" x="170.8" y="343.1" width="24.4" height="24.65" shape-rendering="crispEdges"/><rect fill="#b8860b" x="195.2" y="343.1" width="24.4" height="24.65" shape-rendering="crispEdges"/><rect fill="#b8860b" x="219.6" y="343.1" width="122" height="24.65" shape-rendering="crispEdges"/><rect fill="#b8860b" x="341.6" y="343.1" width="24.4" height="24.65" shape-rendering="crispEdges"/><rect fill="#121212" x="366" y="343.1" width="24.4" height="24.65" shape-rendering="crispEdges"/><rect fill="#121212" x="390.4" y="343.1" width="500.2" height="24.65" shape-rendering="crispEdges"/><rect fill="#121212" x="890.6" y="343.1" width="24.4" height="24.65" shape-rendering="crispEdges"/><rect fill="#121212" x="915" y="343.1" width="36.6" height="24.65" shape-rendering="crispEdges"/><rect fill="#121212" x="951.6" y="343.1" width="24.4" height="24.65" shape-rendering="crispEdges"/><rect fill="#121212" x="0" y="367.5" width="24.4" height="24.65" shape-rendering="crispEdges"/><rect fill="#8b0000" x="24.4" y="367.5" width="170.8" height="24.65" shape-rendering="crispEdges"/><rect fill="#b8860b" x="195.2" y="367.5" width="170.8" height="24.65" shape-rendering="crispEdges"/><rect fill="#121212" x="366" y="367.5" width="549" height="24.65" shape-rendering="crispEdges"/><rect fill="#121212" x="915" y="367.5" width="36.6" height="24.65" shape-rendering="crispEdges"/><rect fill="#121212" x="951.6" y="367.5" width="24.4" height="24.65" shape-rendering="crispEdges"/><rect fill="#121212" x="0" y="391.9" width="24.4" height="24.65" shape-rendering="crispEdges"/><rect fill="#121212" x="24.4" y="391.9" width="927.2" height="24.65" shape-rendering="crispEdges"/><rect fill="#121212" x="951.6" y="391.9" width="24.4" height="24.65" shape-rendering="crispEdges"/><rect fill="#121212" x="0" y="416.3" width="976" height="24.65" shape-rendering="crispEdges"/><rect fill="#121212" x="0" y="440.7" width="976" height="24.65" shape-rendering="crispEdges"/><rect fill="#121212" x="0" y="465.1" width="24.4" height="24.65" shape-rendering="crispEdges"/><rect fill="#121212" x="24.4" y="465.1" width="61" height="24.65" shape-rendering="crispEdges"/><rect fill="#121212" x="85.4" y="465.1" width="183" height="24.65" shape-rendering="crispEdges"/><rect fill="#121212" x="268.4" y="465.1" width="402.6" height="24.65" shape-rendering="crispEdges"/><rect fill="#8b0000" x="671" y="465.1" width="195.2" height="24.65" shape-rendering="crispEdges"/><rect fill="#8b0000" x="866.2" y="465.1" width="85.4" height="24.65" shape-rendering="crispEdges"/><rect fill="#121212" x="951.6" y="465.1" width="24.4" height="24.65" shape-rendering="crispEdges"/><rect fill="#121212" x="0" y="489.5" width="24.4" height="24.65" shape-rendering="crispEdges"/><rect fill="#121212" x="24.4" y="489.5" width="24.4" height="24.65" shape-rendering="crispEdges"/><rect fill="#121212" x="48.8" y="489.5" width="12.2" height="24.65" shape-rendering="crispEdges"/><rect fill="#121212" x="61" y="489.5" width="24.4" height="24.65" shape-rendering="crispEdges"/><rect fill="#121212" x="85.4" y="489.5" width="24.4" height="24.65" shape-rendering="crispEdges"/><rect fill="#121212" x="109.8" y="489.5" width="134.2" height="24.65" shape-rendering="crispEdges"/><rect fill="#121212" x="244" y="489.5" width="24.4" height="24.65" shape-rendering="crispEdges"/><rect fill="#121212" x="268.4" y="489.5" width="24.4" height="24.65" shape-rendering="crispEdges"/><rect fill="#121212" x="292.8" y="489.5" width="353.8" height="24.65" shape-rendering="crispEdges"/><rect fill="#121212" x="646.6" y="489.5" width="24.4" height="24.65" shape-rendering="crispEdges"/><rect fill="#8b0000" x="671" y="489.5" width="24.4" height="24.65" shape-rendering="crispEdges"/><rect fill="#8b0000" x="695.4" y="489.5" width="146.4" height="24.65" shape-rendering="crispEdges"/><rect fill="#8b0000" x="841.8" y="489.5" width="24.4" height="24.65" shape-rendering="crispEdges"/><rect fill="#8b0000" x="866.2" y="489.5" width="24.4" height="24.65" shape-rendering="crispEdges"/><rect fill="#8b0000" x="890.6" y="489.5" width="61" height="24.65" shape-rendering="crispEdges"/><rect fill="#121212" x="951.6" y="489.5" width="24.4" height="24.65" shape-rendering="crispEdges"/><rect fill="#121212" x="0" y="513.9" width="24.4" height="24.65" shape-rendering="crispEdges"/><rect fill="#121212" x="24.4" y="513.9" width="61" height="24.65" shape-rendering="crispEdges"/><rect fill="#121212" x="85.4" y="513.9" width="183" height="24.65" shape-rendering="crispEdges"/><rect fill="#121212" x="268.4" y="513.9" width="402.6" height="24.65" shape-rendering="crispEdges"/><rect fill="#8b0000" x="671" y="513.9" width="195.2" height="24.65" shape-rendering="crispEdges"/><rect fill="#8b0000" x="866.2" y="513.9" width="85.4" height="24.65" shape-rendering="crispEdges"/><rect fill="#121212" x="951.6" y="513.9" width="24.4" height="24.65" shape-rendering="crispEdges"/><rect fill="#121212" x="0" y="538.3" width="976" height="24.65" shape-rendering="crispEdges"/><rect fill="#242f38" x="0" y="562.7" width="36.6" height="24.65" shape-rendering="crispEdges"/><rect fill="#242f38" x="36.6" y="562.7" width="134.2" height="24.65" shape-rendering="crispEdges"/><rect fill="#242f38" x="170.8" y="562.7" width="36.6" height="24.65" shape-rendering="crispEdges"/><rect fill="#242f38" x="207.4" y="562.7" width="231.8" height="24.65" shape-rendering="crispEdges"/><rect fill="#242f38" x="439.2" y="562.7" width="36.6" height="24.65" shape-rendering="crispEdges"/><rect fill="#242f38" x="475.8" y="562.7" width="170.8" height="24.65" shape-rendering="crispEdges"/><rect fill="#242f38" x="646.6" y="562.7" width="85.4" height="24.65" shape-rendering="crispEdges"/><rect fill="#242f38" x="732" y="562.7" width="61" height="24.65" shape-rendering="crispEdges"/><rect fill="#242f38" x="793" y="562.7" width="36.6" height="24.65" shape-rendering="crispEdges"/><rect fill="#242f38" x="829.6" y="562.7" width="12.2" height="24.65" shape-rendering="crispEdges"/><rect fill="#242f38" x="841.8" y="562.7" width="24.4" height="24.65" shape-rendering="crispEdges"/><rect fill="#242f38" x="866.2" y="562.7" width="61" height="24.65" shape-rendering="crispEdges"/><rect fill="#242f38" x="927.2" y="562.7" width="36.6" height="24.65" shape-rendering="crispEdges"/><rect fill="#242f38" x="963.8" y="562.7" width="12.2" height="24.65" shape-rendering="crispEdges"/>
    <g class="terminal-2929471168-matrix">
    <text class="terminal-2929471168-r2" x="12.2" y="20" textLength="24.4" clip-path="url(#terminal-2929471168-line-0)">👁️</text><text class="terminal-2929471168-r2" x="414.8" y="20" textLength="122" clip-path="url(#terminal-2929471168-line-0)">Iolanta&#160;—&#160;</text><text class="terminal-2929471168-r1" x="976" y="20" textLength="12.2" clip-path="url(#terminal-2929471168-line-0)">
</text><text class="terminal-2929471168-r1" x="976" y="44.4" textLength="12.2" clip-path="url(#terminal-2929471168-line-1)">
</text><text class="terminal-2929471168-r3" x="12.2" y="68.8" textLength="183" clip-path="url(#terminal-2929471168-line-2)">Nanopublication</text><text class="terminal-2929471168-r1" x="976" y="68.8" textLength="12.2" clip-path="url(#terminal-2929471168-line-2)">
</text><text class="terminal-2929471168-r1" x="976" y="93.2" textLength="12.2" clip-path="url(#terminal-2929471168-line-3)">
</text><text class="terminal-2929471168-r1" x="976" y="117.6" textLength="12.2" clip-path="url(#terminal-2929471168-line-4)">
</text><text class="terminal-2929471168-r1" x="976" y="142" textLength="12.2" clip-path="url(#terminal-2929471168-line-5)">
</text><text class="terminal-2929471168-r2" x="48.8" y="166.4" textLength="122" clip-path="url(#terminal-2929471168-line-6)">red&#160;things</text><text class="terminal-2929471168-r2" x="219.6" y="166.4" textLength="48.8" clip-path="url(#terminal-2929471168-line-6)">type</text><text class="terminal-2929471168-r2" x="317.2" y="166.4" textLength="61" clip-path="url(#terminal-2929471168-line-6)">Class</text><text class="terminal-2929471168-r1" x="976" y="166.4" textLength="12.2" clip-path="url(#terminal-2929471168-line-6)">
</text><text class="terminal-2929471168-r1" x="976" y="190.8" textLength="12.2" clip-path="url(#terminal-2929471168-line-7)">
</text><text class="terminal-2929471168-r1" x="976" y="215.2" textLength="12.2" clip-path="url(#terminal-2929471168-line-8)">
</text><text class="terminal-2929471168-r1" x="976" y="239.6" textLength="12.2" clip-path="url(#terminal-2929471168-line-9)">
</text><text class="terminal-2929471168-r2" x="48.8" y="264" textLength="122" clip-path="url(#terminal-2929471168-line-10)">red&#160;things</text><text class="terminal-2929471168-r2" x="219.6" y="264" textLength="61" clip-path="url(#terminal-2929471168-line-10)">label</text><text class="terminal-2929471168-r2" x="329.4" y="264" textLength="122" clip-path="url(#terminal-2929471168-line-10)">red&#160;things</text><text class="terminal-2929471168-r1" x="976" y="264" textLength="12.2" clip-path="url(#terminal-2929471168-line-10)">
</text><text class="terminal-2929471168-r1" x="976" y="288.4" textLength="12.2" clip-path="url(#terminal-2929471168-line-11)">
</text><text class="terminal-2929471168-r1" x="976" y="312.8" textLength="12.2" clip-path="url(#terminal-2929471168-line-12)">
</text><text class="terminal-2929471168-r1" x="976" y="337.2" textLength="12.2" clip-path="url(#terminal-2929471168-line-13)">
</text><text class="terminal-2929471168-r2" x="48.8" y="361.6" textLength="122" clip-path="url(#terminal-2929471168-line-14)">red&#160;things</text><text class="terminal-2929471168-r2" x="219.6" y="361.6" textLength="122" clip-path="url(#terminal-2929471168-line-14)">definition</text><text class="terminal-2929471168-r2" x="390.4" y="361.6" textLength="500.2" clip-path="url(#terminal-2929471168-line-14)">This&#160;is&#160;the&#160;class&#160;of&#160;things&#160;that&#160;are&#160;red.</text><text class="terminal-2929471168-r1" x="976" y="361.6" textLength="12.2" clip-path="url(#terminal-2929471168-line-14)">
</text><text class="terminal-2929471168-r1" x="976" y="386" textLength="12.2" clip-path="url(#terminal-2929471168-line-15)">
</text><text class="terminal-2929471168-r1" x="976" y="410.4" textLength="12.2" clip-path="url(#terminal-2929471168-line-16)">
</text><text class="terminal-2929471168-r1" x="976" y="434.8" textLength="12.2" clip-path="url(#terminal-2929471168-line-17)">
</text><text class="terminal-2929471168-r1" x="976" y="459.2" textLength="12.2" clip-path="url(#terminal-2929471168-line-18)">
</text><text class="terminal-2929471168-r1" x="976" y="483.6" textLength="12.2" clip-path="url(#terminal-2929471168-line-19)">
</text><text class="terminal-2929471168-r2" x="48.8" y="508" textLength="24.4" clip-path="url(#terminal-2929471168-line-20)">©️</text><text class="terminal-2929471168-r2" x="109.8" y="508" textLength="134.2" clip-path="url(#terminal-2929471168-line-20)">Tobias&#160;Kuhn</text><text class="terminal-2929471168-r2" x="292.8" y="508" textLength="353.8" clip-path="url(#terminal-2929471168-line-20)">2020-06-16T11:25:57.750+02:00</text><text class="terminal-2929471168-r2" x="695.4" y="508" textLength="146.4" clip-path="url(#terminal-2929471168-line-20)">Retracted&#160;by</text><text class="terminal-2929471168-r2" x="890.6" y="508" textLength="61" clip-path="url(#terminal-2929471168-line-20)">https</text><text class="terminal-2929471168-r1" x="976" y="508" textLength="12.2" clip-path="url(#terminal-2929471168-line-20)">
</text><text class="terminal-2929471168-r1" x="976" y="532.4" textLength="12.2" clip-path="url(#terminal-2929471168-line-21)">
</text><text class="terminal-2929471168-r1" x="976" y="556.8" textLength="12.2" clip-path="url(#terminal-2929471168-line-22)">
</text><text class="terminal-2929471168-r4" x="0" y="581.2" textLength="36.6" clip-path="url(#terminal-2929471168-line-23)">&#160;1&#160;</text><text class="terminal-2929471168-r2" x="36.6" y="581.2" textLength="134.2" clip-path="url(#terminal-2929471168-line-23)">Properties&#160;</text><text class="terminal-2929471168-r4" x="170.8" y="581.2" textLength="36.6" clip-path="url(#terminal-2929471168-line-23)">&#160;2&#160;</text><text class="terminal-2929471168-r2" x="207.4" y="581.2" textLength="231.8" clip-path="url(#terminal-2929471168-line-23)">Inverse&#160;Properties&#160;</text><text class="terminal-2929471168-r4" x="439.2" y="581.2" textLength="36.6" clip-path="url(#terminal-2929471168-line-23)">&#160;3&#160;</text><text class="terminal-2929471168-r2" x="475.8" y="581.2" textLength="170.8" clip-path="url(#terminal-2929471168-line-23)">Graph&#160;Triples&#160;</text><text class="terminal-2929471168-r4" x="646.6" y="581.2" textLength="85.4" clip-path="url(#terminal-2929471168-line-23)">&#160;alt+←&#160;</text><text class="terminal-2929471168-r2" x="732" y="581.2" textLength="61" clip-path="url(#terminal-2929471168-line-23)">Back&#160;</text><text class="terminal-2929471168-r4" x="793" y="581.2" textLength="36.6" clip-path="url(#terminal-2929471168-line-23)">&#160;al</text><text class="terminal-2929471168-r5" x="829.6" y="581.2" textLength="12.2" clip-path="url(#terminal-2929471168-line-23)">▏</text><text class="terminal-2929471168-r4" x="841.8" y="581.2" textLength="24.4" clip-path="url(#terminal-2929471168-line-23)">^p</text><text class="terminal-2929471168-r2" x="866.2" y="581.2" textLength="61" clip-path="url(#terminal-2929471168-line-23)">&#160;pale</text><text class="terminal-2929471168-r2" x="927.2" y="581.2" textLength="36.6" clip-path="url(#terminal-2929471168-line-23)">tte</text>
    </g>
    </g>
</svg>
