<svg class="rich-terminal" viewBox="0 0 994 635.5999999999999" xmlns="http://www.w3.org/2000/svg">
    <!-- Generated with Rich https://www.textualize.io -->
    <style>

    @font-face {
        font-family: "Fira Code";
        src: local("FiraCode-Regular"),
                url("https://cdnjs.cloudflare.com/ajax/libs/firacode/6.2.0/woff2/FiraCode-Regular.woff2") format("woff2"),
                url("https://cdnjs.cloudflare.com/ajax/libs/firacode/6.2.0/woff/FiraCode-Regular.woff") format("woff");
        font-style: normal;
        font-weight: 400;
    }
    @font-face {
        font-family: "Fira Code";
        src: local("FiraCode-Bold"),
                url("https://cdnjs.cloudflare.com/ajax/libs/firacode/6.2.0/woff2/FiraCode-Bold.woff2") format("woff2"),
                url("https://cdnjs.cloudflare.com/ajax/libs/firacode/6.2.0/woff/FiraCode-Bold.woff") format("woff");
        font-style: bold;
        font-weight: 700;
    }

    .terminal-3645557017-matrix {
        font-family: Fira Code, monospace;
        font-size: 20px;
        line-height: 24.4px;
        font-variant-east-asian: full-width;
    }

    .terminal-3645557017-title {
        font-size: 18px;
        font-weight: bold;
        font-family: arial;
    }

    .terminal-3645557017-r1 { fill: #c5c8c6 }
.terminal-3645557017-r2 { fill: #e3e3e3 }
.terminal-3645557017-r3 { fill: #989898 }
.terminal-3645557017-r4 { fill: #ffffff;font-weight: bold }
.terminal-3645557017-r5 { fill: #dfe7ed }
.terminal-3645557017-r6 { fill: #e4e5e6 }
.terminal-3645557017-r7 { fill: #e1e1e1 }
.terminal-3645557017-r8 { fill: #fea62b;font-weight: bold }
.terminal-3645557017-r9 { fill: #a7a9ab }
.terminal-3645557017-r10 { fill: #4c5055 }
    </style>

    <defs>
    <clipPath id="terminal-3645557017-clip-terminal">
      <rect x="0" y="0" width="975.0" height="584.5999999999999" />
    </clipPath>
    <clipPath id="terminal-3645557017-line-0">
    <rect x="0" y="1.5" width="976" height="24.65"/>
            </clipPath>
<clipPath id="terminal-3645557017-line-1">
    <rect x="0" y="25.9" width="976" height="24.65"/>
            </clipPath>
<clipPath id="terminal-3645557017-line-2">
    <rect x="0" y="50.3" width="976" height="24.65"/>
            </clipPath>
<clipPath id="terminal-3645557017-line-3">
    <rect x="0" y="74.7" width="976" height="24.65"/>
            </clipPath>
<clipPath id="terminal-3645557017-line-4">
    <rect x="0" y="99.1" width="976" height="24.65"/>
            </clipPath>
<clipPath id="terminal-3645557017-line-5">
    <rect x="0" y="123.5" width="976" height="24.65"/>
            </clipPath>
<clipPath id="terminal-3645557017-line-6">
    <rect x="0" y="147.9" width="976" height="24.65"/>
            </clipPath>
<clipPath id="terminal-3645557017-line-7">
    <rect x="0" y="172.3" width="976" height="24.65"/>
            </clipPath>
<clipPath id="terminal-3645557017-line-8">
    <rect x="0" y="196.7" width="976" height="24.65"/>
            </clipPath>
<clipPath id="terminal-3645557017-line-9">
    <rect x="0" y="221.1" width="976" height="24.65"/>
            </clipPath>
<clipPath id="terminal-3645557017-line-10">
    <rect x="0" y="245.5" width="976" height="24.65"/>
            </clipPath>
<clipPath id="terminal-3645557017-line-11">
    <rect x="0" y="269.9" width="976" height="24.65"/>
            </clipPath>
<clipPath id="terminal-3645557017-line-12">
    <rect x="0" y="294.3" width="976" height="24.65"/>
            </clipPath>
<clipPath id="terminal-3645557017-line-13">
    <rect x="0" y="318.7" width="976" height="24.65"/>
            </clipPath>
<clipPath id="terminal-3645557017-line-14">
    <rect x="0" y="343.1" width="976" height="24.65"/>
            </clipPath>
<clipPath id="terminal-3645557017-line-15">
    <rect x="0" y="367.5" width="976" height="24.65"/>
            </clipPath>
<clipPath id="terminal-3645557017-line-16">
    <rect x="0" y="391.9" width="976" height="24.65"/>
            </clipPath>
<clipPath id="terminal-3645557017-line-17">
    <rect x="0" y="416.3" width="976" height="24.65"/>
            </clipPath>
<clipPath id="terminal-3645557017-line-18">
    <rect x="0" y="440.7" width="976" height="24.65"/>
            </clipPath>
<clipPath id="terminal-3645557017-line-19">
    <rect x="0" y="465.1" width="976" height="24.65"/>
            </clipPath>
<clipPath id="terminal-3645557017-line-20">
    <rect x="0" y="489.5" width="976" height="24.65"/>
            </clipPath>
<clipPath id="terminal-3645557017-line-21">
    <rect x="0" y="513.9" width="976" height="24.65"/>
            </clipPath>
<clipPath id="terminal-3645557017-line-22">
    <rect x="0" y="538.3" width="976" height="24.65"/>
            </clipPath>
    </defs>

    <rect fill="#292929" stroke="rgba(255,255,255,0.35)" stroke-width="1" x="1" y="1" width="992" height="633.6" rx="8"/><text class="terminal-3645557017-title" fill="#c5c8c6" text-anchor="middle" x="496" y="27">Iolanta</text>
            <g transform="translate(26,22)">
            <circle cx="0" cy="0" r="7" fill="#ff5f57"/>
            <circle cx="22" cy="0" r="7" fill="#febc2e"/>
            <circle cx="44" cy="0" r="7" fill="#28c840"/>
            </g>
        
    <g transform="translate(9, 41)" clip-path="url(#terminal-3645557017-clip-terminal)">
    <rect fill="#282828" x="0" y="1.5" width="12.2" height="24.65" shape-rendering="crispEdges"/><rect fill="#282828" x="12.2" y="1.5" width="12.2" height="24.65" shape-rendering="crispEdges"/><rect fill="#282828" x="24.4" y="1.5" width="61" height="24.65" shape-rendering="crispEdges"/><rect fill="#282828" x="85.4" y="1.5" width="12.2" height="24.65" shape-rendering="crispEdges"/><rect fill="#282828" x="97.6" y="1.5" width="61" height="24.65" shape-rendering="crispEdges"/><rect fill="#282828" x="158.6" y="1.5" width="122" height="24.65" shape-rendering="crispEdges"/><rect fill="#282828" x="280.6" y="1.5" width="512.4" height="24.65" shape-rendering="crispEdges"/><rect fill="#282828" x="793" y="1.5" width="61" height="24.65" shape-rendering="crispEdges"/><rect fill="#282828" x="854" y="1.5" width="12.2" height="24.65" shape-rendering="crispEdges"/><rect fill="#282828" x="866.2" y="1.5" width="0" height="24.65" shape-rendering="crispEdges"/><rect fill="#282828" x="866.2" y="1.5" width="97.6" height="24.65" shape-rendering="crispEdges"/><rect fill="#282828" x="963.8" y="1.5" width="12.2" height="24.65" shape-rendering="crispEdges"/><rect fill="#483d8b" x="0" y="25.9" width="976" height="24.65" shape-rendering="crispEdges"/><rect fill="#483d8b" x="0" y="50.3" width="12.2" height="24.65" shape-rendering="crispEdges"/><rect fill="#483d8b" x="12.2" y="50.3" width="61" height="24.65" shape-rendering="crispEdges"/><rect fill="#483d8b" x="73.2" y="50.3" width="890.6" height="24.65" shape-rendering="crispEdges"/><rect fill="#483d8b" x="963.8" y="50.3" width="12.2" height="24.65" shape-rendering="crispEdges"/><rect fill="#483d8b" x="0" y="74.7" width="976" height="24.65" shape-rendering="crispEdges"/><rect fill="#0f4b79" x="0" y="99.1" width="61" height="24.65" shape-rendering="crispEdges"/><rect fill="#0f4b79" x="61" y="99.1" width="915" height="24.65" shape-rendering="crispEdges"/><rect fill="#34393f" x="0" y="123.5" width="85.4" height="24.65" shape-rendering="crispEdges"/><rect fill="#34393f" x="85.4" y="123.5" width="890.6" height="24.65" shape-rendering="crispEdges"/><rect fill="#34393f" x="0" y="147.9" width="134.2" height="24.65" shape-rendering="crispEdges"/><rect fill="#34393f" x="134.2" y="147.9" width="841.8" height="24.65" shape-rendering="crispEdges"/><rect fill="#34393f" x="0" y="172.3" width="268.4" height="24.65" shape-rendering="crispEdges"/><rect fill="#34393f" x="268.4" y="172.3" width="707.6" height="24.65" shape-rendering="crispEdges"/><rect fill="#34393f" x="0" y="196.7" width="97.6" height="24.65" shape-rendering="crispEdges"/><rect fill="#34393f" x="97.6" y="196.7" width="878.4" height="24.65" shape-rendering="crispEdges"/><rect fill="#34393f" x="0" y="221.1" width="109.8" height="24.65" shape-rendering="crispEdges"/><rect fill="#34393f" x="109.8" y="221.1" width="866.2" height="24.65" shape-rendering="crispEdges"/><rect fill="#34393f" x="0" y="245.5" width="97.6" height="24.65" shape-rendering="crispEdges"/><rect fill="#34393f" x="97.6" y="245.5" width="878.4" height="24.65" shape-rendering="crispEdges"/><rect fill="#34393f" x="0" y="269.9" width="329.4" height="24.65" shape-rendering="crispEdges"/><rect fill="#34393f" x="329.4" y="269.9" width="646.6" height="24.65" shape-rendering="crispEdges"/><rect fill="#34393f" x="0" y="294.3" width="158.6" height="24.65" shape-rendering="crispEdges"/><rect fill="#34393f" x="158.6" y="294.3" width="817.4" height="24.65" shape-rendering="crispEdges"/><rect fill="#34393f" x="0" y="318.7" width="158.6" height="24.65" shape-rendering="crispEdges"/><rect fill="#34393f" x="158.6" y="318.7" width="817.4" height="24.65" shape-rendering="crispEdges"/><rect fill="#1e1e1e" x="0" y="343.1" width="658.8" height="24.65" shape-rendering="crispEdges"/><rect fill="#1e1e1e" x="658.8" y="343.1" width="317.2" height="24.65" shape-rendering="crispEdges"/><rect fill="#1e1e1e" x="0" y="367.5" width="658.8" height="24.65" shape-rendering="crispEdges"/><rect fill="#1e1e1e" x="658.8" y="367.5" width="317.2" height="24.65" shape-rendering="crispEdges"/><rect fill="#1e1e1e" x="0" y="391.9" width="658.8" height="24.65" shape-rendering="crispEdges"/><rect fill="#1e1e1e" x="658.8" y="391.9" width="317.2" height="24.65" shape-rendering="crispEdges"/><rect fill="#1e1e1e" x="0" y="416.3" width="976" height="24.65" shape-rendering="crispEdges"/><rect fill="#1e1e1e" x="0" y="440.7" width="976" height="24.65" shape-rendering="crispEdges"/><rect fill="#1e1e1e" x="0" y="465.1" width="976" height="24.65" shape-rendering="crispEdges"/><rect fill="#1e1e1e" x="0" y="489.5" width="976" height="24.65" shape-rendering="crispEdges"/><rect fill="#1e1e1e" x="0" y="513.9" width="976" height="24.65" shape-rendering="crispEdges"/><rect fill="#1e1e1e" x="0" y="538.3" width="976" height="24.65" shape-rendering="crispEdges"/><rect fill="#24292f" x="0" y="562.7" width="36.6" height="24.65" shape-rendering="crispEdges"/><rect fill="#24292f" x="36.6" y="562.7" width="134.2" height="24.65" shape-rendering="crispEdges"/><rect fill="#24292f" x="170.8" y="562.7" width="36.6" height="24.65" shape-rendering="crispEdges"/><rect fill="#24292f" x="207.4" y="562.7" width="231.8" height="24.65" shape-rendering="crispEdges"/><rect fill="#24292f" x="439.2" y="562.7" width="85.4" height="24.65" shape-rendering="crispEdges"/><rect fill="#24292f" x="524.6" y="562.7" width="61" height="24.65" shape-rendering="crispEdges"/><rect fill="#24292f" x="585.6" y="562.7" width="85.4" height="24.65" shape-rendering="crispEdges"/><rect fill="#24292f" x="671" y="562.7" width="48.8" height="24.65" shape-rendering="crispEdges"/><rect fill="#24292f" x="719.8" y="562.7" width="61" height="24.65" shape-rendering="crispEdges"/><rect fill="#24292f" x="780.8" y="562.7" width="48.8" height="24.65" shape-rendering="crispEdges"/><rect fill="#24292f" x="829.6" y="562.7" width="12.2" height="24.65" shape-rendering="crispEdges"/><rect fill="#24292f" x="841.8" y="562.7" width="24.4" height="24.65" shape-rendering="crispEdges"/><rect fill="#24292f" x="866.2" y="562.7" width="12.2" height="24.65" shape-rendering="crispEdges"/><rect fill="#24292f" x="878.4" y="562.7" width="85.4" height="24.65" shape-rendering="crispEdges"/><rect fill="#24292f" x="963.8" y="562.7" width="12.2" height="24.65" shape-rendering="crispEdges"/>
    <g class="terminal-3645557017-matrix">
    <text class="terminal-3645557017-r2" x="12.2" y="20" textLength="24.4" clip-path="url(#terminal-3645557017-line-0)">👁️</text><text class="terminal-3645557017-r2" x="158.6" y="20" textLength="122" clip-path="url(#terminal-3645557017-line-0)">Iolanta&#160;—&#160;</text><text class="terminal-3645557017-r3" x="280.6" y="20" textLength="512.4" clip-path="url(#terminal-3645557017-line-0)">http://www.w3.org/2000/01/rdf-schema#Class</text><text class="terminal-3645557017-r1" x="976" y="20" textLength="12.2" clip-path="url(#terminal-3645557017-line-0)">
</text><text class="terminal-3645557017-r1" x="976" y="44.4" textLength="12.2" clip-path="url(#terminal-3645557017-line-1)">
</text><text class="terminal-3645557017-r4" x="12.2" y="68.8" textLength="61" clip-path="url(#terminal-3645557017-line-2)">Class</text><text class="terminal-3645557017-r1" x="976" y="68.8" textLength="12.2" clip-path="url(#terminal-3645557017-line-2)">
</text><text class="terminal-3645557017-r1" x="976" y="93.2" textLength="12.2" clip-path="url(#terminal-3645557017-line-3)">
</text><text class="terminal-3645557017-r5" x="0" y="117.6" textLength="61" clip-path="url(#terminal-3645557017-line-4)">Class</text><text class="terminal-3645557017-r1" x="976" y="117.6" textLength="12.2" clip-path="url(#terminal-3645557017-line-4)">
</text><text class="terminal-3645557017-r6" x="0" y="142" textLength="85.4" clip-path="url(#terminal-3645557017-line-5)">Literal</text><text class="terminal-3645557017-r1" x="976" y="142" textLength="12.2" clip-path="url(#terminal-3645557017-line-5)">
</text><text class="terminal-3645557017-r6" x="0" y="166.4" textLength="134.2" clip-path="url(#terminal-3645557017-line-6)">mkdocs:File</text><text class="terminal-3645557017-r1" x="976" y="166.4" textLength="12.2" clip-path="url(#terminal-3645557017-line-6)">
</text><text class="terminal-3645557017-r6" x="0" y="190.8" textLength="268.4" clip-path="url(#terminal-3645557017-line-7)">iolanta:OutputDatatype</text><text class="terminal-3645557017-r1" x="976" y="190.8" textLength="12.2" clip-path="url(#terminal-3645557017-line-7)">
</text><text class="terminal-3645557017-r6" x="0" y="215.2" textLength="97.6" clip-path="url(#terminal-3645557017-line-8)">Resource</text><text class="terminal-3645557017-r1" x="976" y="215.2" textLength="12.2" clip-path="url(#terminal-3645557017-line-8)">
</text><text class="terminal-3645557017-r6" x="0" y="239.6" textLength="109.8" clip-path="url(#terminal-3645557017-line-9)">Container</text><text class="terminal-3645557017-r1" x="976" y="239.6" textLength="12.2" clip-path="url(#terminal-3645557017-line-9)">
</text><text class="terminal-3645557017-r6" x="0" y="264" textLength="97.6" clip-path="url(#terminal-3645557017-line-10)">Datatype</text><text class="terminal-3645557017-r1" x="976" y="264" textLength="12.2" clip-path="url(#terminal-3645557017-line-10)">
</text><text class="terminal-3645557017-r6" x="0" y="288.4" textLength="329.4" clip-path="url(#terminal-3645557017-line-11)">ContainerMembershipProperty</text><text class="terminal-3645557017-r1" x="976" y="288.4" textLength="12.2" clip-path="url(#terminal-3645557017-line-11)">
</text><text class="terminal-3645557017-r6" x="0" y="312.8" textLength="158.6" clip-path="url(#terminal-3645557017-line-12)">iolanta:Graph</text><text class="terminal-3645557017-r1" x="976" y="312.8" textLength="12.2" clip-path="url(#terminal-3645557017-line-12)">
</text><text class="terminal-3645557017-r6" x="0" y="337.2" textLength="158.6" clip-path="url(#terminal-3645557017-line-13)">iolanta:Facet</text><text class="terminal-3645557017-r1" x="976" y="337.2" textLength="12.2" clip-path="url(#terminal-3645557017-line-13)">
</text><text class="terminal-3645557017-r1" x="976" y="361.6" textLength="12.2" clip-path="url(#terminal-3645557017-line-14)">
</text><text class="terminal-3645557017-r7" x="0" y="386" textLength="658.8" clip-path="url(#terminal-3645557017-line-15)">Select&#160;the&#160;last&#160;element&#160;to&#160;try&#160;loading&#160;more&#160;instances.</text><text class="terminal-3645557017-r1" x="976" y="386" textLength="12.2" clip-path="url(#terminal-3645557017-line-15)">
</text><text class="terminal-3645557017-r1" x="976" y="410.4" textLength="12.2" clip-path="url(#terminal-3645557017-line-16)">
</text><text class="terminal-3645557017-r1" x="976" y="434.8" textLength="12.2" clip-path="url(#terminal-3645557017-line-17)">
</text><text class="terminal-3645557017-r1" x="976" y="459.2" textLength="12.2" clip-path="url(#terminal-3645557017-line-18)">
</text><text class="terminal-3645557017-r1" x="976" y="483.6" textLength="12.2" clip-path="url(#terminal-3645557017-line-19)">
</text><text class="terminal-3645557017-r1" x="976" y="508" textLength="12.2" clip-path="url(#terminal-3645557017-line-20)">
</text><text class="terminal-3645557017-r1" x="976" y="532.4" textLength="12.2" clip-path="url(#terminal-3645557017-line-21)">
</text><text class="terminal-3645557017-r1" x="976" y="556.8" textLength="12.2" clip-path="url(#terminal-3645557017-line-22)">
</text><text class="terminal-3645557017-r8" x="0" y="581.2" textLength="36.6" clip-path="url(#terminal-3645557017-line-23)">&#160;1&#160;</text><text class="terminal-3645557017-r9" x="36.6" y="581.2" textLength="134.2" clip-path="url(#terminal-3645557017-line-23)">Properties&#160;</text><text class="terminal-3645557017-r8" x="170.8" y="581.2" textLength="36.6" clip-path="url(#terminal-3645557017-line-23)">&#160;2&#160;</text><text class="terminal-3645557017-r9" x="207.4" y="581.2" textLength="231.8" clip-path="url(#terminal-3645557017-line-23)">Inverse&#160;Properties&#160;</text><text class="terminal-3645557017-r8" x="439.2" y="581.2" textLength="85.4" clip-path="url(#terminal-3645557017-line-23)">&#160;alt+←&#160;</text><text class="terminal-3645557017-r9" x="524.6" y="581.2" textLength="61" clip-path="url(#terminal-3645557017-line-23)">Back&#160;</text><text class="terminal-3645557017-r8" x="585.6" y="581.2" textLength="85.4" clip-path="url(#terminal-3645557017-line-23)">&#160;alt+→&#160;</text><text class="terminal-3645557017-r9" x="671" y="581.2" textLength="48.8" clip-path="url(#terminal-3645557017-line-23)">Fwd&#160;</text><text class="terminal-3645557017-r8" x="719.8" y="581.2" textLength="61" clip-path="url(#terminal-3645557017-line-23)">&#160;f12&#160;</text><text class="terminal-3645557017-r9" x="780.8" y="581.2" textLength="48.8" clip-path="url(#terminal-3645557017-line-23)">Cons</text><text class="terminal-3645557017-r10" x="829.6" y="581.2" textLength="12.2" clip-path="url(#terminal-3645557017-line-23)">▏</text><text class="terminal-3645557017-r8" x="841.8" y="581.2" textLength="24.4" clip-path="url(#terminal-3645557017-line-23)">^p</text><text class="terminal-3645557017-r9" x="878.4" y="581.2" textLength="85.4" clip-path="url(#terminal-3645557017-line-23)">palette</text>
    </g>
    </g>
</svg>
