<svg class="rich-terminal" viewBox="0 0 1397 879.5999999999999" xmlns="http://www.w3.org/2000/svg">
    <!-- Generated with Rich https://www.textualize.io -->
    <style>

    @font-face {
        font-family: "Fira Code";
        src: local("FiraCode-Regular"),
                url("https://cdnjs.cloudflare.com/ajax/libs/firacode/6.2.0/woff2/FiraCode-Regular.woff2") format("woff2"),
                url("https://cdnjs.cloudflare.com/ajax/libs/firacode/6.2.0/woff/FiraCode-Regular.woff") format("woff");
        font-style: normal;
        font-weight: 400;
    }
    @font-face {
        font-family: "Fira Code";
        src: local("FiraCode-Bold"),
                url("https://cdnjs.cloudflare.com/ajax/libs/firacode/6.2.0/woff2/FiraCode-Bold.woff2") format("woff2"),
                url("https://cdnjs.cloudflare.com/ajax/libs/firacode/6.2.0/woff/FiraCode-Bold.woff") format("woff");
        font-style: bold;
        font-weight: 700;
    }

    .terminal-3819153877-matrix {
        font-family: Fira Code, monospace;
        font-size: 20px;
        line-height: 24.4px;
        font-variant-east-asian: full-width;
    }

    .terminal-3819153877-title {
        font-size: 18px;
        font-weight: bold;
        font-family: arial;
    }

    .terminal-3819153877-r1 { fill: #c5c8c6 }
.terminal-3819153877-r2 { fill: #e0e0e0 }
.terminal-3819153877-r3 { fill: #94999c }
.terminal-3819153877-r4 { fill: #121212 }
.terminal-3819153877-r5 { fill: #ffffff;font-weight: bold }
.terminal-3819153877-r6 { fill: #000000 }
.terminal-3819153877-r7 { fill: #ffa62b;font-weight: bold }
.terminal-3819153877-r8 { fill: #495259 }
    </style>

    <defs>
    <clipPath id="terminal-3819153877-clip-terminal">
      <rect x="0" y="0" width="1377.6" height="828.5999999999999" />
    </clipPath>
    <clipPath id="terminal-3819153877-line-0">
    <rect x="0" y="1.5" width="1378.6" height="24.65"/>
            </clipPath>
<clipPath id="terminal-3819153877-line-1">
    <rect x="0" y="25.9" width="1378.6" height="24.65"/>
            </clipPath>
<clipPath id="terminal-3819153877-line-2">
    <rect x="0" y="50.3" width="1378.6" height="24.65"/>
            </clipPath>
<clipPath id="terminal-3819153877-line-3">
    <rect x="0" y="74.7" width="1378.6" height="24.65"/>
            </clipPath>
<clipPath id="terminal-3819153877-line-4">
    <rect x="0" y="99.1" width="1378.6" height="24.65"/>
            </clipPath>
<clipPath id="terminal-3819153877-line-5">
    <rect x="0" y="123.5" width="1378.6" height="24.65"/>
            </clipPath>
<clipPath id="terminal-3819153877-line-6">
    <rect x="0" y="147.9" width="1378.6" height="24.65"/>
            </clipPath>
<clipPath id="terminal-3819153877-line-7">
    <rect x="0" y="172.3" width="1378.6" height="24.65"/>
            </clipPath>
<clipPath id="terminal-3819153877-line-8">
    <rect x="0" y="196.7" width="1378.6" height="24.65"/>
            </clipPath>
<clipPath id="terminal-3819153877-line-9">
    <rect x="0" y="221.1" width="1378.6" height="24.65"/>
            </clipPath>
<clipPath id="terminal-3819153877-line-10">
    <rect x="0" y="245.5" width="1378.6" height="24.65"/>
            </clipPath>
<clipPath id="terminal-3819153877-line-11">
    <rect x="0" y="269.9" width="1378.6" height="24.65"/>
            </clipPath>
<clipPath id="terminal-3819153877-line-12">
    <rect x="0" y="294.3" width="1378.6" height="24.65"/>
            </clipPath>
<clipPath id="terminal-3819153877-line-13">
    <rect x="0" y="318.7" width="1378.6" height="24.65"/>
            </clipPath>
<clipPath id="terminal-3819153877-line-14">
    <rect x="0" y="343.1" width="1378.6" height="24.65"/>
            </clipPath>
<clipPath id="terminal-3819153877-line-15">
    <rect x="0" y="367.5" width="1378.6" height="24.65"/>
            </clipPath>
<clipPath id="terminal-3819153877-line-16">
    <rect x="0" y="391.9" width="1378.6" height="24.65"/>
            </clipPath>
<clipPath id="terminal-3819153877-line-17">
    <rect x="0" y="416.3" width="1378.6" height="24.65"/>
            </clipPath>
<clipPath id="terminal-3819153877-line-18">
    <rect x="0" y="440.7" width="1378.6" height="24.65"/>
            </clipPath>
<clipPath id="terminal-3819153877-line-19">
    <rect x="0" y="465.1" width="1378.6" height="24.65"/>
            </clipPath>
<clipPath id="terminal-3819153877-line-20">
    <rect x="0" y="489.5" width="1378.6" height="24.65"/>
            </clipPath>
<clipPath id="terminal-3819153877-line-21">
    <rect x="0" y="513.9" width="1378.6" height="24.65"/>
            </clipPath>
<clipPath id="terminal-3819153877-line-22">
    <rect x="0" y="538.3" width="1378.6" height="24.65"/>
            </clipPath>
<clipPath id="terminal-3819153877-line-23">
    <rect x="0" y="562.7" width="1378.6" height="24.65"/>
            </clipPath>
<clipPath id="terminal-3819153877-line-24">
    <rect x="0" y="587.1" width="1378.6" height="24.65"/>
            </clipPath>
<clipPath id="terminal-3819153877-line-25">
    <rect x="0" y="611.5" width="1378.6" height="24.65"/>
            </clipPath>
<clipPath id="terminal-3819153877-line-26">
    <rect x="0" y="635.9" width="1378.6" height="24.65"/>
            </clipPath>
<clipPath id="terminal-3819153877-line-27">
    <rect x="0" y="660.3" width="1378.6" height="24.65"/>
            </clipPath>
<clipPath id="terminal-3819153877-line-28">
    <rect x="0" y="684.7" width="1378.6" height="24.65"/>
            </clipPath>
<clipPath id="terminal-3819153877-line-29">
    <rect x="0" y="709.1" width="1378.6" height="24.65"/>
            </clipPath>
<clipPath id="terminal-3819153877-line-30">
    <rect x="0" y="733.5" width="1378.6" height="24.65"/>
            </clipPath>
<clipPath id="terminal-3819153877-line-31">
    <rect x="0" y="757.9" width="1378.6" height="24.65"/>
            </clipPath>
<clipPath id="terminal-3819153877-line-32">
    <rect x="0" y="782.3" width="1378.6" height="24.65"/>
            </clipPath>
    </defs>

    <rect fill="#292929" stroke="rgba(255,255,255,0.35)" stroke-width="1" x="1" y="1" width="1395" height="877.6" rx="8"/><text class="terminal-3819153877-title" fill="#c5c8c6" text-anchor="middle" x="697" y="27">Iolanta</text>
            <g transform="translate(26,22)">
            <circle cx="0" cy="0" r="7" fill="#ff5f57"/>
            <circle cx="22" cy="0" r="7" fill="#febc2e"/>
            <circle cx="44" cy="0" r="7" fill="#28c840"/>
            </g>
        
    <g transform="translate(9, 41)" clip-path="url(#terminal-3819153877-clip-terminal)">
    <rect fill="#242f38" x="0" y="1.5" width="12.2" height="24.65" shape-rendering="crispEdges"/><rect fill="#242f38" x="12.2" y="1.5" width="12.2" height="24.65" shape-rendering="crispEdges"/><rect fill="#242f38" x="24.4" y="1.5" width="61" height="24.65" shape-rendering="crispEdges"/><rect fill="#242f38" x="85.4" y="1.5" width="12.2" height="24.65" shape-rendering="crispEdges"/><rect fill="#242f38" x="97.6" y="1.5" width="122" height="24.65" shape-rendering="crispEdges"/><rect fill="#242f38" x="219.6" y="1.5" width="122" height="24.65" shape-rendering="crispEdges"/><rect fill="#242f38" x="341.6" y="1.5" width="793" height="24.65" shape-rendering="crispEdges"/><rect fill="#242f38" x="1134.6" y="1.5" width="122" height="24.65" shape-rendering="crispEdges"/><rect fill="#242f38" x="1256.6" y="1.5" width="12.2" height="24.65" shape-rendering="crispEdges"/><rect fill="#242f38" x="1268.8" y="1.5" width="0" height="24.65" shape-rendering="crispEdges"/><rect fill="#242f38" x="1268.8" y="1.5" width="97.6" height="24.65" shape-rendering="crispEdges"/><rect fill="#242f38" x="1366.4" y="1.5" width="12.2" height="24.65" shape-rendering="crispEdges"/><rect fill="#483d8b" x="0" y="25.9" width="1354.2" height="24.65" shape-rendering="crispEdges"/><rect fill="#003054" x="1354.2" y="25.9" width="24.4" height="24.65" shape-rendering="crispEdges"/><rect fill="#483d8b" x="0" y="50.3" width="12.2" height="24.65" shape-rendering="crispEdges"/><rect fill="#483d8b" x="12.2" y="50.3" width="183" height="24.65" shape-rendering="crispEdges"/><rect fill="#483d8b" x="195.2" y="50.3" width="1146.8" height="24.65" shape-rendering="crispEdges"/><rect fill="#483d8b" x="1342" y="50.3" width="12.2" height="24.65" shape-rendering="crispEdges"/><rect fill="#003054" x="1354.2" y="50.3" width="24.4" height="24.65" shape-rendering="crispEdges"/><rect fill="#483d8b" x="0" y="74.7" width="1354.2" height="24.65" shape-rendering="crispEdges"/><rect fill="#003054" x="1354.2" y="74.7" width="24.4" height="24.65" shape-rendering="crispEdges"/><rect fill="#121212" x="0" y="99.1" width="1354.2" height="24.65" shape-rendering="crispEdges"/><rect fill="#003054" x="1354.2" y="99.1" width="24.4" height="24.65" shape-rendering="crispEdges"/><rect fill="#121212" x="0" y="123.5" width="24.4" height="24.65" shape-rendering="crispEdges"/><rect fill="#8b0000" x="24.4" y="123.5" width="134.2" height="24.65" shape-rendering="crispEdges"/><rect fill="#00008b" x="158.6" y="123.5" width="183" height="24.65" shape-rendering="crispEdges"/><rect fill="#121212" x="341.6" y="123.5" width="951.6" height="24.65" shape-rendering="crispEdges"/><rect fill="#121212" x="1293.2" y="123.5" width="36.6" height="24.65" shape-rendering="crispEdges"/><rect fill="#121212" x="1329.8" y="123.5" width="24.4" height="24.65" shape-rendering="crispEdges"/><rect fill="#003054" x="1354.2" y="123.5" width="24.4" height="24.65" shape-rendering="crispEdges"/><rect fill="#121212" x="0" y="147.9" width="24.4" height="24.65" shape-rendering="crispEdges"/><rect fill="#8b0000" x="24.4" y="147.9" width="24.4" height="24.65" shape-rendering="crispEdges"/><rect fill="#8b0000" x="48.8" y="147.9" width="85.4" height="24.65" shape-rendering="crispEdges"/><rect fill="#8b0000" x="134.2" y="147.9" width="24.4" height="24.65" shape-rendering="crispEdges"/><rect fill="#00008b" x="158.6" y="147.9" width="24.4" height="24.65" shape-rendering="crispEdges"/><rect fill="#00008b" x="183" y="147.9" width="134.2" height="24.65" shape-rendering="crispEdges"/><rect fill="#00008b" x="317.2" y="147.9" width="24.4" height="24.65" shape-rendering="crispEdges"/><rect fill="#121212" x="341.6" y="147.9" width="24.4" height="24.65" shape-rendering="crispEdges"/><rect fill="#121212" x="366" y="147.9" width="902.8" height="24.65" shape-rendering="crispEdges"/><rect fill="#121212" x="1268.8" y="147.9" width="24.4" height="24.65" shape-rendering="crispEdges"/><rect fill="#121212" x="1293.2" y="147.9" width="36.6" height="24.65" shape-rendering="crispEdges"/><rect fill="#121212" x="1329.8" y="147.9" width="24.4" height="24.65" shape-rendering="crispEdges"/><rect fill="#003054" x="1354.2" y="147.9" width="24.4" height="24.65" shape-rendering="crispEdges"/><rect fill="#121212" x="0" y="172.3" width="24.4" height="24.65" shape-rendering="crispEdges"/><rect fill="#8b0000" x="24.4" y="172.3" width="134.2" height="24.65" shape-rendering="crispEdges"/><rect fill="#00008b" x="158.6" y="172.3" width="183" height="24.65" shape-rendering="crispEdges"/><rect fill="#121212" x="341.6" y="172.3" width="24.4" height="24.65" shape-rendering="crispEdges"/><rect fill="#121212" x="366" y="172.3" width="793" height="24.65" shape-rendering="crispEdges"/><rect fill="#121212" x="1159" y="172.3" width="109.8" height="24.65" shape-rendering="crispEdges"/><rect fill="#121212" x="1268.8" y="172.3" width="24.4" height="24.65" shape-rendering="crispEdges"/><rect fill="#121212" x="1293.2" y="172.3" width="36.6" height="24.65" shape-rendering="crispEdges"/><rect fill="#121212" x="1329.8" y="172.3" width="24.4" height="24.65" shape-rendering="crispEdges"/><rect fill="#003054" x="1354.2" y="172.3" width="24.4" height="24.65" shape-rendering="crispEdges"/><rect fill="#121212" x="0" y="196.7" width="24.4" height="24.65" shape-rendering="crispEdges"/><rect fill="#121212" x="24.4" y="196.7" width="317.2" height="24.65" shape-rendering="crispEdges"/><rect fill="#121212" x="341.6" y="196.7" width="24.4" height="24.65" shape-rendering="crispEdges"/><rect fill="#121212" x="366" y="196.7" width="0" height="24.65" shape-rendering="crispEdges"/><rect fill="#121212" x="366" y="196.7" width="902.8" height="24.65" shape-rendering="crispEdges"/><rect fill="#121212" x="1268.8" y="196.7" width="24.4" height="24.65" shape-rendering="crispEdges"/><rect fill="#121212" x="1293.2" y="196.7" width="36.6" height="24.65" shape-rendering="crispEdges"/><rect fill="#121212" x="1329.8" y="196.7" width="24.4" height="24.65" shape-rendering="crispEdges"/><rect fill="#003054" x="1354.2" y="196.7" width="24.4" height="24.65" shape-rendering="crispEdges"/><rect fill="#121212" x="0" y="221.1" width="24.4" height="24.65" shape-rendering="crispEdges"/><rect fill="#121212" x="24.4" y="221.1" width="317.2" height="24.65" shape-rendering="crispEdges"/><rect fill="#121212" x="341.6" y="221.1" width="951.6" height="24.65" shape-rendering="crispEdges"/><rect fill="#121212" x="1293.2" y="221.1" width="36.6" height="24.65" shape-rendering="crispEdges"/><rect fill="#121212" x="1329.8" y="221.1" width="24.4" height="24.65" shape-rendering="crispEdges"/><rect fill="#003054" x="1354.2" y="221.1" width="24.4" height="24.65" shape-rendering="crispEdges"/><rect fill="#121212" x="0" y="245.5" width="24.4" height="24.65" shape-rendering="crispEdges"/><rect fill="#121212" x="24.4" y="245.5" width="1305.4" height="24.65" shape-rendering="crispEdges"/><rect fill="#121212" x="1329.8" y="245.5" width="24.4" height="24.65" shape-rendering="crispEdges"/><rect fill="#003054" x="1354.2" y="245.5" width="24.4" height="24.65" shape-rendering="crispEdges"/><rect fill="#121212" x="0" y="269.9" width="24.4" height="24.65" shape-rendering="crispEdges"/><rect fill="#8b0000" x="24.4" y="269.9" width="134.2" height="24.65" shape-rendering="crispEdges"/><rect fill="#ff8c00" x="158.6" y="269.9" width="97.6" height="24.65" shape-rendering="crispEdges"/><rect fill="#008b8b" x="256.2" y="269.9" width="451.4" height="24.65" shape-rendering="crispEdges"/><rect fill="#121212" x="707.6" y="269.9" width="622.2" height="24.65" shape-rendering="crispEdges"/><rect fill="#121212" x="1329.8" y="269.9" width="24.4" height="24.65" shape-rendering="crispEdges"/><rect fill="#003054" x="1354.2" y="269.9" width="24.4" height="24.65" shape-rendering="crispEdges"/><rect fill="#121212" x="0" y="294.3" width="24.4" height="24.65" shape-rendering="crispEdges"/><rect fill="#8b0000" x="24.4" y="294.3" width="24.4" height="24.65" shape-rendering="crispEdges"/><rect fill="#8b0000" x="48.8" y="294.3" width="85.4" height="24.65" shape-rendering="crispEdges"/><rect fill="#8b0000" x="134.2" y="294.3" width="24.4" height="24.65" shape-rendering="crispEdges"/><rect fill="#ff8c00" x="158.6" y="294.3" width="24.4" height="24.65" shape-rendering="crispEdges"/><rect fill="#ff8c00" x="183" y="294.3" width="48.8" height="24.65" shape-rendering="crispEdges"/><rect fill="#ff8c00" x="231.8" y="294.3" width="24.4" height="24.65" shape-rendering="crispEdges"/><rect fill="#008b8b" x="256.2" y="294.3" width="24.4" height="24.65" shape-rendering="crispEdges"/><rect fill="#008b8b" x="280.6" y="294.3" width="402.6" height="24.65" shape-rendering="crispEdges"/><rect fill="#008b8b" x="683.2" y="294.3" width="24.4" height="24.65" shape-rendering="crispEdges"/><rect fill="#121212" x="707.6" y="294.3" width="622.2" height="24.65" shape-rendering="crispEdges"/><rect fill="#121212" x="1329.8" y="294.3" width="24.4" height="24.65" shape-rendering="crispEdges"/><rect fill="#003054" x="1354.2" y="294.3" width="24.4" height="24.65" shape-rendering="crispEdges"/><rect fill="#121212" x="0" y="318.7" width="24.4" height="24.65" shape-rendering="crispEdges"/><rect fill="#8b0000" x="24.4" y="318.7" width="134.2" height="24.65" shape-rendering="crispEdges"/><rect fill="#ff8c00" x="158.6" y="318.7" width="97.6" height="24.65" shape-rendering="crispEdges"/><rect fill="#008b8b" x="256.2" y="318.7" width="451.4" height="24.65" shape-rendering="crispEdges"/><rect fill="#121212" x="707.6" y="318.7" width="622.2" height="24.65" shape-rendering="crispEdges"/><rect fill="#121212" x="1329.8" y="318.7" width="24.4" height="24.65" shape-rendering="crispEdges"/><rect fill="#003054" x="1354.2" y="318.7" width="24.4" height="24.65" shape-rendering="crispEdges"/><rect fill="#121212" x="0" y="343.1" width="24.4" height="24.65" shape-rendering="crispEdges"/><rect fill="#121212" x="24.4" y="343.1" width="1305.4" height="24.65" shape-rendering="crispEdges"/><rect fill="#121212" x="1329.8" y="343.1" width="24.4" height="24.65" shape-rendering="crispEdges"/><rect fill="#003054" x="1354.2" y="343.1" width="24.4" height="24.65" shape-rendering="crispEdges"/><rect fill="#121212" x="0" y="367.5" width="24.4" height="24.65" shape-rendering="crispEdges"/><rect fill="#8b0000" x="24.4" y="367.5" width="134.2" height="24.65" shape-rendering="crispEdges"/><rect fill="#b8860b" x="158.6" y="367.5" width="109.8" height="24.65" shape-rendering="crispEdges"/><rect fill="#121212" x="268.4" y="367.5" width="134.2" height="24.65" shape-rendering="crispEdges"/><rect fill="#121212" x="402.6" y="367.5" width="927.2" height="24.65" shape-rendering="crispEdges"/><rect fill="#121212" x="1329.8" y="367.5" width="24.4" height="24.65" shape-rendering="crispEdges"/><rect fill="#003054" x="1354.2" y="367.5" width="24.4" height="24.65" shape-rendering="crispEdges"/><rect fill="#121212" x="0" y="391.9" width="24.4" height="24.65" shape-rendering="crispEdges"/><rect fill="#8b0000" x="24.4" y="391.9" width="24.4" height="24.65" shape-rendering="crispEdges"/><rect fill="#8b0000" x="48.8" y="391.9" width="85.4" height="24.65" shape-rendering="crispEdges"/><rect fill="#8b0000" x="134.2" y="391.9" width="24.4" height="24.65" shape-rendering="crispEdges"/><rect fill="#b8860b" x="158.6" y="391.9" width="24.4" height="24.65" shape-rendering="crispEdges"/><rect fill="#b8860b" x="183" y="391.9" width="61" height="24.65" shape-rendering="crispEdges"/><rect fill="#b8860b" x="244" y="391.9" width="24.4" height="24.65" shape-rendering="crispEdges"/><rect fill="#121212" x="268.4" y="391.9" width="24.4" height="24.65" shape-rendering="crispEdges"/><rect fill="#121212" x="292.8" y="391.9" width="85.4" height="24.65" shape-rendering="crispEdges"/><rect fill="#121212" x="378.2" y="391.9" width="24.4" height="24.65" shape-rendering="crispEdges"/><rect fill="#121212" x="402.6" y="391.9" width="927.2" height="24.65" shape-rendering="crispEdges"/><rect fill="#121212" x="1329.8" y="391.9" width="24.4" height="24.65" shape-rendering="crispEdges"/><rect fill="#003054" x="1354.2" y="391.9" width="24.4" height="24.65" shape-rendering="crispEdges"/><rect fill="#121212" x="0" y="416.3" width="24.4" height="24.65" shape-rendering="crispEdges"/><rect fill="#8b0000" x="24.4" y="416.3" width="134.2" height="24.65" shape-rendering="crispEdges"/><rect fill="#b8860b" x="158.6" y="416.3" width="109.8" height="24.65" shape-rendering="crispEdges"/><rect fill="#121212" x="268.4" y="416.3" width="134.2" height="24.65" shape-rendering="crispEdges"/><rect fill="#121212" x="402.6" y="416.3" width="927.2" height="24.65" shape-rendering="crispEdges"/><rect fill="#121212" x="1329.8" y="416.3" width="24.4" height="24.65" shape-rendering="crispEdges"/><rect fill="#003054" x="1354.2" y="416.3" width="24.4" height="24.65" shape-rendering="crispEdges"/><rect fill="#121212" x="0" y="440.7" width="24.4" height="24.65" shape-rendering="crispEdges"/><rect fill="#121212" x="24.4" y="440.7" width="1305.4" height="24.65" shape-rendering="crispEdges"/><rect fill="#121212" x="1329.8" y="440.7" width="24.4" height="24.65" shape-rendering="crispEdges"/><rect fill="#003054" x="1354.2" y="440.7" width="24.4" height="24.65" shape-rendering="crispEdges"/><rect fill="#121212" x="0" y="465.1" width="24.4" height="24.65" shape-rendering="crispEdges"/><rect fill="#006400" x="24.4" y="465.1" width="963.8" height="24.65" shape-rendering="crispEdges"/><rect fill="#bdb76b" x="988.2" y="465.1" width="305" height="24.65" shape-rendering="crispEdges"/><rect fill="#8b008b" x="1293.2" y="465.1" width="36.6" height="24.65" shape-rendering="crispEdges"/><rect fill="#121212" x="1329.8" y="465.1" width="24.4" height="24.65" shape-rendering="crispEdges"/><rect fill="#003054" x="1354.2" y="465.1" width="24.4" height="24.65" shape-rendering="crispEdges"/><rect fill="#121212" x="0" y="489.5" width="24.4" height="24.65" shape-rendering="crispEdges"/><rect fill="#006400" x="24.4" y="489.5" width="24.4" height="24.65" shape-rendering="crispEdges"/><rect fill="#006400" x="48.8" y="489.5" width="915" height="24.65" shape-rendering="crispEdges"/><rect fill="#006400" x="963.8" y="489.5" width="24.4" height="24.65" shape-rendering="crispEdges"/><rect fill="#bdb76b" x="988.2" y="489.5" width="24.4" height="24.65" shape-rendering="crispEdges"/><rect fill="#bdb76b" x="1012.6" y="489.5" width="256.2" height="24.65" shape-rendering="crispEdges"/><rect fill="#bdb76b" x="1268.8" y="489.5" width="24.4" height="24.65" shape-rendering="crispEdges"/><rect fill="#8b008b" x="1293.2" y="489.5" width="24.4" height="24.65" shape-rendering="crispEdges"/><rect fill="#8b008b" x="1317.6" y="489.5" width="12.2" height="24.65" shape-rendering="crispEdges"/><rect fill="#121212" x="1329.8" y="489.5" width="24.4" height="24.65" shape-rendering="crispEdges"/><rect fill="#003054" x="1354.2" y="489.5" width="24.4" height="24.65" shape-rendering="crispEdges"/><rect fill="#121212" x="0" y="513.9" width="24.4" height="24.65" shape-rendering="crispEdges"/><rect fill="#006400" x="24.4" y="513.9" width="963.8" height="24.65" shape-rendering="crispEdges"/><rect fill="#bdb76b" x="988.2" y="513.9" width="305" height="24.65" shape-rendering="crispEdges"/><rect fill="#8b008b" x="1293.2" y="513.9" width="36.6" height="24.65" shape-rendering="crispEdges"/><rect fill="#121212" x="1329.8" y="513.9" width="24.4" height="24.65" shape-rendering="crispEdges"/><rect fill="#003054" x="1354.2" y="513.9" width="24.4" height="24.65" shape-rendering="crispEdges"/><rect fill="#121212" x="0" y="538.3" width="24.4" height="24.65" shape-rendering="crispEdges"/><rect fill="#121212" x="24.4" y="538.3" width="1305.4" height="24.65" shape-rendering="crispEdges"/><rect fill="#121212" x="1329.8" y="538.3" width="24.4" height="24.65" shape-rendering="crispEdges"/><rect fill="#003054" x="1354.2" y="538.3" width="24.4" height="24.65" shape-rendering="crispEdges"/><rect fill="#121212" x="0" y="562.7" width="24.4" height="24.65" shape-rendering="crispEdges"/><rect fill="#006400" x="24.4" y="562.7" width="963.8" height="24.65" shape-rendering="crispEdges"/><rect fill="#bdb76b" x="988.2" y="562.7" width="305" height="24.65" shape-rendering="crispEdges"/><rect fill="#006400" x="1293.2" y="562.7" width="36.6" height="24.65" shape-rendering="crispEdges"/><rect fill="#121212" x="1329.8" y="562.7" width="24.4" height="24.65" shape-rendering="crispEdges"/><rect fill="#003054" x="1354.2" y="562.7" width="24.4" height="24.65" shape-rendering="crispEdges"/><rect fill="#121212" x="0" y="587.1" width="24.4" height="24.65" shape-rendering="crispEdges"/><rect fill="#006400" x="24.4" y="587.1" width="24.4" height="24.65" shape-rendering="crispEdges"/><rect fill="#006400" x="48.8" y="587.1" width="915" height="24.65" shape-rendering="crispEdges"/><rect fill="#006400" x="963.8" y="587.1" width="24.4" height="24.65" shape-rendering="crispEdges"/><rect fill="#bdb76b" x="988.2" y="587.1" width="24.4" height="24.65" shape-rendering="crispEdges"/><rect fill="#bdb76b" x="1012.6" y="587.1" width="256.2" height="24.65" shape-rendering="crispEdges"/><rect fill="#bdb76b" x="1268.8" y="587.1" width="24.4" height="24.65" shape-rendering="crispEdges"/><rect fill="#006400" x="1293.2" y="587.1" width="24.4" height="24.65" shape-rendering="crispEdges"/><rect fill="#006400" x="1317.6" y="587.1" width="12.2" height="24.65" shape-rendering="crispEdges"/><rect fill="#121212" x="1329.8" y="587.1" width="24.4" height="24.65" shape-rendering="crispEdges"/><rect fill="#003054" x="1354.2" y="587.1" width="24.4" height="24.65" shape-rendering="crispEdges"/><rect fill="#121212" x="0" y="611.5" width="24.4" height="24.65" shape-rendering="crispEdges"/><rect fill="#006400" x="24.4" y="611.5" width="963.8" height="24.65" shape-rendering="crispEdges"/><rect fill="#bdb76b" x="988.2" y="611.5" width="305" height="24.65" shape-rendering="crispEdges"/><rect fill="#006400" x="1293.2" y="611.5" width="36.6" height="24.65" shape-rendering="crispEdges"/><rect fill="#121212" x="1329.8" y="611.5" width="24.4" height="24.65" shape-rendering="crispEdges"/><rect fill="#003054" x="1354.2" y="611.5" width="24.4" height="24.65" shape-rendering="crispEdges"/><rect fill="#121212" x="0" y="635.9" width="24.4" height="24.65" shape-rendering="crispEdges"/><rect fill="#121212" x="24.4" y="635.9" width="1305.4" height="24.65" shape-rendering="crispEdges"/><rect fill="#121212" x="1329.8" y="635.9" width="24.4" height="24.65" shape-rendering="crispEdges"/><rect fill="#003054" x="1354.2" y="635.9" width="24.4" height="24.65" shape-rendering="crispEdges"/><rect fill="#121212" x="0" y="660.3" width="24.4" height="24.65" shape-rendering="crispEdges"/><rect fill="#006400" x="24.4" y="660.3" width="963.8" height="24.65" shape-rendering="crispEdges"/><rect fill="#bdb76b" x="988.2" y="660.3" width="305" height="24.65" shape-rendering="crispEdges"/><rect fill="#556b2f" x="1293.2" y="660.3" width="36.6" height="24.65" shape-rendering="crispEdges"/><rect fill="#121212" x="1329.8" y="660.3" width="24.4" height="24.65" shape-rendering="crispEdges"/><rect fill="#003054" x="1354.2" y="660.3" width="24.4" height="24.65" shape-rendering="crispEdges"/><rect fill="#121212" x="0" y="684.7" width="24.4" height="24.65" shape-rendering="crispEdges"/><rect fill="#006400" x="24.4" y="684.7" width="24.4" height="24.65" shape-rendering="crispEdges"/><rect fill="#006400" x="48.8" y="684.7" width="915" height="24.65" shape-rendering="crispEdges"/><rect fill="#006400" x="963.8" y="684.7" width="24.4" height="24.65" shape-rendering="crispEdges"/><rect fill="#bdb76b" x="988.2" y="684.7" width="24.4" height="24.65" shape-rendering="crispEdges"/><rect fill="#bdb76b" x="1012.6" y="684.7" width="256.2" height="24.65" shape-rendering="crispEdges"/><rect fill="#bdb76b" x="1268.8" y="684.7" width="24.4" height="24.65" shape-rendering="crispEdges"/><rect fill="#556b2f" x="1293.2" y="684.7" width="24.4" height="24.65" shape-rendering="crispEdges"/><rect fill="#556b2f" x="1317.6" y="684.7" width="12.2" height="24.65" shape-rendering="crispEdges"/><rect fill="#121212" x="1329.8" y="684.7" width="24.4" height="24.65" shape-rendering="crispEdges"/><rect fill="#003054" x="1354.2" y="684.7" width="24.4" height="24.65" shape-rendering="crispEdges"/><rect fill="#121212" x="0" y="709.1" width="24.4" height="24.65" shape-rendering="crispEdges"/><rect fill="#006400" x="24.4" y="709.1" width="963.8" height="24.65" shape-rendering="crispEdges"/><rect fill="#bdb76b" x="988.2" y="709.1" width="305" height="24.65" shape-rendering="crispEdges"/><rect fill="#556b2f" x="1293.2" y="709.1" width="36.6" height="24.65" shape-rendering="crispEdges"/><rect fill="#121212" x="1329.8" y="709.1" width="24.4" height="24.65" shape-rendering="crispEdges"/><rect fill="#003054" x="1354.2" y="709.1" width="24.4" height="24.65" shape-rendering="crispEdges"/><rect fill="#121212" x="0" y="733.5" width="24.4" height="24.65" shape-rendering="crispEdges"/><rect fill="#121212" x="24.4" y="733.5" width="1305.4" height="24.65" shape-rendering="crispEdges"/><rect fill="#121212" x="1329.8" y="733.5" width="24.4" height="24.65" shape-rendering="crispEdges"/><rect fill="#003054" x="1354.2" y="733.5" width="24.4" height="24.65" shape-rendering="crispEdges"/><rect fill="#121212" x="0" y="757.9" width="24.4" height="24.65" shape-rendering="crispEdges"/><rect fill="#006400" x="24.4" y="757.9" width="963.8" height="24.65" shape-rendering="crispEdges"/><rect fill="#bdb76b" x="988.2" y="757.9" width="305" height="24.65" shape-rendering="crispEdges"/><rect fill="#9932cc" x="1293.2" y="757.9" width="36.6" height="24.65" shape-rendering="crispEdges"/><rect fill="#121212" x="1329.8" y="757.9" width="24.4" height="24.65" shape-rendering="crispEdges"/><rect fill="#000000" x="1354.2" y="757.9" width="24.4" height="24.65" shape-rendering="crispEdges"/><rect fill="#121212" x="0" y="782.3" width="24.4" height="24.65" shape-rendering="crispEdges"/><rect fill="#006400" x="24.4" y="782.3" width="24.4" height="24.65" shape-rendering="crispEdges"/><rect fill="#006400" x="48.8" y="782.3" width="915" height="24.65" shape-rendering="crispEdges"/><rect fill="#006400" x="963.8" y="782.3" width="24.4" height="24.65" shape-rendering="crispEdges"/><rect fill="#bdb76b" x="988.2" y="782.3" width="24.4" height="24.65" shape-rendering="crispEdges"/><rect fill="#bdb76b" x="1012.6" y="782.3" width="256.2" height="24.65" shape-rendering="crispEdges"/><rect fill="#bdb76b" x="1268.8" y="782.3" width="24.4" height="24.65" shape-rendering="crispEdges"/><rect fill="#9932cc" x="1293.2" y="782.3" width="24.4" height="24.65" shape-rendering="crispEdges"/><rect fill="#9932cc" x="1317.6" y="782.3" width="12.2" height="24.65" shape-rendering="crispEdges"/><rect fill="#121212" x="1329.8" y="782.3" width="24.4" height="24.65" shape-rendering="crispEdges"/><rect fill="#000000" x="1354.2" y="782.3" width="24.4" height="24.65" shape-rendering="crispEdges"/><rect fill="#242f38" x="0" y="806.7" width="36.6" height="24.65" shape-rendering="crispEdges"/><rect fill="#242f38" x="36.6" y="806.7" width="134.2" height="24.65" shape-rendering="crispEdges"/><rect fill="#242f38" x="170.8" y="806.7" width="36.6" height="24.65" shape-rendering="crispEdges"/><rect fill="#242f38" x="207.4" y="806.7" width="170.8" height="24.65" shape-rendering="crispEdges"/><rect fill="#242f38" x="378.2" y="806.7" width="36.6" height="24.65" shape-rendering="crispEdges"/><rect fill="#242f38" x="414.8" y="806.7" width="231.8" height="24.65" shape-rendering="crispEdges"/><rect fill="#242f38" x="646.6" y="806.7" width="48.8" height="24.65" shape-rendering="crispEdges"/><rect fill="#242f38" x="695.4" y="806.7" width="122" height="24.65" shape-rendering="crispEdges"/><rect fill="#242f38" x="817.4" y="806.7" width="61" height="24.65" shape-rendering="crispEdges"/><rect fill="#242f38" x="878.4" y="806.7" width="97.6" height="24.65" shape-rendering="crispEdges"/><rect fill="#242f38" x="976" y="806.7" width="36.6" height="24.65" shape-rendering="crispEdges"/><rect fill="#242f38" x="1012.6" y="806.7" width="207.4" height="24.65" shape-rendering="crispEdges"/><rect fill="#242f38" x="1220" y="806.7" width="12.2" height="24.65" shape-rendering="crispEdges"/><rect fill="#242f38" x="1232.2" y="806.7" width="12.2" height="24.65" shape-rendering="crispEdges"/><rect fill="#242f38" x="1244.4" y="806.7" width="24.4" height="24.65" shape-rendering="crispEdges"/><rect fill="#242f38" x="1268.8" y="806.7" width="48.8" height="24.65" shape-rendering="crispEdges"/><rect fill="#242f38" x="1317.6" y="806.7" width="48.8" height="24.65" shape-rendering="crispEdges"/><rect fill="#242f38" x="1366.4" y="806.7" width="12.2" height="24.65" shape-rendering="crispEdges"/>
    <g class="terminal-3819153877-matrix">
    <text class="terminal-3819153877-r2" x="12.2" y="20" textLength="24.4" clip-path="url(#terminal-3819153877-line-0)">👁️</text><text class="terminal-3819153877-r2" x="219.6" y="20" textLength="122" clip-path="url(#terminal-3819153877-line-0)">Iolanta&#160;—&#160;</text><text class="terminal-3819153877-r3" x="341.6" y="20" textLength="793" clip-path="url(#terminal-3819153877-line-0)">https://w3id.org/np/RAAnO3U0Lc56gbYHz5MZD440460c88Qfiz8cTfP58nvvs</text><text class="terminal-3819153877-r1" x="1378.6" y="20" textLength="12.2" clip-path="url(#terminal-3819153877-line-0)">
</text><text class="terminal-3819153877-r1" x="1378.6" y="44.4" textLength="12.2" clip-path="url(#terminal-3819153877-line-1)">
</text><text class="terminal-3819153877-r5" x="12.2" y="68.8" textLength="183" clip-path="url(#terminal-3819153877-line-2)">Nanopublication</text><text class="terminal-3819153877-r1" x="1378.6" y="68.8" textLength="12.2" clip-path="url(#terminal-3819153877-line-2)">
</text><text class="terminal-3819153877-r1" x="1378.6" y="93.2" textLength="12.2" clip-path="url(#terminal-3819153877-line-3)">
</text><text class="terminal-3819153877-r1" x="1378.6" y="117.6" textLength="12.2" clip-path="url(#terminal-3819153877-line-4)">
</text><text class="terminal-3819153877-r1" x="1378.6" y="142" textLength="12.2" clip-path="url(#terminal-3819153877-line-5)">
</text><text class="terminal-3819153877-r2" x="48.8" y="166.4" textLength="85.4" clip-path="url(#terminal-3819153877-line-6)">YAML-LD</text><text class="terminal-3819153877-r2" x="183" y="166.4" textLength="134.2" clip-path="url(#terminal-3819153877-line-6)">Description</text><text class="terminal-3819153877-r2" x="366" y="166.4" textLength="902.8" clip-path="url(#terminal-3819153877-line-6)">A&#160;set&#160;of&#160;conventions&#160;built&#160;on&#160;top&#160;of&#160;YAML,&#160;which&#160;outlines&#160;how&#160;to&#160;serialize</text><text class="terminal-3819153877-r1" x="1378.6" y="166.4" textLength="12.2" clip-path="url(#terminal-3819153877-line-6)">
</text><text class="terminal-3819153877-r2" x="366" y="190.8" textLength="793" clip-path="url(#terminal-3819153877-line-7)">Linked&#160;Data&#160;as&#160;YAML&#160;based&#160;on&#160;JSON-LD&#160;syntax,&#160;semantics,&#160;and&#160;APIs.</text><text class="terminal-3819153877-r1" x="1378.6" y="190.8" textLength="12.2" clip-path="url(#terminal-3819153877-line-7)">
</text><text class="terminal-3819153877-r1" x="1378.6" y="215.2" textLength="12.2" clip-path="url(#terminal-3819153877-line-8)">
</text><text class="terminal-3819153877-r1" x="1378.6" y="239.6" textLength="12.2" clip-path="url(#terminal-3819153877-line-9)">
</text><text class="terminal-3819153877-r1" x="1378.6" y="264" textLength="12.2" clip-path="url(#terminal-3819153877-line-10)">
</text><text class="terminal-3819153877-r1" x="1378.6" y="288.4" textLength="12.2" clip-path="url(#terminal-3819153877-line-11)">
</text><text class="terminal-3819153877-r2" x="48.8" y="312.8" textLength="85.4" clip-path="url(#terminal-3819153877-line-12)">YAML-LD</text><text class="terminal-3819153877-r2" x="183" y="312.8" textLength="48.8" clip-path="url(#terminal-3819153877-line-12)">type</text><text class="terminal-3819153877-r2" x="280.6" y="312.8" textLength="402.6" clip-path="url(#terminal-3819153877-line-12)">Knowledge&#160;representation&#160;language</text><text class="terminal-3819153877-r1" x="1378.6" y="312.8" textLength="12.2" clip-path="url(#terminal-3819153877-line-12)">
</text><text class="terminal-3819153877-r1" x="1378.6" y="337.2" textLength="12.2" clip-path="url(#terminal-3819153877-line-13)">
</text><text class="terminal-3819153877-r1" x="1378.6" y="361.6" textLength="12.2" clip-path="url(#terminal-3819153877-line-14)">
</text><text class="terminal-3819153877-r1" x="1378.6" y="386" textLength="12.2" clip-path="url(#terminal-3819153877-line-15)">
</text><text class="terminal-3819153877-r2" x="48.8" y="410.4" textLength="85.4" clip-path="url(#terminal-3819153877-line-16)">YAML-LD</text><text class="terminal-3819153877-r2" x="183" y="410.4" textLength="61" clip-path="url(#terminal-3819153877-line-16)">label</text><text class="terminal-3819153877-r2" x="292.8" y="410.4" textLength="85.4" clip-path="url(#terminal-3819153877-line-16)">YAML-LD</text><text class="terminal-3819153877-r1" x="1378.6" y="410.4" textLength="12.2" clip-path="url(#terminal-3819153877-line-16)">
</text><text class="terminal-3819153877-r1" x="1378.6" y="434.8" textLength="12.2" clip-path="url(#terminal-3819153877-line-17)">
</text><text class="terminal-3819153877-r1" x="1378.6" y="459.2" textLength="12.2" clip-path="url(#terminal-3819153877-line-18)">
</text><text class="terminal-3819153877-r1" x="1378.6" y="483.6" textLength="12.2" clip-path="url(#terminal-3819153877-line-19)">
</text><text class="terminal-3819153877-r2" x="48.8" y="508" textLength="915" clip-path="url(#terminal-3819153877-line-20)">https://w3id.org/np/RAAnO3U0Lc56gbYHz5MZD440460c88Qfiz8cTfP58nvvs/assertion</text><text class="terminal-3819153877-r2" x="1012.6" y="508" textLength="256.2" clip-path="url(#terminal-3819153877-line-20)">iolanta:has-sub-graph</text><text class="terminal-3819153877-r2" x="1317.6" y="508" textLength="12.2" clip-path="url(#terminal-3819153877-line-20)">h</text><text class="terminal-3819153877-r1" x="1378.6" y="508" textLength="12.2" clip-path="url(#terminal-3819153877-line-20)">
</text><text class="terminal-3819153877-r1" x="1378.6" y="532.4" textLength="12.2" clip-path="url(#terminal-3819153877-line-21)">
</text><text class="terminal-3819153877-r1" x="1378.6" y="556.8" textLength="12.2" clip-path="url(#terminal-3819153877-line-22)">
</text><text class="terminal-3819153877-r1" x="1378.6" y="581.2" textLength="12.2" clip-path="url(#terminal-3819153877-line-23)">
</text><text class="terminal-3819153877-r2" x="48.8" y="605.6" textLength="915" clip-path="url(#terminal-3819153877-line-24)">https://w3id.org/np/RAAnO3U0Lc56gbYHz5MZD440460c88Qfiz8cTfP58nvvs/assertion</text><text class="terminal-3819153877-r2" x="1012.6" y="605.6" textLength="256.2" clip-path="url(#terminal-3819153877-line-24)">iolanta:has-sub-graph</text><text class="terminal-3819153877-r2" x="1317.6" y="605.6" textLength="12.2" clip-path="url(#terminal-3819153877-line-24)">h</text><text class="terminal-3819153877-r1" x="1378.6" y="605.6" textLength="12.2" clip-path="url(#terminal-3819153877-line-24)">
</text><text class="terminal-3819153877-r1" x="1378.6" y="630" textLength="12.2" clip-path="url(#terminal-3819153877-line-25)">
</text><text class="terminal-3819153877-r1" x="1378.6" y="654.4" textLength="12.2" clip-path="url(#terminal-3819153877-line-26)">
</text><text class="terminal-3819153877-r1" x="1378.6" y="678.8" textLength="12.2" clip-path="url(#terminal-3819153877-line-27)">
</text><text class="terminal-3819153877-r2" x="48.8" y="703.2" textLength="915" clip-path="url(#terminal-3819153877-line-28)">https://w3id.org/np/RAAnO3U0Lc56gbYHz5MZD440460c88Qfiz8cTfP58nvvs/assertion</text><text class="terminal-3819153877-r2" x="1012.6" y="703.2" textLength="256.2" clip-path="url(#terminal-3819153877-line-28)">iolanta:has-sub-graph</text><text class="terminal-3819153877-r2" x="1317.6" y="703.2" textLength="12.2" clip-path="url(#terminal-3819153877-line-28)">h</text><text class="terminal-3819153877-r1" x="1378.6" y="703.2" textLength="12.2" clip-path="url(#terminal-3819153877-line-28)">
</text><text class="terminal-3819153877-r1" x="1378.6" y="727.6" textLength="12.2" clip-path="url(#terminal-3819153877-line-29)">
</text><text class="terminal-3819153877-r6" x="1354.2" y="752" textLength="24.4" clip-path="url(#terminal-3819153877-line-30)">▅▅</text><text class="terminal-3819153877-r1" x="1378.6" y="752" textLength="12.2" clip-path="url(#terminal-3819153877-line-30)">
</text><text class="terminal-3819153877-r1" x="1378.6" y="776.4" textLength="12.2" clip-path="url(#terminal-3819153877-line-31)">
</text><text class="terminal-3819153877-r2" x="48.8" y="800.8" textLength="915" clip-path="url(#terminal-3819153877-line-32)">https://w3id.org/np/RAAnO3U0Lc56gbYHz5MZD440460c88Qfiz8cTfP58nvvs/assertion</text><text class="terminal-3819153877-r2" x="1012.6" y="800.8" textLength="256.2" clip-path="url(#terminal-3819153877-line-32)">iolanta:has-sub-graph</text><text class="terminal-3819153877-r2" x="1317.6" y="800.8" textLength="12.2" clip-path="url(#terminal-3819153877-line-32)">h</text><text class="terminal-3819153877-r1" x="1378.6" y="800.8" textLength="12.2" clip-path="url(#terminal-3819153877-line-32)">
</text><text class="terminal-3819153877-r7" x="0" y="825.2" textLength="36.6" clip-path="url(#terminal-3819153877-line-33)">&#160;1&#160;</text><text class="terminal-3819153877-r2" x="36.6" y="825.2" textLength="134.2" clip-path="url(#terminal-3819153877-line-33)">Properties&#160;</text><text class="terminal-3819153877-r7" x="170.8" y="825.2" textLength="36.6" clip-path="url(#terminal-3819153877-line-33)">&#160;2&#160;</text><text class="terminal-3819153877-r2" x="207.4" y="825.2" textLength="170.8" clip-path="url(#terminal-3819153877-line-33)">Graph&#160;Triples&#160;</text><text class="terminal-3819153877-r7" x="378.2" y="825.2" textLength="36.6" clip-path="url(#terminal-3819153877-line-33)">&#160;3&#160;</text><text class="terminal-3819153877-r2" x="414.8" y="825.2" textLength="231.8" clip-path="url(#terminal-3819153877-line-33)">Inverse&#160;Properties&#160;</text><text class="terminal-3819153877-r7" x="646.6" y="825.2" textLength="48.8" clip-path="url(#terminal-3819153877-line-33)">&#160;f5&#160;</text><text class="terminal-3819153877-r2" x="695.4" y="825.2" textLength="109.8" clip-path="url(#terminal-3819153877-line-33)">🔄&#160;Reload&#160;</text><text class="terminal-3819153877-r7" x="817.4" y="825.2" textLength="61" clip-path="url(#terminal-3819153877-line-33)">&#160;f12&#160;</text><text class="terminal-3819153877-r2" x="878.4" y="825.2" textLength="97.6" clip-path="url(#terminal-3819153877-line-33)">Console&#160;</text><text class="terminal-3819153877-r7" x="976" y="825.2" textLength="36.6" clip-path="url(#terminal-3819153877-line-33)">&#160;t&#160;</text><text class="terminal-3819153877-r2" x="1012.6" y="825.2" textLength="207.4" clip-path="url(#terminal-3819153877-line-33)">Toggle&#160;Dark&#160;Mode&#160;</text><text class="terminal-3819153877-r8" x="1232.2" y="825.2" textLength="12.2" clip-path="url(#terminal-3819153877-line-33)">▏</text><text class="terminal-3819153877-r7" x="1244.4" y="825.2" textLength="24.4" clip-path="url(#terminal-3819153877-line-33)">^p</text><text class="terminal-3819153877-r2" x="1268.8" y="825.2" textLength="48.8" clip-path="url(#terminal-3819153877-line-33)">&#160;pal</text><text class="terminal-3819153877-r2" x="1317.6" y="825.2" textLength="48.8" clip-path="url(#terminal-3819153877-line-33)">ette</text>
    </g>
    </g>
</svg>
