<svg class="rich-terminal" viewBox="0 0 1397 879.5999999999999" xmlns="http://www.w3.org/2000/svg">
    <!-- Generated with Rich https://www.textualize.io -->
    <style>

    @font-face {
        font-family: "Fira Code";
        src: local("FiraCode-Regular"),
                url("https://cdnjs.cloudflare.com/ajax/libs/firacode/6.2.0/woff2/FiraCode-Regular.woff2") format("woff2"),
                url("https://cdnjs.cloudflare.com/ajax/libs/firacode/6.2.0/woff/FiraCode-Regular.woff") format("woff");
        font-style: normal;
        font-weight: 400;
    }
    @font-face {
        font-family: "Fira Code";
        src: local("FiraCode-Bold"),
                url("https://cdnjs.cloudflare.com/ajax/libs/firacode/6.2.0/woff2/FiraCode-Bold.woff2") format("woff2"),
                url("https://cdnjs.cloudflare.com/ajax/libs/firacode/6.2.0/woff/FiraCode-Bold.woff") format("woff");
        font-style: bold;
        font-weight: 700;
    }

    .terminal-3726851522-matrix {
        font-family: Fira Code, monospace;
        font-size: 20px;
        line-height: 24.4px;
        font-variant-east-asian: full-width;
    }

    .terminal-3726851522-title {
        font-size: 18px;
        font-weight: bold;
        font-family: arial;
    }

    .terminal-3726851522-r1 { fill: #c5c8c6 }
.terminal-3726851522-r2 { fill: #e0e0e0 }
.terminal-3726851522-r3 { fill: #94999c }
.terminal-3726851522-r4 { fill: #121212 }
.terminal-3726851522-r5 { fill: #ffffff;font-weight: bold }
.terminal-3726851522-r6 { fill: #696969 }
.terminal-3726851522-r7 { fill: #000000 }
.terminal-3726851522-r8 { fill: #ffa62b;font-weight: bold }
.terminal-3726851522-r9 { fill: #495259 }
    </style>

    <defs>
    <clipPath id="terminal-3726851522-clip-terminal">
      <rect x="0" y="0" width="1377.6" height="828.5999999999999" />
    </clipPath>
    <clipPath id="terminal-3726851522-line-0">
    <rect x="0" y="1.5" width="1378.6" height="24.65"/>
            </clipPath>
<clipPath id="terminal-3726851522-line-1">
    <rect x="0" y="25.9" width="1378.6" height="24.65"/>
            </clipPath>
<clipPath id="terminal-3726851522-line-2">
    <rect x="0" y="50.3" width="1378.6" height="24.65"/>
            </clipPath>
<clipPath id="terminal-3726851522-line-3">
    <rect x="0" y="74.7" width="1378.6" height="24.65"/>
            </clipPath>
<clipPath id="terminal-3726851522-line-4">
    <rect x="0" y="99.1" width="1378.6" height="24.65"/>
            </clipPath>
<clipPath id="terminal-3726851522-line-5">
    <rect x="0" y="123.5" width="1378.6" height="24.65"/>
            </clipPath>
<clipPath id="terminal-3726851522-line-6">
    <rect x="0" y="147.9" width="1378.6" height="24.65"/>
            </clipPath>
<clipPath id="terminal-3726851522-line-7">
    <rect x="0" y="172.3" width="1378.6" height="24.65"/>
            </clipPath>
<clipPath id="terminal-3726851522-line-8">
    <rect x="0" y="196.7" width="1378.6" height="24.65"/>
            </clipPath>
<clipPath id="terminal-3726851522-line-9">
    <rect x="0" y="221.1" width="1378.6" height="24.65"/>
            </clipPath>
<clipPath id="terminal-3726851522-line-10">
    <rect x="0" y="245.5" width="1378.6" height="24.65"/>
            </clipPath>
<clipPath id="terminal-3726851522-line-11">
    <rect x="0" y="269.9" width="1378.6" height="24.65"/>
            </clipPath>
<clipPath id="terminal-3726851522-line-12">
    <rect x="0" y="294.3" width="1378.6" height="24.65"/>
            </clipPath>
<clipPath id="terminal-3726851522-line-13">
    <rect x="0" y="318.7" width="1378.6" height="24.65"/>
            </clipPath>
<clipPath id="terminal-3726851522-line-14">
    <rect x="0" y="343.1" width="1378.6" height="24.65"/>
            </clipPath>
<clipPath id="terminal-3726851522-line-15">
    <rect x="0" y="367.5" width="1378.6" height="24.65"/>
            </clipPath>
<clipPath id="terminal-3726851522-line-16">
    <rect x="0" y="391.9" width="1378.6" height="24.65"/>
            </clipPath>
<clipPath id="terminal-3726851522-line-17">
    <rect x="0" y="416.3" width="1378.6" height="24.65"/>
            </clipPath>
<clipPath id="terminal-3726851522-line-18">
    <rect x="0" y="440.7" width="1378.6" height="24.65"/>
            </clipPath>
<clipPath id="terminal-3726851522-line-19">
    <rect x="0" y="465.1" width="1378.6" height="24.65"/>
            </clipPath>
<clipPath id="terminal-3726851522-line-20">
    <rect x="0" y="489.5" width="1378.6" height="24.65"/>
            </clipPath>
<clipPath id="terminal-3726851522-line-21">
    <rect x="0" y="513.9" width="1378.6" height="24.65"/>
            </clipPath>
<clipPath id="terminal-3726851522-line-22">
    <rect x="0" y="538.3" width="1378.6" height="24.65"/>
            </clipPath>
<clipPath id="terminal-3726851522-line-23">
    <rect x="0" y="562.7" width="1378.6" height="24.65"/>
            </clipPath>
<clipPath id="terminal-3726851522-line-24">
    <rect x="0" y="587.1" width="1378.6" height="24.65"/>
            </clipPath>
<clipPath id="terminal-3726851522-line-25">
    <rect x="0" y="611.5" width="1378.6" height="24.65"/>
            </clipPath>
<clipPath id="terminal-3726851522-line-26">
    <rect x="0" y="635.9" width="1378.6" height="24.65"/>
            </clipPath>
<clipPath id="terminal-3726851522-line-27">
    <rect x="0" y="660.3" width="1378.6" height="24.65"/>
            </clipPath>
<clipPath id="terminal-3726851522-line-28">
    <rect x="0" y="684.7" width="1378.6" height="24.65"/>
            </clipPath>
<clipPath id="terminal-3726851522-line-29">
    <rect x="0" y="709.1" width="1378.6" height="24.65"/>
            </clipPath>
<clipPath id="terminal-3726851522-line-30">
    <rect x="0" y="733.5" width="1378.6" height="24.65"/>
            </clipPath>
<clipPath id="terminal-3726851522-line-31">
    <rect x="0" y="757.9" width="1378.6" height="24.65"/>
            </clipPath>
<clipPath id="terminal-3726851522-line-32">
    <rect x="0" y="782.3" width="1378.6" height="24.65"/>
            </clipPath>
    </defs>

    <rect fill="#292929" stroke="rgba(255,255,255,0.35)" stroke-width="1" x="1" y="1" width="1395" height="877.6" rx="8"/><text class="terminal-3726851522-title" fill="#c5c8c6" text-anchor="middle" x="697" y="27">Iolanta</text>
            <g transform="translate(26,22)">
            <circle cx="0" cy="0" r="7" fill="#ff5f57"/>
            <circle cx="22" cy="0" r="7" fill="#febc2e"/>
            <circle cx="44" cy="0" r="7" fill="#28c840"/>
            </g>
        
    <g transform="translate(9, 41)" clip-path="url(#terminal-3726851522-clip-terminal)">
    <rect fill="#242f38" x="0" y="1.5" width="12.2" height="24.65" shape-rendering="crispEdges"/><rect fill="#242f38" x="12.2" y="1.5" width="12.2" height="24.65" shape-rendering="crispEdges"/><rect fill="#242f38" x="24.4" y="1.5" width="61" height="24.65" shape-rendering="crispEdges"/><rect fill="#242f38" x="85.4" y="1.5" width="12.2" height="24.65" shape-rendering="crispEdges"/><rect fill="#242f38" x="97.6" y="1.5" width="122" height="24.65" shape-rendering="crispEdges"/><rect fill="#242f38" x="219.6" y="1.5" width="122" height="24.65" shape-rendering="crispEdges"/><rect fill="#242f38" x="341.6" y="1.5" width="793" height="24.65" shape-rendering="crispEdges"/><rect fill="#242f38" x="1134.6" y="1.5" width="122" height="24.65" shape-rendering="crispEdges"/><rect fill="#242f38" x="1256.6" y="1.5" width="12.2" height="24.65" shape-rendering="crispEdges"/><rect fill="#242f38" x="1268.8" y="1.5" width="0" height="24.65" shape-rendering="crispEdges"/><rect fill="#242f38" x="1268.8" y="1.5" width="97.6" height="24.65" shape-rendering="crispEdges"/><rect fill="#242f38" x="1366.4" y="1.5" width="12.2" height="24.65" shape-rendering="crispEdges"/><rect fill="#483d8b" x="0" y="25.9" width="1354.2" height="24.65" shape-rendering="crispEdges"/><rect fill="#003054" x="1354.2" y="25.9" width="24.4" height="24.65" shape-rendering="crispEdges"/><rect fill="#483d8b" x="0" y="50.3" width="12.2" height="24.65" shape-rendering="crispEdges"/><rect fill="#483d8b" x="12.2" y="50.3" width="793" height="24.65" shape-rendering="crispEdges"/><rect fill="#483d8b" x="805.2" y="50.3" width="536.8" height="24.65" shape-rendering="crispEdges"/><rect fill="#483d8b" x="1342" y="50.3" width="12.2" height="24.65" shape-rendering="crispEdges"/><rect fill="#003054" x="1354.2" y="50.3" width="24.4" height="24.65" shape-rendering="crispEdges"/><rect fill="#483d8b" x="0" y="74.7" width="1354.2" height="24.65" shape-rendering="crispEdges"/><rect fill="#003054" x="1354.2" y="74.7" width="24.4" height="24.65" shape-rendering="crispEdges"/><rect fill="#121212" x="0" y="99.1" width="0" height="24.65" shape-rendering="crispEdges"/><rect fill="#121212" x="0" y="99.1" width="1354.2" height="24.65" shape-rendering="crispEdges"/><rect fill="#003054" x="1354.2" y="99.1" width="24.4" height="24.65" shape-rendering="crispEdges"/><rect fill="#121212" x="0" y="123.5" width="195.2" height="24.65" shape-rendering="crispEdges"/><rect fill="#121212" x="195.2" y="123.5" width="12.2" height="24.65" shape-rendering="crispEdges"/><rect fill="#121212" x="207.4" y="123.5" width="1037" height="24.65" shape-rendering="crispEdges"/><rect fill="#121212" x="1244.4" y="123.5" width="12.2" height="24.65" shape-rendering="crispEdges"/><rect fill="#121212" x="1256.6" y="123.5" width="97.6" height="24.65" shape-rendering="crispEdges"/><rect fill="#003054" x="1354.2" y="123.5" width="24.4" height="24.65" shape-rendering="crispEdges"/><rect fill="#121212" x="0" y="147.9" width="195.2" height="24.65" shape-rendering="crispEdges"/><rect fill="#121212" x="195.2" y="147.9" width="12.2" height="24.65" shape-rendering="crispEdges"/><rect fill="#121212" x="207.4" y="147.9" width="1049.2" height="24.65" shape-rendering="crispEdges"/><rect fill="#121212" x="1256.6" y="147.9" width="97.6" height="24.65" shape-rendering="crispEdges"/><rect fill="#003054" x="1354.2" y="147.9" width="24.4" height="24.65" shape-rendering="crispEdges"/><rect fill="#121212" x="0" y="172.3" width="12.2" height="24.65" shape-rendering="crispEdges"/><rect fill="#121212" x="12.2" y="172.3" width="183" height="24.65" shape-rendering="crispEdges"/><rect fill="#121212" x="195.2" y="172.3" width="1159" height="24.65" shape-rendering="crispEdges"/><rect fill="#003054" x="1354.2" y="172.3" width="24.4" height="24.65" shape-rendering="crispEdges"/><rect fill="#121212" x="0" y="196.7" width="195.2" height="24.65" shape-rendering="crispEdges"/><rect fill="#121212" x="195.2" y="196.7" width="12.2" height="24.65" shape-rendering="crispEdges"/><rect fill="#121212" x="207.4" y="196.7" width="317.2" height="24.65" shape-rendering="crispEdges"/><rect fill="#121212" x="524.6" y="196.7" width="829.6" height="24.65" shape-rendering="crispEdges"/><rect fill="#003054" x="1354.2" y="196.7" width="24.4" height="24.65" shape-rendering="crispEdges"/><rect fill="#121212" x="0" y="221.1" width="195.2" height="24.65" shape-rendering="crispEdges"/><rect fill="#121212" x="195.2" y="221.1" width="1159" height="24.65" shape-rendering="crispEdges"/><rect fill="#003054" x="1354.2" y="221.1" width="24.4" height="24.65" shape-rendering="crispEdges"/><rect fill="#121212" x="0" y="245.5" width="61" height="24.65" shape-rendering="crispEdges"/><rect fill="#121212" x="61" y="245.5" width="134.2" height="24.65" shape-rendering="crispEdges"/><rect fill="#121212" x="195.2" y="245.5" width="1159" height="24.65" shape-rendering="crispEdges"/><rect fill="#003054" x="1354.2" y="245.5" width="24.4" height="24.65" shape-rendering="crispEdges"/><rect fill="#121212" x="0" y="269.9" width="195.2" height="24.65" shape-rendering="crispEdges"/><rect fill="#121212" x="195.2" y="269.9" width="12.2" height="24.65" shape-rendering="crispEdges"/><rect fill="#121212" x="207.4" y="269.9" width="268.4" height="24.65" shape-rendering="crispEdges"/><rect fill="#121212" x="475.8" y="269.9" width="12.2" height="24.65" shape-rendering="crispEdges"/><rect fill="#121212" x="488" y="269.9" width="280.6" height="24.65" shape-rendering="crispEdges"/><rect fill="#121212" x="768.6" y="269.9" width="12.2" height="24.65" shape-rendering="crispEdges"/><rect fill="#121212" x="780.8" y="269.9" width="268.4" height="24.65" shape-rendering="crispEdges"/><rect fill="#121212" x="1049.2" y="269.9" width="12.2" height="24.65" shape-rendering="crispEdges"/><rect fill="#121212" x="1061.4" y="269.9" width="280.6" height="24.65" shape-rendering="crispEdges"/><rect fill="#121212" x="1342" y="269.9" width="12.2" height="24.65" shape-rendering="crispEdges"/><rect fill="#003054" x="1354.2" y="269.9" width="24.4" height="24.65" shape-rendering="crispEdges"/><rect fill="#121212" x="0" y="294.3" width="195.2" height="24.65" shape-rendering="crispEdges"/><rect fill="#121212" x="195.2" y="294.3" width="12.2" height="24.65" shape-rendering="crispEdges"/><rect fill="#121212" x="207.4" y="294.3" width="268.4" height="24.65" shape-rendering="crispEdges"/><rect fill="#121212" x="475.8" y="294.3" width="12.2" height="24.65" shape-rendering="crispEdges"/><rect fill="#121212" x="488" y="294.3" width="280.6" height="24.65" shape-rendering="crispEdges"/><rect fill="#121212" x="768.6" y="294.3" width="12.2" height="24.65" shape-rendering="crispEdges"/><rect fill="#121212" x="780.8" y="294.3" width="268.4" height="24.65" shape-rendering="crispEdges"/><rect fill="#121212" x="1049.2" y="294.3" width="12.2" height="24.65" shape-rendering="crispEdges"/><rect fill="#121212" x="1061.4" y="294.3" width="280.6" height="24.65" shape-rendering="crispEdges"/><rect fill="#121212" x="1342" y="294.3" width="12.2" height="24.65" shape-rendering="crispEdges"/><rect fill="#003054" x="1354.2" y="294.3" width="24.4" height="24.65" shape-rendering="crispEdges"/><rect fill="#121212" x="0" y="318.7" width="24.4" height="24.65" shape-rendering="crispEdges"/><rect fill="#121212" x="24.4" y="318.7" width="170.8" height="24.65" shape-rendering="crispEdges"/><rect fill="#121212" x="195.2" y="318.7" width="12.2" height="24.65" shape-rendering="crispEdges"/><rect fill="#121212" x="207.4" y="318.7" width="268.4" height="24.65" shape-rendering="crispEdges"/><rect fill="#121212" x="475.8" y="318.7" width="12.2" height="24.65" shape-rendering="crispEdges"/><rect fill="#121212" x="488" y="318.7" width="280.6" height="24.65" shape-rendering="crispEdges"/><rect fill="#121212" x="768.6" y="318.7" width="12.2" height="24.65" shape-rendering="crispEdges"/><rect fill="#121212" x="780.8" y="318.7" width="268.4" height="24.65" shape-rendering="crispEdges"/><rect fill="#121212" x="1049.2" y="318.7" width="12.2" height="24.65" shape-rendering="crispEdges"/><rect fill="#121212" x="1061.4" y="318.7" width="280.6" height="24.65" shape-rendering="crispEdges"/><rect fill="#121212" x="1342" y="318.7" width="12.2" height="24.65" shape-rendering="crispEdges"/><rect fill="#003054" x="1354.2" y="318.7" width="24.4" height="24.65" shape-rendering="crispEdges"/><rect fill="#121212" x="0" y="343.1" width="207.4" height="24.65" shape-rendering="crispEdges"/><rect fill="#121212" x="207.4" y="343.1" width="48.8" height="24.65" shape-rendering="crispEdges"/><rect fill="#121212" x="256.2" y="343.1" width="219.6" height="24.65" shape-rendering="crispEdges"/><rect fill="#121212" x="475.8" y="343.1" width="12.2" height="24.65" shape-rendering="crispEdges"/><rect fill="#121212" x="488" y="343.1" width="73.2" height="24.65" shape-rendering="crispEdges"/><rect fill="#121212" x="561.2" y="343.1" width="207.4" height="24.65" shape-rendering="crispEdges"/><rect fill="#121212" x="768.6" y="343.1" width="12.2" height="24.65" shape-rendering="crispEdges"/><rect fill="#121212" x="780.8" y="343.1" width="122" height="24.65" shape-rendering="crispEdges"/><rect fill="#121212" x="902.8" y="343.1" width="146.4" height="24.65" shape-rendering="crispEdges"/><rect fill="#121212" x="1049.2" y="343.1" width="12.2" height="24.65" shape-rendering="crispEdges"/><rect fill="#121212" x="1061.4" y="343.1" width="48.8" height="24.65" shape-rendering="crispEdges"/><rect fill="#121212" x="1110.2" y="343.1" width="231.8" height="24.65" shape-rendering="crispEdges"/><rect fill="#121212" x="1342" y="343.1" width="12.2" height="24.65" shape-rendering="crispEdges"/><rect fill="#003054" x="1354.2" y="343.1" width="24.4" height="24.65" shape-rendering="crispEdges"/><rect fill="#121212" x="0" y="367.5" width="207.4" height="24.65" shape-rendering="crispEdges"/><rect fill="#121212" x="207.4" y="367.5" width="280.6" height="24.65" shape-rendering="crispEdges"/><rect fill="#121212" x="488" y="367.5" width="292.8" height="24.65" shape-rendering="crispEdges"/><rect fill="#121212" x="780.8" y="367.5" width="280.6" height="24.65" shape-rendering="crispEdges"/><rect fill="#121212" x="1061.4" y="367.5" width="292.8" height="24.65" shape-rendering="crispEdges"/><rect fill="#003054" x="1354.2" y="367.5" width="24.4" height="24.65" shape-rendering="crispEdges"/><rect fill="#121212" x="0" y="391.9" width="48.8" height="24.65" shape-rendering="crispEdges"/><rect fill="#121212" x="48.8" y="391.9" width="146.4" height="24.65" shape-rendering="crispEdges"/><rect fill="#121212" x="195.2" y="391.9" width="12.2" height="24.65" shape-rendering="crispEdges"/><rect fill="#121212" x="207.4" y="391.9" width="561.2" height="24.65" shape-rendering="crispEdges"/><rect fill="#121212" x="768.6" y="391.9" width="12.2" height="24.65" shape-rendering="crispEdges"/><rect fill="#121212" x="780.8" y="391.9" width="573.4" height="24.65" shape-rendering="crispEdges"/><rect fill="#003054" x="1354.2" y="391.9" width="24.4" height="24.65" shape-rendering="crispEdges"/><rect fill="#121212" x="0" y="416.3" width="207.4" height="24.65" shape-rendering="crispEdges"/><rect fill="#121212" x="207.4" y="416.3" width="573.4" height="24.65" shape-rendering="crispEdges"/><rect fill="#121212" x="780.8" y="416.3" width="573.4" height="24.65" shape-rendering="crispEdges"/><rect fill="#003054" x="1354.2" y="416.3" width="24.4" height="24.65" shape-rendering="crispEdges"/><rect fill="#121212" x="0" y="440.7" width="195.2" height="24.65" shape-rendering="crispEdges"/><rect fill="#121212" x="195.2" y="440.7" width="12.2" height="24.65" shape-rendering="crispEdges"/><rect fill="#121212" x="207.4" y="440.7" width="915" height="24.65" shape-rendering="crispEdges"/><rect fill="#121212" x="1122.4" y="440.7" width="12.2" height="24.65" shape-rendering="crispEdges"/><rect fill="#121212" x="1134.6" y="440.7" width="219.6" height="24.65" shape-rendering="crispEdges"/><rect fill="#003054" x="1354.2" y="440.7" width="24.4" height="24.65" shape-rendering="crispEdges"/><rect fill="#121212" x="0" y="465.1" width="195.2" height="24.65" shape-rendering="crispEdges"/><rect fill="#121212" x="195.2" y="465.1" width="12.2" height="24.65" shape-rendering="crispEdges"/><rect fill="#121212" x="207.4" y="465.1" width="927.2" height="24.65" shape-rendering="crispEdges"/><rect fill="#121212" x="1134.6" y="465.1" width="219.6" height="24.65" shape-rendering="crispEdges"/><rect fill="#003054" x="1354.2" y="465.1" width="24.4" height="24.65" shape-rendering="crispEdges"/><rect fill="#121212" x="0" y="489.5" width="134.2" height="24.65" shape-rendering="crispEdges"/><rect fill="#121212" x="134.2" y="489.5" width="61" height="24.65" shape-rendering="crispEdges"/><rect fill="#121212" x="195.2" y="489.5" width="1159" height="24.65" shape-rendering="crispEdges"/><rect fill="#003054" x="1354.2" y="489.5" width="24.4" height="24.65" shape-rendering="crispEdges"/><rect fill="#121212" x="0" y="513.9" width="195.2" height="24.65" shape-rendering="crispEdges"/><rect fill="#121212" x="195.2" y="513.9" width="12.2" height="24.65" shape-rendering="crispEdges"/><rect fill="#121212" x="207.4" y="513.9" width="927.2" height="24.65" shape-rendering="crispEdges"/><rect fill="#121212" x="1134.6" y="513.9" width="12.2" height="24.65" shape-rendering="crispEdges"/><rect fill="#121212" x="1146.8" y="513.9" width="207.4" height="24.65" shape-rendering="crispEdges"/><rect fill="#003054" x="1354.2" y="513.9" width="24.4" height="24.65" shape-rendering="crispEdges"/><rect fill="#121212" x="0" y="538.3" width="195.2" height="24.65" shape-rendering="crispEdges"/><rect fill="#121212" x="195.2" y="538.3" width="12.2" height="24.65" shape-rendering="crispEdges"/><rect fill="#121212" x="207.4" y="538.3" width="939.4" height="24.65" shape-rendering="crispEdges"/><rect fill="#121212" x="1146.8" y="538.3" width="207.4" height="24.65" shape-rendering="crispEdges"/><rect fill="#003054" x="1354.2" y="538.3" width="24.4" height="24.65" shape-rendering="crispEdges"/><rect fill="#121212" x="0" y="562.7" width="146.4" height="24.65" shape-rendering="crispEdges"/><rect fill="#121212" x="146.4" y="562.7" width="48.8" height="24.65" shape-rendering="crispEdges"/><rect fill="#121212" x="195.2" y="562.7" width="1159" height="24.65" shape-rendering="crispEdges"/><rect fill="#003054" x="1354.2" y="562.7" width="24.4" height="24.65" shape-rendering="crispEdges"/><rect fill="#121212" x="0" y="587.1" width="195.2" height="24.65" shape-rendering="crispEdges"/><rect fill="#121212" x="195.2" y="587.1" width="12.2" height="24.65" shape-rendering="crispEdges"/><rect fill="#121212" x="207.4" y="587.1" width="890.6" height="24.65" shape-rendering="crispEdges"/><rect fill="#121212" x="1098" y="587.1" width="12.2" height="24.65" shape-rendering="crispEdges"/><rect fill="#121212" x="1110.2" y="587.1" width="244" height="24.65" shape-rendering="crispEdges"/><rect fill="#003054" x="1354.2" y="587.1" width="24.4" height="24.65" shape-rendering="crispEdges"/><rect fill="#121212" x="0" y="611.5" width="195.2" height="24.65" shape-rendering="crispEdges"/><rect fill="#121212" x="195.2" y="611.5" width="12.2" height="24.65" shape-rendering="crispEdges"/><rect fill="#121212" x="207.4" y="611.5" width="902.8" height="24.65" shape-rendering="crispEdges"/><rect fill="#121212" x="1110.2" y="611.5" width="244" height="24.65" shape-rendering="crispEdges"/><rect fill="#003054" x="1354.2" y="611.5" width="24.4" height="24.65" shape-rendering="crispEdges"/><rect fill="#121212" x="0" y="635.9" width="195.2" height="24.65" shape-rendering="crispEdges"/><rect fill="#121212" x="195.2" y="635.9" width="1159" height="24.65" shape-rendering="crispEdges"/><rect fill="#003054" x="1354.2" y="635.9" width="24.4" height="24.65" shape-rendering="crispEdges"/><rect fill="#121212" x="0" y="660.3" width="12.2" height="24.65" shape-rendering="crispEdges"/><rect fill="#121212" x="12.2" y="660.3" width="183" height="24.65" shape-rendering="crispEdges"/><rect fill="#121212" x="195.2" y="660.3" width="1159" height="24.65" shape-rendering="crispEdges"/><rect fill="#003054" x="1354.2" y="660.3" width="24.4" height="24.65" shape-rendering="crispEdges"/><rect fill="#121212" x="0" y="684.7" width="195.2" height="24.65" shape-rendering="crispEdges"/><rect fill="#121212" x="195.2" y="684.7" width="12.2" height="24.65" shape-rendering="crispEdges"/><rect fill="#121212" x="207.4" y="684.7" width="317.2" height="24.65" shape-rendering="crispEdges"/><rect fill="#121212" x="524.6" y="684.7" width="829.6" height="24.65" shape-rendering="crispEdges"/><rect fill="#003054" x="1354.2" y="684.7" width="24.4" height="24.65" shape-rendering="crispEdges"/><rect fill="#121212" x="0" y="709.1" width="195.2" height="24.65" shape-rendering="crispEdges"/><rect fill="#121212" x="195.2" y="709.1" width="1159" height="24.65" shape-rendering="crispEdges"/><rect fill="#003054" x="1354.2" y="709.1" width="24.4" height="24.65" shape-rendering="crispEdges"/><rect fill="#121212" x="0" y="733.5" width="109.8" height="24.65" shape-rendering="crispEdges"/><rect fill="#121212" x="109.8" y="733.5" width="85.4" height="24.65" shape-rendering="crispEdges"/><rect fill="#121212" x="195.2" y="733.5" width="1159" height="24.65" shape-rendering="crispEdges"/><rect fill="#003054" x="1354.2" y="733.5" width="24.4" height="24.65" shape-rendering="crispEdges"/><rect fill="#121212" x="0" y="757.9" width="195.2" height="24.65" shape-rendering="crispEdges"/><rect fill="#121212" x="195.2" y="757.9" width="12.2" height="24.65" shape-rendering="crispEdges"/><rect fill="#121212" x="207.4" y="757.9" width="451.4" height="24.65" shape-rendering="crispEdges"/><rect fill="#121212" x="658.8" y="757.9" width="12.2" height="24.65" shape-rendering="crispEdges"/><rect fill="#121212" x="671" y="757.9" width="683.2" height="24.65" shape-rendering="crispEdges"/><rect fill="#003054" x="1354.2" y="757.9" width="24.4" height="24.65" shape-rendering="crispEdges"/><rect fill="#121212" x="0" y="782.3" width="195.2" height="24.65" shape-rendering="crispEdges"/><rect fill="#121212" x="195.2" y="782.3" width="12.2" height="24.65" shape-rendering="crispEdges"/><rect fill="#121212" x="207.4" y="782.3" width="463.6" height="24.65" shape-rendering="crispEdges"/><rect fill="#121212" x="671" y="782.3" width="683.2" height="24.65" shape-rendering="crispEdges"/><rect fill="#003054" x="1354.2" y="782.3" width="24.4" height="24.65" shape-rendering="crispEdges"/><rect fill="#242f38" x="0" y="806.7" width="36.6" height="24.65" shape-rendering="crispEdges"/><rect fill="#242f38" x="36.6" y="806.7" width="231.8" height="24.65" shape-rendering="crispEdges"/><rect fill="#242f38" x="268.4" y="806.7" width="48.8" height="24.65" shape-rendering="crispEdges"/><rect fill="#242f38" x="317.2" y="806.7" width="122" height="24.65" shape-rendering="crispEdges"/><rect fill="#242f38" x="439.2" y="806.7" width="61" height="24.65" shape-rendering="crispEdges"/><rect fill="#242f38" x="500.2" y="806.7" width="97.6" height="24.65" shape-rendering="crispEdges"/><rect fill="#242f38" x="597.8" y="806.7" width="36.6" height="24.65" shape-rendering="crispEdges"/><rect fill="#242f38" x="634.4" y="806.7" width="207.4" height="24.65" shape-rendering="crispEdges"/><rect fill="#242f38" x="841.8" y="806.7" width="36.6" height="24.65" shape-rendering="crispEdges"/><rect fill="#242f38" x="878.4" y="806.7" width="61" height="24.65" shape-rendering="crispEdges"/><rect fill="#242f38" x="939.4" y="806.7" width="292.8" height="24.65" shape-rendering="crispEdges"/><rect fill="#242f38" x="1232.2" y="806.7" width="12.2" height="24.65" shape-rendering="crispEdges"/><rect fill="#242f38" x="1244.4" y="806.7" width="24.4" height="24.65" shape-rendering="crispEdges"/><rect fill="#242f38" x="1268.8" y="806.7" width="97.6" height="24.65" shape-rendering="crispEdges"/><rect fill="#242f38" x="1366.4" y="806.7" width="12.2" height="24.65" shape-rendering="crispEdges"/>
    <g class="terminal-3726851522-matrix">
    <text class="terminal-3726851522-r2" x="12.2" y="20" textLength="24.4" clip-path="url(#terminal-3726851522-line-0)">👁️</text><text class="terminal-3726851522-r2" x="219.6" y="20" textLength="122" clip-path="url(#terminal-3726851522-line-0)">Iolanta&#160;—&#160;</text><text class="terminal-3726851522-r3" x="341.6" y="20" textLength="793" clip-path="url(#terminal-3726851522-line-0)">https://w3id.org/np/RAAnO3U0Lc56gbYHz5MZD440460c88Qfiz8cTfP58nvvs</text><text class="terminal-3726851522-r1" x="1378.6" y="20" textLength="12.2" clip-path="url(#terminal-3726851522-line-0)">
</text><text class="terminal-3726851522-r1" x="1378.6" y="44.4" textLength="12.2" clip-path="url(#terminal-3726851522-line-1)">
</text><text class="terminal-3726851522-r5" x="12.2" y="68.8" textLength="793" clip-path="url(#terminal-3726851522-line-2)">https://w3id.org/np/RAAnO3U0Lc56gbYHz5MZD440460c88Qfiz8cTfP58nvvs</text><text class="terminal-3726851522-r1" x="1378.6" y="68.8" textLength="12.2" clip-path="url(#terminal-3726851522-line-2)">
</text><text class="terminal-3726851522-r1" x="1378.6" y="93.2" textLength="12.2" clip-path="url(#terminal-3726851522-line-3)">
</text><text class="terminal-3726851522-r1" x="1378.6" y="117.6" textLength="12.2" clip-path="url(#terminal-3726851522-line-4)">
</text><text class="terminal-3726851522-r2" x="0" y="142" textLength="195.2" clip-path="url(#terminal-3726851522-line-5)">https://iolanta.</text><text class="terminal-3726851522-r2" x="207.4" y="142" textLength="1037" clip-path="url(#terminal-3726851522-line-5)">https://registry.knowledgepixels.com/np/RAAnO3U0Lc56gbYHz5MZD440460c88Qfiz8cTfP58nvvs</text><text class="terminal-3726851522-r1" x="1378.6" y="142" textLength="12.2" clip-path="url(#terminal-3726851522-line-5)">
</text><text class="terminal-3726851522-r2" x="0" y="166.4" textLength="195.2" clip-path="url(#terminal-3726851522-line-6)">tech/redirects-t</text><text class="terminal-3726851522-r1" x="1378.6" y="166.4" textLength="12.2" clip-path="url(#terminal-3726851522-line-6)">
</text><text class="terminal-3726851522-r2" x="0" y="190.8" textLength="12.2" clip-path="url(#terminal-3726851522-line-7)">o</text><text class="terminal-3726851522-r1" x="1378.6" y="190.8" textLength="12.2" clip-path="url(#terminal-3726851522-line-7)">
</text><text class="terminal-3726851522-r2" x="0" y="215.2" textLength="195.2" clip-path="url(#terminal-3726851522-line-8)">https://iolanta.</text><text class="terminal-3726851522-r6" x="207.4" y="215.2" textLength="317.2" clip-path="url(#terminal-3726851522-line-8)">2025-12-10T22:35:29.964743</text><text class="terminal-3726851522-r1" x="1378.6" y="215.2" textLength="12.2" clip-path="url(#terminal-3726851522-line-8)">
</text><text class="terminal-3726851522-r2" x="0" y="239.6" textLength="195.2" clip-path="url(#terminal-3726851522-line-9)">tech/last-loaded</text><text class="terminal-3726851522-r1" x="1378.6" y="239.6" textLength="12.2" clip-path="url(#terminal-3726851522-line-9)">
</text><text class="terminal-3726851522-r2" x="0" y="264" textLength="61" clip-path="url(#terminal-3726851522-line-10)">-time</text><text class="terminal-3726851522-r1" x="1378.6" y="264" textLength="12.2" clip-path="url(#terminal-3726851522-line-10)">
</text><text class="terminal-3726851522-r2" x="0" y="288.4" textLength="195.2" clip-path="url(#terminal-3726851522-line-11)">https://iolanta.</text><text class="terminal-3726851522-r2" x="207.4" y="288.4" textLength="268.4" clip-path="url(#terminal-3726851522-line-11)">https://w3id.org/np/RA</text><text class="terminal-3726851522-r2" x="488" y="288.4" textLength="280.6" clip-path="url(#terminal-3726851522-line-11)">https://w3id.org/np/RAA</text><text class="terminal-3726851522-r2" x="780.8" y="288.4" textLength="268.4" clip-path="url(#terminal-3726851522-line-11)">https://w3id.org/np/RA</text><text class="terminal-3726851522-r2" x="1061.4" y="288.4" textLength="280.6" clip-path="url(#terminal-3726851522-line-11)">https://w3id.org/np/RAA</text><text class="terminal-3726851522-r1" x="1378.6" y="288.4" textLength="12.2" clip-path="url(#terminal-3726851522-line-11)">
</text><text class="terminal-3726851522-r2" x="0" y="312.8" textLength="195.2" clip-path="url(#terminal-3726851522-line-12)">tech/has-sub-gra</text><text class="terminal-3726851522-r2" x="207.4" y="312.8" textLength="268.4" clip-path="url(#terminal-3726851522-line-12)">AnO3U0Lc56gbYHz5MZD440</text><text class="terminal-3726851522-r2" x="488" y="312.8" textLength="280.6" clip-path="url(#terminal-3726851522-line-12)">nO3U0Lc56gbYHz5MZD44046</text><text class="terminal-3726851522-r2" x="780.8" y="312.8" textLength="268.4" clip-path="url(#terminal-3726851522-line-12)">AnO3U0Lc56gbYHz5MZD440</text><text class="terminal-3726851522-r2" x="1061.4" y="312.8" textLength="280.6" clip-path="url(#terminal-3726851522-line-12)">nO3U0Lc56gbYHz5MZD44046</text><text class="terminal-3726851522-r1" x="1378.6" y="312.8" textLength="12.2" clip-path="url(#terminal-3726851522-line-12)">
</text><text class="terminal-3726851522-r2" x="0" y="337.2" textLength="24.4" clip-path="url(#terminal-3726851522-line-13)">ph</text><text class="terminal-3726851522-r2" x="207.4" y="337.2" textLength="268.4" clip-path="url(#terminal-3726851522-line-13)">460c88Qfiz8cTfP58nvvs/</text><text class="terminal-3726851522-r2" x="488" y="337.2" textLength="280.6" clip-path="url(#terminal-3726851522-line-13)">0c88Qfiz8cTfP58nvvs/ass</text><text class="terminal-3726851522-r2" x="780.8" y="337.2" textLength="268.4" clip-path="url(#terminal-3726851522-line-13)">460c88Qfiz8cTfP58nvvs/</text><text class="terminal-3726851522-r2" x="1061.4" y="337.2" textLength="280.6" clip-path="url(#terminal-3726851522-line-13)">0c88Qfiz8cTfP58nvvs/pub</text><text class="terminal-3726851522-r1" x="1378.6" y="337.2" textLength="12.2" clip-path="url(#terminal-3726851522-line-13)">
</text><text class="terminal-3726851522-r2" x="207.4" y="361.6" textLength="48.8" clip-path="url(#terminal-3726851522-line-14)">Head</text><text class="terminal-3726851522-r2" x="488" y="361.6" textLength="73.2" clip-path="url(#terminal-3726851522-line-14)">ertion</text><text class="terminal-3726851522-r2" x="780.8" y="361.6" textLength="122" clip-path="url(#terminal-3726851522-line-14)">provenance</text><text class="terminal-3726851522-r2" x="1061.4" y="361.6" textLength="48.8" clip-path="url(#terminal-3726851522-line-14)">info</text><text class="terminal-3726851522-r1" x="1378.6" y="361.6" textLength="12.2" clip-path="url(#terminal-3726851522-line-14)">
</text><text class="terminal-3726851522-r1" x="1378.6" y="386" textLength="12.2" clip-path="url(#terminal-3726851522-line-15)">
</text><text class="terminal-3726851522-r2" x="0" y="410.4" textLength="48.8" clip-path="url(#terminal-3726851522-line-16)">type</text><text class="terminal-3726851522-r2" x="207.4" y="410.4" textLength="561.2" clip-path="url(#terminal-3726851522-line-16)">http://www.nanopub.org/nschema#Nanopublication</text><text class="terminal-3726851522-r1" x="1378.6" y="410.4" textLength="12.2" clip-path="url(#terminal-3726851522-line-16)">
</text><text class="terminal-3726851522-r1" x="1378.6" y="434.8" textLength="12.2" clip-path="url(#terminal-3726851522-line-17)">
</text><text class="terminal-3726851522-r2" x="0" y="459.2" textLength="195.2" clip-path="url(#terminal-3726851522-line-18)">http://www.nanop</text><text class="terminal-3726851522-r2" x="207.4" y="459.2" textLength="915" clip-path="url(#terminal-3726851522-line-18)">https://w3id.org/np/RAAnO3U0Lc56gbYHz5MZD440460c88Qfiz8cTfP58nvvs/assertion</text><text class="terminal-3726851522-r1" x="1378.6" y="459.2" textLength="12.2" clip-path="url(#terminal-3726851522-line-18)">
</text><text class="terminal-3726851522-r2" x="0" y="483.6" textLength="195.2" clip-path="url(#terminal-3726851522-line-19)">ub.org/nschema#h</text><text class="terminal-3726851522-r1" x="1378.6" y="483.6" textLength="12.2" clip-path="url(#terminal-3726851522-line-19)">
</text><text class="terminal-3726851522-r2" x="0" y="508" textLength="134.2" clip-path="url(#terminal-3726851522-line-20)">asAssertion</text><text class="terminal-3726851522-r1" x="1378.6" y="508" textLength="12.2" clip-path="url(#terminal-3726851522-line-20)">
</text><text class="terminal-3726851522-r2" x="0" y="532.4" textLength="195.2" clip-path="url(#terminal-3726851522-line-21)">http://www.nanop</text><text class="terminal-3726851522-r2" x="207.4" y="532.4" textLength="927.2" clip-path="url(#terminal-3726851522-line-21)">https://w3id.org/np/RAAnO3U0Lc56gbYHz5MZD440460c88Qfiz8cTfP58nvvs/provenance</text><text class="terminal-3726851522-r1" x="1378.6" y="532.4" textLength="12.2" clip-path="url(#terminal-3726851522-line-21)">
</text><text class="terminal-3726851522-r2" x="0" y="556.8" textLength="195.2" clip-path="url(#terminal-3726851522-line-22)">ub.org/nschema#h</text><text class="terminal-3726851522-r1" x="1378.6" y="556.8" textLength="12.2" clip-path="url(#terminal-3726851522-line-22)">
</text><text class="terminal-3726851522-r2" x="0" y="581.2" textLength="146.4" clip-path="url(#terminal-3726851522-line-23)">asProvenance</text><text class="terminal-3726851522-r1" x="1378.6" y="581.2" textLength="12.2" clip-path="url(#terminal-3726851522-line-23)">
</text><text class="terminal-3726851522-r2" x="0" y="605.6" textLength="195.2" clip-path="url(#terminal-3726851522-line-24)">http://www.nanop</text><text class="terminal-3726851522-r2" x="207.4" y="605.6" textLength="890.6" clip-path="url(#terminal-3726851522-line-24)">https://w3id.org/np/RAAnO3U0Lc56gbYHz5MZD440460c88Qfiz8cTfP58nvvs/pubinfo</text><text class="terminal-3726851522-r1" x="1378.6" y="605.6" textLength="12.2" clip-path="url(#terminal-3726851522-line-24)">
</text><text class="terminal-3726851522-r2" x="0" y="630" textLength="195.2" clip-path="url(#terminal-3726851522-line-25)">ub.org/nschema#h</text><text class="terminal-3726851522-r1" x="1378.6" y="630" textLength="12.2" clip-path="url(#terminal-3726851522-line-25)">
</text><text class="terminal-3726851522-r2" x="0" y="654.4" textLength="195.2" clip-path="url(#terminal-3726851522-line-26)">asPublicationInf</text><text class="terminal-3726851522-r1" x="1378.6" y="654.4" textLength="12.2" clip-path="url(#terminal-3726851522-line-26)">
</text><text class="terminal-3726851522-r2" x="0" y="678.8" textLength="12.2" clip-path="url(#terminal-3726851522-line-27)">o</text><text class="terminal-3726851522-r1" x="1378.6" y="678.8" textLength="12.2" clip-path="url(#terminal-3726851522-line-27)">
</text><text class="terminal-3726851522-r2" x="0" y="703.2" textLength="195.2" clip-path="url(#terminal-3726851522-line-28)">http://www.w3.or</text><text class="terminal-3726851522-r6" x="207.4" y="703.2" textLength="317.2" clip-path="url(#terminal-3726851522-line-28)">2025-07-20T00:17:44.147520</text><text class="terminal-3726851522-r1" x="1378.6" y="703.2" textLength="12.2" clip-path="url(#terminal-3726851522-line-28)">
</text><text class="terminal-3726851522-r2" x="0" y="727.6" textLength="195.2" clip-path="url(#terminal-3726851522-line-29)">g/ns/prov#genera</text><text class="terminal-3726851522-r1" x="1378.6" y="727.6" textLength="12.2" clip-path="url(#terminal-3726851522-line-29)">
</text><text class="terminal-3726851522-r2" x="0" y="752" textLength="109.8" clip-path="url(#terminal-3726851522-line-30)">tedAtTime</text><text class="terminal-3726851522-r1" x="1378.6" y="752" textLength="12.2" clip-path="url(#terminal-3726851522-line-30)">
</text><text class="terminal-3726851522-r2" x="0" y="776.4" textLength="195.2" clip-path="url(#terminal-3726851522-line-31)">http://www.w3.or</text><text class="terminal-3726851522-r2" x="207.4" y="776.4" textLength="451.4" clip-path="url(#terminal-3726851522-line-31)">https://orcid.org/0009-0001-8740-4213</text><text class="terminal-3726851522-r1" x="1378.6" y="776.4" textLength="12.2" clip-path="url(#terminal-3726851522-line-31)">
</text><text class="terminal-3726851522-r2" x="0" y="800.8" textLength="195.2" clip-path="url(#terminal-3726851522-line-32)">g/ns/prov#wasAtt</text><text class="terminal-3726851522-r7" x="1354.2" y="800.8" textLength="24.4" clip-path="url(#terminal-3726851522-line-32)">▇▇</text><text class="terminal-3726851522-r1" x="1378.6" y="800.8" textLength="12.2" clip-path="url(#terminal-3726851522-line-32)">
</text><text class="terminal-3726851522-r8" x="0" y="825.2" textLength="36.6" clip-path="url(#terminal-3726851522-line-33)">&#160;1&#160;</text><text class="terminal-3726851522-r2" x="36.6" y="825.2" textLength="231.8" clip-path="url(#terminal-3726851522-line-33)">Inverse&#160;Properties&#160;</text><text class="terminal-3726851522-r8" x="268.4" y="825.2" textLength="48.8" clip-path="url(#terminal-3726851522-line-33)">&#160;f5&#160;</text><text class="terminal-3726851522-r2" x="317.2" y="825.2" textLength="109.8" clip-path="url(#terminal-3726851522-line-33)">🔄&#160;Reload&#160;</text><text class="terminal-3726851522-r8" x="439.2" y="825.2" textLength="61" clip-path="url(#terminal-3726851522-line-33)">&#160;f12&#160;</text><text class="terminal-3726851522-r2" x="500.2" y="825.2" textLength="97.6" clip-path="url(#terminal-3726851522-line-33)">Console&#160;</text><text class="terminal-3726851522-r8" x="597.8" y="825.2" textLength="36.6" clip-path="url(#terminal-3726851522-line-33)">&#160;t&#160;</text><text class="terminal-3726851522-r2" x="634.4" y="825.2" textLength="207.4" clip-path="url(#terminal-3726851522-line-33)">Toggle&#160;Dark&#160;Mode&#160;</text><text class="terminal-3726851522-r8" x="841.8" y="825.2" textLength="36.6" clip-path="url(#terminal-3726851522-line-33)">&#160;q&#160;</text><text class="terminal-3726851522-r2" x="878.4" y="825.2" textLength="61" clip-path="url(#terminal-3726851522-line-33)">Quit&#160;</text><text class="terminal-3726851522-r9" x="1232.2" y="825.2" textLength="12.2" clip-path="url(#terminal-3726851522-line-33)">▏</text><text class="terminal-3726851522-r8" x="1244.4" y="825.2" textLength="24.4" clip-path="url(#terminal-3726851522-line-33)">^p</text><text class="terminal-3726851522-r2" x="1268.8" y="825.2" textLength="97.6" clip-path="url(#terminal-3726851522-line-33)">&#160;palette</text>
    </g>
    </g>
</svg>
