<svg class="rich-terminal" viewBox="0 0 994 635.5999999999999" xmlns="http://www.w3.org/2000/svg">
    <!-- Generated with Rich https://www.textualize.io -->
    <style>

    @font-face {
        font-family: "Fira Code";
        src: local("FiraCode-Regular"),
                url("https://cdnjs.cloudflare.com/ajax/libs/firacode/6.2.0/woff2/FiraCode-Regular.woff2") format("woff2"),
                url("https://cdnjs.cloudflare.com/ajax/libs/firacode/6.2.0/woff/FiraCode-Regular.woff") format("woff");
        font-style: normal;
        font-weight: 400;
    }
    @font-face {
        font-family: "Fira Code";
        src: local("FiraCode-Bold"),
                url("https://cdnjs.cloudflare.com/ajax/libs/firacode/6.2.0/woff2/FiraCode-Bold.woff2") format("woff2"),
                url("https://cdnjs.cloudflare.com/ajax/libs/firacode/6.2.0/woff/FiraCode-Bold.woff") format("woff");
        font-style: bold;
        font-weight: 700;
    }

    .terminal-1314119957-matrix {
        font-family: Fira Code, monospace;
        font-size: 20px;
        line-height: 24.4px;
        font-variant-east-asian: full-width;
    }

    .terminal-1314119957-title {
        font-size: 18px;
        font-weight: bold;
        font-family: arial;
    }

    .terminal-1314119957-r1 { fill: #c5c8c6 }
.terminal-1314119957-r2 { fill: #e3e3e3 }
.terminal-1314119957-r3 { fill: #989898 }
.terminal-1314119957-r4 { fill: #1e1e1e }
.terminal-1314119957-r5 { fill: #ffffff;font-weight: bold }
.terminal-1314119957-r6 { fill: #ffffff;font-weight: bold;font-style: italic; }
.terminal-1314119957-r7 { fill: #14191f }
.terminal-1314119957-r8 { fill: #e1e1e1 }
.terminal-1314119957-r9 { fill: #696969 }
.terminal-1314119957-r10 { fill: #fea62b;font-weight: bold }
.terminal-1314119957-r11 { fill: #a7a9ab }
.terminal-1314119957-r12 { fill: #4c5055 }
    </style>

    <defs>
    <clipPath id="terminal-1314119957-clip-terminal">
      <rect x="0" y="0" width="975.0" height="584.5999999999999" />
    </clipPath>
    <clipPath id="terminal-1314119957-line-0">
    <rect x="0" y="1.5" width="976" height="24.65"/>
            </clipPath>
<clipPath id="terminal-1314119957-line-1">
    <rect x="0" y="25.9" width="976" height="24.65"/>
            </clipPath>
<clipPath id="terminal-1314119957-line-2">
    <rect x="0" y="50.3" width="976" height="24.65"/>
            </clipPath>
<clipPath id="terminal-1314119957-line-3">
    <rect x="0" y="74.7" width="976" height="24.65"/>
            </clipPath>
<clipPath id="terminal-1314119957-line-4">
    <rect x="0" y="99.1" width="976" height="24.65"/>
            </clipPath>
<clipPath id="terminal-1314119957-line-5">
    <rect x="0" y="123.5" width="976" height="24.65"/>
            </clipPath>
<clipPath id="terminal-1314119957-line-6">
    <rect x="0" y="147.9" width="976" height="24.65"/>
            </clipPath>
<clipPath id="terminal-1314119957-line-7">
    <rect x="0" y="172.3" width="976" height="24.65"/>
            </clipPath>
<clipPath id="terminal-1314119957-line-8">
    <rect x="0" y="196.7" width="976" height="24.65"/>
            </clipPath>
<clipPath id="terminal-1314119957-line-9">
    <rect x="0" y="221.1" width="976" height="24.65"/>
            </clipPath>
<clipPath id="terminal-1314119957-line-10">
    <rect x="0" y="245.5" width="976" height="24.65"/>
            </clipPath>
<clipPath id="terminal-1314119957-line-11">
    <rect x="0" y="269.9" width="976" height="24.65"/>
            </clipPath>
<clipPath id="terminal-1314119957-line-12">
    <rect x="0" y="294.3" width="976" height="24.65"/>
            </clipPath>
<clipPath id="terminal-1314119957-line-13">
    <rect x="0" y="318.7" width="976" height="24.65"/>
            </clipPath>
<clipPath id="terminal-1314119957-line-14">
    <rect x="0" y="343.1" width="976" height="24.65"/>
            </clipPath>
<clipPath id="terminal-1314119957-line-15">
    <rect x="0" y="367.5" width="976" height="24.65"/>
            </clipPath>
<clipPath id="terminal-1314119957-line-16">
    <rect x="0" y="391.9" width="976" height="24.65"/>
            </clipPath>
<clipPath id="terminal-1314119957-line-17">
    <rect x="0" y="416.3" width="976" height="24.65"/>
            </clipPath>
<clipPath id="terminal-1314119957-line-18">
    <rect x="0" y="440.7" width="976" height="24.65"/>
            </clipPath>
<clipPath id="terminal-1314119957-line-19">
    <rect x="0" y="465.1" width="976" height="24.65"/>
            </clipPath>
<clipPath id="terminal-1314119957-line-20">
    <rect x="0" y="489.5" width="976" height="24.65"/>
            </clipPath>
<clipPath id="terminal-1314119957-line-21">
    <rect x="0" y="513.9" width="976" height="24.65"/>
            </clipPath>
<clipPath id="terminal-1314119957-line-22">
    <rect x="0" y="538.3" width="976" height="24.65"/>
            </clipPath>
    </defs>

    <rect fill="#292929" stroke="rgba(255,255,255,0.35)" stroke-width="1" x="1" y="1" width="992" height="633.6" rx="8"/><text class="terminal-1314119957-title" fill="#c5c8c6" text-anchor="middle" x="496" y="27">Iolanta</text>
            <g transform="translate(26,22)">
            <circle cx="0" cy="0" r="7" fill="#ff5f57"/>
            <circle cx="22" cy="0" r="7" fill="#febc2e"/>
            <circle cx="44" cy="0" r="7" fill="#28c840"/>
            </g>
        
    <g transform="translate(9, 41)" clip-path="url(#terminal-1314119957-clip-terminal)">
    <rect fill="#282828" x="0" y="1.5" width="12.2" height="24.65" shape-rendering="crispEdges"/><rect fill="#282828" x="12.2" y="1.5" width="12.2" height="24.65" shape-rendering="crispEdges"/><rect fill="#282828" x="24.4" y="1.5" width="61" height="24.65" shape-rendering="crispEdges"/><rect fill="#282828" x="85.4" y="1.5" width="12.2" height="24.65" shape-rendering="crispEdges"/><rect fill="#282828" x="97.6" y="1.5" width="85.4" height="24.65" shape-rendering="crispEdges"/><rect fill="#282828" x="183" y="1.5" width="122" height="24.65" shape-rendering="crispEdges"/><rect fill="#282828" x="305" y="1.5" width="463.6" height="24.65" shape-rendering="crispEdges"/><rect fill="#282828" x="768.6" y="1.5" width="85.4" height="24.65" shape-rendering="crispEdges"/><rect fill="#282828" x="854" y="1.5" width="12.2" height="24.65" shape-rendering="crispEdges"/><rect fill="#282828" x="866.2" y="1.5" width="0" height="24.65" shape-rendering="crispEdges"/><rect fill="#282828" x="866.2" y="1.5" width="97.6" height="24.65" shape-rendering="crispEdges"/><rect fill="#282828" x="963.8" y="1.5" width="12.2" height="24.65" shape-rendering="crispEdges"/><rect fill="#483d8b" x="0" y="25.9" width="951.6" height="24.65" shape-rendering="crispEdges"/><rect fill="#23568b" x="951.6" y="25.9" width="24.4" height="24.65" shape-rendering="crispEdges"/><rect fill="#483d8b" x="0" y="50.3" width="12.2" height="24.65" shape-rendering="crispEdges"/><rect fill="#483d8b" x="12.2" y="50.3" width="134.2" height="24.65" shape-rendering="crispEdges"/><rect fill="#483d8b" x="146.4" y="50.3" width="244" height="24.65" shape-rendering="crispEdges"/><rect fill="#483d8b" x="390.4" y="50.3" width="549" height="24.65" shape-rendering="crispEdges"/><rect fill="#483d8b" x="939.4" y="50.3" width="12.2" height="24.65" shape-rendering="crispEdges"/><rect fill="#23568b" x="951.6" y="50.3" width="24.4" height="24.65" shape-rendering="crispEdges"/><rect fill="#483d8b" x="0" y="74.7" width="951.6" height="24.65" shape-rendering="crispEdges"/><rect fill="#14191f" x="951.6" y="74.7" width="24.4" height="24.65" shape-rendering="crispEdges"/><rect fill="#1e1e1e" x="0" y="99.1" width="134.2" height="24.65" shape-rendering="crispEdges"/><rect fill="#1e1e1e" x="134.2" y="99.1" width="12.2" height="24.65" shape-rendering="crispEdges"/><rect fill="#1e1e1e" x="146.4" y="99.1" width="122" height="24.65" shape-rendering="crispEdges"/><rect fill="#1e1e1e" x="268.4" y="99.1" width="12.2" height="24.65" shape-rendering="crispEdges"/><rect fill="#1e1e1e" x="280.6" y="99.1" width="671" height="24.65" shape-rendering="crispEdges"/><rect fill="#14191f" x="951.6" y="99.1" width="24.4" height="24.65" shape-rendering="crispEdges"/><rect fill="#1e1e1e" x="0" y="123.5" width="109.8" height="24.65" shape-rendering="crispEdges"/><rect fill="#1e1e1e" x="109.8" y="123.5" width="24.4" height="24.65" shape-rendering="crispEdges"/><rect fill="#1e1e1e" x="134.2" y="123.5" width="12.2" height="24.65" shape-rendering="crispEdges"/><rect fill="#1e1e1e" x="146.4" y="123.5" width="134.2" height="24.65" shape-rendering="crispEdges"/><rect fill="#1e1e1e" x="280.6" y="123.5" width="671" height="24.65" shape-rendering="crispEdges"/><rect fill="#14191f" x="951.6" y="123.5" width="24.4" height="24.65" shape-rendering="crispEdges"/><rect fill="#1e1e1e" x="0" y="147.9" width="48.8" height="24.65" shape-rendering="crispEdges"/><rect fill="#1e1e1e" x="48.8" y="147.9" width="85.4" height="24.65" shape-rendering="crispEdges"/><rect fill="#1e1e1e" x="134.2" y="147.9" width="12.2" height="24.65" shape-rendering="crispEdges"/><rect fill="#1e1e1e" x="146.4" y="147.9" width="158.6" height="24.65" shape-rendering="crispEdges"/><rect fill="#1e1e1e" x="305" y="147.9" width="12.2" height="24.65" shape-rendering="crispEdges"/><rect fill="#1e1e1e" x="317.2" y="147.9" width="231.8" height="24.65" shape-rendering="crispEdges"/><rect fill="#1e1e1e" x="549" y="147.9" width="48.8" height="24.65" shape-rendering="crispEdges"/><rect fill="#1e1e1e" x="597.8" y="147.9" width="12.2" height="24.65" shape-rendering="crispEdges"/><rect fill="#1e1e1e" x="610" y="147.9" width="341.6" height="24.65" shape-rendering="crispEdges"/><rect fill="#14191f" x="951.6" y="147.9" width="24.4" height="24.65" shape-rendering="crispEdges"/><rect fill="#1e1e1e" x="0" y="172.3" width="146.4" height="24.65" shape-rendering="crispEdges"/><rect fill="#1e1e1e" x="146.4" y="172.3" width="170.8" height="24.65" shape-rendering="crispEdges"/><rect fill="#1e1e1e" x="317.2" y="172.3" width="231.8" height="24.65" shape-rendering="crispEdges"/><rect fill="#1e1e1e" x="549" y="172.3" width="61" height="24.65" shape-rendering="crispEdges"/><rect fill="#1e1e1e" x="610" y="172.3" width="341.6" height="24.65" shape-rendering="crispEdges"/><rect fill="#14191f" x="951.6" y="172.3" width="24.4" height="24.65" shape-rendering="crispEdges"/><rect fill="#1e1e1e" x="0" y="196.7" width="109.8" height="24.65" shape-rendering="crispEdges"/><rect fill="#1e1e1e" x="109.8" y="196.7" width="24.4" height="24.65" shape-rendering="crispEdges"/><rect fill="#1e1e1e" x="134.2" y="196.7" width="12.2" height="24.65" shape-rendering="crispEdges"/><rect fill="#1e1e1e" x="146.4" y="196.7" width="158.6" height="24.65" shape-rendering="crispEdges"/><rect fill="#1e1e1e" x="305" y="196.7" width="12.2" height="24.65" shape-rendering="crispEdges"/><rect fill="#1e1e1e" x="317.2" y="196.7" width="634.4" height="24.65" shape-rendering="crispEdges"/><rect fill="#14191f" x="951.6" y="196.7" width="24.4" height="24.65" shape-rendering="crispEdges"/><rect fill="#1e1e1e" x="0" y="221.1" width="48.8" height="24.65" shape-rendering="crispEdges"/><rect fill="#1e1e1e" x="48.8" y="221.1" width="85.4" height="24.65" shape-rendering="crispEdges"/><rect fill="#1e1e1e" x="134.2" y="221.1" width="12.2" height="24.65" shape-rendering="crispEdges"/><rect fill="#1e1e1e" x="146.4" y="221.1" width="170.8" height="24.65" shape-rendering="crispEdges"/><rect fill="#1e1e1e" x="317.2" y="221.1" width="634.4" height="24.65" shape-rendering="crispEdges"/><rect fill="#14191f" x="951.6" y="221.1" width="24.4" height="24.65" shape-rendering="crispEdges"/><rect fill="#1e1e1e" x="0" y="245.5" width="36.6" height="24.65" shape-rendering="crispEdges"/><rect fill="#1e1e1e" x="36.6" y="245.5" width="97.6" height="24.65" shape-rendering="crispEdges"/><rect fill="#1e1e1e" x="134.2" y="245.5" width="12.2" height="24.65" shape-rendering="crispEdges"/><rect fill="#1e1e1e" x="146.4" y="245.5" width="36.6" height="24.65" shape-rendering="crispEdges"/><rect fill="#1e1e1e" x="183" y="245.5" width="756.4" height="24.65" shape-rendering="crispEdges"/><rect fill="#1e1e1e" x="939.4" y="245.5" width="12.2" height="24.65" shape-rendering="crispEdges"/><rect fill="#14191f" x="951.6" y="245.5" width="24.4" height="24.65" shape-rendering="crispEdges"/><rect fill="#1e1e1e" x="0" y="269.9" width="134.2" height="24.65" shape-rendering="crispEdges"/><rect fill="#1e1e1e" x="134.2" y="269.9" width="12.2" height="24.65" shape-rendering="crispEdges"/><rect fill="#1e1e1e" x="146.4" y="269.9" width="793" height="24.65" shape-rendering="crispEdges"/><rect fill="#1e1e1e" x="939.4" y="269.9" width="12.2" height="24.65" shape-rendering="crispEdges"/><rect fill="#14191f" x="951.6" y="269.9" width="24.4" height="24.65" shape-rendering="crispEdges"/><rect fill="#1e1e1e" x="0" y="294.3" width="134.2" height="24.65" shape-rendering="crispEdges"/><rect fill="#1e1e1e" x="134.2" y="294.3" width="12.2" height="24.65" shape-rendering="crispEdges"/><rect fill="#1e1e1e" x="146.4" y="294.3" width="244" height="24.65" shape-rendering="crispEdges"/><rect fill="#1e1e1e" x="390.4" y="294.3" width="549" height="24.65" shape-rendering="crispEdges"/><rect fill="#1e1e1e" x="939.4" y="294.3" width="12.2" height="24.65" shape-rendering="crispEdges"/><rect fill="#14191f" x="951.6" y="294.3" width="24.4" height="24.65" shape-rendering="crispEdges"/><rect fill="#1e1e1e" x="0" y="318.7" width="134.2" height="24.65" shape-rendering="crispEdges"/><rect fill="#1e1e1e" x="134.2" y="318.7" width="12.2" height="24.65" shape-rendering="crispEdges"/><rect fill="#1e1e1e" x="146.4" y="318.7" width="805.2" height="24.65" shape-rendering="crispEdges"/><rect fill="#14191f" x="951.6" y="318.7" width="24.4" height="24.65" shape-rendering="crispEdges"/><rect fill="#1e1e1e" x="0" y="343.1" width="12.2" height="24.65" shape-rendering="crispEdges"/><rect fill="#1e1e1e" x="12.2" y="343.1" width="122" height="24.65" shape-rendering="crispEdges"/><rect fill="#1e1e1e" x="134.2" y="343.1" width="817.4" height="24.65" shape-rendering="crispEdges"/><rect fill="#14191f" x="951.6" y="343.1" width="24.4" height="24.65" shape-rendering="crispEdges"/><rect fill="#1e1e1e" x="0" y="367.5" width="36.6" height="24.65" shape-rendering="crispEdges"/><rect fill="#1e1e1e" x="36.6" y="367.5" width="97.6" height="24.65" shape-rendering="crispEdges"/><rect fill="#1e1e1e" x="134.2" y="367.5" width="12.2" height="24.65" shape-rendering="crispEdges"/><rect fill="#1e1e1e" x="146.4" y="367.5" width="36.6" height="24.65" shape-rendering="crispEdges"/><rect fill="#1e1e1e" x="183" y="367.5" width="353.8" height="24.65" shape-rendering="crispEdges"/><rect fill="#1e1e1e" x="536.8" y="367.5" width="12.2" height="24.65" shape-rendering="crispEdges"/><rect fill="#1e1e1e" x="549" y="367.5" width="36.6" height="24.65" shape-rendering="crispEdges"/><rect fill="#1e1e1e" x="585.6" y="367.5" width="353.8" height="24.65" shape-rendering="crispEdges"/><rect fill="#1e1e1e" x="939.4" y="367.5" width="12.2" height="24.65" shape-rendering="crispEdges"/><rect fill="#14191f" x="951.6" y="367.5" width="24.4" height="24.65" shape-rendering="crispEdges"/><rect fill="#1e1e1e" x="0" y="391.9" width="134.2" height="24.65" shape-rendering="crispEdges"/><rect fill="#1e1e1e" x="134.2" y="391.9" width="12.2" height="24.65" shape-rendering="crispEdges"/><rect fill="#1e1e1e" x="146.4" y="391.9" width="390.4" height="24.65" shape-rendering="crispEdges"/><rect fill="#1e1e1e" x="536.8" y="391.9" width="12.2" height="24.65" shape-rendering="crispEdges"/><rect fill="#1e1e1e" x="549" y="391.9" width="390.4" height="24.65" shape-rendering="crispEdges"/><rect fill="#1e1e1e" x="939.4" y="391.9" width="12.2" height="24.65" shape-rendering="crispEdges"/><rect fill="#14191f" x="951.6" y="391.9" width="24.4" height="24.65" shape-rendering="crispEdges"/><rect fill="#1e1e1e" x="0" y="416.3" width="134.2" height="24.65" shape-rendering="crispEdges"/><rect fill="#1e1e1e" x="134.2" y="416.3" width="12.2" height="24.65" shape-rendering="crispEdges"/><rect fill="#1e1e1e" x="146.4" y="416.3" width="390.4" height="24.65" shape-rendering="crispEdges"/><rect fill="#1e1e1e" x="536.8" y="416.3" width="12.2" height="24.65" shape-rendering="crispEdges"/><rect fill="#1e1e1e" x="549" y="416.3" width="390.4" height="24.65" shape-rendering="crispEdges"/><rect fill="#1e1e1e" x="939.4" y="416.3" width="12.2" height="24.65" shape-rendering="crispEdges"/><rect fill="#14191f" x="951.6" y="416.3" width="24.4" height="24.65" shape-rendering="crispEdges"/><rect fill="#1e1e1e" x="0" y="440.7" width="134.2" height="24.65" shape-rendering="crispEdges"/><rect fill="#1e1e1e" x="134.2" y="440.7" width="12.2" height="24.65" shape-rendering="crispEdges"/><rect fill="#1e1e1e" x="146.4" y="440.7" width="256.2" height="24.65" shape-rendering="crispEdges"/><rect fill="#1e1e1e" x="402.6" y="440.7" width="134.2" height="24.65" shape-rendering="crispEdges"/><rect fill="#1e1e1e" x="536.8" y="440.7" width="12.2" height="24.65" shape-rendering="crispEdges"/><rect fill="#1e1e1e" x="549" y="440.7" width="256.2" height="24.65" shape-rendering="crispEdges"/><rect fill="#1e1e1e" x="805.2" y="440.7" width="134.2" height="24.65" shape-rendering="crispEdges"/><rect fill="#1e1e1e" x="939.4" y="440.7" width="12.2" height="24.65" shape-rendering="crispEdges"/><rect fill="#14191f" x="951.6" y="440.7" width="24.4" height="24.65" shape-rendering="crispEdges"/><rect fill="#1e1e1e" x="0" y="465.1" width="24.4" height="24.65" shape-rendering="crispEdges"/><rect fill="#1e1e1e" x="24.4" y="465.1" width="109.8" height="24.65" shape-rendering="crispEdges"/><rect fill="#1e1e1e" x="134.2" y="465.1" width="12.2" height="24.65" shape-rendering="crispEdges"/><rect fill="#1e1e1e" x="146.4" y="465.1" width="402.6" height="24.65" shape-rendering="crispEdges"/><rect fill="#1e1e1e" x="549" y="465.1" width="402.6" height="24.65" shape-rendering="crispEdges"/><rect fill="#14191f" x="951.6" y="465.1" width="24.4" height="24.65" shape-rendering="crispEdges"/><rect fill="#1e1e1e" x="0" y="489.5" width="36.6" height="24.65" shape-rendering="crispEdges"/><rect fill="#1e1e1e" x="36.6" y="489.5" width="97.6" height="24.65" shape-rendering="crispEdges"/><rect fill="#1e1e1e" x="134.2" y="489.5" width="12.2" height="24.65" shape-rendering="crispEdges"/><rect fill="#1e1e1e" x="146.4" y="489.5" width="36.6" height="24.65" shape-rendering="crispEdges"/><rect fill="#1e1e1e" x="183" y="489.5" width="756.4" height="24.65" shape-rendering="crispEdges"/><rect fill="#1e1e1e" x="939.4" y="489.5" width="12.2" height="24.65" shape-rendering="crispEdges"/><rect fill="#14191f" x="951.6" y="489.5" width="24.4" height="24.65" shape-rendering="crispEdges"/><rect fill="#1e1e1e" x="0" y="513.9" width="134.2" height="24.65" shape-rendering="crispEdges"/><rect fill="#1e1e1e" x="134.2" y="513.9" width="12.2" height="24.65" shape-rendering="crispEdges"/><rect fill="#1e1e1e" x="146.4" y="513.9" width="793" height="24.65" shape-rendering="crispEdges"/><rect fill="#1e1e1e" x="939.4" y="513.9" width="12.2" height="24.65" shape-rendering="crispEdges"/><rect fill="#14191f" x="951.6" y="513.9" width="24.4" height="24.65" shape-rendering="crispEdges"/><rect fill="#1e1e1e" x="0" y="538.3" width="134.2" height="24.65" shape-rendering="crispEdges"/><rect fill="#1e1e1e" x="134.2" y="538.3" width="12.2" height="24.65" shape-rendering="crispEdges"/><rect fill="#1e1e1e" x="146.4" y="538.3" width="244" height="24.65" shape-rendering="crispEdges"/><rect fill="#1e1e1e" x="390.4" y="538.3" width="549" height="24.65" shape-rendering="crispEdges"/><rect fill="#1e1e1e" x="939.4" y="538.3" width="12.2" height="24.65" shape-rendering="crispEdges"/><rect fill="#14191f" x="951.6" y="538.3" width="24.4" height="24.65" shape-rendering="crispEdges"/><rect fill="#24292f" x="0" y="562.7" width="36.6" height="24.65" shape-rendering="crispEdges"/><rect fill="#24292f" x="36.6" y="562.7" width="231.8" height="24.65" shape-rendering="crispEdges"/><rect fill="#24292f" x="268.4" y="562.7" width="36.6" height="24.65" shape-rendering="crispEdges"/><rect fill="#24292f" x="305" y="562.7" width="170.8" height="24.65" shape-rendering="crispEdges"/><rect fill="#24292f" x="475.8" y="562.7" width="85.4" height="24.65" shape-rendering="crispEdges"/><rect fill="#24292f" x="561.2" y="562.7" width="61" height="24.65" shape-rendering="crispEdges"/><rect fill="#24292f" x="622.2" y="562.7" width="85.4" height="24.65" shape-rendering="crispEdges"/><rect fill="#24292f" x="707.6" y="562.7" width="48.8" height="24.65" shape-rendering="crispEdges"/><rect fill="#24292f" x="756.4" y="562.7" width="61" height="24.65" shape-rendering="crispEdges"/><rect fill="#24292f" x="817.4" y="562.7" width="12.2" height="24.65" shape-rendering="crispEdges"/><rect fill="#24292f" x="829.6" y="562.7" width="12.2" height="24.65" shape-rendering="crispEdges"/><rect fill="#24292f" x="841.8" y="562.7" width="24.4" height="24.65" shape-rendering="crispEdges"/><rect fill="#24292f" x="866.2" y="562.7" width="48.8" height="24.65" shape-rendering="crispEdges"/><rect fill="#24292f" x="915" y="562.7" width="48.8" height="24.65" shape-rendering="crispEdges"/><rect fill="#24292f" x="963.8" y="562.7" width="12.2" height="24.65" shape-rendering="crispEdges"/>
    <g class="terminal-1314119957-matrix">
    <text class="terminal-1314119957-r2" x="12.2" y="20" textLength="24.4" clip-path="url(#terminal-1314119957-line-0)">👁️</text><text class="terminal-1314119957-r2" x="183" y="20" textLength="122" clip-path="url(#terminal-1314119957-line-0)">Iolanta&#160;—&#160;</text><text class="terminal-1314119957-r3" x="305" y="20" textLength="463.6" clip-path="url(#terminal-1314119957-line-0)">http://www.wikidata.org/entity/Q204606</text><text class="terminal-1314119957-r1" x="976" y="20" textLength="12.2" clip-path="url(#terminal-1314119957-line-0)">
</text><text class="terminal-1314119957-r1" x="976" y="44.4" textLength="12.2" clip-path="url(#terminal-1314119957-line-1)">
</text><text class="terminal-1314119957-r5" x="12.2" y="68.8" textLength="134.2" clip-path="url(#terminal-1314119957-line-2)">cyberspace&#160;</text><text class="terminal-1314119957-r6" x="146.4" y="68.8" textLength="244" clip-path="url(#terminal-1314119957-line-2)">&amp;&#160;its&#160;RDF&#160;properties</text><text class="terminal-1314119957-r7" x="951.6" y="68.8" textLength="24.4" clip-path="url(#terminal-1314119957-line-2)">▆▆</text><text class="terminal-1314119957-r1" x="976" y="68.8" textLength="12.2" clip-path="url(#terminal-1314119957-line-2)">
</text><text class="terminal-1314119957-r1" x="976" y="93.2" textLength="12.2" clip-path="url(#terminal-1314119957-line-3)">
</text><text class="terminal-1314119957-r8" x="0" y="117.6" textLength="134.2" clip-path="url(#terminal-1314119957-line-4)">iolanta:red</text><text class="terminal-1314119957-r8" x="146.4" y="117.6" textLength="122" clip-path="url(#terminal-1314119957-line-4)">cyberspace</text><text class="terminal-1314119957-r1" x="976" y="117.6" textLength="12.2" clip-path="url(#terminal-1314119957-line-4)">
</text><text class="terminal-1314119957-r8" x="0" y="142" textLength="109.8" clip-path="url(#terminal-1314119957-line-5)">irects-to</text><text class="terminal-1314119957-r1" x="976" y="142" textLength="12.2" clip-path="url(#terminal-1314119957-line-5)">
</text><text class="terminal-1314119957-r8" x="0" y="166.4" textLength="48.8" clip-path="url(#terminal-1314119957-line-6)">type</text><text class="terminal-1314119957-r8" x="146.4" y="166.4" textLength="158.6" clip-path="url(#terminal-1314119957-line-6)">iolanta:Graph</text><text class="terminal-1314119957-r8" x="549" y="166.4" textLength="48.8" clip-path="url(#terminal-1314119957-line-6)">Item</text><text class="terminal-1314119957-r1" x="976" y="166.4" textLength="12.2" clip-path="url(#terminal-1314119957-line-6)">
</text><text class="terminal-1314119957-r1" x="976" y="190.8" textLength="12.2" clip-path="url(#terminal-1314119957-line-7)">
</text><text class="terminal-1314119957-r8" x="0" y="215.2" textLength="109.8" clip-path="url(#terminal-1314119957-line-8)">field&#160;of&#160;</text><text class="terminal-1314119957-r8" x="146.4" y="215.2" textLength="158.6" clip-path="url(#terminal-1314119957-line-8)">cybersecurity</text><text class="terminal-1314119957-r1" x="976" y="215.2" textLength="12.2" clip-path="url(#terminal-1314119957-line-8)">
</text><text class="terminal-1314119957-r8" x="0" y="239.6" textLength="48.8" clip-path="url(#terminal-1314119957-line-9)">work</text><text class="terminal-1314119957-r1" x="976" y="239.6" textLength="12.2" clip-path="url(#terminal-1314119957-line-9)">
</text><text class="terminal-1314119957-r9" x="0" y="264" textLength="24.4" clip-path="url(#terminal-1314119957-line-10)">⏳&#160;</text><text class="terminal-1314119957-r9" x="146.4" y="264" textLength="24.4" clip-path="url(#terminal-1314119957-line-10)">⏳&#160;</text><text class="terminal-1314119957-r1" x="976" y="264" textLength="12.2" clip-path="url(#terminal-1314119957-line-10)">
</text><text class="terminal-1314119957-r9" x="0" y="288.4" textLength="134.2" clip-path="url(#terminal-1314119957-line-11)">http://www.</text><text class="terminal-1314119957-r9" x="146.4" y="288.4" textLength="793" clip-path="url(#terminal-1314119957-line-11)">http://www.wikidata.org/entity/statement/Q204606-73A3595B-E19D-4E</text><text class="terminal-1314119957-r1" x="976" y="288.4" textLength="12.2" clip-path="url(#terminal-1314119957-line-11)">
</text><text class="terminal-1314119957-r9" x="0" y="312.8" textLength="134.2" clip-path="url(#terminal-1314119957-line-12)">wikidata.or</text><text class="terminal-1314119957-r9" x="146.4" y="312.8" textLength="244" clip-path="url(#terminal-1314119957-line-12)">6A-850A-EDBE1A5E4141</text><text class="terminal-1314119957-r1" x="976" y="312.8" textLength="12.2" clip-path="url(#terminal-1314119957-line-12)">
</text><text class="terminal-1314119957-r9" x="0" y="337.2" textLength="134.2" clip-path="url(#terminal-1314119957-line-13)">g/prop/P101</text><text class="terminal-1314119957-r1" x="976" y="337.2" textLength="12.2" clip-path="url(#terminal-1314119957-line-13)">
</text><text class="terminal-1314119957-r9" x="0" y="361.6" textLength="12.2" clip-path="url(#terminal-1314119957-line-14)">4</text><text class="terminal-1314119957-r1" x="976" y="361.6" textLength="12.2" clip-path="url(#terminal-1314119957-line-14)">
</text><text class="terminal-1314119957-r9" x="0" y="386" textLength="24.4" clip-path="url(#terminal-1314119957-line-15)">⏳&#160;</text><text class="terminal-1314119957-r9" x="146.4" y="386" textLength="24.4" clip-path="url(#terminal-1314119957-line-15)">⏳&#160;</text><text class="terminal-1314119957-r9" x="549" y="386" textLength="24.4" clip-path="url(#terminal-1314119957-line-15)">⏳&#160;</text><text class="terminal-1314119957-r1" x="976" y="386" textLength="12.2" clip-path="url(#terminal-1314119957-line-15)">
</text><text class="terminal-1314119957-r9" x="0" y="410.4" textLength="134.2" clip-path="url(#terminal-1314119957-line-16)">http://www.</text><text class="terminal-1314119957-r9" x="146.4" y="410.4" textLength="390.4" clip-path="url(#terminal-1314119957-line-16)">http://www.wikidata.org/entity/s</text><text class="terminal-1314119957-r9" x="549" y="410.4" textLength="390.4" clip-path="url(#terminal-1314119957-line-16)">http://www.wikidata.org/entity/s</text><text class="terminal-1314119957-r1" x="976" y="410.4" textLength="12.2" clip-path="url(#terminal-1314119957-line-16)">
</text><text class="terminal-1314119957-r9" x="0" y="434.8" textLength="134.2" clip-path="url(#terminal-1314119957-line-17)">wikidata.or</text><text class="terminal-1314119957-r9" x="146.4" y="434.8" textLength="390.4" clip-path="url(#terminal-1314119957-line-17)">tatement/Q204606-B3C792EA-BD72-4</text><text class="terminal-1314119957-r9" x="549" y="434.8" textLength="390.4" clip-path="url(#terminal-1314119957-line-17)">tatement/Q204606-A4806B20-3332-4</text><text class="terminal-1314119957-r1" x="976" y="434.8" textLength="12.2" clip-path="url(#terminal-1314119957-line-17)">
</text><text class="terminal-1314119957-r9" x="0" y="459.2" textLength="134.2" clip-path="url(#terminal-1314119957-line-18)">g/prop/P102</text><text class="terminal-1314119957-r9" x="146.4" y="459.2" textLength="256.2" clip-path="url(#terminal-1314119957-line-18)">B9F-BED7-31CC9049BCFB</text><text class="terminal-1314119957-r9" x="549" y="459.2" textLength="256.2" clip-path="url(#terminal-1314119957-line-18)">6AD-B324-7801853A4712</text><text class="terminal-1314119957-r1" x="976" y="459.2" textLength="12.2" clip-path="url(#terminal-1314119957-line-18)">
</text><text class="terminal-1314119957-r9" x="0" y="483.6" textLength="24.4" clip-path="url(#terminal-1314119957-line-19)">83</text><text class="terminal-1314119957-r1" x="976" y="483.6" textLength="12.2" clip-path="url(#terminal-1314119957-line-19)">
</text><text class="terminal-1314119957-r9" x="0" y="508" textLength="24.4" clip-path="url(#terminal-1314119957-line-20)">⏳&#160;</text><text class="terminal-1314119957-r9" x="146.4" y="508" textLength="24.4" clip-path="url(#terminal-1314119957-line-20)">⏳&#160;</text><text class="terminal-1314119957-r1" x="976" y="508" textLength="12.2" clip-path="url(#terminal-1314119957-line-20)">
</text><text class="terminal-1314119957-r9" x="0" y="532.4" textLength="134.2" clip-path="url(#terminal-1314119957-line-21)">http://www.</text><text class="terminal-1314119957-r9" x="146.4" y="532.4" textLength="793" clip-path="url(#terminal-1314119957-line-21)">http://www.wikidata.org/entity/statement/Q204606-4DBB5E53-1C52-44</text><text class="terminal-1314119957-r1" x="976" y="532.4" textLength="12.2" clip-path="url(#terminal-1314119957-line-21)">
</text><text class="terminal-1314119957-r9" x="0" y="556.8" textLength="134.2" clip-path="url(#terminal-1314119957-line-22)">wikidata.or</text><text class="terminal-1314119957-r9" x="146.4" y="556.8" textLength="244" clip-path="url(#terminal-1314119957-line-22)">48-912E-A850C7649DF7</text><text class="terminal-1314119957-r1" x="976" y="556.8" textLength="12.2" clip-path="url(#terminal-1314119957-line-22)">
</text><text class="terminal-1314119957-r10" x="0" y="581.2" textLength="36.6" clip-path="url(#terminal-1314119957-line-23)">&#160;1&#160;</text><text class="terminal-1314119957-r11" x="36.6" y="581.2" textLength="231.8" clip-path="url(#terminal-1314119957-line-23)">Inverse&#160;Properties&#160;</text><text class="terminal-1314119957-r10" x="268.4" y="581.2" textLength="36.6" clip-path="url(#terminal-1314119957-line-23)">&#160;2&#160;</text><text class="terminal-1314119957-r11" x="305" y="581.2" textLength="170.8" clip-path="url(#terminal-1314119957-line-23)">Graph&#160;Triples&#160;</text><text class="terminal-1314119957-r10" x="475.8" y="581.2" textLength="85.4" clip-path="url(#terminal-1314119957-line-23)">&#160;alt+←&#160;</text><text class="terminal-1314119957-r11" x="561.2" y="581.2" textLength="61" clip-path="url(#terminal-1314119957-line-23)">Back&#160;</text><text class="terminal-1314119957-r10" x="622.2" y="581.2" textLength="85.4" clip-path="url(#terminal-1314119957-line-23)">&#160;alt+→&#160;</text><text class="terminal-1314119957-r11" x="707.6" y="581.2" textLength="48.8" clip-path="url(#terminal-1314119957-line-23)">Fwd&#160;</text><text class="terminal-1314119957-r10" x="756.4" y="581.2" textLength="61" clip-path="url(#terminal-1314119957-line-23)">&#160;f12&#160;</text><text class="terminal-1314119957-r11" x="817.4" y="581.2" textLength="12.2" clip-path="url(#terminal-1314119957-line-23)">C</text><text class="terminal-1314119957-r12" x="829.6" y="581.2" textLength="12.2" clip-path="url(#terminal-1314119957-line-23)">▏</text><text class="terminal-1314119957-r10" x="841.8" y="581.2" textLength="24.4" clip-path="url(#terminal-1314119957-line-23)">^p</text><text class="terminal-1314119957-r11" x="866.2" y="581.2" textLength="48.8" clip-path="url(#terminal-1314119957-line-23)">&#160;pal</text><text class="terminal-1314119957-r11" x="915" y="581.2" textLength="48.8" clip-path="url(#terminal-1314119957-line-23)">ette</text>
    </g>
    </g>
</svg>
