<svg class="rich-terminal" viewBox="0 0 1397 879.5999999999999" xmlns="http://www.w3.org/2000/svg">
    <!-- Generated with Rich https://www.textualize.io -->
    <style>

    @font-face {
        font-family: "Fira Code";
        src: local("FiraCode-Regular"),
                url("https://cdnjs.cloudflare.com/ajax/libs/firacode/6.2.0/woff2/FiraCode-Regular.woff2") format("woff2"),
                url("https://cdnjs.cloudflare.com/ajax/libs/firacode/6.2.0/woff/FiraCode-Regular.woff") format("woff");
        font-style: normal;
        font-weight: 400;
    }
    @font-face {
        font-family: "Fira Code";
        src: local("FiraCode-Bold"),
                url("https://cdnjs.cloudflare.com/ajax/libs/firacode/6.2.0/woff2/FiraCode-Bold.woff2") format("woff2"),
                url("https://cdnjs.cloudflare.com/ajax/libs/firacode/6.2.0/woff/FiraCode-Bold.woff") format("woff");
        font-style: bold;
        font-weight: 700;
    }

    .terminal-4002584607-matrix {
        font-family: Fira Code, monospace;
        font-size: 20px;
        line-height: 24.4px;
        font-variant-east-asian: full-width;
    }

    .terminal-4002584607-title {
        font-size: 18px;
        font-weight: bold;
        font-family: arial;
    }

    .terminal-4002584607-r1 { fill: #c5c8c6 }
.terminal-4002584607-r2 { fill: #e0e0e0 }
.terminal-4002584607-r3 { fill: #94999c }
.terminal-4002584607-r4 { fill: #121212 }
.terminal-4002584607-r5 { fill: #ffffff;font-weight: bold }
.terminal-4002584607-r6 { fill: #000000 }
.terminal-4002584607-r7 { fill: #696969 }
.terminal-4002584607-r8 { fill: #ffa62b;font-weight: bold }
.terminal-4002584607-r9 { fill: #495259 }
    </style>

    <defs>
    <clipPath id="terminal-4002584607-clip-terminal">
      <rect x="0" y="0" width="1377.6" height="828.5999999999999" />
    </clipPath>
    <clipPath id="terminal-4002584607-line-0">
    <rect x="0" y="1.5" width="1378.6" height="24.65"/>
            </clipPath>
<clipPath id="terminal-4002584607-line-1">
    <rect x="0" y="25.9" width="1378.6" height="24.65"/>
            </clipPath>
<clipPath id="terminal-4002584607-line-2">
    <rect x="0" y="50.3" width="1378.6" height="24.65"/>
            </clipPath>
<clipPath id="terminal-4002584607-line-3">
    <rect x="0" y="74.7" width="1378.6" height="24.65"/>
            </clipPath>
<clipPath id="terminal-4002584607-line-4">
    <rect x="0" y="99.1" width="1378.6" height="24.65"/>
            </clipPath>
<clipPath id="terminal-4002584607-line-5">
    <rect x="0" y="123.5" width="1378.6" height="24.65"/>
            </clipPath>
<clipPath id="terminal-4002584607-line-6">
    <rect x="0" y="147.9" width="1378.6" height="24.65"/>
            </clipPath>
<clipPath id="terminal-4002584607-line-7">
    <rect x="0" y="172.3" width="1378.6" height="24.65"/>
            </clipPath>
<clipPath id="terminal-4002584607-line-8">
    <rect x="0" y="196.7" width="1378.6" height="24.65"/>
            </clipPath>
<clipPath id="terminal-4002584607-line-9">
    <rect x="0" y="221.1" width="1378.6" height="24.65"/>
            </clipPath>
<clipPath id="terminal-4002584607-line-10">
    <rect x="0" y="245.5" width="1378.6" height="24.65"/>
            </clipPath>
<clipPath id="terminal-4002584607-line-11">
    <rect x="0" y="269.9" width="1378.6" height="24.65"/>
            </clipPath>
<clipPath id="terminal-4002584607-line-12">
    <rect x="0" y="294.3" width="1378.6" height="24.65"/>
            </clipPath>
<clipPath id="terminal-4002584607-line-13">
    <rect x="0" y="318.7" width="1378.6" height="24.65"/>
            </clipPath>
<clipPath id="terminal-4002584607-line-14">
    <rect x="0" y="343.1" width="1378.6" height="24.65"/>
            </clipPath>
<clipPath id="terminal-4002584607-line-15">
    <rect x="0" y="367.5" width="1378.6" height="24.65"/>
            </clipPath>
<clipPath id="terminal-4002584607-line-16">
    <rect x="0" y="391.9" width="1378.6" height="24.65"/>
            </clipPath>
<clipPath id="terminal-4002584607-line-17">
    <rect x="0" y="416.3" width="1378.6" height="24.65"/>
            </clipPath>
<clipPath id="terminal-4002584607-line-18">
    <rect x="0" y="440.7" width="1378.6" height="24.65"/>
            </clipPath>
<clipPath id="terminal-4002584607-line-19">
    <rect x="0" y="465.1" width="1378.6" height="24.65"/>
            </clipPath>
<clipPath id="terminal-4002584607-line-20">
    <rect x="0" y="489.5" width="1378.6" height="24.65"/>
            </clipPath>
<clipPath id="terminal-4002584607-line-21">
    <rect x="0" y="513.9" width="1378.6" height="24.65"/>
            </clipPath>
<clipPath id="terminal-4002584607-line-22">
    <rect x="0" y="538.3" width="1378.6" height="24.65"/>
            </clipPath>
<clipPath id="terminal-4002584607-line-23">
    <rect x="0" y="562.7" width="1378.6" height="24.65"/>
            </clipPath>
<clipPath id="terminal-4002584607-line-24">
    <rect x="0" y="587.1" width="1378.6" height="24.65"/>
            </clipPath>
<clipPath id="terminal-4002584607-line-25">
    <rect x="0" y="611.5" width="1378.6" height="24.65"/>
            </clipPath>
<clipPath id="terminal-4002584607-line-26">
    <rect x="0" y="635.9" width="1378.6" height="24.65"/>
            </clipPath>
<clipPath id="terminal-4002584607-line-27">
    <rect x="0" y="660.3" width="1378.6" height="24.65"/>
            </clipPath>
<clipPath id="terminal-4002584607-line-28">
    <rect x="0" y="684.7" width="1378.6" height="24.65"/>
            </clipPath>
<clipPath id="terminal-4002584607-line-29">
    <rect x="0" y="709.1" width="1378.6" height="24.65"/>
            </clipPath>
<clipPath id="terminal-4002584607-line-30">
    <rect x="0" y="733.5" width="1378.6" height="24.65"/>
            </clipPath>
<clipPath id="terminal-4002584607-line-31">
    <rect x="0" y="757.9" width="1378.6" height="24.65"/>
            </clipPath>
<clipPath id="terminal-4002584607-line-32">
    <rect x="0" y="782.3" width="1378.6" height="24.65"/>
            </clipPath>
    </defs>

    <rect fill="#292929" stroke="rgba(255,255,255,0.35)" stroke-width="1" x="1" y="1" width="1395" height="877.6" rx="8"/><text class="terminal-4002584607-title" fill="#c5c8c6" text-anchor="middle" x="697" y="27">Iolanta</text>
            <g transform="translate(26,22)">
            <circle cx="0" cy="0" r="7" fill="#ff5f57"/>
            <circle cx="22" cy="0" r="7" fill="#febc2e"/>
            <circle cx="44" cy="0" r="7" fill="#28c840"/>
            </g>
        
    <g transform="translate(9, 41)" clip-path="url(#terminal-4002584607-clip-terminal)">
    <rect fill="#242f38" x="0" y="1.5" width="12.2" height="24.65" shape-rendering="crispEdges"/><rect fill="#242f38" x="12.2" y="1.5" width="12.2" height="24.65" shape-rendering="crispEdges"/><rect fill="#242f38" x="24.4" y="1.5" width="61" height="24.65" shape-rendering="crispEdges"/><rect fill="#242f38" x="85.4" y="1.5" width="12.2" height="24.65" shape-rendering="crispEdges"/><rect fill="#242f38" x="97.6" y="1.5" width="280.6" height="24.65" shape-rendering="crispEdges"/><rect fill="#242f38" x="378.2" y="1.5" width="122" height="24.65" shape-rendering="crispEdges"/><rect fill="#242f38" x="500.2" y="1.5" width="463.6" height="24.65" shape-rendering="crispEdges"/><rect fill="#242f38" x="963.8" y="1.5" width="292.8" height="24.65" shape-rendering="crispEdges"/><rect fill="#242f38" x="1256.6" y="1.5" width="12.2" height="24.65" shape-rendering="crispEdges"/><rect fill="#242f38" x="1268.8" y="1.5" width="0" height="24.65" shape-rendering="crispEdges"/><rect fill="#242f38" x="1268.8" y="1.5" width="97.6" height="24.65" shape-rendering="crispEdges"/><rect fill="#242f38" x="1366.4" y="1.5" width="12.2" height="24.65" shape-rendering="crispEdges"/><rect fill="#483d8b" x="0" y="25.9" width="1354.2" height="24.65" shape-rendering="crispEdges"/><rect fill="#003054" x="1354.2" y="25.9" width="24.4" height="24.65" shape-rendering="crispEdges"/><rect fill="#483d8b" x="0" y="50.3" width="12.2" height="24.65" shape-rendering="crispEdges"/><rect fill="#483d8b" x="12.2" y="50.3" width="122" height="24.65" shape-rendering="crispEdges"/><rect fill="#483d8b" x="134.2" y="50.3" width="1207.8" height="24.65" shape-rendering="crispEdges"/><rect fill="#483d8b" x="1342" y="50.3" width="12.2" height="24.65" shape-rendering="crispEdges"/><rect fill="#003054" x="1354.2" y="50.3" width="24.4" height="24.65" shape-rendering="crispEdges"/><rect fill="#483d8b" x="0" y="74.7" width="1354.2" height="24.65" shape-rendering="crispEdges"/><rect fill="#003054" x="1354.2" y="74.7" width="24.4" height="24.65" shape-rendering="crispEdges"/><rect fill="#121212" x="0" y="99.1" width="0" height="24.65" shape-rendering="crispEdges"/><rect fill="#121212" x="0" y="99.1" width="1354.2" height="24.65" shape-rendering="crispEdges"/><rect fill="#000000" x="1354.2" y="99.1" width="24.4" height="24.65" shape-rendering="crispEdges"/><rect fill="#121212" x="0" y="123.5" width="195.2" height="24.65" shape-rendering="crispEdges"/><rect fill="#121212" x="195.2" y="123.5" width="12.2" height="24.65" shape-rendering="crispEdges"/><rect fill="#121212" x="207.4" y="123.5" width="768.6" height="24.65" shape-rendering="crispEdges"/><rect fill="#121212" x="976" y="123.5" width="12.2" height="24.65" shape-rendering="crispEdges"/><rect fill="#121212" x="988.2" y="123.5" width="366" height="24.65" shape-rendering="crispEdges"/><rect fill="#000000" x="1354.2" y="123.5" width="24.4" height="24.65" shape-rendering="crispEdges"/><rect fill="#121212" x="0" y="147.9" width="195.2" height="24.65" shape-rendering="crispEdges"/><rect fill="#121212" x="195.2" y="147.9" width="12.2" height="24.65" shape-rendering="crispEdges"/><rect fill="#121212" x="207.4" y="147.9" width="780.8" height="24.65" shape-rendering="crispEdges"/><rect fill="#121212" x="988.2" y="147.9" width="366" height="24.65" shape-rendering="crispEdges"/><rect fill="#000000" x="1354.2" y="147.9" width="24.4" height="24.65" shape-rendering="crispEdges"/><rect fill="#121212" x="0" y="172.3" width="12.2" height="24.65" shape-rendering="crispEdges"/><rect fill="#121212" x="12.2" y="172.3" width="183" height="24.65" shape-rendering="crispEdges"/><rect fill="#121212" x="195.2" y="172.3" width="1159" height="24.65" shape-rendering="crispEdges"/><rect fill="#000000" x="1354.2" y="172.3" width="24.4" height="24.65" shape-rendering="crispEdges"/><rect fill="#121212" x="0" y="196.7" width="195.2" height="24.65" shape-rendering="crispEdges"/><rect fill="#121212" x="195.2" y="196.7" width="12.2" height="24.65" shape-rendering="crispEdges"/><rect fill="#121212" x="207.4" y="196.7" width="317.2" height="24.65" shape-rendering="crispEdges"/><rect fill="#121212" x="524.6" y="196.7" width="829.6" height="24.65" shape-rendering="crispEdges"/><rect fill="#000000" x="1354.2" y="196.7" width="24.4" height="24.65" shape-rendering="crispEdges"/><rect fill="#121212" x="0" y="221.1" width="195.2" height="24.65" shape-rendering="crispEdges"/><rect fill="#121212" x="195.2" y="221.1" width="1159" height="24.65" shape-rendering="crispEdges"/><rect fill="#000000" x="1354.2" y="221.1" width="24.4" height="24.65" shape-rendering="crispEdges"/><rect fill="#121212" x="0" y="245.5" width="61" height="24.65" shape-rendering="crispEdges"/><rect fill="#121212" x="61" y="245.5" width="134.2" height="24.65" shape-rendering="crispEdges"/><rect fill="#121212" x="195.2" y="245.5" width="1159" height="24.65" shape-rendering="crispEdges"/><rect fill="#000000" x="1354.2" y="245.5" width="24.4" height="24.65" shape-rendering="crispEdges"/><rect fill="#121212" x="0" y="269.9" width="195.2" height="24.65" shape-rendering="crispEdges"/><rect fill="#121212" x="195.2" y="269.9" width="12.2" height="24.65" shape-rendering="crispEdges"/><rect fill="#121212" x="207.4" y="269.9" width="524.6" height="24.65" shape-rendering="crispEdges"/><rect fill="#121212" x="732" y="269.9" width="12.2" height="24.65" shape-rendering="crispEdges"/><rect fill="#121212" x="744.2" y="269.9" width="610" height="24.65" shape-rendering="crispEdges"/><rect fill="#000000" x="1354.2" y="269.9" width="24.4" height="24.65" shape-rendering="crispEdges"/><rect fill="#121212" x="0" y="294.3" width="195.2" height="24.65" shape-rendering="crispEdges"/><rect fill="#121212" x="195.2" y="294.3" width="12.2" height="24.65" shape-rendering="crispEdges"/><rect fill="#121212" x="207.4" y="294.3" width="536.8" height="24.65" shape-rendering="crispEdges"/><rect fill="#121212" x="744.2" y="294.3" width="610" height="24.65" shape-rendering="crispEdges"/><rect fill="#000000" x="1354.2" y="294.3" width="24.4" height="24.65" shape-rendering="crispEdges"/><rect fill="#121212" x="0" y="318.7" width="24.4" height="24.65" shape-rendering="crispEdges"/><rect fill="#121212" x="24.4" y="318.7" width="170.8" height="24.65" shape-rendering="crispEdges"/><rect fill="#121212" x="195.2" y="318.7" width="1159" height="24.65" shape-rendering="crispEdges"/><rect fill="#000000" x="1354.2" y="318.7" width="24.4" height="24.65" shape-rendering="crispEdges"/><rect fill="#121212" x="0" y="343.1" width="48.8" height="24.65" shape-rendering="crispEdges"/><rect fill="#121212" x="48.8" y="343.1" width="146.4" height="24.65" shape-rendering="crispEdges"/><rect fill="#121212" x="195.2" y="343.1" width="12.2" height="24.65" shape-rendering="crispEdges"/><rect fill="#121212" x="207.4" y="343.1" width="48.8" height="24.65" shape-rendering="crispEdges"/><rect fill="#121212" x="256.2" y="343.1" width="12.2" height="24.65" shape-rendering="crispEdges"/><rect fill="#121212" x="268.4" y="343.1" width="1085.8" height="24.65" shape-rendering="crispEdges"/><rect fill="#000000" x="1354.2" y="343.1" width="24.4" height="24.65" shape-rendering="crispEdges"/><rect fill="#121212" x="0" y="367.5" width="207.4" height="24.65" shape-rendering="crispEdges"/><rect fill="#121212" x="207.4" y="367.5" width="61" height="24.65" shape-rendering="crispEdges"/><rect fill="#121212" x="268.4" y="367.5" width="1085.8" height="24.65" shape-rendering="crispEdges"/><rect fill="#000000" x="1354.2" y="367.5" width="24.4" height="24.65" shape-rendering="crispEdges"/><rect fill="#121212" x="0" y="391.9" width="158.6" height="24.65" shape-rendering="crispEdges"/><rect fill="#121212" x="158.6" y="391.9" width="36.6" height="24.65" shape-rendering="crispEdges"/><rect fill="#121212" x="195.2" y="391.9" width="12.2" height="24.65" shape-rendering="crispEdges"/><rect fill="#121212" x="207.4" y="391.9" width="158.6" height="24.65" shape-rendering="crispEdges"/><rect fill="#121212" x="366" y="391.9" width="12.2" height="24.65" shape-rendering="crispEdges"/><rect fill="#121212" x="378.2" y="391.9" width="976" height="24.65" shape-rendering="crispEdges"/><rect fill="#000000" x="1354.2" y="391.9" width="24.4" height="24.65" shape-rendering="crispEdges"/><rect fill="#121212" x="0" y="416.3" width="207.4" height="24.65" shape-rendering="crispEdges"/><rect fill="#121212" x="207.4" y="416.3" width="170.8" height="24.65" shape-rendering="crispEdges"/><rect fill="#121212" x="378.2" y="416.3" width="976" height="24.65" shape-rendering="crispEdges"/><rect fill="#000000" x="1354.2" y="416.3" width="24.4" height="24.65" shape-rendering="crispEdges"/><rect fill="#121212" x="0" y="440.7" width="73.2" height="24.65" shape-rendering="crispEdges"/><rect fill="#121212" x="73.2" y="440.7" width="122" height="24.65" shape-rendering="crispEdges"/><rect fill="#121212" x="195.2" y="440.7" width="12.2" height="24.65" shape-rendering="crispEdges"/><rect fill="#121212" x="207.4" y="440.7" width="109.8" height="24.65" shape-rendering="crispEdges"/><rect fill="#121212" x="317.2" y="440.7" width="12.2" height="24.65" shape-rendering="crispEdges"/><rect fill="#121212" x="329.4" y="440.7" width="1024.8" height="24.65" shape-rendering="crispEdges"/><rect fill="#000000" x="1354.2" y="440.7" width="24.4" height="24.65" shape-rendering="crispEdges"/><rect fill="#121212" x="0" y="465.1" width="158.6" height="24.65" shape-rendering="crispEdges"/><rect fill="#121212" x="158.6" y="465.1" width="36.6" height="24.65" shape-rendering="crispEdges"/><rect fill="#121212" x="195.2" y="465.1" width="12.2" height="24.65" shape-rendering="crispEdges"/><rect fill="#121212" x="207.4" y="465.1" width="122" height="24.65" shape-rendering="crispEdges"/><rect fill="#121212" x="329.4" y="465.1" width="1024.8" height="24.65" shape-rendering="crispEdges"/><rect fill="#000000" x="1354.2" y="465.1" width="24.4" height="24.65" shape-rendering="crispEdges"/><rect fill="#121212" x="0" y="489.5" width="146.4" height="24.65" shape-rendering="crispEdges"/><rect fill="#121212" x="146.4" y="489.5" width="48.8" height="24.65" shape-rendering="crispEdges"/><rect fill="#121212" x="195.2" y="489.5" width="1159" height="24.65" shape-rendering="crispEdges"/><rect fill="#000000" x="1354.2" y="489.5" width="24.4" height="24.65" shape-rendering="crispEdges"/><rect fill="#121212" x="0" y="513.9" width="134.2" height="24.65" shape-rendering="crispEdges"/><rect fill="#121212" x="134.2" y="513.9" width="61" height="24.65" shape-rendering="crispEdges"/><rect fill="#121212" x="195.2" y="513.9" width="12.2" height="24.65" shape-rendering="crispEdges"/><rect fill="#121212" x="207.4" y="513.9" width="134.2" height="24.65" shape-rendering="crispEdges"/><rect fill="#121212" x="341.6" y="513.9" width="12.2" height="24.65" shape-rendering="crispEdges"/><rect fill="#121212" x="353.8" y="513.9" width="427" height="24.65" shape-rendering="crispEdges"/><rect fill="#121212" x="780.8" y="513.9" width="134.2" height="24.65" shape-rendering="crispEdges"/><rect fill="#121212" x="915" y="513.9" width="12.2" height="24.65" shape-rendering="crispEdges"/><rect fill="#121212" x="927.2" y="513.9" width="427" height="24.65" shape-rendering="crispEdges"/><rect fill="#000000" x="1354.2" y="513.9" width="24.4" height="24.65" shape-rendering="crispEdges"/><rect fill="#121212" x="0" y="538.3" width="207.4" height="24.65" shape-rendering="crispEdges"/><rect fill="#121212" x="207.4" y="538.3" width="146.4" height="24.65" shape-rendering="crispEdges"/><rect fill="#121212" x="353.8" y="538.3" width="427" height="24.65" shape-rendering="crispEdges"/><rect fill="#121212" x="780.8" y="538.3" width="146.4" height="24.65" shape-rendering="crispEdges"/><rect fill="#121212" x="927.2" y="538.3" width="427" height="24.65" shape-rendering="crispEdges"/><rect fill="#000000" x="1354.2" y="538.3" width="24.4" height="24.65" shape-rendering="crispEdges"/><rect fill="#121212" x="0" y="562.7" width="170.8" height="24.65" shape-rendering="crispEdges"/><rect fill="#121212" x="170.8" y="562.7" width="24.4" height="24.65" shape-rendering="crispEdges"/><rect fill="#121212" x="195.2" y="562.7" width="12.2" height="24.65" shape-rendering="crispEdges"/><rect fill="#121212" x="207.4" y="562.7" width="61" height="24.65" shape-rendering="crispEdges"/><rect fill="#121212" x="268.4" y="562.7" width="12.2" height="24.65" shape-rendering="crispEdges"/><rect fill="#121212" x="280.6" y="562.7" width="500.2" height="24.65" shape-rendering="crispEdges"/><rect fill="#121212" x="780.8" y="562.7" width="85.4" height="24.65" shape-rendering="crispEdges"/><rect fill="#121212" x="866.2" y="562.7" width="12.2" height="24.65" shape-rendering="crispEdges"/><rect fill="#121212" x="878.4" y="562.7" width="475.8" height="24.65" shape-rendering="crispEdges"/><rect fill="#000000" x="1354.2" y="562.7" width="24.4" height="24.65" shape-rendering="crispEdges"/><rect fill="#121212" x="0" y="587.1" width="170.8" height="24.65" shape-rendering="crispEdges"/><rect fill="#121212" x="170.8" y="587.1" width="24.4" height="24.65" shape-rendering="crispEdges"/><rect fill="#121212" x="195.2" y="587.1" width="12.2" height="24.65" shape-rendering="crispEdges"/><rect fill="#121212" x="207.4" y="587.1" width="73.2" height="24.65" shape-rendering="crispEdges"/><rect fill="#121212" x="280.6" y="587.1" width="500.2" height="24.65" shape-rendering="crispEdges"/><rect fill="#121212" x="780.8" y="587.1" width="97.6" height="24.65" shape-rendering="crispEdges"/><rect fill="#121212" x="878.4" y="587.1" width="475.8" height="24.65" shape-rendering="crispEdges"/><rect fill="#000000" x="1354.2" y="587.1" width="24.4" height="24.65" shape-rendering="crispEdges"/><rect fill="#121212" x="0" y="611.5" width="195.2" height="24.65" shape-rendering="crispEdges"/><rect fill="#121212" x="195.2" y="611.5" width="12.2" height="24.65" shape-rendering="crispEdges"/><rect fill="#121212" x="207.4" y="611.5" width="1073.6" height="24.65" shape-rendering="crispEdges"/><rect fill="#121212" x="1281" y="611.5" width="12.2" height="24.65" shape-rendering="crispEdges"/><rect fill="#121212" x="1293.2" y="611.5" width="61" height="24.65" shape-rendering="crispEdges"/><rect fill="#000000" x="1354.2" y="611.5" width="24.4" height="24.65" shape-rendering="crispEdges"/><rect fill="#121212" x="0" y="635.9" width="97.6" height="24.65" shape-rendering="crispEdges"/><rect fill="#121212" x="97.6" y="635.9" width="97.6" height="24.65" shape-rendering="crispEdges"/><rect fill="#121212" x="195.2" y="635.9" width="12.2" height="24.65" shape-rendering="crispEdges"/><rect fill="#121212" x="207.4" y="635.9" width="1085.8" height="24.65" shape-rendering="crispEdges"/><rect fill="#121212" x="1293.2" y="635.9" width="61" height="24.65" shape-rendering="crispEdges"/><rect fill="#000000" x="1354.2" y="635.9" width="24.4" height="24.65" shape-rendering="crispEdges"/><rect fill="#121212" x="0" y="660.3" width="36.6" height="24.65" shape-rendering="crispEdges"/><rect fill="#121212" x="36.6" y="660.3" width="158.6" height="24.65" shape-rendering="crispEdges"/><rect fill="#121212" x="195.2" y="660.3" width="12.2" height="24.65" shape-rendering="crispEdges"/><rect fill="#121212" x="207.4" y="660.3" width="1073.6" height="24.65" shape-rendering="crispEdges"/><rect fill="#121212" x="1281" y="660.3" width="12.2" height="24.65" shape-rendering="crispEdges"/><rect fill="#121212" x="1293.2" y="660.3" width="61" height="24.65" shape-rendering="crispEdges"/><rect fill="#000000" x="1354.2" y="660.3" width="24.4" height="24.65" shape-rendering="crispEdges"/><rect fill="#121212" x="0" y="684.7" width="195.2" height="24.65" shape-rendering="crispEdges"/><rect fill="#121212" x="195.2" y="684.7" width="12.2" height="24.65" shape-rendering="crispEdges"/><rect fill="#121212" x="207.4" y="684.7" width="1085.8" height="24.65" shape-rendering="crispEdges"/><rect fill="#121212" x="1293.2" y="684.7" width="61" height="24.65" shape-rendering="crispEdges"/><rect fill="#000000" x="1354.2" y="684.7" width="24.4" height="24.65" shape-rendering="crispEdges"/><rect fill="#121212" x="0" y="709.1" width="195.2" height="24.65" shape-rendering="crispEdges"/><rect fill="#121212" x="195.2" y="709.1" width="1159" height="24.65" shape-rendering="crispEdges"/><rect fill="#000000" x="1354.2" y="709.1" width="24.4" height="24.65" shape-rendering="crispEdges"/><rect fill="#121212" x="0" y="733.5" width="24.4" height="24.65" shape-rendering="crispEdges"/><rect fill="#121212" x="24.4" y="733.5" width="170.8" height="24.65" shape-rendering="crispEdges"/><rect fill="#121212" x="195.2" y="733.5" width="1159" height="24.65" shape-rendering="crispEdges"/><rect fill="#000000" x="1354.2" y="733.5" width="24.4" height="24.65" shape-rendering="crispEdges"/><rect fill="#121212" x="0" y="757.9" width="36.6" height="24.65" shape-rendering="crispEdges"/><rect fill="#121212" x="36.6" y="757.9" width="158.6" height="24.65" shape-rendering="crispEdges"/><rect fill="#121212" x="195.2" y="757.9" width="12.2" height="24.65" shape-rendering="crispEdges"/><rect fill="#121212" x="207.4" y="757.9" width="1073.6" height="24.65" shape-rendering="crispEdges"/><rect fill="#121212" x="1281" y="757.9" width="12.2" height="24.65" shape-rendering="crispEdges"/><rect fill="#121212" x="1293.2" y="757.9" width="61" height="24.65" shape-rendering="crispEdges"/><rect fill="#000000" x="1354.2" y="757.9" width="24.4" height="24.65" shape-rendering="crispEdges"/><rect fill="#121212" x="0" y="782.3" width="195.2" height="24.65" shape-rendering="crispEdges"/><rect fill="#121212" x="195.2" y="782.3" width="12.2" height="24.65" shape-rendering="crispEdges"/><rect fill="#121212" x="207.4" y="782.3" width="1085.8" height="24.65" shape-rendering="crispEdges"/><rect fill="#121212" x="1293.2" y="782.3" width="61" height="24.65" shape-rendering="crispEdges"/><rect fill="#000000" x="1354.2" y="782.3" width="24.4" height="24.65" shape-rendering="crispEdges"/><rect fill="#242f38" x="0" y="806.7" width="36.6" height="24.65" shape-rendering="crispEdges"/><rect fill="#242f38" x="36.6" y="806.7" width="231.8" height="24.65" shape-rendering="crispEdges"/><rect fill="#242f38" x="268.4" y="806.7" width="48.8" height="24.65" shape-rendering="crispEdges"/><rect fill="#242f38" x="317.2" y="806.7" width="122" height="24.65" shape-rendering="crispEdges"/><rect fill="#242f38" x="439.2" y="806.7" width="61" height="24.65" shape-rendering="crispEdges"/><rect fill="#242f38" x="500.2" y="806.7" width="97.6" height="24.65" shape-rendering="crispEdges"/><rect fill="#242f38" x="597.8" y="806.7" width="36.6" height="24.65" shape-rendering="crispEdges"/><rect fill="#242f38" x="634.4" y="806.7" width="207.4" height="24.65" shape-rendering="crispEdges"/><rect fill="#242f38" x="841.8" y="806.7" width="36.6" height="24.65" shape-rendering="crispEdges"/><rect fill="#242f38" x="878.4" y="806.7" width="61" height="24.65" shape-rendering="crispEdges"/><rect fill="#242f38" x="939.4" y="806.7" width="292.8" height="24.65" shape-rendering="crispEdges"/><rect fill="#242f38" x="1232.2" y="806.7" width="12.2" height="24.65" shape-rendering="crispEdges"/><rect fill="#242f38" x="1244.4" y="806.7" width="24.4" height="24.65" shape-rendering="crispEdges"/><rect fill="#242f38" x="1268.8" y="806.7" width="97.6" height="24.65" shape-rendering="crispEdges"/><rect fill="#242f38" x="1366.4" y="806.7" width="12.2" height="24.65" shape-rendering="crispEdges"/>
    <g class="terminal-4002584607-matrix">
    <text class="terminal-4002584607-r2" x="12.2" y="20" textLength="24.4" clip-path="url(#terminal-4002584607-line-0)">👁️</text><text class="terminal-4002584607-r2" x="378.2" y="20" textLength="122" clip-path="url(#terminal-4002584607-line-0)">Iolanta&#160;—&#160;</text><text class="terminal-4002584607-r3" x="500.2" y="20" textLength="463.6" clip-path="url(#terminal-4002584607-line-0)">http://www.wikidata.org/entity/Q204606</text><text class="terminal-4002584607-r1" x="1378.6" y="20" textLength="12.2" clip-path="url(#terminal-4002584607-line-0)">
</text><text class="terminal-4002584607-r1" x="1378.6" y="44.4" textLength="12.2" clip-path="url(#terminal-4002584607-line-1)">
</text><text class="terminal-4002584607-r5" x="12.2" y="68.8" textLength="122" clip-path="url(#terminal-4002584607-line-2)">cyberspace</text><text class="terminal-4002584607-r1" x="1378.6" y="68.8" textLength="12.2" clip-path="url(#terminal-4002584607-line-2)">
</text><text class="terminal-4002584607-r6" x="1354.2" y="93.2" textLength="24.4" clip-path="url(#terminal-4002584607-line-3)">▁▁</text><text class="terminal-4002584607-r1" x="1378.6" y="93.2" textLength="12.2" clip-path="url(#terminal-4002584607-line-3)">
</text><text class="terminal-4002584607-r1" x="1378.6" y="117.6" textLength="12.2" clip-path="url(#terminal-4002584607-line-4)">
</text><text class="terminal-4002584607-r2" x="0" y="142" textLength="195.2" clip-path="url(#terminal-4002584607-line-5)">https://iolanta.</text><text class="terminal-4002584607-r2" x="207.4" y="142" textLength="768.6" clip-path="url(#terminal-4002584607-line-5)">https://www.wikidata.org/wiki/Special:EntityData/Q204606.jsonld</text><text class="terminal-4002584607-r1" x="1378.6" y="142" textLength="12.2" clip-path="url(#terminal-4002584607-line-5)">
</text><text class="terminal-4002584607-r2" x="0" y="166.4" textLength="195.2" clip-path="url(#terminal-4002584607-line-6)">tech/redirects-t</text><text class="terminal-4002584607-r1" x="1378.6" y="166.4" textLength="12.2" clip-path="url(#terminal-4002584607-line-6)">
</text><text class="terminal-4002584607-r2" x="0" y="190.8" textLength="12.2" clip-path="url(#terminal-4002584607-line-7)">o</text><text class="terminal-4002584607-r1" x="1378.6" y="190.8" textLength="12.2" clip-path="url(#terminal-4002584607-line-7)">
</text><text class="terminal-4002584607-r2" x="0" y="215.2" textLength="195.2" clip-path="url(#terminal-4002584607-line-8)">https://iolanta.</text><text class="terminal-4002584607-r7" x="207.4" y="215.2" textLength="317.2" clip-path="url(#terminal-4002584607-line-8)">2025-12-10T23:14:01.914894</text><text class="terminal-4002584607-r1" x="1378.6" y="215.2" textLength="12.2" clip-path="url(#terminal-4002584607-line-8)">
</text><text class="terminal-4002584607-r2" x="0" y="239.6" textLength="195.2" clip-path="url(#terminal-4002584607-line-9)">tech/last-loaded</text><text class="terminal-4002584607-r1" x="1378.6" y="239.6" textLength="12.2" clip-path="url(#terminal-4002584607-line-9)">
</text><text class="terminal-4002584607-r2" x="0" y="264" textLength="61" clip-path="url(#terminal-4002584607-line-10)">-time</text><text class="terminal-4002584607-r1" x="1378.6" y="264" textLength="12.2" clip-path="url(#terminal-4002584607-line-10)">
</text><text class="terminal-4002584607-r2" x="0" y="288.4" textLength="195.2" clip-path="url(#terminal-4002584607-line-11)">https://iolanta.</text><text class="terminal-4002584607-r2" x="207.4" y="288.4" textLength="524.6" clip-path="url(#terminal-4002584607-line-11)">http://www.wikidata.org/entity/Q204606#_:b0</text><text class="terminal-4002584607-r1" x="1378.6" y="288.4" textLength="12.2" clip-path="url(#terminal-4002584607-line-11)">
</text><text class="terminal-4002584607-r2" x="0" y="312.8" textLength="195.2" clip-path="url(#terminal-4002584607-line-12)">tech/has-sub-gra</text><text class="terminal-4002584607-r1" x="1378.6" y="312.8" textLength="12.2" clip-path="url(#terminal-4002584607-line-12)">
</text><text class="terminal-4002584607-r2" x="0" y="337.2" textLength="24.4" clip-path="url(#terminal-4002584607-line-13)">ph</text><text class="terminal-4002584607-r1" x="1378.6" y="337.2" textLength="12.2" clip-path="url(#terminal-4002584607-line-13)">
</text><text class="terminal-4002584607-r2" x="0" y="361.6" textLength="48.8" clip-path="url(#terminal-4002584607-line-14)">type</text><text class="terminal-4002584607-r2" x="207.4" y="361.6" textLength="48.8" clip-path="url(#terminal-4002584607-line-14)">Item</text><text class="terminal-4002584607-r1" x="1378.6" y="361.6" textLength="12.2" clip-path="url(#terminal-4002584607-line-14)">
</text><text class="terminal-4002584607-r1" x="1378.6" y="386" textLength="12.2" clip-path="url(#terminal-4002584607-line-15)">
</text><text class="terminal-4002584607-r2" x="0" y="410.4" textLength="158.6" clip-path="url(#terminal-4002584607-line-16)">field&#160;of&#160;work</text><text class="terminal-4002584607-r2" x="207.4" y="410.4" textLength="158.6" clip-path="url(#terminal-4002584607-line-16)">cybersecurity</text><text class="terminal-4002584607-r1" x="1378.6" y="410.4" textLength="12.2" clip-path="url(#terminal-4002584607-line-16)">
</text><text class="terminal-4002584607-r1" x="1378.6" y="434.8" textLength="12.2" clip-path="url(#terminal-4002584607-line-17)">
</text><text class="terminal-4002584607-r2" x="0" y="459.2" textLength="73.2" clip-path="url(#terminal-4002584607-line-18)">Art&#160;&amp;&#160;</text><text class="terminal-4002584607-r2" x="207.4" y="459.2" textLength="109.8" clip-path="url(#terminal-4002584607-line-18)">300250421</text><text class="terminal-4002584607-r1" x="1378.6" y="459.2" textLength="12.2" clip-path="url(#terminal-4002584607-line-18)">
</text><text class="terminal-4002584607-r2" x="0" y="483.6" textLength="158.6" clip-path="url(#terminal-4002584607-line-19)">Architecture&#160;</text><text class="terminal-4002584607-r1" x="1378.6" y="483.6" textLength="12.2" clip-path="url(#terminal-4002584607-line-19)">
</text><text class="terminal-4002584607-r2" x="0" y="508" textLength="146.4" clip-path="url(#terminal-4002584607-line-20)">Thesaurus&#160;ID</text><text class="terminal-4002584607-r1" x="1378.6" y="508" textLength="12.2" clip-path="url(#terminal-4002584607-line-20)">
</text><text class="terminal-4002584607-r2" x="0" y="532.4" textLength="134.2" clip-path="url(#terminal-4002584607-line-21)">OpenAlex&#160;ID</text><text class="terminal-4002584607-r2" x="207.4" y="532.4" textLength="134.2" clip-path="url(#terminal-4002584607-line-21)">C2909575446</text><text class="terminal-4002584607-r2" x="780.8" y="532.4" textLength="134.2" clip-path="url(#terminal-4002584607-line-21)">C2781241145</text><text class="terminal-4002584607-r1" x="1378.6" y="532.4" textLength="12.2" clip-path="url(#terminal-4002584607-line-21)">
</text><text class="terminal-4002584607-r1" x="1378.6" y="556.8" textLength="12.2" clip-path="url(#terminal-4002584607-line-22)">
</text><text class="terminal-4002584607-r2" x="0" y="581.2" textLength="170.8" clip-path="url(#terminal-4002584607-line-23)">Dewey&#160;Decimal&#160;</text><text class="terminal-4002584607-r2" x="207.4" y="581.2" textLength="61" clip-path="url(#terminal-4002584607-line-23)">006.8</text><text class="terminal-4002584607-r2" x="780.8" y="581.2" textLength="85.4" clip-path="url(#terminal-4002584607-line-23)">004.678</text><text class="terminal-4002584607-r1" x="1378.6" y="581.2" textLength="12.2" clip-path="url(#terminal-4002584607-line-23)">
</text><text class="terminal-4002584607-r2" x="0" y="605.6" textLength="170.8" clip-path="url(#terminal-4002584607-line-24)">Classification</text><text class="terminal-4002584607-r1" x="1378.6" y="605.6" textLength="12.2" clip-path="url(#terminal-4002584607-line-24)">
</text><text class="terminal-4002584607-r2" x="0" y="630" textLength="195.2" clip-path="url(#terminal-4002584607-line-25)">Encyclopedia&#160;of&#160;</text><text class="terminal-4002584607-r7" x="207.4" y="630" textLength="1061.4" clip-path="url(#terminal-4002584607-line-25)">⏳&#160;http://www.wikidata.org/entity/statement/Q204606-4DBB5E53-1C52-4448-912E-A850C7649DF7</text><text class="terminal-4002584607-r1" x="1378.6" y="630" textLength="12.2" clip-path="url(#terminal-4002584607-line-25)">
</text><text class="terminal-4002584607-r2" x="0" y="654.4" textLength="97.6" clip-path="url(#terminal-4002584607-line-26)">Ideas&#160;ID</text><text class="terminal-4002584607-r1" x="1378.6" y="654.4" textLength="12.2" clip-path="url(#terminal-4002584607-line-26)">
</text><text class="terminal-4002584607-r7" x="0" y="678.8" textLength="24.4" clip-path="url(#terminal-4002584607-line-27)">⏳&#160;</text><text class="terminal-4002584607-r7" x="207.4" y="678.8" textLength="1061.4" clip-path="url(#terminal-4002584607-line-27)">⏳&#160;http://www.wikidata.org/entity/statement/Q204606-492bf6b3-4aa3-7538-3012-1b34cd1ce8dd</text><text class="terminal-4002584607-r1" x="1378.6" y="678.8" textLength="12.2" clip-path="url(#terminal-4002584607-line-27)">
</text><text class="terminal-4002584607-r7" x="0" y="703.2" textLength="195.2" clip-path="url(#terminal-4002584607-line-28)">http://www.wikid</text><text class="terminal-4002584607-r1" x="1378.6" y="703.2" textLength="12.2" clip-path="url(#terminal-4002584607-line-28)">
</text><text class="terminal-4002584607-r7" x="0" y="727.6" textLength="195.2" clip-path="url(#terminal-4002584607-line-29)">ata.org/prop/P12</text><text class="terminal-4002584607-r1" x="1378.6" y="727.6" textLength="12.2" clip-path="url(#terminal-4002584607-line-29)">
</text><text class="terminal-4002584607-r7" x="0" y="752" textLength="24.4" clip-path="url(#terminal-4002584607-line-30)">25</text><text class="terminal-4002584607-r1" x="1378.6" y="752" textLength="12.2" clip-path="url(#terminal-4002584607-line-30)">
</text><text class="terminal-4002584607-r7" x="0" y="776.4" textLength="24.4" clip-path="url(#terminal-4002584607-line-31)">⏳&#160;</text><text class="terminal-4002584607-r7" x="207.4" y="776.4" textLength="1061.4" clip-path="url(#terminal-4002584607-line-31)">⏳&#160;http://www.wikidata.org/entity/statement/Q204606-5d1c0159-5d9a-46db-bdf7-45a3f20cd9d8</text><text class="terminal-4002584607-r1" x="1378.6" y="776.4" textLength="12.2" clip-path="url(#terminal-4002584607-line-31)">
</text><text class="terminal-4002584607-r7" x="0" y="800.8" textLength="195.2" clip-path="url(#terminal-4002584607-line-32)">http://www.wikid</text><text class="terminal-4002584607-r1" x="1378.6" y="800.8" textLength="12.2" clip-path="url(#terminal-4002584607-line-32)">
</text><text class="terminal-4002584607-r8" x="0" y="825.2" textLength="36.6" clip-path="url(#terminal-4002584607-line-33)">&#160;1&#160;</text><text class="terminal-4002584607-r2" x="36.6" y="825.2" textLength="231.8" clip-path="url(#terminal-4002584607-line-33)">Inverse&#160;Properties&#160;</text><text class="terminal-4002584607-r8" x="268.4" y="825.2" textLength="48.8" clip-path="url(#terminal-4002584607-line-33)">&#160;f5&#160;</text><text class="terminal-4002584607-r2" x="317.2" y="825.2" textLength="109.8" clip-path="url(#terminal-4002584607-line-33)">🔄&#160;Reload&#160;</text><text class="terminal-4002584607-r8" x="439.2" y="825.2" textLength="61" clip-path="url(#terminal-4002584607-line-33)">&#160;f12&#160;</text><text class="terminal-4002584607-r2" x="500.2" y="825.2" textLength="97.6" clip-path="url(#terminal-4002584607-line-33)">Console&#160;</text><text class="terminal-4002584607-r8" x="597.8" y="825.2" textLength="36.6" clip-path="url(#terminal-4002584607-line-33)">&#160;t&#160;</text><text class="terminal-4002584607-r2" x="634.4" y="825.2" textLength="207.4" clip-path="url(#terminal-4002584607-line-33)">Toggle&#160;Dark&#160;Mode&#160;</text><text class="terminal-4002584607-r8" x="841.8" y="825.2" textLength="36.6" clip-path="url(#terminal-4002584607-line-33)">&#160;q&#160;</text><text class="terminal-4002584607-r2" x="878.4" y="825.2" textLength="61" clip-path="url(#terminal-4002584607-line-33)">Quit&#160;</text><text class="terminal-4002584607-r9" x="1232.2" y="825.2" textLength="12.2" clip-path="url(#terminal-4002584607-line-33)">▏</text><text class="terminal-4002584607-r8" x="1244.4" y="825.2" textLength="24.4" clip-path="url(#terminal-4002584607-line-33)">^p</text><text class="terminal-4002584607-r2" x="1268.8" y="825.2" textLength="97.6" clip-path="url(#terminal-4002584607-line-33)">&#160;palette</text>
    </g>
    </g>
</svg>
