<svg class="rich-terminal" viewBox="0 0 1397 879.5999999999999" xmlns="http://www.w3.org/2000/svg">
    <!-- Generated with Rich https://www.textualize.io -->
    <style>

    @font-face {
        font-family: "Fira Code";
        src: local("FiraCode-Regular"),
                url("https://cdnjs.cloudflare.com/ajax/libs/firacode/6.2.0/woff2/FiraCode-Regular.woff2") format("woff2"),
                url("https://cdnjs.cloudflare.com/ajax/libs/firacode/6.2.0/woff/FiraCode-Regular.woff") format("woff");
        font-style: normal;
        font-weight: 400;
    }
    @font-face {
        font-family: "Fira Code";
        src: local("FiraCode-Bold"),
                url("https://cdnjs.cloudflare.com/ajax/libs/firacode/6.2.0/woff2/FiraCode-Bold.woff2") format("woff2"),
                url("https://cdnjs.cloudflare.com/ajax/libs/firacode/6.2.0/woff/FiraCode-Bold.woff") format("woff");
        font-style: bold;
        font-weight: 700;
    }

    .terminal-2068471928-matrix {
        font-family: Fira Code, monospace;
        font-size: 20px;
        line-height: 24.4px;
        font-variant-east-asian: full-width;
    }

    .terminal-2068471928-title {
        font-size: 18px;
        font-weight: bold;
        font-family: arial;
    }

    .terminal-2068471928-r1 { fill: #c5c8c6 }
.terminal-2068471928-r2 { fill: #e0e0e0 }
.terminal-2068471928-r3 { fill: #989898 }
.terminal-2068471928-r4 { fill: #ffffff;font-weight: bold }
.terminal-2068471928-r5 { fill: #b0b0b0;font-weight: bold }
.terminal-2068471928-r6 { fill: #515151 }
    </style>

    <defs>
    <clipPath id="terminal-2068471928-clip-terminal">
      <rect x="0" y="0" width="1377.6" height="828.5999999999999" />
    </clipPath>
    <clipPath id="terminal-2068471928-line-0">
    <rect x="0" y="1.5" width="1378.6" height="24.65"/>
            </clipPath>
<clipPath id="terminal-2068471928-line-1">
    <rect x="0" y="25.9" width="1378.6" height="24.65"/>
            </clipPath>
<clipPath id="terminal-2068471928-line-2">
    <rect x="0" y="50.3" width="1378.6" height="24.65"/>
            </clipPath>
<clipPath id="terminal-2068471928-line-3">
    <rect x="0" y="74.7" width="1378.6" height="24.65"/>
            </clipPath>
<clipPath id="terminal-2068471928-line-4">
    <rect x="0" y="99.1" width="1378.6" height="24.65"/>
            </clipPath>
<clipPath id="terminal-2068471928-line-5">
    <rect x="0" y="123.5" width="1378.6" height="24.65"/>
            </clipPath>
<clipPath id="terminal-2068471928-line-6">
    <rect x="0" y="147.9" width="1378.6" height="24.65"/>
            </clipPath>
<clipPath id="terminal-2068471928-line-7">
    <rect x="0" y="172.3" width="1378.6" height="24.65"/>
            </clipPath>
<clipPath id="terminal-2068471928-line-8">
    <rect x="0" y="196.7" width="1378.6" height="24.65"/>
            </clipPath>
<clipPath id="terminal-2068471928-line-9">
    <rect x="0" y="221.1" width="1378.6" height="24.65"/>
            </clipPath>
<clipPath id="terminal-2068471928-line-10">
    <rect x="0" y="245.5" width="1378.6" height="24.65"/>
            </clipPath>
<clipPath id="terminal-2068471928-line-11">
    <rect x="0" y="269.9" width="1378.6" height="24.65"/>
            </clipPath>
<clipPath id="terminal-2068471928-line-12">
    <rect x="0" y="294.3" width="1378.6" height="24.65"/>
            </clipPath>
<clipPath id="terminal-2068471928-line-13">
    <rect x="0" y="318.7" width="1378.6" height="24.65"/>
            </clipPath>
<clipPath id="terminal-2068471928-line-14">
    <rect x="0" y="343.1" width="1378.6" height="24.65"/>
            </clipPath>
<clipPath id="terminal-2068471928-line-15">
    <rect x="0" y="367.5" width="1378.6" height="24.65"/>
            </clipPath>
<clipPath id="terminal-2068471928-line-16">
    <rect x="0" y="391.9" width="1378.6" height="24.65"/>
            </clipPath>
<clipPath id="terminal-2068471928-line-17">
    <rect x="0" y="416.3" width="1378.6" height="24.65"/>
            </clipPath>
<clipPath id="terminal-2068471928-line-18">
    <rect x="0" y="440.7" width="1378.6" height="24.65"/>
            </clipPath>
<clipPath id="terminal-2068471928-line-19">
    <rect x="0" y="465.1" width="1378.6" height="24.65"/>
            </clipPath>
<clipPath id="terminal-2068471928-line-20">
    <rect x="0" y="489.5" width="1378.6" height="24.65"/>
            </clipPath>
<clipPath id="terminal-2068471928-line-21">
    <rect x="0" y="513.9" width="1378.6" height="24.65"/>
            </clipPath>
<clipPath id="terminal-2068471928-line-22">
    <rect x="0" y="538.3" width="1378.6" height="24.65"/>
            </clipPath>
<clipPath id="terminal-2068471928-line-23">
    <rect x="0" y="562.7" width="1378.6" height="24.65"/>
            </clipPath>
<clipPath id="terminal-2068471928-line-24">
    <rect x="0" y="587.1" width="1378.6" height="24.65"/>
            </clipPath>
<clipPath id="terminal-2068471928-line-25">
    <rect x="0" y="611.5" width="1378.6" height="24.65"/>
            </clipPath>
<clipPath id="terminal-2068471928-line-26">
    <rect x="0" y="635.9" width="1378.6" height="24.65"/>
            </clipPath>
<clipPath id="terminal-2068471928-line-27">
    <rect x="0" y="660.3" width="1378.6" height="24.65"/>
            </clipPath>
<clipPath id="terminal-2068471928-line-28">
    <rect x="0" y="684.7" width="1378.6" height="24.65"/>
            </clipPath>
<clipPath id="terminal-2068471928-line-29">
    <rect x="0" y="709.1" width="1378.6" height="24.65"/>
            </clipPath>
<clipPath id="terminal-2068471928-line-30">
    <rect x="0" y="733.5" width="1378.6" height="24.65"/>
            </clipPath>
<clipPath id="terminal-2068471928-line-31">
    <rect x="0" y="757.9" width="1378.6" height="24.65"/>
            </clipPath>
<clipPath id="terminal-2068471928-line-32">
    <rect x="0" y="782.3" width="1378.6" height="24.65"/>
            </clipPath>
    </defs>

    <rect fill="#292929" stroke="rgba(255,255,255,0.35)" stroke-width="1" x="1" y="1" width="1395" height="877.6" rx="8"/><text class="terminal-2068471928-title" fill="#c5c8c6" text-anchor="middle" x="697" y="27">Iolanta</text>
            <g transform="translate(26,22)">
            <circle cx="0" cy="0" r="7" fill="#ff5f57"/>
            <circle cx="22" cy="0" r="7" fill="#febc2e"/>
            <circle cx="44" cy="0" r="7" fill="#28c840"/>
            </g>
        
    <g transform="translate(9, 41)" clip-path="url(#terminal-2068471928-clip-terminal)">
    <rect fill="#2d2d2d" x="0" y="1.5" width="12.2" height="24.65" shape-rendering="crispEdges"/><rect fill="#2d2d2d" x="12.2" y="1.5" width="12.2" height="24.65" shape-rendering="crispEdges"/><rect fill="#2d2d2d" x="24.4" y="1.5" width="61" height="24.65" shape-rendering="crispEdges"/><rect fill="#2d2d2d" x="85.4" y="1.5" width="12.2" height="24.65" shape-rendering="crispEdges"/><rect fill="#2d2d2d" x="97.6" y="1.5" width="256.2" height="24.65" shape-rendering="crispEdges"/><rect fill="#2d2d2d" x="353.8" y="1.5" width="122" height="24.65" shape-rendering="crispEdges"/><rect fill="#2d2d2d" x="475.8" y="1.5" width="512.4" height="24.65" shape-rendering="crispEdges"/><rect fill="#2d2d2d" x="988.2" y="1.5" width="268.4" height="24.65" shape-rendering="crispEdges"/><rect fill="#2d2d2d" x="1256.6" y="1.5" width="12.2" height="24.65" shape-rendering="crispEdges"/><rect fill="#2d2d2d" x="1268.8" y="1.5" width="0" height="24.65" shape-rendering="crispEdges"/><rect fill="#2d2d2d" x="1268.8" y="1.5" width="97.6" height="24.65" shape-rendering="crispEdges"/><rect fill="#2d2d2d" x="1366.4" y="1.5" width="12.2" height="24.65" shape-rendering="crispEdges"/><rect fill="#454545" x="0" y="25.9" width="1378.6" height="24.65" shape-rendering="crispEdges"/><rect fill="#454545" x="0" y="50.3" width="12.2" height="24.65" shape-rendering="crispEdges"/><rect fill="#454545" x="12.2" y="50.3" width="134.2" height="24.65" shape-rendering="crispEdges"/><rect fill="#454545" x="146.4" y="50.3" width="1220" height="24.65" shape-rendering="crispEdges"/><rect fill="#454545" x="1366.4" y="50.3" width="12.2" height="24.65" shape-rendering="crispEdges"/><rect fill="#454545" x="0" y="74.7" width="1378.6" height="24.65" shape-rendering="crispEdges"/><rect fill="#121212" x="0" y="99.1" width="427" height="24.65" shape-rendering="crispEdges"/><rect fill="#121212" x="427" y="99.1" width="951.6" height="24.65" shape-rendering="crispEdges"/><rect fill="#121212" x="0" y="123.5" width="48.8" height="24.65" shape-rendering="crispEdges"/><rect fill="#121212" x="48.8" y="123.5" width="146.4" height="24.65" shape-rendering="crispEdges"/><rect fill="#121212" x="195.2" y="123.5" width="12.2" height="24.65" shape-rendering="crispEdges"/><rect fill="#121212" x="207.4" y="123.5" width="146.4" height="24.65" shape-rendering="crispEdges"/><rect fill="#121212" x="353.8" y="123.5" width="12.2" height="24.65" shape-rendering="crispEdges"/><rect fill="#121212" x="366" y="123.5" width="427" height="24.65" shape-rendering="crispEdges"/><rect fill="#121212" x="793" y="123.5" width="61" height="24.65" shape-rendering="crispEdges"/><rect fill="#121212" x="854" y="123.5" width="12.2" height="24.65" shape-rendering="crispEdges"/><rect fill="#121212" x="866.2" y="123.5" width="512.4" height="24.65" shape-rendering="crispEdges"/><rect fill="#121212" x="0" y="147.9" width="207.4" height="24.65" shape-rendering="crispEdges"/><rect fill="#121212" x="207.4" y="147.9" width="158.6" height="24.65" shape-rendering="crispEdges"/><rect fill="#121212" x="366" y="147.9" width="427" height="24.65" shape-rendering="crispEdges"/><rect fill="#121212" x="793" y="147.9" width="73.2" height="24.65" shape-rendering="crispEdges"/><rect fill="#121212" x="866.2" y="147.9" width="512.4" height="24.65" shape-rendering="crispEdges"/><rect fill="#121212" x="0" y="172.3" width="134.2" height="24.65" shape-rendering="crispEdges"/><rect fill="#121212" x="134.2" y="172.3" width="61" height="24.65" shape-rendering="crispEdges"/><rect fill="#121212" x="195.2" y="172.3" width="12.2" height="24.65" shape-rendering="crispEdges"/><rect fill="#121212" x="207.4" y="172.3" width="378.2" height="24.65" shape-rendering="crispEdges"/><rect fill="#121212" x="585.6" y="172.3" width="12.2" height="24.65" shape-rendering="crispEdges"/><rect fill="#121212" x="597.8" y="172.3" width="780.8" height="24.65" shape-rendering="crispEdges"/><rect fill="#121212" x="0" y="196.7" width="207.4" height="24.65" shape-rendering="crispEdges"/><rect fill="#121212" x="207.4" y="196.7" width="390.4" height="24.65" shape-rendering="crispEdges"/><rect fill="#121212" x="597.8" y="196.7" width="780.8" height="24.65" shape-rendering="crispEdges"/><rect fill="#121212" x="0" y="221.1" width="122" height="24.65" shape-rendering="crispEdges"/><rect fill="#121212" x="122" y="221.1" width="73.2" height="24.65" shape-rendering="crispEdges"/><rect fill="#121212" x="195.2" y="221.1" width="12.2" height="24.65" shape-rendering="crispEdges"/><rect fill="#121212" x="207.4" y="221.1" width="61" height="24.65" shape-rendering="crispEdges"/><rect fill="#121212" x="268.4" y="221.1" width="12.2" height="24.65" shape-rendering="crispEdges"/><rect fill="#121212" x="280.6" y="221.1" width="1098" height="24.65" shape-rendering="crispEdges"/><rect fill="#121212" x="0" y="245.5" width="207.4" height="24.65" shape-rendering="crispEdges"/><rect fill="#121212" x="207.4" y="245.5" width="73.2" height="24.65" shape-rendering="crispEdges"/><rect fill="#121212" x="280.6" y="245.5" width="1098" height="24.65" shape-rendering="crispEdges"/><rect fill="#121212" x="0" y="269.9" width="1378.6" height="24.65" shape-rendering="crispEdges"/><rect fill="#121212" x="0" y="294.3" width="1378.6" height="24.65" shape-rendering="crispEdges"/><rect fill="#121212" x="0" y="318.7" width="1378.6" height="24.65" shape-rendering="crispEdges"/><rect fill="#121212" x="0" y="343.1" width="1378.6" height="24.65" shape-rendering="crispEdges"/><rect fill="#121212" x="0" y="367.5" width="1378.6" height="24.65" shape-rendering="crispEdges"/><rect fill="#121212" x="0" y="391.9" width="1378.6" height="24.65" shape-rendering="crispEdges"/><rect fill="#121212" x="0" y="416.3" width="1378.6" height="24.65" shape-rendering="crispEdges"/><rect fill="#121212" x="0" y="440.7" width="1378.6" height="24.65" shape-rendering="crispEdges"/><rect fill="#121212" x="0" y="465.1" width="1378.6" height="24.65" shape-rendering="crispEdges"/><rect fill="#121212" x="0" y="489.5" width="1378.6" height="24.65" shape-rendering="crispEdges"/><rect fill="#121212" x="0" y="513.9" width="1378.6" height="24.65" shape-rendering="crispEdges"/><rect fill="#121212" x="0" y="538.3" width="1378.6" height="24.65" shape-rendering="crispEdges"/><rect fill="#121212" x="0" y="562.7" width="1378.6" height="24.65" shape-rendering="crispEdges"/><rect fill="#121212" x="0" y="587.1" width="1378.6" height="24.65" shape-rendering="crispEdges"/><rect fill="#121212" x="0" y="611.5" width="1378.6" height="24.65" shape-rendering="crispEdges"/><rect fill="#121212" x="0" y="635.9" width="1378.6" height="24.65" shape-rendering="crispEdges"/><rect fill="#121212" x="0" y="660.3" width="1378.6" height="24.65" shape-rendering="crispEdges"/><rect fill="#121212" x="0" y="684.7" width="1378.6" height="24.65" shape-rendering="crispEdges"/><rect fill="#121212" x="0" y="709.1" width="1378.6" height="24.65" shape-rendering="crispEdges"/><rect fill="#121212" x="0" y="733.5" width="1378.6" height="24.65" shape-rendering="crispEdges"/><rect fill="#121212" x="0" y="757.9" width="1378.6" height="24.65" shape-rendering="crispEdges"/><rect fill="#121212" x="0" y="782.3" width="1378.6" height="24.65" shape-rendering="crispEdges"/><rect fill="#2d2d2d" x="0" y="806.7" width="36.6" height="24.65" shape-rendering="crispEdges"/><rect fill="#2d2d2d" x="36.6" y="806.7" width="122" height="24.65" shape-rendering="crispEdges"/><rect fill="#2d2d2d" x="158.6" y="806.7" width="36.6" height="24.65" shape-rendering="crispEdges"/><rect fill="#2d2d2d" x="195.2" y="806.7" width="231.8" height="24.65" shape-rendering="crispEdges"/><rect fill="#2d2d2d" x="427" y="806.7" width="48.8" height="24.65" shape-rendering="crispEdges"/><rect fill="#2d2d2d" x="475.8" y="806.7" width="122" height="24.65" shape-rendering="crispEdges"/><rect fill="#2d2d2d" x="597.8" y="806.7" width="61" height="24.65" shape-rendering="crispEdges"/><rect fill="#2d2d2d" x="658.8" y="806.7" width="97.6" height="24.65" shape-rendering="crispEdges"/><rect fill="#2d2d2d" x="756.4" y="806.7" width="36.6" height="24.65" shape-rendering="crispEdges"/><rect fill="#2d2d2d" x="793" y="806.7" width="207.4" height="24.65" shape-rendering="crispEdges"/><rect fill="#2d2d2d" x="1000.4" y="806.7" width="36.6" height="24.65" shape-rendering="crispEdges"/><rect fill="#2d2d2d" x="1037" y="806.7" width="61" height="24.65" shape-rendering="crispEdges"/><rect fill="#2d2d2d" x="1098" y="806.7" width="134.2" height="24.65" shape-rendering="crispEdges"/><rect fill="#2d2d2d" x="1232.2" y="806.7" width="12.2" height="24.65" shape-rendering="crispEdges"/><rect fill="#2d2d2d" x="1244.4" y="806.7" width="24.4" height="24.65" shape-rendering="crispEdges"/><rect fill="#2d2d2d" x="1268.8" y="806.7" width="97.6" height="24.65" shape-rendering="crispEdges"/><rect fill="#2d2d2d" x="1366.4" y="806.7" width="12.2" height="24.65" shape-rendering="crispEdges"/>
    <g class="terminal-2068471928-matrix">
    <text class="terminal-2068471928-r2" x="12.2" y="20" textLength="24.4" clip-path="url(#terminal-2068471928-line-0)">👁️</text><text class="terminal-2068471928-r2" x="353.8" y="20" textLength="122" clip-path="url(#terminal-2068471928-line-0)">Iolanta&#160;—&#160;</text><text class="terminal-2068471928-r3" x="475.8" y="20" textLength="512.4" clip-path="url(#terminal-2068471928-line-0)">https://www.w3.org/2002/07/owl#Restriction</text><text class="terminal-2068471928-r1" x="1378.6" y="20" textLength="12.2" clip-path="url(#terminal-2068471928-line-0)">
</text><text class="terminal-2068471928-r1" x="1378.6" y="44.4" textLength="12.2" clip-path="url(#terminal-2068471928-line-1)">
</text><text class="terminal-2068471928-r4" x="12.2" y="68.8" textLength="134.2" clip-path="url(#terminal-2068471928-line-2)">Restriction</text><text class="terminal-2068471928-r1" x="1378.6" y="68.8" textLength="12.2" clip-path="url(#terminal-2068471928-line-2)">
</text><text class="terminal-2068471928-r1" x="1378.6" y="93.2" textLength="12.2" clip-path="url(#terminal-2068471928-line-3)">
</text><text class="terminal-2068471928-r2" x="0" y="117.6" textLength="427" clip-path="url(#terminal-2068471928-line-4)">The&#160;class&#160;of&#160;property&#160;restrictions.</text><text class="terminal-2068471928-r1" x="1378.6" y="117.6" textLength="12.2" clip-path="url(#terminal-2068471928-line-4)">
</text><text class="terminal-2068471928-r2" x="0" y="142" textLength="48.8" clip-path="url(#terminal-2068471928-line-5)">type</text><text class="terminal-2068471928-r2" x="207.4" y="142" textLength="146.4" clip-path="url(#terminal-2068471928-line-5)">Restrictions</text><text class="terminal-2068471928-r2" x="793" y="142" textLength="61" clip-path="url(#terminal-2068471928-line-5)">Class</text><text class="terminal-2068471928-r1" x="1378.6" y="142" textLength="12.2" clip-path="url(#terminal-2068471928-line-5)">
</text><text class="terminal-2068471928-r1" x="1378.6" y="166.4" textLength="12.2" clip-path="url(#terminal-2068471928-line-6)">
</text><text class="terminal-2068471928-r2" x="0" y="190.8" textLength="134.2" clip-path="url(#terminal-2068471928-line-7)">isDefinedBy</text><text class="terminal-2068471928-r2" x="207.4" y="190.8" textLength="378.2" clip-path="url(#terminal-2068471928-line-7)">https://www.w3.org/2002/07/owl#</text><text class="terminal-2068471928-r1" x="1378.6" y="190.8" textLength="12.2" clip-path="url(#terminal-2068471928-line-7)">
</text><text class="terminal-2068471928-r1" x="1378.6" y="215.2" textLength="12.2" clip-path="url(#terminal-2068471928-line-8)">
</text><text class="terminal-2068471928-r2" x="0" y="239.6" textLength="122" clip-path="url(#terminal-2068471928-line-9)">subClassOf</text><text class="terminal-2068471928-r2" x="207.4" y="239.6" textLength="61" clip-path="url(#terminal-2068471928-line-9)">Class</text><text class="terminal-2068471928-r1" x="1378.6" y="239.6" textLength="12.2" clip-path="url(#terminal-2068471928-line-9)">
</text><text class="terminal-2068471928-r1" x="1378.6" y="264" textLength="12.2" clip-path="url(#terminal-2068471928-line-10)">
</text><text class="terminal-2068471928-r1" x="1378.6" y="288.4" textLength="12.2" clip-path="url(#terminal-2068471928-line-11)">
</text><text class="terminal-2068471928-r1" x="1378.6" y="312.8" textLength="12.2" clip-path="url(#terminal-2068471928-line-12)">
</text><text class="terminal-2068471928-r1" x="1378.6" y="337.2" textLength="12.2" clip-path="url(#terminal-2068471928-line-13)">
</text><text class="terminal-2068471928-r1" x="1378.6" y="361.6" textLength="12.2" clip-path="url(#terminal-2068471928-line-14)">
</text><text class="terminal-2068471928-r1" x="1378.6" y="386" textLength="12.2" clip-path="url(#terminal-2068471928-line-15)">
</text><text class="terminal-2068471928-r1" x="1378.6" y="410.4" textLength="12.2" clip-path="url(#terminal-2068471928-line-16)">
</text><text class="terminal-2068471928-r1" x="1378.6" y="434.8" textLength="12.2" clip-path="url(#terminal-2068471928-line-17)">
</text><text class="terminal-2068471928-r1" x="1378.6" y="459.2" textLength="12.2" clip-path="url(#terminal-2068471928-line-18)">
</text><text class="terminal-2068471928-r1" x="1378.6" y="483.6" textLength="12.2" clip-path="url(#terminal-2068471928-line-19)">
</text><text class="terminal-2068471928-r1" x="1378.6" y="508" textLength="12.2" clip-path="url(#terminal-2068471928-line-20)">
</text><text class="terminal-2068471928-r1" x="1378.6" y="532.4" textLength="12.2" clip-path="url(#terminal-2068471928-line-21)">
</text><text class="terminal-2068471928-r1" x="1378.6" y="556.8" textLength="12.2" clip-path="url(#terminal-2068471928-line-22)">
</text><text class="terminal-2068471928-r1" x="1378.6" y="581.2" textLength="12.2" clip-path="url(#terminal-2068471928-line-23)">
</text><text class="terminal-2068471928-r1" x="1378.6" y="605.6" textLength="12.2" clip-path="url(#terminal-2068471928-line-24)">
</text><text class="terminal-2068471928-r1" x="1378.6" y="630" textLength="12.2" clip-path="url(#terminal-2068471928-line-25)">
</text><text class="terminal-2068471928-r1" x="1378.6" y="654.4" textLength="12.2" clip-path="url(#terminal-2068471928-line-26)">
</text><text class="terminal-2068471928-r1" x="1378.6" y="678.8" textLength="12.2" clip-path="url(#terminal-2068471928-line-27)">
</text><text class="terminal-2068471928-r1" x="1378.6" y="703.2" textLength="12.2" clip-path="url(#terminal-2068471928-line-28)">
</text><text class="terminal-2068471928-r1" x="1378.6" y="727.6" textLength="12.2" clip-path="url(#terminal-2068471928-line-29)">
</text><text class="terminal-2068471928-r1" x="1378.6" y="752" textLength="12.2" clip-path="url(#terminal-2068471928-line-30)">
</text><text class="terminal-2068471928-r1" x="1378.6" y="776.4" textLength="12.2" clip-path="url(#terminal-2068471928-line-31)">
</text><text class="terminal-2068471928-r1" x="1378.6" y="800.8" textLength="12.2" clip-path="url(#terminal-2068471928-line-32)">
</text><text class="terminal-2068471928-r5" x="0" y="825.2" textLength="36.6" clip-path="url(#terminal-2068471928-line-33)">&#160;1&#160;</text><text class="terminal-2068471928-r2" x="36.6" y="825.2" textLength="122" clip-path="url(#terminal-2068471928-line-33)">Instances&#160;</text><text class="terminal-2068471928-r5" x="158.6" y="825.2" textLength="36.6" clip-path="url(#terminal-2068471928-line-33)">&#160;3&#160;</text><text class="terminal-2068471928-r2" x="195.2" y="825.2" textLength="231.8" clip-path="url(#terminal-2068471928-line-33)">Inverse&#160;Properties&#160;</text><text class="terminal-2068471928-r5" x="427" y="825.2" textLength="48.8" clip-path="url(#terminal-2068471928-line-33)">&#160;f5&#160;</text><text class="terminal-2068471928-r2" x="475.8" y="825.2" textLength="109.8" clip-path="url(#terminal-2068471928-line-33)">🔄&#160;Reload&#160;</text><text class="terminal-2068471928-r5" x="597.8" y="825.2" textLength="61" clip-path="url(#terminal-2068471928-line-33)">&#160;f12&#160;</text><text class="terminal-2068471928-r2" x="658.8" y="825.2" textLength="97.6" clip-path="url(#terminal-2068471928-line-33)">Console&#160;</text><text class="terminal-2068471928-r5" x="756.4" y="825.2" textLength="36.6" clip-path="url(#terminal-2068471928-line-33)">&#160;t&#160;</text><text class="terminal-2068471928-r2" x="793" y="825.2" textLength="207.4" clip-path="url(#terminal-2068471928-line-33)">Toggle&#160;Dark&#160;Mode&#160;</text><text class="terminal-2068471928-r5" x="1000.4" y="825.2" textLength="36.6" clip-path="url(#terminal-2068471928-line-33)">&#160;q&#160;</text><text class="terminal-2068471928-r2" x="1037" y="825.2" textLength="61" clip-path="url(#terminal-2068471928-line-33)">Quit&#160;</text><text class="terminal-2068471928-r6" x="1232.2" y="825.2" textLength="12.2" clip-path="url(#terminal-2068471928-line-33)">▏</text><text class="terminal-2068471928-r5" x="1244.4" y="825.2" textLength="24.4" clip-path="url(#terminal-2068471928-line-33)">^p</text><text class="terminal-2068471928-r2" x="1268.8" y="825.2" textLength="97.6" clip-path="url(#terminal-2068471928-line-33)">&#160;palette</text>
    </g>
    </g>
</svg>
