<svg class="rich-terminal" viewBox="0 0 1397 879.5999999999999" xmlns="http://www.w3.org/2000/svg">
    <!-- Generated with Rich https://www.textualize.io -->
    <style>

    @font-face {
        font-family: "Fira Code";
        src: local("FiraCode-Regular"),
                url("https://cdnjs.cloudflare.com/ajax/libs/firacode/6.2.0/woff2/FiraCode-Regular.woff2") format("woff2"),
                url("https://cdnjs.cloudflare.com/ajax/libs/firacode/6.2.0/woff/FiraCode-Regular.woff") format("woff");
        font-style: normal;
        font-weight: 400;
    }
    @font-face {
        font-family: "Fira Code";
        src: local("FiraCode-Bold"),
                url("https://cdnjs.cloudflare.com/ajax/libs/firacode/6.2.0/woff2/FiraCode-Bold.woff2") format("woff2"),
                url("https://cdnjs.cloudflare.com/ajax/libs/firacode/6.2.0/woff/FiraCode-Bold.woff") format("woff");
        font-style: bold;
        font-weight: 700;
    }

    .terminal-126001133-matrix {
        font-family: Fira Code, monospace;
        font-size: 20px;
        line-height: 24.4px;
        font-variant-east-asian: full-width;
    }

    .terminal-126001133-title {
        font-size: 18px;
        font-weight: bold;
        font-family: arial;
    }

    .terminal-126001133-r1 { fill: #c5c8c6 }
.terminal-126001133-r2 { fill: #e0e0e0 }
.terminal-126001133-r3 { fill: #94999c }
.terminal-126001133-r4 { fill: #121212 }
.terminal-126001133-r5 { fill: #ffffff;font-weight: bold }
.terminal-126001133-r6 { fill: #000000 }
.terminal-126001133-r7 { fill: #ffa62b;font-weight: bold }
.terminal-126001133-r8 { fill: #495259 }
    </style>

    <defs>
    <clipPath id="terminal-126001133-clip-terminal">
      <rect x="0" y="0" width="1377.6" height="828.5999999999999" />
    </clipPath>
    <clipPath id="terminal-126001133-line-0">
    <rect x="0" y="1.5" width="1378.6" height="24.65"/>
            </clipPath>
<clipPath id="terminal-126001133-line-1">
    <rect x="0" y="25.9" width="1378.6" height="24.65"/>
            </clipPath>
<clipPath id="terminal-126001133-line-2">
    <rect x="0" y="50.3" width="1378.6" height="24.65"/>
            </clipPath>
<clipPath id="terminal-126001133-line-3">
    <rect x="0" y="74.7" width="1378.6" height="24.65"/>
            </clipPath>
<clipPath id="terminal-126001133-line-4">
    <rect x="0" y="99.1" width="1378.6" height="24.65"/>
            </clipPath>
<clipPath id="terminal-126001133-line-5">
    <rect x="0" y="123.5" width="1378.6" height="24.65"/>
            </clipPath>
<clipPath id="terminal-126001133-line-6">
    <rect x="0" y="147.9" width="1378.6" height="24.65"/>
            </clipPath>
<clipPath id="terminal-126001133-line-7">
    <rect x="0" y="172.3" width="1378.6" height="24.65"/>
            </clipPath>
<clipPath id="terminal-126001133-line-8">
    <rect x="0" y="196.7" width="1378.6" height="24.65"/>
            </clipPath>
<clipPath id="terminal-126001133-line-9">
    <rect x="0" y="221.1" width="1378.6" height="24.65"/>
            </clipPath>
<clipPath id="terminal-126001133-line-10">
    <rect x="0" y="245.5" width="1378.6" height="24.65"/>
            </clipPath>
<clipPath id="terminal-126001133-line-11">
    <rect x="0" y="269.9" width="1378.6" height="24.65"/>
            </clipPath>
<clipPath id="terminal-126001133-line-12">
    <rect x="0" y="294.3" width="1378.6" height="24.65"/>
            </clipPath>
<clipPath id="terminal-126001133-line-13">
    <rect x="0" y="318.7" width="1378.6" height="24.65"/>
            </clipPath>
<clipPath id="terminal-126001133-line-14">
    <rect x="0" y="343.1" width="1378.6" height="24.65"/>
            </clipPath>
<clipPath id="terminal-126001133-line-15">
    <rect x="0" y="367.5" width="1378.6" height="24.65"/>
            </clipPath>
<clipPath id="terminal-126001133-line-16">
    <rect x="0" y="391.9" width="1378.6" height="24.65"/>
            </clipPath>
<clipPath id="terminal-126001133-line-17">
    <rect x="0" y="416.3" width="1378.6" height="24.65"/>
            </clipPath>
<clipPath id="terminal-126001133-line-18">
    <rect x="0" y="440.7" width="1378.6" height="24.65"/>
            </clipPath>
<clipPath id="terminal-126001133-line-19">
    <rect x="0" y="465.1" width="1378.6" height="24.65"/>
            </clipPath>
<clipPath id="terminal-126001133-line-20">
    <rect x="0" y="489.5" width="1378.6" height="24.65"/>
            </clipPath>
<clipPath id="terminal-126001133-line-21">
    <rect x="0" y="513.9" width="1378.6" height="24.65"/>
            </clipPath>
<clipPath id="terminal-126001133-line-22">
    <rect x="0" y="538.3" width="1378.6" height="24.65"/>
            </clipPath>
<clipPath id="terminal-126001133-line-23">
    <rect x="0" y="562.7" width="1378.6" height="24.65"/>
            </clipPath>
<clipPath id="terminal-126001133-line-24">
    <rect x="0" y="587.1" width="1378.6" height="24.65"/>
            </clipPath>
<clipPath id="terminal-126001133-line-25">
    <rect x="0" y="611.5" width="1378.6" height="24.65"/>
            </clipPath>
<clipPath id="terminal-126001133-line-26">
    <rect x="0" y="635.9" width="1378.6" height="24.65"/>
            </clipPath>
<clipPath id="terminal-126001133-line-27">
    <rect x="0" y="660.3" width="1378.6" height="24.65"/>
            </clipPath>
<clipPath id="terminal-126001133-line-28">
    <rect x="0" y="684.7" width="1378.6" height="24.65"/>
            </clipPath>
<clipPath id="terminal-126001133-line-29">
    <rect x="0" y="709.1" width="1378.6" height="24.65"/>
            </clipPath>
<clipPath id="terminal-126001133-line-30">
    <rect x="0" y="733.5" width="1378.6" height="24.65"/>
            </clipPath>
<clipPath id="terminal-126001133-line-31">
    <rect x="0" y="757.9" width="1378.6" height="24.65"/>
            </clipPath>
<clipPath id="terminal-126001133-line-32">
    <rect x="0" y="782.3" width="1378.6" height="24.65"/>
            </clipPath>
    </defs>

    <rect fill="#292929" stroke="rgba(255,255,255,0.35)" stroke-width="1" x="1" y="1" width="1395" height="877.6" rx="8"/><text class="terminal-126001133-title" fill="#c5c8c6" text-anchor="middle" x="697" y="27">Iolanta</text>
            <g transform="translate(26,22)">
            <circle cx="0" cy="0" r="7" fill="#ff5f57"/>
            <circle cx="22" cy="0" r="7" fill="#febc2e"/>
            <circle cx="44" cy="0" r="7" fill="#28c840"/>
            </g>
        
    <g transform="translate(9, 41)" clip-path="url(#terminal-126001133-clip-terminal)">
    <rect fill="#242f38" x="0" y="1.5" width="12.2" height="24.65" shape-rendering="crispEdges"/><rect fill="#242f38" x="12.2" y="1.5" width="12.2" height="24.65" shape-rendering="crispEdges"/><rect fill="#242f38" x="24.4" y="1.5" width="61" height="24.65" shape-rendering="crispEdges"/><rect fill="#242f38" x="85.4" y="1.5" width="12.2" height="24.65" shape-rendering="crispEdges"/><rect fill="#242f38" x="97.6" y="1.5" width="97.6" height="24.65" shape-rendering="crispEdges"/><rect fill="#242f38" x="195.2" y="1.5" width="122" height="24.65" shape-rendering="crispEdges"/><rect fill="#242f38" x="317.2" y="1.5" width="841.8" height="24.65" shape-rendering="crispEdges"/><rect fill="#242f38" x="1159" y="1.5" width="97.6" height="24.65" shape-rendering="crispEdges"/><rect fill="#242f38" x="1256.6" y="1.5" width="12.2" height="24.65" shape-rendering="crispEdges"/><rect fill="#242f38" x="1268.8" y="1.5" width="0" height="24.65" shape-rendering="crispEdges"/><rect fill="#242f38" x="1268.8" y="1.5" width="97.6" height="24.65" shape-rendering="crispEdges"/><rect fill="#242f38" x="1366.4" y="1.5" width="12.2" height="24.65" shape-rendering="crispEdges"/><rect fill="#483d8b" x="0" y="25.9" width="1354.2" height="24.65" shape-rendering="crispEdges"/><rect fill="#003054" x="1354.2" y="25.9" width="24.4" height="24.65" shape-rendering="crispEdges"/><rect fill="#483d8b" x="0" y="50.3" width="12.2" height="24.65" shape-rendering="crispEdges"/><rect fill="#483d8b" x="12.2" y="50.3" width="988.2" height="24.65" shape-rendering="crispEdges"/><rect fill="#483d8b" x="1000.4" y="50.3" width="341.6" height="24.65" shape-rendering="crispEdges"/><rect fill="#483d8b" x="1342" y="50.3" width="12.2" height="24.65" shape-rendering="crispEdges"/><rect fill="#003054" x="1354.2" y="50.3" width="24.4" height="24.65" shape-rendering="crispEdges"/><rect fill="#483d8b" x="0" y="74.7" width="1354.2" height="24.65" shape-rendering="crispEdges"/><rect fill="#003054" x="1354.2" y="74.7" width="24.4" height="24.65" shape-rendering="crispEdges"/><rect fill="#121212" x="0" y="99.1" width="1354.2" height="24.65" shape-rendering="crispEdges"/><rect fill="#003054" x="1354.2" y="99.1" width="24.4" height="24.65" shape-rendering="crispEdges"/><rect fill="#121212" x="0" y="123.5" width="24.4" height="24.65" shape-rendering="crispEdges"/><rect fill="#8b0000" x="24.4" y="123.5" width="573.4" height="24.65" shape-rendering="crispEdges"/><rect fill="#00008b" x="597.8" y="123.5" width="671" height="24.65" shape-rendering="crispEdges"/><rect fill="#121212" x="1268.8" y="123.5" width="61" height="24.65" shape-rendering="crispEdges"/><rect fill="#121212" x="1329.8" y="123.5" width="24.4" height="24.65" shape-rendering="crispEdges"/><rect fill="#003054" x="1354.2" y="123.5" width="24.4" height="24.65" shape-rendering="crispEdges"/><rect fill="#121212" x="0" y="147.9" width="24.4" height="24.65" shape-rendering="crispEdges"/><rect fill="#8b0000" x="24.4" y="147.9" width="24.4" height="24.65" shape-rendering="crispEdges"/><rect fill="#8b0000" x="48.8" y="147.9" width="524.6" height="24.65" shape-rendering="crispEdges"/><rect fill="#8b0000" x="573.4" y="147.9" width="24.4" height="24.65" shape-rendering="crispEdges"/><rect fill="#00008b" x="597.8" y="147.9" width="24.4" height="24.65" shape-rendering="crispEdges"/><rect fill="#00008b" x="622.2" y="147.9" width="622.2" height="24.65" shape-rendering="crispEdges"/><rect fill="#00008b" x="1244.4" y="147.9" width="24.4" height="24.65" shape-rendering="crispEdges"/><rect fill="#121212" x="1268.8" y="147.9" width="24.4" height="24.65" shape-rendering="crispEdges"/><rect fill="#121212" x="1293.2" y="147.9" width="36.6" height="24.65" shape-rendering="crispEdges"/><rect fill="#121212" x="1329.8" y="147.9" width="24.4" height="24.65" shape-rendering="crispEdges"/><rect fill="#003054" x="1354.2" y="147.9" width="24.4" height="24.65" shape-rendering="crispEdges"/><rect fill="#121212" x="0" y="172.3" width="24.4" height="24.65" shape-rendering="crispEdges"/><rect fill="#8b0000" x="24.4" y="172.3" width="573.4" height="24.65" shape-rendering="crispEdges"/><rect fill="#00008b" x="597.8" y="172.3" width="671" height="24.65" shape-rendering="crispEdges"/><rect fill="#121212" x="1268.8" y="172.3" width="61" height="24.65" shape-rendering="crispEdges"/><rect fill="#121212" x="1329.8" y="172.3" width="24.4" height="24.65" shape-rendering="crispEdges"/><rect fill="#003054" x="1354.2" y="172.3" width="24.4" height="24.65" shape-rendering="crispEdges"/><rect fill="#121212" x="0" y="196.7" width="24.4" height="24.65" shape-rendering="crispEdges"/><rect fill="#121212" x="24.4" y="196.7" width="1305.4" height="24.65" shape-rendering="crispEdges"/><rect fill="#121212" x="1329.8" y="196.7" width="24.4" height="24.65" shape-rendering="crispEdges"/><rect fill="#003054" x="1354.2" y="196.7" width="24.4" height="24.65" shape-rendering="crispEdges"/><rect fill="#121212" x="0" y="221.1" width="24.4" height="24.65" shape-rendering="crispEdges"/><rect fill="#ff8c00" x="24.4" y="221.1" width="500.2" height="24.65" shape-rendering="crispEdges"/><rect fill="#00008b" x="524.6" y="221.1" width="671" height="24.65" shape-rendering="crispEdges"/><rect fill="#121212" x="1195.6" y="221.1" width="97.6" height="24.65" shape-rendering="crispEdges"/><rect fill="#121212" x="1293.2" y="221.1" width="36.6" height="24.65" shape-rendering="crispEdges"/><rect fill="#121212" x="1329.8" y="221.1" width="24.4" height="24.65" shape-rendering="crispEdges"/><rect fill="#003054" x="1354.2" y="221.1" width="24.4" height="24.65" shape-rendering="crispEdges"/><rect fill="#121212" x="0" y="245.5" width="24.4" height="24.65" shape-rendering="crispEdges"/><rect fill="#ff8c00" x="24.4" y="245.5" width="24.4" height="24.65" shape-rendering="crispEdges"/><rect fill="#ff8c00" x="48.8" y="245.5" width="451.4" height="24.65" shape-rendering="crispEdges"/><rect fill="#ff8c00" x="500.2" y="245.5" width="24.4" height="24.65" shape-rendering="crispEdges"/><rect fill="#00008b" x="524.6" y="245.5" width="24.4" height="24.65" shape-rendering="crispEdges"/><rect fill="#00008b" x="549" y="245.5" width="622.2" height="24.65" shape-rendering="crispEdges"/><rect fill="#00008b" x="1171.2" y="245.5" width="24.4" height="24.65" shape-rendering="crispEdges"/><rect fill="#121212" x="1195.6" y="245.5" width="24.4" height="24.65" shape-rendering="crispEdges"/><rect fill="#121212" x="1220" y="245.5" width="48.8" height="24.65" shape-rendering="crispEdges"/><rect fill="#121212" x="1268.8" y="245.5" width="24.4" height="24.65" shape-rendering="crispEdges"/><rect fill="#121212" x="1293.2" y="245.5" width="36.6" height="24.65" shape-rendering="crispEdges"/><rect fill="#121212" x="1329.8" y="245.5" width="24.4" height="24.65" shape-rendering="crispEdges"/><rect fill="#003054" x="1354.2" y="245.5" width="24.4" height="24.65" shape-rendering="crispEdges"/><rect fill="#121212" x="0" y="269.9" width="24.4" height="24.65" shape-rendering="crispEdges"/><rect fill="#ff8c00" x="24.4" y="269.9" width="500.2" height="24.65" shape-rendering="crispEdges"/><rect fill="#00008b" x="524.6" y="269.9" width="671" height="24.65" shape-rendering="crispEdges"/><rect fill="#121212" x="1195.6" y="269.9" width="97.6" height="24.65" shape-rendering="crispEdges"/><rect fill="#121212" x="1293.2" y="269.9" width="36.6" height="24.65" shape-rendering="crispEdges"/><rect fill="#121212" x="1329.8" y="269.9" width="24.4" height="24.65" shape-rendering="crispEdges"/><rect fill="#003054" x="1354.2" y="269.9" width="24.4" height="24.65" shape-rendering="crispEdges"/><rect fill="#121212" x="0" y="294.3" width="24.4" height="24.65" shape-rendering="crispEdges"/><rect fill="#121212" x="24.4" y="294.3" width="1305.4" height="24.65" shape-rendering="crispEdges"/><rect fill="#121212" x="1329.8" y="294.3" width="24.4" height="24.65" shape-rendering="crispEdges"/><rect fill="#003054" x="1354.2" y="294.3" width="24.4" height="24.65" shape-rendering="crispEdges"/><rect fill="#121212" x="0" y="318.7" width="24.4" height="24.65" shape-rendering="crispEdges"/><rect fill="#008b8b" x="24.4" y="318.7" width="451.4" height="24.65" shape-rendering="crispEdges"/><rect fill="#00008b" x="475.8" y="318.7" width="671" height="24.65" shape-rendering="crispEdges"/><rect fill="#121212" x="1146.8" y="318.7" width="85.4" height="24.65" shape-rendering="crispEdges"/><rect fill="#121212" x="1232.2" y="318.7" width="97.6" height="24.65" shape-rendering="crispEdges"/><rect fill="#121212" x="1329.8" y="318.7" width="24.4" height="24.65" shape-rendering="crispEdges"/><rect fill="#003054" x="1354.2" y="318.7" width="24.4" height="24.65" shape-rendering="crispEdges"/><rect fill="#121212" x="0" y="343.1" width="24.4" height="24.65" shape-rendering="crispEdges"/><rect fill="#008b8b" x="24.4" y="343.1" width="24.4" height="24.65" shape-rendering="crispEdges"/><rect fill="#008b8b" x="48.8" y="343.1" width="402.6" height="24.65" shape-rendering="crispEdges"/><rect fill="#008b8b" x="451.4" y="343.1" width="24.4" height="24.65" shape-rendering="crispEdges"/><rect fill="#00008b" x="475.8" y="343.1" width="24.4" height="24.65" shape-rendering="crispEdges"/><rect fill="#00008b" x="500.2" y="343.1" width="622.2" height="24.65" shape-rendering="crispEdges"/><rect fill="#00008b" x="1122.4" y="343.1" width="24.4" height="24.65" shape-rendering="crispEdges"/><rect fill="#121212" x="1146.8" y="343.1" width="24.4" height="24.65" shape-rendering="crispEdges"/><rect fill="#121212" x="1171.2" y="343.1" width="36.6" height="24.65" shape-rendering="crispEdges"/><rect fill="#121212" x="1207.8" y="343.1" width="24.4" height="24.65" shape-rendering="crispEdges"/><rect fill="#121212" x="1232.2" y="343.1" width="97.6" height="24.65" shape-rendering="crispEdges"/><rect fill="#121212" x="1329.8" y="343.1" width="24.4" height="24.65" shape-rendering="crispEdges"/><rect fill="#003054" x="1354.2" y="343.1" width="24.4" height="24.65" shape-rendering="crispEdges"/><rect fill="#121212" x="0" y="367.5" width="24.4" height="24.65" shape-rendering="crispEdges"/><rect fill="#008b8b" x="24.4" y="367.5" width="451.4" height="24.65" shape-rendering="crispEdges"/><rect fill="#00008b" x="475.8" y="367.5" width="671" height="24.65" shape-rendering="crispEdges"/><rect fill="#121212" x="1146.8" y="367.5" width="85.4" height="24.65" shape-rendering="crispEdges"/><rect fill="#121212" x="1232.2" y="367.5" width="97.6" height="24.65" shape-rendering="crispEdges"/><rect fill="#121212" x="1329.8" y="367.5" width="24.4" height="24.65" shape-rendering="crispEdges"/><rect fill="#003054" x="1354.2" y="367.5" width="24.4" height="24.65" shape-rendering="crispEdges"/><rect fill="#121212" x="0" y="391.9" width="24.4" height="24.65" shape-rendering="crispEdges"/><rect fill="#121212" x="24.4" y="391.9" width="1305.4" height="24.65" shape-rendering="crispEdges"/><rect fill="#121212" x="1329.8" y="391.9" width="24.4" height="24.65" shape-rendering="crispEdges"/><rect fill="#003054" x="1354.2" y="391.9" width="24.4" height="24.65" shape-rendering="crispEdges"/><rect fill="#121212" x="0" y="416.3" width="24.4" height="24.65" shape-rendering="crispEdges"/><rect fill="#b8860b" x="24.4" y="416.3" width="366" height="24.65" shape-rendering="crispEdges"/><rect fill="#00008b" x="390.4" y="416.3" width="671" height="24.65" shape-rendering="crispEdges"/><rect fill="#121212" x="1061.4" y="416.3" width="97.6" height="24.65" shape-rendering="crispEdges"/><rect fill="#121212" x="1159" y="416.3" width="170.8" height="24.65" shape-rendering="crispEdges"/><rect fill="#121212" x="1329.8" y="416.3" width="24.4" height="24.65" shape-rendering="crispEdges"/><rect fill="#003054" x="1354.2" y="416.3" width="24.4" height="24.65" shape-rendering="crispEdges"/><rect fill="#121212" x="0" y="440.7" width="24.4" height="24.65" shape-rendering="crispEdges"/><rect fill="#b8860b" x="24.4" y="440.7" width="24.4" height="24.65" shape-rendering="crispEdges"/><rect fill="#b8860b" x="48.8" y="440.7" width="317.2" height="24.65" shape-rendering="crispEdges"/><rect fill="#b8860b" x="366" y="440.7" width="24.4" height="24.65" shape-rendering="crispEdges"/><rect fill="#00008b" x="390.4" y="440.7" width="24.4" height="24.65" shape-rendering="crispEdges"/><rect fill="#00008b" x="414.8" y="440.7" width="622.2" height="24.65" shape-rendering="crispEdges"/><rect fill="#00008b" x="1037" y="440.7" width="24.4" height="24.65" shape-rendering="crispEdges"/><rect fill="#121212" x="1061.4" y="440.7" width="24.4" height="24.65" shape-rendering="crispEdges"/><rect fill="#121212" x="1085.8" y="440.7" width="48.8" height="24.65" shape-rendering="crispEdges"/><rect fill="#121212" x="1134.6" y="440.7" width="24.4" height="24.65" shape-rendering="crispEdges"/><rect fill="#121212" x="1159" y="440.7" width="170.8" height="24.65" shape-rendering="crispEdges"/><rect fill="#121212" x="1329.8" y="440.7" width="24.4" height="24.65" shape-rendering="crispEdges"/><rect fill="#003054" x="1354.2" y="440.7" width="24.4" height="24.65" shape-rendering="crispEdges"/><rect fill="#121212" x="0" y="465.1" width="24.4" height="24.65" shape-rendering="crispEdges"/><rect fill="#b8860b" x="24.4" y="465.1" width="366" height="24.65" shape-rendering="crispEdges"/><rect fill="#00008b" x="390.4" y="465.1" width="671" height="24.65" shape-rendering="crispEdges"/><rect fill="#121212" x="1061.4" y="465.1" width="97.6" height="24.65" shape-rendering="crispEdges"/><rect fill="#121212" x="1159" y="465.1" width="170.8" height="24.65" shape-rendering="crispEdges"/><rect fill="#121212" x="1329.8" y="465.1" width="24.4" height="24.65" shape-rendering="crispEdges"/><rect fill="#003054" x="1354.2" y="465.1" width="24.4" height="24.65" shape-rendering="crispEdges"/><rect fill="#121212" x="0" y="489.5" width="24.4" height="24.65" shape-rendering="crispEdges"/><rect fill="#121212" x="24.4" y="489.5" width="1305.4" height="24.65" shape-rendering="crispEdges"/><rect fill="#121212" x="1329.8" y="489.5" width="24.4" height="24.65" shape-rendering="crispEdges"/><rect fill="#003054" x="1354.2" y="489.5" width="24.4" height="24.65" shape-rendering="crispEdges"/><rect fill="#121212" x="0" y="513.9" width="24.4" height="24.65" shape-rendering="crispEdges"/><rect fill="#006400" x="24.4" y="513.9" width="366" height="24.65" shape-rendering="crispEdges"/><rect fill="#00008b" x="390.4" y="513.9" width="671" height="24.65" shape-rendering="crispEdges"/><rect fill="#121212" x="1061.4" y="513.9" width="97.6" height="24.65" shape-rendering="crispEdges"/><rect fill="#121212" x="1159" y="513.9" width="170.8" height="24.65" shape-rendering="crispEdges"/><rect fill="#121212" x="1329.8" y="513.9" width="24.4" height="24.65" shape-rendering="crispEdges"/><rect fill="#003054" x="1354.2" y="513.9" width="24.4" height="24.65" shape-rendering="crispEdges"/><rect fill="#121212" x="0" y="538.3" width="24.4" height="24.65" shape-rendering="crispEdges"/><rect fill="#006400" x="24.4" y="538.3" width="24.4" height="24.65" shape-rendering="crispEdges"/><rect fill="#006400" x="48.8" y="538.3" width="317.2" height="24.65" shape-rendering="crispEdges"/><rect fill="#006400" x="366" y="538.3" width="24.4" height="24.65" shape-rendering="crispEdges"/><rect fill="#00008b" x="390.4" y="538.3" width="24.4" height="24.65" shape-rendering="crispEdges"/><rect fill="#00008b" x="414.8" y="538.3" width="622.2" height="24.65" shape-rendering="crispEdges"/><rect fill="#00008b" x="1037" y="538.3" width="24.4" height="24.65" shape-rendering="crispEdges"/><rect fill="#121212" x="1061.4" y="538.3" width="24.4" height="24.65" shape-rendering="crispEdges"/><rect fill="#121212" x="1085.8" y="538.3" width="48.8" height="24.65" shape-rendering="crispEdges"/><rect fill="#121212" x="1134.6" y="538.3" width="24.4" height="24.65" shape-rendering="crispEdges"/><rect fill="#121212" x="1159" y="538.3" width="170.8" height="24.65" shape-rendering="crispEdges"/><rect fill="#121212" x="1329.8" y="538.3" width="24.4" height="24.65" shape-rendering="crispEdges"/><rect fill="#003054" x="1354.2" y="538.3" width="24.4" height="24.65" shape-rendering="crispEdges"/><rect fill="#121212" x="0" y="562.7" width="24.4" height="24.65" shape-rendering="crispEdges"/><rect fill="#006400" x="24.4" y="562.7" width="366" height="24.65" shape-rendering="crispEdges"/><rect fill="#00008b" x="390.4" y="562.7" width="671" height="24.65" shape-rendering="crispEdges"/><rect fill="#121212" x="1061.4" y="562.7" width="97.6" height="24.65" shape-rendering="crispEdges"/><rect fill="#121212" x="1159" y="562.7" width="170.8" height="24.65" shape-rendering="crispEdges"/><rect fill="#121212" x="1329.8" y="562.7" width="24.4" height="24.65" shape-rendering="crispEdges"/><rect fill="#003054" x="1354.2" y="562.7" width="24.4" height="24.65" shape-rendering="crispEdges"/><rect fill="#121212" x="0" y="587.1" width="24.4" height="24.65" shape-rendering="crispEdges"/><rect fill="#121212" x="24.4" y="587.1" width="1305.4" height="24.65" shape-rendering="crispEdges"/><rect fill="#121212" x="1329.8" y="587.1" width="24.4" height="24.65" shape-rendering="crispEdges"/><rect fill="#003054" x="1354.2" y="587.1" width="24.4" height="24.65" shape-rendering="crispEdges"/><rect fill="#121212" x="0" y="611.5" width="24.4" height="24.65" shape-rendering="crispEdges"/><rect fill="#bdb76b" x="24.4" y="611.5" width="292.8" height="24.65" shape-rendering="crispEdges"/><rect fill="#00008b" x="317.2" y="611.5" width="671" height="24.65" shape-rendering="crispEdges"/><rect fill="#121212" x="988.2" y="611.5" width="73.2" height="24.65" shape-rendering="crispEdges"/><rect fill="#121212" x="1061.4" y="611.5" width="268.4" height="24.65" shape-rendering="crispEdges"/><rect fill="#121212" x="1329.8" y="611.5" width="24.4" height="24.65" shape-rendering="crispEdges"/><rect fill="#003054" x="1354.2" y="611.5" width="24.4" height="24.65" shape-rendering="crispEdges"/><rect fill="#121212" x="0" y="635.9" width="24.4" height="24.65" shape-rendering="crispEdges"/><rect fill="#bdb76b" x="24.4" y="635.9" width="24.4" height="24.65" shape-rendering="crispEdges"/><rect fill="#bdb76b" x="48.8" y="635.9" width="244" height="24.65" shape-rendering="crispEdges"/><rect fill="#bdb76b" x="292.8" y="635.9" width="24.4" height="24.65" shape-rendering="crispEdges"/><rect fill="#00008b" x="317.2" y="635.9" width="24.4" height="24.65" shape-rendering="crispEdges"/><rect fill="#00008b" x="341.6" y="635.9" width="622.2" height="24.65" shape-rendering="crispEdges"/><rect fill="#00008b" x="963.8" y="635.9" width="24.4" height="24.65" shape-rendering="crispEdges"/><rect fill="#121212" x="988.2" y="635.9" width="24.4" height="24.65" shape-rendering="crispEdges"/><rect fill="#121212" x="1012.6" y="635.9" width="24.4" height="24.65" shape-rendering="crispEdges"/><rect fill="#121212" x="1037" y="635.9" width="24.4" height="24.65" shape-rendering="crispEdges"/><rect fill="#121212" x="1061.4" y="635.9" width="268.4" height="24.65" shape-rendering="crispEdges"/><rect fill="#121212" x="1329.8" y="635.9" width="24.4" height="24.65" shape-rendering="crispEdges"/><rect fill="#003054" x="1354.2" y="635.9" width="24.4" height="24.65" shape-rendering="crispEdges"/><rect fill="#121212" x="0" y="660.3" width="24.4" height="24.65" shape-rendering="crispEdges"/><rect fill="#bdb76b" x="24.4" y="660.3" width="292.8" height="24.65" shape-rendering="crispEdges"/><rect fill="#00008b" x="317.2" y="660.3" width="671" height="24.65" shape-rendering="crispEdges"/><rect fill="#121212" x="988.2" y="660.3" width="73.2" height="24.65" shape-rendering="crispEdges"/><rect fill="#121212" x="1061.4" y="660.3" width="268.4" height="24.65" shape-rendering="crispEdges"/><rect fill="#121212" x="1329.8" y="660.3" width="24.4" height="24.65" shape-rendering="crispEdges"/><rect fill="#003054" x="1354.2" y="660.3" width="24.4" height="24.65" shape-rendering="crispEdges"/><rect fill="#121212" x="0" y="684.7" width="24.4" height="24.65" shape-rendering="crispEdges"/><rect fill="#121212" x="24.4" y="684.7" width="1305.4" height="24.65" shape-rendering="crispEdges"/><rect fill="#121212" x="1329.8" y="684.7" width="24.4" height="24.65" shape-rendering="crispEdges"/><rect fill="#003054" x="1354.2" y="684.7" width="24.4" height="24.65" shape-rendering="crispEdges"/><rect fill="#121212" x="0" y="709.1" width="24.4" height="24.65" shape-rendering="crispEdges"/><rect fill="#8b008b" x="24.4" y="709.1" width="280.6" height="24.65" shape-rendering="crispEdges"/><rect fill="#00008b" x="305" y="709.1" width="671" height="24.65" shape-rendering="crispEdges"/><rect fill="#121212" x="976" y="709.1" width="122" height="24.65" shape-rendering="crispEdges"/><rect fill="#121212" x="1098" y="709.1" width="231.8" height="24.65" shape-rendering="crispEdges"/><rect fill="#121212" x="1329.8" y="709.1" width="24.4" height="24.65" shape-rendering="crispEdges"/><rect fill="#003054" x="1354.2" y="709.1" width="24.4" height="24.65" shape-rendering="crispEdges"/><rect fill="#121212" x="0" y="733.5" width="24.4" height="24.65" shape-rendering="crispEdges"/><rect fill="#8b008b" x="24.4" y="733.5" width="24.4" height="24.65" shape-rendering="crispEdges"/><rect fill="#8b008b" x="48.8" y="733.5" width="231.8" height="24.65" shape-rendering="crispEdges"/><rect fill="#8b008b" x="280.6" y="733.5" width="24.4" height="24.65" shape-rendering="crispEdges"/><rect fill="#00008b" x="305" y="733.5" width="24.4" height="24.65" shape-rendering="crispEdges"/><rect fill="#00008b" x="329.4" y="733.5" width="622.2" height="24.65" shape-rendering="crispEdges"/><rect fill="#00008b" x="951.6" y="733.5" width="24.4" height="24.65" shape-rendering="crispEdges"/><rect fill="#121212" x="976" y="733.5" width="24.4" height="24.65" shape-rendering="crispEdges"/><rect fill="#121212" x="1000.4" y="733.5" width="73.2" height="24.65" shape-rendering="crispEdges"/><rect fill="#121212" x="1073.6" y="733.5" width="24.4" height="24.65" shape-rendering="crispEdges"/><rect fill="#121212" x="1098" y="733.5" width="231.8" height="24.65" shape-rendering="crispEdges"/><rect fill="#121212" x="1329.8" y="733.5" width="24.4" height="24.65" shape-rendering="crispEdges"/><rect fill="#003054" x="1354.2" y="733.5" width="24.4" height="24.65" shape-rendering="crispEdges"/><rect fill="#121212" x="0" y="757.9" width="24.4" height="24.65" shape-rendering="crispEdges"/><rect fill="#8b008b" x="24.4" y="757.9" width="280.6" height="24.65" shape-rendering="crispEdges"/><rect fill="#00008b" x="305" y="757.9" width="671" height="24.65" shape-rendering="crispEdges"/><rect fill="#121212" x="976" y="757.9" width="122" height="24.65" shape-rendering="crispEdges"/><rect fill="#121212" x="1098" y="757.9" width="231.8" height="24.65" shape-rendering="crispEdges"/><rect fill="#121212" x="1329.8" y="757.9" width="24.4" height="24.65" shape-rendering="crispEdges"/><rect fill="#003054" x="1354.2" y="757.9" width="24.4" height="24.65" shape-rendering="crispEdges"/><rect fill="#121212" x="0" y="782.3" width="24.4" height="24.65" shape-rendering="crispEdges"/><rect fill="#121212" x="24.4" y="782.3" width="1305.4" height="24.65" shape-rendering="crispEdges"/><rect fill="#121212" x="1329.8" y="782.3" width="24.4" height="24.65" shape-rendering="crispEdges"/><rect fill="#003054" x="1354.2" y="782.3" width="24.4" height="24.65" shape-rendering="crispEdges"/><rect fill="#242f38" x="0" y="806.7" width="48.8" height="24.65" shape-rendering="crispEdges"/><rect fill="#242f38" x="48.8" y="806.7" width="122" height="24.65" shape-rendering="crispEdges"/><rect fill="#242f38" x="170.8" y="806.7" width="61" height="24.65" shape-rendering="crispEdges"/><rect fill="#242f38" x="231.8" y="806.7" width="97.6" height="24.65" shape-rendering="crispEdges"/><rect fill="#242f38" x="329.4" y="806.7" width="36.6" height="24.65" shape-rendering="crispEdges"/><rect fill="#242f38" x="366" y="806.7" width="61" height="24.65" shape-rendering="crispEdges"/><rect fill="#242f38" x="427" y="806.7" width="805.2" height="24.65" shape-rendering="crispEdges"/><rect fill="#242f38" x="1232.2" y="806.7" width="12.2" height="24.65" shape-rendering="crispEdges"/><rect fill="#242f38" x="1244.4" y="806.7" width="24.4" height="24.65" shape-rendering="crispEdges"/><rect fill="#242f38" x="1268.8" y="806.7" width="97.6" height="24.65" shape-rendering="crispEdges"/><rect fill="#242f38" x="1366.4" y="806.7" width="12.2" height="24.65" shape-rendering="crispEdges"/>
    <g class="terminal-126001133-matrix">
    <text class="terminal-126001133-r2" x="12.2" y="20" textLength="24.4" clip-path="url(#terminal-126001133-line-0)">👁️</text><text class="terminal-126001133-r2" x="195.2" y="20" textLength="122" clip-path="url(#terminal-126001133-line-0)">Iolanta&#160;—&#160;</text><text class="terminal-126001133-r3" x="317.2" y="20" textLength="841.8" clip-path="url(#terminal-126001133-line-0)">https://json-ld.github.io/yaml-ld/spec/data/namespace-prefixes.yamlld</text><text class="terminal-126001133-r1" x="1378.6" y="20" textLength="12.2" clip-path="url(#terminal-126001133-line-0)">
</text><text class="terminal-126001133-r1" x="1378.6" y="44.4" textLength="12.2" clip-path="url(#terminal-126001133-line-1)">
</text><text class="terminal-126001133-r5" x="12.2" y="68.8" textLength="988.2" clip-path="url(#terminal-126001133-line-2)">https://json-ld.github.io/yaml-ld/spec/data/namespace-prefixes.yamlld&#160;(7&#160;triples)</text><text class="terminal-126001133-r1" x="1378.6" y="68.8" textLength="12.2" clip-path="url(#terminal-126001133-line-2)">
</text><text class="terminal-126001133-r1" x="1378.6" y="93.2" textLength="12.2" clip-path="url(#terminal-126001133-line-3)">
</text><text class="terminal-126001133-r1" x="1378.6" y="117.6" textLength="12.2" clip-path="url(#terminal-126001133-line-4)">
</text><text class="terminal-126001133-r1" x="1378.6" y="142" textLength="12.2" clip-path="url(#terminal-126001133-line-5)">
</text><text class="terminal-126001133-r2" x="48.8" y="166.4" textLength="524.6" clip-path="url(#terminal-126001133-line-6)">http://www.w3.org/1999/02/22-rdf-syntax-ns#</text><text class="terminal-126001133-r2" x="622.2" y="166.4" textLength="622.2" clip-path="url(#terminal-126001133-line-6)">http://purl.org/vocab/vann/preferredNamespacePrefix</text><text class="terminal-126001133-r2" x="1293.2" y="166.4" textLength="36.6" clip-path="url(#terminal-126001133-line-6)">rdf</text><text class="terminal-126001133-r1" x="1378.6" y="166.4" textLength="12.2" clip-path="url(#terminal-126001133-line-6)">
</text><text class="terminal-126001133-r1" x="1378.6" y="190.8" textLength="12.2" clip-path="url(#terminal-126001133-line-7)">
</text><text class="terminal-126001133-r1" x="1378.6" y="215.2" textLength="12.2" clip-path="url(#terminal-126001133-line-8)">
</text><text class="terminal-126001133-r1" x="1378.6" y="239.6" textLength="12.2" clip-path="url(#terminal-126001133-line-9)">
</text><text class="terminal-126001133-r2" x="48.8" y="264" textLength="451.4" clip-path="url(#terminal-126001133-line-10)">http://www.w3.org/2000/01/rdf-schema#</text><text class="terminal-126001133-r2" x="549" y="264" textLength="622.2" clip-path="url(#terminal-126001133-line-10)">http://purl.org/vocab/vann/preferredNamespacePrefix</text><text class="terminal-126001133-r2" x="1220" y="264" textLength="48.8" clip-path="url(#terminal-126001133-line-10)">rdfs</text><text class="terminal-126001133-r1" x="1378.6" y="264" textLength="12.2" clip-path="url(#terminal-126001133-line-10)">
</text><text class="terminal-126001133-r1" x="1378.6" y="288.4" textLength="12.2" clip-path="url(#terminal-126001133-line-11)">
</text><text class="terminal-126001133-r1" x="1378.6" y="312.8" textLength="12.2" clip-path="url(#terminal-126001133-line-12)">
</text><text class="terminal-126001133-r1" x="1378.6" y="337.2" textLength="12.2" clip-path="url(#terminal-126001133-line-13)">
</text><text class="terminal-126001133-r2" x="48.8" y="361.6" textLength="402.6" clip-path="url(#terminal-126001133-line-14)">http://www.w3.org/2001/XMLSchema#</text><text class="terminal-126001133-r2" x="500.2" y="361.6" textLength="622.2" clip-path="url(#terminal-126001133-line-14)">http://purl.org/vocab/vann/preferredNamespacePrefix</text><text class="terminal-126001133-r2" x="1171.2" y="361.6" textLength="36.6" clip-path="url(#terminal-126001133-line-14)">xsd</text><text class="terminal-126001133-r1" x="1378.6" y="361.6" textLength="12.2" clip-path="url(#terminal-126001133-line-14)">
</text><text class="terminal-126001133-r1" x="1378.6" y="386" textLength="12.2" clip-path="url(#terminal-126001133-line-15)">
</text><text class="terminal-126001133-r1" x="1378.6" y="410.4" textLength="12.2" clip-path="url(#terminal-126001133-line-16)">
</text><text class="terminal-126001133-r1" x="1378.6" y="434.8" textLength="12.2" clip-path="url(#terminal-126001133-line-17)">
</text><text class="terminal-126001133-r2" x="48.8" y="459.2" textLength="317.2" clip-path="url(#terminal-126001133-line-18)">http://www.w3.org/ns/i18n#</text><text class="terminal-126001133-r2" x="414.8" y="459.2" textLength="622.2" clip-path="url(#terminal-126001133-line-18)">http://purl.org/vocab/vann/preferredNamespacePrefix</text><text class="terminal-126001133-r2" x="1085.8" y="459.2" textLength="48.8" clip-path="url(#terminal-126001133-line-18)">i18n</text><text class="terminal-126001133-r1" x="1378.6" y="459.2" textLength="12.2" clip-path="url(#terminal-126001133-line-18)">
</text><text class="terminal-126001133-r1" x="1378.6" y="483.6" textLength="12.2" clip-path="url(#terminal-126001133-line-19)">
</text><text class="terminal-126001133-r1" x="1378.6" y="508" textLength="12.2" clip-path="url(#terminal-126001133-line-20)">
</text><text class="terminal-126001133-r1" x="1378.6" y="532.4" textLength="12.2" clip-path="url(#terminal-126001133-line-21)">
</text><text class="terminal-126001133-r2" x="48.8" y="556.8" textLength="317.2" clip-path="url(#terminal-126001133-line-22)">http://www.w3.org/ns/prov#</text><text class="terminal-126001133-r2" x="414.8" y="556.8" textLength="622.2" clip-path="url(#terminal-126001133-line-22)">http://purl.org/vocab/vann/preferredNamespacePrefix</text><text class="terminal-126001133-r2" x="1085.8" y="556.8" textLength="48.8" clip-path="url(#terminal-126001133-line-22)">prov</text><text class="terminal-126001133-r1" x="1378.6" y="556.8" textLength="12.2" clip-path="url(#terminal-126001133-line-22)">
</text><text class="terminal-126001133-r1" x="1378.6" y="581.2" textLength="12.2" clip-path="url(#terminal-126001133-line-23)">
</text><text class="terminal-126001133-r1" x="1378.6" y="605.6" textLength="12.2" clip-path="url(#terminal-126001133-line-24)">
</text><text class="terminal-126001133-r1" x="1378.6" y="630" textLength="12.2" clip-path="url(#terminal-126001133-line-25)">
</text><text class="terminal-126001133-r2" x="48.8" y="654.4" textLength="244" clip-path="url(#terminal-126001133-line-26)">https://example.org/</text><text class="terminal-126001133-r2" x="341.6" y="654.4" textLength="622.2" clip-path="url(#terminal-126001133-line-26)">http://purl.org/vocab/vann/preferredNamespacePrefix</text><text class="terminal-126001133-r2" x="1012.6" y="654.4" textLength="24.4" clip-path="url(#terminal-126001133-line-26)">ex</text><text class="terminal-126001133-r1" x="1378.6" y="654.4" textLength="12.2" clip-path="url(#terminal-126001133-line-26)">
</text><text class="terminal-126001133-r1" x="1378.6" y="678.8" textLength="12.2" clip-path="url(#terminal-126001133-line-27)">
</text><text class="terminal-126001133-r1" x="1378.6" y="703.2" textLength="12.2" clip-path="url(#terminal-126001133-line-28)">
</text><text class="terminal-126001133-r1" x="1378.6" y="727.6" textLength="12.2" clip-path="url(#terminal-126001133-line-29)">
</text><text class="terminal-126001133-r2" x="48.8" y="752" textLength="231.8" clip-path="url(#terminal-126001133-line-30)">https://schema.org/</text><text class="terminal-126001133-r2" x="329.4" y="752" textLength="622.2" clip-path="url(#terminal-126001133-line-30)">http://purl.org/vocab/vann/preferredNamespacePrefix</text><text class="terminal-126001133-r2" x="1000.4" y="752" textLength="73.2" clip-path="url(#terminal-126001133-line-30)">schema</text><text class="terminal-126001133-r1" x="1378.6" y="752" textLength="12.2" clip-path="url(#terminal-126001133-line-30)">
</text><text class="terminal-126001133-r1" x="1378.6" y="776.4" textLength="12.2" clip-path="url(#terminal-126001133-line-31)">
</text><text class="terminal-126001133-r6" x="1354.2" y="800.8" textLength="24.4" clip-path="url(#terminal-126001133-line-32)">▇▇</text><text class="terminal-126001133-r1" x="1378.6" y="800.8" textLength="12.2" clip-path="url(#terminal-126001133-line-32)">
</text><text class="terminal-126001133-r7" x="0" y="825.2" textLength="48.8" clip-path="url(#terminal-126001133-line-33)">&#160;f5&#160;</text><text class="terminal-126001133-r2" x="48.8" y="825.2" textLength="109.8" clip-path="url(#terminal-126001133-line-33)">🔄&#160;Reload&#160;</text><text class="terminal-126001133-r7" x="170.8" y="825.2" textLength="61" clip-path="url(#terminal-126001133-line-33)">&#160;f12&#160;</text><text class="terminal-126001133-r2" x="231.8" y="825.2" textLength="97.6" clip-path="url(#terminal-126001133-line-33)">Console&#160;</text><text class="terminal-126001133-r7" x="329.4" y="825.2" textLength="36.6" clip-path="url(#terminal-126001133-line-33)">&#160;q&#160;</text><text class="terminal-126001133-r2" x="366" y="825.2" textLength="61" clip-path="url(#terminal-126001133-line-33)">Quit&#160;</text><text class="terminal-126001133-r8" x="1232.2" y="825.2" textLength="12.2" clip-path="url(#terminal-126001133-line-33)">▏</text><text class="terminal-126001133-r7" x="1244.4" y="825.2" textLength="24.4" clip-path="url(#terminal-126001133-line-33)">^p</text><text class="terminal-126001133-r2" x="1268.8" y="825.2" textLength="97.6" clip-path="url(#terminal-126001133-line-33)">&#160;palette</text>
    </g>
    </g>
</svg>
