<svg class="rich-terminal" viewBox="0 0 1397 879.5999999999999" xmlns="http://www.w3.org/2000/svg">
    <!-- Generated with Rich https://www.textualize.io -->
    <style>

    @font-face {
        font-family: "Fira Code";
        src: local("FiraCode-Regular"),
                url("https://cdnjs.cloudflare.com/ajax/libs/firacode/6.2.0/woff2/FiraCode-Regular.woff2") format("woff2"),
                url("https://cdnjs.cloudflare.com/ajax/libs/firacode/6.2.0/woff/FiraCode-Regular.woff") format("woff");
        font-style: normal;
        font-weight: 400;
    }
    @font-face {
        font-family: "Fira Code";
        src: local("FiraCode-Bold"),
                url("https://cdnjs.cloudflare.com/ajax/libs/firacode/6.2.0/woff2/FiraCode-Bold.woff2") format("woff2"),
                url("https://cdnjs.cloudflare.com/ajax/libs/firacode/6.2.0/woff/FiraCode-Bold.woff") format("woff");
        font-style: bold;
        font-weight: 700;
    }

    .terminal-1242672424-matrix {
        font-family: Fira Code, monospace;
        font-size: 20px;
        line-height: 24.4px;
        font-variant-east-asian: full-width;
    }

    .terminal-1242672424-title {
        font-size: 18px;
        font-weight: bold;
        font-family: arial;
    }

    .terminal-1242672424-r1 { fill: #c5c8c6 }
.terminal-1242672424-r2 { fill: #e0e0e0 }
.terminal-1242672424-r3 { fill: #a3a3a3 }
.terminal-1242672424-r4 { fill: #ffffff;font-weight: bold }
.terminal-1242672424-r5 { fill: #e0e0e0;font-weight: bold }
.terminal-1242672424-r6 { fill: #e0e0e0;text-decoration: underline; }
.terminal-1242672424-r7 { fill: #b0b0b0;font-weight: bold }
.terminal-1242672424-r8 { fill: #515151 }
    </style>

    <defs>
    <clipPath id="terminal-1242672424-clip-terminal">
      <rect x="0" y="0" width="1377.6" height="828.5999999999999" />
    </clipPath>
    <clipPath id="terminal-1242672424-line-0">
    <rect x="0" y="1.5" width="1378.6" height="24.65"/>
            </clipPath>
<clipPath id="terminal-1242672424-line-1">
    <rect x="0" y="25.9" width="1378.6" height="24.65"/>
            </clipPath>
<clipPath id="terminal-1242672424-line-2">
    <rect x="0" y="50.3" width="1378.6" height="24.65"/>
            </clipPath>
<clipPath id="terminal-1242672424-line-3">
    <rect x="0" y="74.7" width="1378.6" height="24.65"/>
            </clipPath>
<clipPath id="terminal-1242672424-line-4">
    <rect x="0" y="99.1" width="1378.6" height="24.65"/>
            </clipPath>
<clipPath id="terminal-1242672424-line-5">
    <rect x="0" y="123.5" width="1378.6" height="24.65"/>
            </clipPath>
<clipPath id="terminal-1242672424-line-6">
    <rect x="0" y="147.9" width="1378.6" height="24.65"/>
            </clipPath>
<clipPath id="terminal-1242672424-line-7">
    <rect x="0" y="172.3" width="1378.6" height="24.65"/>
            </clipPath>
<clipPath id="terminal-1242672424-line-8">
    <rect x="0" y="196.7" width="1378.6" height="24.65"/>
            </clipPath>
<clipPath id="terminal-1242672424-line-9">
    <rect x="0" y="221.1" width="1378.6" height="24.65"/>
            </clipPath>
<clipPath id="terminal-1242672424-line-10">
    <rect x="0" y="245.5" width="1378.6" height="24.65"/>
            </clipPath>
<clipPath id="terminal-1242672424-line-11">
    <rect x="0" y="269.9" width="1378.6" height="24.65"/>
            </clipPath>
<clipPath id="terminal-1242672424-line-12">
    <rect x="0" y="294.3" width="1378.6" height="24.65"/>
            </clipPath>
<clipPath id="terminal-1242672424-line-13">
    <rect x="0" y="318.7" width="1378.6" height="24.65"/>
            </clipPath>
<clipPath id="terminal-1242672424-line-14">
    <rect x="0" y="343.1" width="1378.6" height="24.65"/>
            </clipPath>
<clipPath id="terminal-1242672424-line-15">
    <rect x="0" y="367.5" width="1378.6" height="24.65"/>
            </clipPath>
<clipPath id="terminal-1242672424-line-16">
    <rect x="0" y="391.9" width="1378.6" height="24.65"/>
            </clipPath>
<clipPath id="terminal-1242672424-line-17">
    <rect x="0" y="416.3" width="1378.6" height="24.65"/>
            </clipPath>
<clipPath id="terminal-1242672424-line-18">
    <rect x="0" y="440.7" width="1378.6" height="24.65"/>
            </clipPath>
<clipPath id="terminal-1242672424-line-19">
    <rect x="0" y="465.1" width="1378.6" height="24.65"/>
            </clipPath>
<clipPath id="terminal-1242672424-line-20">
    <rect x="0" y="489.5" width="1378.6" height="24.65"/>
            </clipPath>
<clipPath id="terminal-1242672424-line-21">
    <rect x="0" y="513.9" width="1378.6" height="24.65"/>
            </clipPath>
<clipPath id="terminal-1242672424-line-22">
    <rect x="0" y="538.3" width="1378.6" height="24.65"/>
            </clipPath>
<clipPath id="terminal-1242672424-line-23">
    <rect x="0" y="562.7" width="1378.6" height="24.65"/>
            </clipPath>
<clipPath id="terminal-1242672424-line-24">
    <rect x="0" y="587.1" width="1378.6" height="24.65"/>
            </clipPath>
<clipPath id="terminal-1242672424-line-25">
    <rect x="0" y="611.5" width="1378.6" height="24.65"/>
            </clipPath>
<clipPath id="terminal-1242672424-line-26">
    <rect x="0" y="635.9" width="1378.6" height="24.65"/>
            </clipPath>
<clipPath id="terminal-1242672424-line-27">
    <rect x="0" y="660.3" width="1378.6" height="24.65"/>
            </clipPath>
<clipPath id="terminal-1242672424-line-28">
    <rect x="0" y="684.7" width="1378.6" height="24.65"/>
            </clipPath>
<clipPath id="terminal-1242672424-line-29">
    <rect x="0" y="709.1" width="1378.6" height="24.65"/>
            </clipPath>
<clipPath id="terminal-1242672424-line-30">
    <rect x="0" y="733.5" width="1378.6" height="24.65"/>
            </clipPath>
<clipPath id="terminal-1242672424-line-31">
    <rect x="0" y="757.9" width="1378.6" height="24.65"/>
            </clipPath>
<clipPath id="terminal-1242672424-line-32">
    <rect x="0" y="782.3" width="1378.6" height="24.65"/>
            </clipPath>
    </defs>

    <rect fill="#292929" stroke="rgba(255,255,255,0.35)" stroke-width="1" x="1" y="1" width="1395" height="877.6" rx="8"/><text class="terminal-1242672424-title" fill="#c5c8c6" text-anchor="middle" x="697" y="27">Iolanta</text>
            <g transform="translate(26,22)">
            <circle cx="0" cy="0" r="7" fill="#ff5f57"/>
            <circle cx="22" cy="0" r="7" fill="#febc2e"/>
            <circle cx="44" cy="0" r="7" fill="#28c840"/>
            </g>
        
    <g transform="translate(9, 41)" clip-path="url(#terminal-1242672424-clip-terminal)">
    <rect fill="#2d2d2d" x="0" y="1.5" width="12.2" height="24.65" shape-rendering="crispEdges"/><rect fill="#2d2d2d" x="12.2" y="1.5" width="24.4" height="24.65" shape-rendering="crispEdges"/><rect fill="#2d2d2d" x="36.6" y="1.5" width="48.8" height="24.65" shape-rendering="crispEdges"/><rect fill="#2d2d2d" x="85.4" y="1.5" width="12.2" height="24.65" shape-rendering="crispEdges"/><rect fill="#2d2d2d" x="97.6" y="1.5" width="341.6" height="24.65" shape-rendering="crispEdges"/><rect fill="#2d2d2d" x="439.2" y="1.5" width="85.4" height="24.65" shape-rendering="crispEdges"/><rect fill="#2d2d2d" x="524.6" y="1.5" width="36.6" height="24.65" shape-rendering="crispEdges"/><rect fill="#2d2d2d" x="561.2" y="1.5" width="353.8" height="24.65" shape-rendering="crispEdges"/><rect fill="#2d2d2d" x="915" y="1.5" width="341.6" height="24.65" shape-rendering="crispEdges"/><rect fill="#2d2d2d" x="1256.6" y="1.5" width="12.2" height="24.65" shape-rendering="crispEdges"/><rect fill="#2d2d2d" x="1268.8" y="1.5" width="0" height="24.65" shape-rendering="crispEdges"/><rect fill="#2d2d2d" x="1268.8" y="1.5" width="97.6" height="24.65" shape-rendering="crispEdges"/><rect fill="#2d2d2d" x="1366.4" y="1.5" width="12.2" height="24.65" shape-rendering="crispEdges"/><rect fill="#454545" x="0" y="25.9" width="1378.6" height="24.65" shape-rendering="crispEdges"/><rect fill="#454545" x="0" y="50.3" width="12.2" height="24.65" shape-rendering="crispEdges"/><rect fill="#454545" x="12.2" y="50.3" width="85.4" height="24.65" shape-rendering="crispEdges"/><rect fill="#454545" x="97.6" y="50.3" width="1268.8" height="24.65" shape-rendering="crispEdges"/><rect fill="#454545" x="1366.4" y="50.3" width="12.2" height="24.65" shape-rendering="crispEdges"/><rect fill="#454545" x="0" y="74.7" width="1378.6" height="24.65" shape-rendering="crispEdges"/><rect fill="#121212" x="0" y="99.1" width="1378.6" height="24.65" shape-rendering="crispEdges"/><rect fill="#121212" x="0" y="123.5" width="12.2" height="24.65" shape-rendering="crispEdges"/><rect fill="#121212" x="12.2" y="123.5" width="97.6" height="24.65" shape-rendering="crispEdges"/><rect fill="#121212" x="109.8" y="123.5" width="12.2" height="24.65" shape-rendering="crispEdges"/><rect fill="#121212" x="122" y="123.5" width="24.4" height="24.65" shape-rendering="crispEdges"/><rect fill="#121212" x="146.4" y="123.5" width="85.4" height="24.65" shape-rendering="crispEdges"/><rect fill="#121212" x="231.8" y="123.5" width="122" height="24.65" shape-rendering="crispEdges"/><rect fill="#121212" x="353.8" y="123.5" width="24.4" height="24.65" shape-rendering="crispEdges"/><rect fill="#121212" x="378.2" y="123.5" width="97.6" height="24.65" shape-rendering="crispEdges"/><rect fill="#121212" x="475.8" y="123.5" width="12.2" height="24.65" shape-rendering="crispEdges"/><rect fill="#121212" x="488" y="123.5" width="24.4" height="24.65" shape-rendering="crispEdges"/><rect fill="#121212" x="512.4" y="123.5" width="219.6" height="24.65" shape-rendering="crispEdges"/><rect fill="#121212" x="732" y="123.5" width="24.4" height="24.65" shape-rendering="crispEdges"/><rect fill="#121212" x="756.4" y="123.5" width="183" height="24.65" shape-rendering="crispEdges"/><rect fill="#121212" x="939.4" y="123.5" width="427" height="24.65" shape-rendering="crispEdges"/><rect fill="#121212" x="1366.4" y="123.5" width="12.2" height="24.65" shape-rendering="crispEdges"/><rect fill="#121212" x="0" y="147.9" width="12.2" height="24.65" shape-rendering="crispEdges"/><rect fill="#121212" x="12.2" y="147.9" width="109.8" height="24.65" shape-rendering="crispEdges"/><rect fill="#121212" x="122" y="147.9" width="24.4" height="24.65" shape-rendering="crispEdges"/><rect fill="#121212" x="146.4" y="147.9" width="207.4" height="24.65" shape-rendering="crispEdges"/><rect fill="#121212" x="353.8" y="147.9" width="24.4" height="24.65" shape-rendering="crispEdges"/><rect fill="#121212" x="378.2" y="147.9" width="109.8" height="24.65" shape-rendering="crispEdges"/><rect fill="#121212" x="488" y="147.9" width="24.4" height="24.65" shape-rendering="crispEdges"/><rect fill="#121212" x="512.4" y="147.9" width="219.6" height="24.65" shape-rendering="crispEdges"/><rect fill="#121212" x="732" y="147.9" width="24.4" height="24.65" shape-rendering="crispEdges"/><rect fill="#121212" x="756.4" y="147.9" width="183" height="24.65" shape-rendering="crispEdges"/><rect fill="#121212" x="939.4" y="147.9" width="427" height="24.65" shape-rendering="crispEdges"/><rect fill="#121212" x="1366.4" y="147.9" width="12.2" height="24.65" shape-rendering="crispEdges"/><rect fill="#121212" x="0" y="172.3" width="12.2" height="24.65" shape-rendering="crispEdges"/><rect fill="#121212" x="12.2" y="172.3" width="73.2" height="24.65" shape-rendering="crispEdges"/><rect fill="#121212" x="85.4" y="172.3" width="36.6" height="24.65" shape-rendering="crispEdges"/><rect fill="#121212" x="122" y="172.3" width="24.4" height="24.65" shape-rendering="crispEdges"/><rect fill="#121212" x="146.4" y="172.3" width="85.4" height="24.65" shape-rendering="crispEdges"/><rect fill="#121212" x="231.8" y="172.3" width="122" height="24.65" shape-rendering="crispEdges"/><rect fill="#121212" x="353.8" y="172.3" width="24.4" height="24.65" shape-rendering="crispEdges"/><rect fill="#121212" x="378.2" y="172.3" width="109.8" height="24.65" shape-rendering="crispEdges"/><rect fill="#121212" x="488" y="172.3" width="24.4" height="24.65" shape-rendering="crispEdges"/><rect fill="#121212" x="512.4" y="172.3" width="48.8" height="24.65" shape-rendering="crispEdges"/><rect fill="#121212" x="561.2" y="172.3" width="170.8" height="24.65" shape-rendering="crispEdges"/><rect fill="#121212" x="732" y="172.3" width="24.4" height="24.65" shape-rendering="crispEdges"/><rect fill="#121212" x="756.4" y="172.3" width="109.8" height="24.65" shape-rendering="crispEdges"/><rect fill="#121212" x="866.2" y="172.3" width="73.2" height="24.65" shape-rendering="crispEdges"/><rect fill="#121212" x="939.4" y="172.3" width="427" height="24.65" shape-rendering="crispEdges"/><rect fill="#121212" x="1366.4" y="172.3" width="12.2" height="24.65" shape-rendering="crispEdges"/><rect fill="#121212" x="0" y="196.7" width="12.2" height="24.65" shape-rendering="crispEdges"/><rect fill="#121212" x="12.2" y="196.7" width="36.6" height="24.65" shape-rendering="crispEdges"/><rect fill="#121212" x="48.8" y="196.7" width="73.2" height="24.65" shape-rendering="crispEdges"/><rect fill="#121212" x="122" y="196.7" width="24.4" height="24.65" shape-rendering="crispEdges"/><rect fill="#121212" x="146.4" y="196.7" width="207.4" height="24.65" shape-rendering="crispEdges"/><rect fill="#121212" x="353.8" y="196.7" width="24.4" height="24.65" shape-rendering="crispEdges"/><rect fill="#121212" x="378.2" y="196.7" width="97.6" height="24.65" shape-rendering="crispEdges"/><rect fill="#121212" x="475.8" y="196.7" width="12.2" height="24.65" shape-rendering="crispEdges"/><rect fill="#121212" x="488" y="196.7" width="24.4" height="24.65" shape-rendering="crispEdges"/><rect fill="#121212" x="512.4" y="196.7" width="85.4" height="24.65" shape-rendering="crispEdges"/><rect fill="#121212" x="597.8" y="196.7" width="134.2" height="24.65" shape-rendering="crispEdges"/><rect fill="#121212" x="732" y="196.7" width="24.4" height="24.65" shape-rendering="crispEdges"/><rect fill="#121212" x="756.4" y="196.7" width="24.4" height="24.65" shape-rendering="crispEdges"/><rect fill="#121212" x="780.8" y="196.7" width="158.6" height="24.65" shape-rendering="crispEdges"/><rect fill="#121212" x="939.4" y="196.7" width="427" height="24.65" shape-rendering="crispEdges"/><rect fill="#121212" x="1366.4" y="196.7" width="12.2" height="24.65" shape-rendering="crispEdges"/><rect fill="#121212" x="0" y="221.1" width="12.2" height="24.65" shape-rendering="crispEdges"/><rect fill="#121212" x="12.2" y="221.1" width="73.2" height="24.65" shape-rendering="crispEdges"/><rect fill="#121212" x="85.4" y="221.1" width="36.6" height="24.65" shape-rendering="crispEdges"/><rect fill="#121212" x="122" y="221.1" width="24.4" height="24.65" shape-rendering="crispEdges"/><rect fill="#121212" x="146.4" y="221.1" width="183" height="24.65" shape-rendering="crispEdges"/><rect fill="#121212" x="329.4" y="221.1" width="24.4" height="24.65" shape-rendering="crispEdges"/><rect fill="#121212" x="353.8" y="221.1" width="24.4" height="24.65" shape-rendering="crispEdges"/><rect fill="#121212" x="378.2" y="221.1" width="109.8" height="24.65" shape-rendering="crispEdges"/><rect fill="#121212" x="488" y="221.1" width="24.4" height="24.65" shape-rendering="crispEdges"/><rect fill="#121212" x="512.4" y="221.1" width="122" height="24.65" shape-rendering="crispEdges"/><rect fill="#121212" x="634.4" y="221.1" width="97.6" height="24.65" shape-rendering="crispEdges"/><rect fill="#121212" x="732" y="221.1" width="24.4" height="24.65" shape-rendering="crispEdges"/><rect fill="#121212" x="756.4" y="221.1" width="48.8" height="24.65" shape-rendering="crispEdges"/><rect fill="#121212" x="805.2" y="221.1" width="134.2" height="24.65" shape-rendering="crispEdges"/><rect fill="#121212" x="939.4" y="221.1" width="427" height="24.65" shape-rendering="crispEdges"/><rect fill="#121212" x="1366.4" y="221.1" width="12.2" height="24.65" shape-rendering="crispEdges"/><rect fill="#121212" x="0" y="245.5" width="12.2" height="24.65" shape-rendering="crispEdges"/><rect fill="#121212" x="12.2" y="245.5" width="109.8" height="24.65" shape-rendering="crispEdges"/><rect fill="#121212" x="122" y="245.5" width="24.4" height="24.65" shape-rendering="crispEdges"/><rect fill="#121212" x="146.4" y="245.5" width="231.8" height="24.65" shape-rendering="crispEdges"/><rect fill="#121212" x="378.2" y="245.5" width="61" height="24.65" shape-rendering="crispEdges"/><rect fill="#121212" x="439.2" y="245.5" width="48.8" height="24.65" shape-rendering="crispEdges"/><rect fill="#121212" x="488" y="245.5" width="24.4" height="24.65" shape-rendering="crispEdges"/><rect fill="#121212" x="512.4" y="245.5" width="109.8" height="24.65" shape-rendering="crispEdges"/><rect fill="#121212" x="622.2" y="245.5" width="109.8" height="24.65" shape-rendering="crispEdges"/><rect fill="#121212" x="732" y="245.5" width="24.4" height="24.65" shape-rendering="crispEdges"/><rect fill="#121212" x="756.4" y="245.5" width="73.2" height="24.65" shape-rendering="crispEdges"/><rect fill="#121212" x="829.6" y="245.5" width="109.8" height="24.65" shape-rendering="crispEdges"/><rect fill="#121212" x="939.4" y="245.5" width="427" height="24.65" shape-rendering="crispEdges"/><rect fill="#121212" x="1366.4" y="245.5" width="12.2" height="24.65" shape-rendering="crispEdges"/><rect fill="#121212" x="0" y="269.9" width="12.2" height="24.65" shape-rendering="crispEdges"/><rect fill="#121212" x="12.2" y="269.9" width="61" height="24.65" shape-rendering="crispEdges"/><rect fill="#121212" x="73.2" y="269.9" width="48.8" height="24.65" shape-rendering="crispEdges"/><rect fill="#121212" x="122" y="269.9" width="24.4" height="24.65" shape-rendering="crispEdges"/><rect fill="#121212" x="146.4" y="269.9" width="231.8" height="24.65" shape-rendering="crispEdges"/><rect fill="#121212" x="378.2" y="269.9" width="73.2" height="24.65" shape-rendering="crispEdges"/><rect fill="#121212" x="451.4" y="269.9" width="36.6" height="24.65" shape-rendering="crispEdges"/><rect fill="#121212" x="488" y="269.9" width="24.4" height="24.65" shape-rendering="crispEdges"/><rect fill="#121212" x="512.4" y="269.9" width="73.2" height="24.65" shape-rendering="crispEdges"/><rect fill="#121212" x="585.6" y="269.9" width="146.4" height="24.65" shape-rendering="crispEdges"/><rect fill="#121212" x="732" y="269.9" width="24.4" height="24.65" shape-rendering="crispEdges"/><rect fill="#121212" x="756.4" y="269.9" width="109.8" height="24.65" shape-rendering="crispEdges"/><rect fill="#121212" x="866.2" y="269.9" width="73.2" height="24.65" shape-rendering="crispEdges"/><rect fill="#121212" x="939.4" y="269.9" width="427" height="24.65" shape-rendering="crispEdges"/><rect fill="#121212" x="1366.4" y="269.9" width="12.2" height="24.65" shape-rendering="crispEdges"/><rect fill="#121212" x="0" y="294.3" width="12.2" height="24.65" shape-rendering="crispEdges"/><rect fill="#121212" x="12.2" y="294.3" width="48.8" height="24.65" shape-rendering="crispEdges"/><rect fill="#121212" x="61" y="294.3" width="61" height="24.65" shape-rendering="crispEdges"/><rect fill="#121212" x="122" y="294.3" width="24.4" height="24.65" shape-rendering="crispEdges"/><rect fill="#121212" x="146.4" y="294.3" width="231.8" height="24.65" shape-rendering="crispEdges"/><rect fill="#121212" x="378.2" y="294.3" width="109.8" height="24.65" shape-rendering="crispEdges"/><rect fill="#121212" x="488" y="294.3" width="24.4" height="24.65" shape-rendering="crispEdges"/><rect fill="#121212" x="512.4" y="294.3" width="97.6" height="24.65" shape-rendering="crispEdges"/><rect fill="#121212" x="610" y="294.3" width="122" height="24.65" shape-rendering="crispEdges"/><rect fill="#121212" x="732" y="294.3" width="24.4" height="24.65" shape-rendering="crispEdges"/><rect fill="#121212" x="756.4" y="294.3" width="85.4" height="24.65" shape-rendering="crispEdges"/><rect fill="#121212" x="841.8" y="294.3" width="97.6" height="24.65" shape-rendering="crispEdges"/><rect fill="#121212" x="939.4" y="294.3" width="427" height="24.65" shape-rendering="crispEdges"/><rect fill="#121212" x="1366.4" y="294.3" width="12.2" height="24.65" shape-rendering="crispEdges"/><rect fill="#121212" x="0" y="318.7" width="12.2" height="24.65" shape-rendering="crispEdges"/><rect fill="#121212" x="12.2" y="318.7" width="61" height="24.65" shape-rendering="crispEdges"/><rect fill="#121212" x="73.2" y="318.7" width="48.8" height="24.65" shape-rendering="crispEdges"/><rect fill="#121212" x="122" y="318.7" width="24.4" height="24.65" shape-rendering="crispEdges"/><rect fill="#121212" x="146.4" y="318.7" width="231.8" height="24.65" shape-rendering="crispEdges"/><rect fill="#121212" x="378.2" y="318.7" width="134.2" height="24.65" shape-rendering="crispEdges"/><rect fill="#121212" x="512.4" y="318.7" width="109.8" height="24.65" shape-rendering="crispEdges"/><rect fill="#121212" x="622.2" y="318.7" width="109.8" height="24.65" shape-rendering="crispEdges"/><rect fill="#121212" x="732" y="318.7" width="24.4" height="24.65" shape-rendering="crispEdges"/><rect fill="#121212" x="756.4" y="318.7" width="48.8" height="24.65" shape-rendering="crispEdges"/><rect fill="#121212" x="805.2" y="318.7" width="134.2" height="24.65" shape-rendering="crispEdges"/><rect fill="#121212" x="939.4" y="318.7" width="427" height="24.65" shape-rendering="crispEdges"/><rect fill="#121212" x="1366.4" y="318.7" width="12.2" height="24.65" shape-rendering="crispEdges"/><rect fill="#121212" x="0" y="343.1" width="12.2" height="24.65" shape-rendering="crispEdges"/><rect fill="#121212" x="12.2" y="343.1" width="134.2" height="24.65" shape-rendering="crispEdges"/><rect fill="#121212" x="146.4" y="343.1" width="231.8" height="24.65" shape-rendering="crispEdges"/><rect fill="#121212" x="378.2" y="343.1" width="134.2" height="24.65" shape-rendering="crispEdges"/><rect fill="#121212" x="512.4" y="343.1" width="85.4" height="24.65" shape-rendering="crispEdges"/><rect fill="#121212" x="597.8" y="343.1" width="134.2" height="24.65" shape-rendering="crispEdges"/><rect fill="#121212" x="732" y="343.1" width="24.4" height="24.65" shape-rendering="crispEdges"/><rect fill="#121212" x="756.4" y="343.1" width="48.8" height="24.65" shape-rendering="crispEdges"/><rect fill="#121212" x="805.2" y="343.1" width="134.2" height="24.65" shape-rendering="crispEdges"/><rect fill="#121212" x="939.4" y="343.1" width="427" height="24.65" shape-rendering="crispEdges"/><rect fill="#121212" x="1366.4" y="343.1" width="12.2" height="24.65" shape-rendering="crispEdges"/><rect fill="#121212" x="0" y="367.5" width="12.2" height="24.65" shape-rendering="crispEdges"/><rect fill="#121212" x="12.2" y="367.5" width="134.2" height="24.65" shape-rendering="crispEdges"/><rect fill="#121212" x="146.4" y="367.5" width="231.8" height="24.65" shape-rendering="crispEdges"/><rect fill="#121212" x="378.2" y="367.5" width="134.2" height="24.65" shape-rendering="crispEdges"/><rect fill="#121212" x="512.4" y="367.5" width="61" height="24.65" shape-rendering="crispEdges"/><rect fill="#121212" x="573.4" y="367.5" width="158.6" height="24.65" shape-rendering="crispEdges"/><rect fill="#121212" x="732" y="367.5" width="24.4" height="24.65" shape-rendering="crispEdges"/><rect fill="#121212" x="756.4" y="367.5" width="183" height="24.65" shape-rendering="crispEdges"/><rect fill="#121212" x="939.4" y="367.5" width="427" height="24.65" shape-rendering="crispEdges"/><rect fill="#121212" x="1366.4" y="367.5" width="12.2" height="24.65" shape-rendering="crispEdges"/><rect fill="#121212" x="0" y="391.9" width="12.2" height="24.65" shape-rendering="crispEdges"/><rect fill="#121212" x="12.2" y="391.9" width="1354.2" height="24.65" shape-rendering="crispEdges"/><rect fill="#121212" x="1366.4" y="391.9" width="12.2" height="24.65" shape-rendering="crispEdges"/><rect fill="#121212" x="0" y="416.3" width="12.2" height="24.65" shape-rendering="crispEdges"/><rect fill="#121212" x="12.2" y="416.3" width="1354.2" height="24.65" shape-rendering="crispEdges"/><rect fill="#121212" x="1366.4" y="416.3" width="12.2" height="24.65" shape-rendering="crispEdges"/><rect fill="#121212" x="0" y="440.7" width="12.2" height="24.65" shape-rendering="crispEdges"/><rect fill="#121212" x="12.2" y="440.7" width="1354.2" height="24.65" shape-rendering="crispEdges"/><rect fill="#121212" x="1366.4" y="440.7" width="12.2" height="24.65" shape-rendering="crispEdges"/><rect fill="#121212" x="0" y="465.1" width="12.2" height="24.65" shape-rendering="crispEdges"/><rect fill="#121212" x="12.2" y="465.1" width="1354.2" height="24.65" shape-rendering="crispEdges"/><rect fill="#121212" x="1366.4" y="465.1" width="12.2" height="24.65" shape-rendering="crispEdges"/><rect fill="#121212" x="0" y="489.5" width="12.2" height="24.65" shape-rendering="crispEdges"/><rect fill="#121212" x="12.2" y="489.5" width="1354.2" height="24.65" shape-rendering="crispEdges"/><rect fill="#121212" x="1366.4" y="489.5" width="12.2" height="24.65" shape-rendering="crispEdges"/><rect fill="#121212" x="0" y="513.9" width="12.2" height="24.65" shape-rendering="crispEdges"/><rect fill="#121212" x="12.2" y="513.9" width="1354.2" height="24.65" shape-rendering="crispEdges"/><rect fill="#121212" x="1366.4" y="513.9" width="12.2" height="24.65" shape-rendering="crispEdges"/><rect fill="#121212" x="0" y="538.3" width="12.2" height="24.65" shape-rendering="crispEdges"/><rect fill="#121212" x="12.2" y="538.3" width="1354.2" height="24.65" shape-rendering="crispEdges"/><rect fill="#121212" x="1366.4" y="538.3" width="12.2" height="24.65" shape-rendering="crispEdges"/><rect fill="#121212" x="0" y="562.7" width="12.2" height="24.65" shape-rendering="crispEdges"/><rect fill="#121212" x="12.2" y="562.7" width="1354.2" height="24.65" shape-rendering="crispEdges"/><rect fill="#121212" x="1366.4" y="562.7" width="12.2" height="24.65" shape-rendering="crispEdges"/><rect fill="#121212" x="0" y="587.1" width="12.2" height="24.65" shape-rendering="crispEdges"/><rect fill="#121212" x="12.2" y="587.1" width="1354.2" height="24.65" shape-rendering="crispEdges"/><rect fill="#121212" x="1366.4" y="587.1" width="12.2" height="24.65" shape-rendering="crispEdges"/><rect fill="#121212" x="0" y="611.5" width="12.2" height="24.65" shape-rendering="crispEdges"/><rect fill="#121212" x="12.2" y="611.5" width="1354.2" height="24.65" shape-rendering="crispEdges"/><rect fill="#121212" x="1366.4" y="611.5" width="12.2" height="24.65" shape-rendering="crispEdges"/><rect fill="#121212" x="0" y="635.9" width="12.2" height="24.65" shape-rendering="crispEdges"/><rect fill="#121212" x="12.2" y="635.9" width="1354.2" height="24.65" shape-rendering="crispEdges"/><rect fill="#121212" x="1366.4" y="635.9" width="12.2" height="24.65" shape-rendering="crispEdges"/><rect fill="#121212" x="0" y="660.3" width="12.2" height="24.65" shape-rendering="crispEdges"/><rect fill="#121212" x="12.2" y="660.3" width="1354.2" height="24.65" shape-rendering="crispEdges"/><rect fill="#121212" x="1366.4" y="660.3" width="12.2" height="24.65" shape-rendering="crispEdges"/><rect fill="#121212" x="0" y="684.7" width="12.2" height="24.65" shape-rendering="crispEdges"/><rect fill="#121212" x="12.2" y="684.7" width="1354.2" height="24.65" shape-rendering="crispEdges"/><rect fill="#121212" x="1366.4" y="684.7" width="12.2" height="24.65" shape-rendering="crispEdges"/><rect fill="#121212" x="0" y="709.1" width="12.2" height="24.65" shape-rendering="crispEdges"/><rect fill="#121212" x="12.2" y="709.1" width="1354.2" height="24.65" shape-rendering="crispEdges"/><rect fill="#121212" x="1366.4" y="709.1" width="12.2" height="24.65" shape-rendering="crispEdges"/><rect fill="#121212" x="0" y="733.5" width="12.2" height="24.65" shape-rendering="crispEdges"/><rect fill="#121212" x="12.2" y="733.5" width="1354.2" height="24.65" shape-rendering="crispEdges"/><rect fill="#121212" x="1366.4" y="733.5" width="12.2" height="24.65" shape-rendering="crispEdges"/><rect fill="#121212" x="0" y="757.9" width="12.2" height="24.65" shape-rendering="crispEdges"/><rect fill="#121212" x="12.2" y="757.9" width="1354.2" height="24.65" shape-rendering="crispEdges"/><rect fill="#121212" x="1366.4" y="757.9" width="12.2" height="24.65" shape-rendering="crispEdges"/><rect fill="#121212" x="0" y="782.3" width="1378.6" height="24.65" shape-rendering="crispEdges"/><rect fill="#2d2d2d" x="0" y="806.7" width="36.6" height="24.65" shape-rendering="crispEdges"/><rect fill="#2d2d2d" x="36.6" y="806.7" width="134.2" height="24.65" shape-rendering="crispEdges"/><rect fill="#2d2d2d" x="170.8" y="806.7" width="36.6" height="24.65" shape-rendering="crispEdges"/><rect fill="#2d2d2d" x="207.4" y="806.7" width="170.8" height="24.65" shape-rendering="crispEdges"/><rect fill="#2d2d2d" x="378.2" y="806.7" width="36.6" height="24.65" shape-rendering="crispEdges"/><rect fill="#2d2d2d" x="414.8" y="806.7" width="231.8" height="24.65" shape-rendering="crispEdges"/><rect fill="#2d2d2d" x="646.6" y="806.7" width="48.8" height="24.65" shape-rendering="crispEdges"/><rect fill="#2d2d2d" x="695.4" y="806.7" width="122" height="24.65" shape-rendering="crispEdges"/><rect fill="#2d2d2d" x="817.4" y="806.7" width="61" height="24.65" shape-rendering="crispEdges"/><rect fill="#2d2d2d" x="878.4" y="806.7" width="97.6" height="24.65" shape-rendering="crispEdges"/><rect fill="#2d2d2d" x="976" y="806.7" width="36.6" height="24.65" shape-rendering="crispEdges"/><rect fill="#2d2d2d" x="1012.6" y="806.7" width="61" height="24.65" shape-rendering="crispEdges"/><rect fill="#2d2d2d" x="1073.6" y="806.7" width="158.6" height="24.65" shape-rendering="crispEdges"/><rect fill="#2d2d2d" x="1232.2" y="806.7" width="12.2" height="24.65" shape-rendering="crispEdges"/><rect fill="#2d2d2d" x="1244.4" y="806.7" width="24.4" height="24.65" shape-rendering="crispEdges"/><rect fill="#2d2d2d" x="1268.8" y="806.7" width="97.6" height="24.65" shape-rendering="crispEdges"/><rect fill="#2d2d2d" x="1366.4" y="806.7" width="12.2" height="24.65" shape-rendering="crispEdges"/>
    <g class="terminal-1242672424-matrix">
    <text class="terminal-1242672424-r2" x="12.2" y="20" textLength="24.4" clip-path="url(#terminal-1242672424-line-0)">👁️</text><text class="terminal-1242672424-r2" x="439.2" y="20" textLength="85.4" clip-path="url(#terminal-1242672424-line-0)">Iolanta</text><text class="terminal-1242672424-r3" x="524.6" y="20" textLength="36.6" clip-path="url(#terminal-1242672424-line-0)">&#160;—&#160;</text><text class="terminal-1242672424-r3" x="561.2" y="20" textLength="353.8" clip-path="url(#terminal-1242672424-line-0)">http://www.w3.org/ns/json-ld#</text><text class="terminal-1242672424-r1" x="1378.6" y="20" textLength="12.2" clip-path="url(#terminal-1242672424-line-0)">
</text><text class="terminal-1242672424-r1" x="1378.6" y="44.4" textLength="12.2" clip-path="url(#terminal-1242672424-line-1)">
</text><text class="terminal-1242672424-r4" x="12.2" y="68.8" textLength="85.4" clip-path="url(#terminal-1242672424-line-2)">JSON-LD</text><text class="terminal-1242672424-r1" x="1378.6" y="68.8" textLength="12.2" clip-path="url(#terminal-1242672424-line-2)">
</text><text class="terminal-1242672424-r1" x="1378.6" y="93.2" textLength="12.2" clip-path="url(#terminal-1242672424-line-3)">
</text><text class="terminal-1242672424-r1" x="1378.6" y="117.6" textLength="12.2" clip-path="url(#terminal-1242672424-line-4)">
</text><text class="terminal-1242672424-r5" x="12.2" y="142" textLength="97.6" clip-path="url(#terminal-1242672424-line-5)">Keywords</text><text class="terminal-1242672424-r5" x="146.4" y="142" textLength="85.4" clip-path="url(#terminal-1242672424-line-5)">Classes</text><text class="terminal-1242672424-r5" x="378.2" y="142" textLength="97.6" clip-path="url(#terminal-1242672424-line-5)">Profiles</text><text class="terminal-1242672424-r5" x="512.4" y="142" textLength="219.6" clip-path="url(#terminal-1242672424-line-5)">Context&#160;Properties</text><text class="terminal-1242672424-r5" x="756.4" y="142" textLength="183" clip-path="url(#terminal-1242672424-line-5)">Term&#160;Properties</text><text class="terminal-1242672424-r1" x="1378.6" y="142" textLength="12.2" clip-path="url(#terminal-1242672424-line-5)">
</text><text class="terminal-1242672424-r1" x="1378.6" y="166.4" textLength="12.2" clip-path="url(#terminal-1242672424-line-6)">
</text><text class="terminal-1242672424-r6" x="12.2" y="190.8" textLength="73.2" clip-path="url(#terminal-1242672424-line-7)">@graph</text><text class="terminal-1242672424-r6" x="146.4" y="190.8" textLength="85.4" clip-path="url(#terminal-1242672424-line-7)">Context</text><text class="terminal-1242672424-r6" x="378.2" y="190.8" textLength="109.8" clip-path="url(#terminal-1242672424-line-7)">compacted</text><text class="terminal-1242672424-r6" x="512.4" y="190.8" textLength="48.8" clip-path="url(#terminal-1242672424-line-7)">base</text><text class="terminal-1242672424-r6" x="756.4" y="190.8" textLength="109.8" clip-path="url(#terminal-1242672424-line-7)">container</text><text class="terminal-1242672424-r1" x="1378.6" y="190.8" textLength="12.2" clip-path="url(#terminal-1242672424-line-7)">
</text><text class="terminal-1242672424-r6" x="12.2" y="215.2" textLength="36.6" clip-path="url(#terminal-1242672424-line-8)">@id</text><text class="terminal-1242672424-r6" x="146.4" y="215.2" textLength="207.4" clip-path="url(#terminal-1242672424-line-8)">Prefix&#160;Definition</text><text class="terminal-1242672424-r6" x="378.2" y="215.2" textLength="97.6" clip-path="url(#terminal-1242672424-line-8)">expanded</text><text class="terminal-1242672424-r6" x="512.4" y="215.2" textLength="85.4" clip-path="url(#terminal-1242672424-line-8)">context</text><text class="terminal-1242672424-r6" x="756.4" y="215.2" textLength="24.4" clip-path="url(#terminal-1242672424-line-8)">id</text><text class="terminal-1242672424-r1" x="1378.6" y="215.2" textLength="12.2" clip-path="url(#terminal-1242672424-line-8)">
</text><text class="terminal-1242672424-r6" x="12.2" y="239.6" textLength="73.2" clip-path="url(#terminal-1242672424-line-9)">@index</text><text class="terminal-1242672424-r6" x="146.4" y="239.6" textLength="183" clip-path="url(#terminal-1242672424-line-9)">Term&#160;Definition</text><text class="terminal-1242672424-r6" x="378.2" y="239.6" textLength="109.8" clip-path="url(#terminal-1242672424-line-9)">flattened</text><text class="terminal-1242672424-r6" x="512.4" y="239.6" textLength="122" clip-path="url(#terminal-1242672424-line-9)">definition</text><text class="terminal-1242672424-r6" x="756.4" y="239.6" textLength="48.8" clip-path="url(#terminal-1242672424-line-9)">nest</text><text class="terminal-1242672424-r1" x="1378.6" y="239.6" textLength="12.2" clip-path="url(#terminal-1242672424-line-9)">
</text><text class="terminal-1242672424-r6" x="12.2" y="264" textLength="109.8" clip-path="url(#terminal-1242672424-line-10)">@language</text><text class="terminal-1242672424-r6" x="378.2" y="264" textLength="61" clip-path="url(#terminal-1242672424-line-10)">frame</text><text class="terminal-1242672424-r6" x="512.4" y="264" textLength="109.8" clip-path="url(#terminal-1242672424-line-10)">direction</text><text class="terminal-1242672424-r6" x="756.4" y="264" textLength="73.2" clip-path="url(#terminal-1242672424-line-10)">prefix</text><text class="terminal-1242672424-r1" x="1378.6" y="264" textLength="12.2" clip-path="url(#terminal-1242672424-line-10)">
</text><text class="terminal-1242672424-r6" x="12.2" y="288.4" textLength="61" clip-path="url(#terminal-1242672424-line-11)">@list</text><text class="terminal-1242672424-r6" x="378.2" y="288.4" textLength="73.2" clip-path="url(#terminal-1242672424-line-11)">framed</text><text class="terminal-1242672424-r6" x="512.4" y="288.4" textLength="73.2" clip-path="url(#terminal-1242672424-line-11)">import</text><text class="terminal-1242672424-r6" x="756.4" y="288.4" textLength="109.8" clip-path="url(#terminal-1242672424-line-11)">protected</text><text class="terminal-1242672424-r1" x="1378.6" y="288.4" textLength="12.2" clip-path="url(#terminal-1242672424-line-11)">
</text><text class="terminal-1242672424-r6" x="12.2" y="312.8" textLength="48.8" clip-path="url(#terminal-1242672424-line-12)">@set</text><text class="terminal-1242672424-r6" x="378.2" y="312.8" textLength="109.8" clip-path="url(#terminal-1242672424-line-12)">streaming</text><text class="terminal-1242672424-r6" x="512.4" y="312.8" textLength="97.6" clip-path="url(#terminal-1242672424-line-12)">language</text><text class="terminal-1242672424-r6" x="756.4" y="312.8" textLength="85.4" clip-path="url(#terminal-1242672424-line-12)">reverse</text><text class="terminal-1242672424-r1" x="1378.6" y="312.8" textLength="12.2" clip-path="url(#terminal-1242672424-line-12)">
</text><text class="terminal-1242672424-r6" x="12.2" y="337.2" textLength="61" clip-path="url(#terminal-1242672424-line-13)">@type</text><text class="terminal-1242672424-r6" x="512.4" y="337.2" textLength="109.8" clip-path="url(#terminal-1242672424-line-13)">propagate</text><text class="terminal-1242672424-r6" x="756.4" y="337.2" textLength="48.8" clip-path="url(#terminal-1242672424-line-13)">term</text><text class="terminal-1242672424-r1" x="1378.6" y="337.2" textLength="12.2" clip-path="url(#terminal-1242672424-line-13)">
</text><text class="terminal-1242672424-r6" x="512.4" y="361.6" textLength="85.4" clip-path="url(#terminal-1242672424-line-14)">version</text><text class="terminal-1242672424-r6" x="756.4" y="361.6" textLength="48.8" clip-path="url(#terminal-1242672424-line-14)">type</text><text class="terminal-1242672424-r1" x="1378.6" y="361.6" textLength="12.2" clip-path="url(#terminal-1242672424-line-14)">
</text><text class="terminal-1242672424-r6" x="512.4" y="386" textLength="61" clip-path="url(#terminal-1242672424-line-15)">vocab</text><text class="terminal-1242672424-r1" x="1378.6" y="386" textLength="12.2" clip-path="url(#terminal-1242672424-line-15)">
</text><text class="terminal-1242672424-r1" x="1378.6" y="410.4" textLength="12.2" clip-path="url(#terminal-1242672424-line-16)">
</text><text class="terminal-1242672424-r1" x="1378.6" y="434.8" textLength="12.2" clip-path="url(#terminal-1242672424-line-17)">
</text><text class="terminal-1242672424-r1" x="1378.6" y="459.2" textLength="12.2" clip-path="url(#terminal-1242672424-line-18)">
</text><text class="terminal-1242672424-r1" x="1378.6" y="483.6" textLength="12.2" clip-path="url(#terminal-1242672424-line-19)">
</text><text class="terminal-1242672424-r1" x="1378.6" y="508" textLength="12.2" clip-path="url(#terminal-1242672424-line-20)">
</text><text class="terminal-1242672424-r1" x="1378.6" y="532.4" textLength="12.2" clip-path="url(#terminal-1242672424-line-21)">
</text><text class="terminal-1242672424-r1" x="1378.6" y="556.8" textLength="12.2" clip-path="url(#terminal-1242672424-line-22)">
</text><text class="terminal-1242672424-r1" x="1378.6" y="581.2" textLength="12.2" clip-path="url(#terminal-1242672424-line-23)">
</text><text class="terminal-1242672424-r1" x="1378.6" y="605.6" textLength="12.2" clip-path="url(#terminal-1242672424-line-24)">
</text><text class="terminal-1242672424-r1" x="1378.6" y="630" textLength="12.2" clip-path="url(#terminal-1242672424-line-25)">
</text><text class="terminal-1242672424-r1" x="1378.6" y="654.4" textLength="12.2" clip-path="url(#terminal-1242672424-line-26)">
</text><text class="terminal-1242672424-r1" x="1378.6" y="678.8" textLength="12.2" clip-path="url(#terminal-1242672424-line-27)">
</text><text class="terminal-1242672424-r1" x="1378.6" y="703.2" textLength="12.2" clip-path="url(#terminal-1242672424-line-28)">
</text><text class="terminal-1242672424-r1" x="1378.6" y="727.6" textLength="12.2" clip-path="url(#terminal-1242672424-line-29)">
</text><text class="terminal-1242672424-r1" x="1378.6" y="752" textLength="12.2" clip-path="url(#terminal-1242672424-line-30)">
</text><text class="terminal-1242672424-r1" x="1378.6" y="776.4" textLength="12.2" clip-path="url(#terminal-1242672424-line-31)">
</text><text class="terminal-1242672424-r1" x="1378.6" y="800.8" textLength="12.2" clip-path="url(#terminal-1242672424-line-32)">
</text><text class="terminal-1242672424-r7" x="0" y="825.2" textLength="36.6" clip-path="url(#terminal-1242672424-line-33)">&#160;1&#160;</text><text class="terminal-1242672424-r2" x="36.6" y="825.2" textLength="134.2" clip-path="url(#terminal-1242672424-line-33)">Properties&#160;</text><text class="terminal-1242672424-r7" x="170.8" y="825.2" textLength="36.6" clip-path="url(#terminal-1242672424-line-33)">&#160;2&#160;</text><text class="terminal-1242672424-r2" x="207.4" y="825.2" textLength="170.8" clip-path="url(#terminal-1242672424-line-33)">Graph&#160;Triples&#160;</text><text class="terminal-1242672424-r7" x="378.2" y="825.2" textLength="36.6" clip-path="url(#terminal-1242672424-line-33)">&#160;3&#160;</text><text class="terminal-1242672424-r2" x="414.8" y="825.2" textLength="231.8" clip-path="url(#terminal-1242672424-line-33)">Inverse&#160;Properties&#160;</text><text class="terminal-1242672424-r7" x="646.6" y="825.2" textLength="48.8" clip-path="url(#terminal-1242672424-line-33)">&#160;f5&#160;</text><text class="terminal-1242672424-r2" x="695.4" y="825.2" textLength="109.8" clip-path="url(#terminal-1242672424-line-33)">🔄&#160;Reload&#160;</text><text class="terminal-1242672424-r7" x="817.4" y="825.2" textLength="61" clip-path="url(#terminal-1242672424-line-33)">&#160;f12&#160;</text><text class="terminal-1242672424-r2" x="878.4" y="825.2" textLength="97.6" clip-path="url(#terminal-1242672424-line-33)">Console&#160;</text><text class="terminal-1242672424-r7" x="976" y="825.2" textLength="36.6" clip-path="url(#terminal-1242672424-line-33)">&#160;q&#160;</text><text class="terminal-1242672424-r2" x="1012.6" y="825.2" textLength="61" clip-path="url(#terminal-1242672424-line-33)">Quit&#160;</text><text class="terminal-1242672424-r8" x="1232.2" y="825.2" textLength="12.2" clip-path="url(#terminal-1242672424-line-33)">▏</text><text class="terminal-1242672424-r7" x="1244.4" y="825.2" textLength="24.4" clip-path="url(#terminal-1242672424-line-33)">^p</text><text class="terminal-1242672424-r2" x="1268.8" y="825.2" textLength="97.6" clip-path="url(#terminal-1242672424-line-33)">&#160;palette</text>
    </g>
    </g>
</svg>
